<svg width="1171" height="89" viewBox="0 0 1171 89" fill="none" xmlns="http://www.w3.org/2000/svg">
<g clip-path="url(#clip0_21046_379)">
<mask id="path-2-inside-1_21046_379" fill="white">
<path d="M78.4631 37.2245L94.6793 44.8291C96.9166 45.8765 98.034 46.401 99.2421 46.6053C100.311 46.785 101.424 46.785 102.49 46.6053C103.698 46.401 104.816 45.8765 107.053 44.8291L123.269 37.2245M89.6147 56.4827H112.117C116.021 56.4827 117.972 56.4827 119.464 55.9484C120.774 55.4782 121.839 54.7283 122.507 53.8062C123.269 52.7572 123.269 51.3847 123.269 48.6396V39.816C123.269 37.0709 123.269 35.6984 122.509 34.6494C121.841 33.727 120.775 32.9772 119.464 32.5072C117.972 31.9729 116.021 31.9729 112.117 31.9729H89.6147C85.7116 31.9729 83.7601 31.9729 82.2686 32.5072C80.9581 32.9775 79.8927 33.7273 79.2252 34.6494C78.4631 35.6984 78.4631 37.0709 78.4631 39.816V48.6396C78.4631 51.3847 78.4631 52.7572 79.2228 53.8062C79.891 54.7286 80.9572 55.4784 82.2686 55.9484C83.7601 56.4827 85.7116 56.4827 89.6147 56.4827Z"/>
</mask>
<path d="M78.4631 37.2245L94.6793 44.8291C96.9166 45.8765 98.034 46.401 99.2421 46.6053C100.311 46.785 101.424 46.785 102.49 46.6053C103.698 46.401 104.816 45.8765 107.053 44.8291L123.269 37.2245M89.6147 56.4827H112.117C116.021 56.4827 117.972 56.4827 119.464 55.9484C120.774 55.4782 121.839 54.7283 122.507 53.8062C123.269 52.7572 123.269 51.3847 123.269 48.6396V39.816C123.269 37.0709 123.269 35.6984 122.509 34.6494C121.841 33.727 120.775 32.9772 119.464 32.5072C117.972 31.9729 116.021 31.9729 112.117 31.9729H89.6147C85.7116 31.9729 83.7601 31.9729 82.2686 32.5072C80.9581 32.9775 79.8927 33.7273 79.2252 34.6494C78.4631 35.6984 78.4631 37.0709 78.4631 39.816V48.6396C78.4631 51.3847 78.4631 52.7572 79.2228 53.8062C79.891 54.7286 80.9572 55.4784 82.2686 55.9484C83.7601 56.4827 85.7116 56.4827 89.6147 56.4827Z" fill="#004C78"/>
<path d="M79.1 35.8665C78.35 35.5147 77.4568 35.8376 77.1051 36.5877C76.7533 37.3377 77.0762 38.2309 77.8263 38.5826L79.1 35.8665ZM94.6793 44.8291L94.0424 46.1872L94.0433 46.1876L94.6793 44.8291ZM99.2421 46.6053L98.9921 48.0843L98.9933 48.0845L99.2421 46.6053ZM102.49 46.6053L102.739 48.0844L102.74 48.0843L102.49 46.6053ZM107.053 44.8291L107.689 46.1876L107.69 46.1872L107.053 44.8291ZM123.906 38.5826C124.656 38.2309 124.979 37.3377 124.627 36.5877C124.275 35.8376 123.382 35.5147 122.632 35.8665L123.906 38.5826ZM119.464 55.9484L119.969 57.3605L119.97 57.3603L119.464 55.9484ZM122.507 53.8062L121.293 52.9247L121.292 52.9266L122.507 53.8062ZM122.509 34.6494L123.724 33.7696L123.724 33.7693L122.509 34.6494ZM119.464 32.5072L119.97 31.0952L119.969 31.0951L119.464 32.5072ZM82.2686 32.5072L81.7627 31.0951L81.762 31.0954L82.2686 32.5072ZM79.2252 34.6494L80.4388 35.5309L80.4401 35.529L79.2252 34.6494ZM79.2228 53.8062L78.008 54.686L78.0081 54.6863L79.2228 53.8062ZM82.2686 55.9484L81.7625 57.3605L81.7627 57.3605L82.2686 55.9484ZM77.8263 38.5826L94.0424 46.1872L95.3162 43.471L79.1 35.8665L77.8263 38.5826ZM94.0433 46.1876C96.2078 47.2009 97.5365 47.8382 98.9921 48.0843L99.4922 45.1262C98.5316 44.9638 97.6253 44.5521 95.3153 43.4706L94.0433 46.1876ZM98.9933 48.0845C100.227 48.2919 101.508 48.292 102.739 48.0844L102.241 45.1261C101.34 45.278 100.395 45.2781 99.4909 45.126L98.9933 48.0845ZM102.74 48.0843C104.196 47.8382 105.524 47.2009 107.689 46.1876L106.417 43.4706C104.107 44.5521 103.201 44.9638 102.24 45.1262L102.74 48.0843ZM107.69 46.1872L123.906 38.5826L122.632 35.8665L106.416 43.471L107.69 46.1872ZM89.6147 57.9827H112.117V54.9827H89.6147V57.9827ZM112.117 57.9827C114.052 57.9827 115.566 57.9833 116.781 57.9134C118.003 57.8432 119.028 57.6978 119.969 57.3605L118.958 54.5363C118.408 54.7333 117.711 54.8551 116.609 54.9184C115.5 54.9821 114.086 54.9827 112.117 54.9827V57.9827ZM119.97 57.3603C121.501 56.811 122.841 55.9026 123.722 54.6859L121.292 52.9266C120.838 53.554 120.047 54.1453 118.957 54.5365L119.97 57.3603ZM123.721 54.6878C124.306 53.8819 124.551 52.9979 124.664 52.0326C124.771 51.1084 124.769 49.977 124.769 48.6396H121.769C121.769 50.0472 121.767 50.9746 121.684 51.6853C121.606 52.3548 121.47 52.6816 121.293 52.9247L123.721 54.6878ZM124.769 48.6396V39.816H121.769V48.6396H124.769ZM124.769 39.816C124.769 38.4785 124.771 37.3474 124.664 36.4236C124.552 35.4589 124.308 34.5753 123.724 33.7696L121.294 35.5292C121.471 35.7724 121.606 36.0997 121.684 36.7698C121.767 37.4808 121.769 38.4085 121.769 39.816H124.769ZM123.724 33.7693C122.842 32.5524 121.501 31.644 119.97 31.0952L118.957 33.9193C120.049 34.3103 120.84 34.9017 121.295 35.5294L123.724 33.7693ZM119.969 31.0951C119.028 30.7578 118.003 30.6124 116.781 30.5422C115.566 30.4723 114.052 30.4729 112.117 30.4729V33.4729C114.086 33.4729 115.5 33.4735 116.609 33.5372C117.711 33.6005 118.408 33.7223 118.958 33.9193L119.969 31.0951ZM112.117 30.4729H89.6147V33.4729H112.117V30.4729ZM89.6147 30.4729C87.6806 30.4729 86.1665 30.4723 84.9512 30.5422C83.7289 30.6124 82.7043 30.7578 81.7627 31.0951L82.7745 33.9193C83.3243 33.7223 84.0214 33.6005 85.1234 33.5372C86.2325 33.4735 87.6457 33.4729 89.6147 33.4729V30.4729ZM81.762 31.0954C80.2313 31.6446 78.8911 32.553 78.0102 33.7697L80.4401 35.529C80.8944 34.9016 81.6849 34.3103 82.7752 33.9191L81.762 31.0954ZM78.0116 33.7678C77.4261 34.5737 77.181 35.4577 77.0685 36.4231C76.9608 37.3472 76.9631 38.4786 76.9631 39.816H79.9631C79.9631 38.4084 79.9655 37.481 80.0483 36.7703C80.1263 36.1008 80.2622 35.774 80.4388 35.5309L78.0116 33.7678ZM76.9631 39.816V48.6396H79.9631V39.816H76.9631ZM76.9631 48.6396C76.9631 49.9771 76.9608 51.1082 77.0681 52.032C77.1802 52.9968 77.4244 53.8803 78.008 54.686L80.4377 52.9264C80.2616 52.6832 80.1259 52.3559 80.0481 51.6858C79.9655 50.9748 79.9631 50.0471 79.9631 48.6396H76.9631ZM78.0081 54.6863C78.8897 55.9032 80.2309 56.8116 81.7625 57.3605L82.7746 54.5363C81.6835 54.1453 80.8923 53.5539 80.4376 52.9262L78.0081 54.6863ZM81.7627 57.3605C82.7043 57.6978 83.7289 57.8432 84.9512 57.9134C86.1665 57.9833 87.6806 57.9827 89.6147 57.9827V54.9827C87.6457 54.9827 86.2325 54.9821 85.1234 54.9184C84.0214 54.8551 83.3243 54.7333 82.7745 54.5363L81.7627 57.3605Z" fill="#EDF5FA" mask="url(#path-2-inside-1_21046_379)"/>
</g>
<path d="M131.029 43.7071C131.305 43.0951 131.725 42.6211 132.289 42.2851C132.865 41.9491 133.567 41.7811 134.395 41.7811V43.0951H134.053C133.141 43.0951 132.409 43.3411 131.857 43.8331C131.305 44.3251 131.029 45.1471 131.029 46.2991V51.7891H129.769V41.9611H131.029V43.7071ZM136.074 46.8751C136.074 45.8551 136.278 44.9671 136.686 44.2111C137.094 43.4431 137.658 42.8551 138.378 42.4471C139.098 42.0271 139.92 41.8171 140.844 41.8171C142.056 41.8171 143.052 42.1171 143.832 42.7171C144.624 43.3171 145.134 44.1331 145.362 45.1651H144.012C143.844 44.4571 143.478 43.9051 142.914 43.5091C142.362 43.1011 141.672 42.8971 140.844 42.8971C140.184 42.8971 139.59 43.0471 139.062 43.3471C138.534 43.6471 138.114 44.0971 137.802 44.6971C137.502 45.2851 137.352 46.0111 137.352 46.8751C137.352 47.7391 137.502 48.4711 137.802 49.0711C138.114 49.6711 138.534 50.1211 139.062 50.4211C139.59 50.7211 140.184 50.8711 140.844 50.8711C141.672 50.8711 142.362 50.6731 142.914 50.2771C143.478 49.8691 143.844 49.3051 144.012 48.5851H145.362C145.134 49.5931 144.624 50.4031 143.832 51.0151C143.04 51.6271 142.044 51.9331 140.844 51.9331C139.92 51.9331 139.098 51.7291 138.378 51.3211C137.658 50.9011 137.094 50.3131 136.686 49.5571C136.278 48.7891 136.074 47.8951 136.074 46.8751ZM152.729 41.7811C153.473 41.7811 154.139 41.9371 154.727 42.2491C155.327 42.5611 155.795 43.0411 156.131 43.6891C156.479 44.3251 156.653 45.1051 156.653 46.0291V51.7891H155.411V46.1731C155.411 45.1051 155.141 44.2891 154.601 43.7251C154.073 43.1611 153.347 42.8791 152.423 42.8791C151.475 42.8791 150.719 43.1791 150.155 43.7791C149.591 44.3791 149.309 45.2611 149.309 46.4251V51.7891H148.049V38.4691H149.309V43.6351C149.621 43.0471 150.077 42.5911 150.677 42.2671C151.289 41.9431 151.973 41.7811 152.729 41.7811ZM168.692 46.3711C168.692 46.8031 168.68 47.1331 168.656 47.3611H160.502C160.538 48.1051 160.718 48.7411 161.042 49.2691C161.366 49.7971 161.792 50.1991 162.32 50.4751C162.848 50.7391 163.424 50.8711 164.048 50.8711C164.864 50.8711 165.548 50.6731 166.1 50.2771C166.664 49.8811 167.036 49.3471 167.216 48.6751H168.548C168.308 49.6351 167.792 50.4211 167 51.0331C166.22 51.6331 165.236 51.9331 164.048 51.9331C163.124 51.9331 162.296 51.7291 161.564 51.3211C160.832 50.9011 160.256 50.3131 159.836 49.5571C159.428 48.7891 159.224 47.8951 159.224 46.8751C159.224 45.8551 159.428 44.9611 159.836 44.1931C160.244 43.4251 160.814 42.8371 161.546 42.4291C162.278 42.0211 163.112 41.8171 164.048 41.8171C164.984 41.8171 165.8 42.0211 166.496 42.4291C167.204 42.8371 167.744 43.3891 168.116 44.0851C168.5 44.7691 168.692 45.5311 168.692 46.3711ZM167.414 46.3351C167.426 45.6031 167.276 44.9791 166.964 44.4631C166.664 43.9471 166.25 43.5571 165.722 43.2931C165.194 43.0291 164.618 42.8971 163.994 42.8971C163.058 42.8971 162.26 43.1971 161.6 43.7971C160.94 44.3971 160.574 45.2431 160.502 46.3351H167.414ZM172.617 38.4691V51.7891H171.357V38.4691H172.617ZM176.046 51.8791C175.782 51.8791 175.56 51.7891 175.38 51.6091C175.212 51.4291 175.128 51.2071 175.128 50.9431C175.128 50.6791 175.212 50.4631 175.38 50.2951C175.56 50.1151 175.782 50.0251 176.046 50.0251C176.298 50.0251 176.508 50.1151 176.676 50.2951C176.856 50.4631 176.946 50.6791 176.946 50.9431C176.946 51.2071 176.856 51.4291 176.676 51.6091C176.508 51.7891 176.298 51.8791 176.046 51.8791ZM191.16 41.7811C192.312 41.7811 193.248 42.1471 193.968 42.8791C194.7 43.5991 195.066 44.6491 195.066 46.0291V51.7891H193.824V46.1731C193.824 45.1051 193.566 44.2891 193.05 43.7251C192.534 43.1611 191.832 42.8791 190.944 42.8791C190.02 42.8791 189.282 43.1851 188.73 43.7971C188.178 44.4091 187.902 45.2971 187.902 46.4611V51.7891H186.66V46.1731C186.66 45.1051 186.402 44.2891 185.886 43.7251C185.37 43.1611 184.662 42.8791 183.762 42.8791C182.838 42.8791 182.1 43.1851 181.548 43.7971C180.996 44.4091 180.72 45.2971 180.72 46.4611V51.7891H179.46V41.9611H180.72V43.6531C181.032 43.0411 181.476 42.5791 182.052 42.2671C182.628 41.9431 183.27 41.7811 183.978 41.7811C184.83 41.7811 185.574 41.9851 186.21 42.3931C186.858 42.8011 187.326 43.4011 187.614 44.1931C187.878 43.4131 188.328 42.8191 188.964 42.4111C189.612 41.9911 190.344 41.7811 191.16 41.7811ZM209.924 41.7811C211.076 41.7811 212.012 42.1471 212.732 42.8791C213.464 43.5991 213.83 44.6491 213.83 46.0291V51.7891H212.588V46.1731C212.588 45.1051 212.33 44.2891 211.814 43.7251C211.298 43.1611 210.596 42.8791 209.708 42.8791C208.784 42.8791 208.046 43.1851 207.494 43.7971C206.942 44.4091 206.666 45.2971 206.666 46.4611V51.7891H205.424V46.1731C205.424 45.1051 205.166 44.2891 204.65 43.7251C204.134 43.1611 203.426 42.8791 202.526 42.8791C201.602 42.8791 200.864 43.1851 200.312 43.7971C199.76 44.4091 199.484 45.2971 199.484 46.4611V51.7891H198.224V41.9611H199.484V43.6531C199.796 43.0411 200.24 42.5791 200.816 42.2671C201.392 41.9431 202.034 41.7811 202.742 41.7811C203.594 41.7811 204.338 41.9851 204.974 42.3931C205.622 42.8011 206.09 43.4011 206.378 44.1931C206.642 43.4131 207.092 42.8191 207.728 42.4111C208.376 41.9911 209.108 41.7811 209.924 41.7811ZM221.29 51.9331C220.366 51.9331 219.532 51.7291 218.788 51.3211C218.056 50.9011 217.474 50.3131 217.042 49.5571C216.622 48.7891 216.412 47.8951 216.412 46.8751C216.412 45.8551 216.628 44.9671 217.06 44.2111C217.492 43.4431 218.08 42.8551 218.824 42.4471C219.568 42.0271 220.402 41.8171 221.326 41.8171C222.25 41.8171 223.084 42.0271 223.828 42.4471C224.584 42.8551 225.172 43.4431 225.592 44.2111C226.024 44.9671 226.24 45.8551 226.24 46.8751C226.24 47.8831 226.024 48.7711 225.592 49.5391C225.16 50.3071 224.566 50.9011 223.81 51.3211C223.054 51.7291 222.214 51.9331 221.29 51.9331ZM221.29 50.8351C221.938 50.8351 222.538 50.6911 223.09 50.4031C223.642 50.1031 224.086 49.6591 224.422 49.0711C224.77 48.4711 224.944 47.7391 224.944 46.8751C224.944 46.0111 224.776 45.2851 224.44 44.6971C224.104 44.0971 223.66 43.6531 223.108 43.3651C222.556 43.0651 221.956 42.9151 221.308 42.9151C220.66 42.9151 220.06 43.0651 219.508 43.3651C218.956 43.6531 218.512 44.0971 218.176 44.6971C217.852 45.2851 217.69 46.0111 217.69 46.8751C217.69 47.7391 217.852 48.4711 218.176 49.0711C218.512 49.6591 218.95 50.1031 219.49 50.4031C220.042 50.6911 220.642 50.8351 221.29 50.8351ZM230.157 43.7071C230.433 43.0951 230.853 42.6211 231.417 42.2851C231.993 41.9491 232.695 41.7811 233.523 41.7811V43.0951H233.181C232.269 43.0951 231.537 43.3411 230.985 43.8331C230.433 44.3251 230.157 45.1471 230.157 46.2991V51.7891H228.897V41.9611H230.157V43.7071ZM244.671 46.3711C244.671 46.8031 244.659 47.1331 244.635 47.3611H236.481C236.517 48.1051 236.697 48.7411 237.021 49.2691C237.345 49.7971 237.771 50.1991 238.299 50.4751C238.827 50.7391 239.403 50.8711 240.027 50.8711C240.843 50.8711 241.527 50.6731 242.079 50.2771C242.643 49.8811 243.015 49.3471 243.195 48.6751H244.527C244.287 49.6351 243.771 50.4211 242.979 51.0331C242.199 51.6331 241.215 51.9331 240.027 51.9331C239.103 51.9331 238.275 51.7291 237.543 51.3211C236.811 50.9011 236.235 50.3131 235.815 49.5571C235.407 48.7891 235.203 47.8951 235.203 46.8751C235.203 45.8551 235.407 44.9611 235.815 44.1931C236.223 43.4251 236.793 42.8371 237.525 42.4291C238.257 42.0211 239.091 41.8171 240.027 41.8171C240.963 41.8171 241.779 42.0211 242.475 42.4291C243.183 42.8371 243.723 43.3891 244.095 44.0851C244.479 44.7691 244.671 45.5311 244.671 46.3711ZM243.393 46.3351C243.405 45.6031 243.255 44.9791 242.943 44.4631C242.643 43.9471 242.229 43.5571 241.701 43.2931C241.173 43.0291 240.597 42.8971 239.973 42.8971C239.037 42.8971 238.239 43.1971 237.579 43.7971C236.919 44.3971 236.553 45.2431 236.481 46.3351H243.393ZM251.944 41.7811C253.12 41.7811 254.08 42.1471 254.824 42.8791C255.568 43.5991 255.94 44.6491 255.94 46.0291V51.7891H254.698V46.1731C254.698 45.1051 254.428 44.2891 253.888 43.7251C253.36 43.1611 252.634 42.8791 251.71 42.8791C250.762 42.8791 250.006 43.1791 249.442 43.7791C248.878 44.3791 248.596 45.2611 248.596 46.4251V51.7891H247.336V41.9611H248.596V43.6351C248.908 43.0351 249.358 42.5791 249.946 42.2671C250.534 41.9431 251.2 41.7811 251.944 41.7811ZM263.389 51.9331C262.465 51.9331 261.631 51.7291 260.887 51.3211C260.155 50.9011 259.573 50.3131 259.141 49.5571C258.721 48.7891 258.511 47.8951 258.511 46.8751C258.511 45.8551 258.727 44.9671 259.159 44.2111C259.591 43.4431 260.179 42.8551 260.923 42.4471C261.667 42.0271 262.501 41.8171 263.425 41.8171C264.349 41.8171 265.183 42.0271 265.927 42.4471C266.683 42.8551 267.271 43.4431 267.691 44.2111C268.123 44.9671 268.339 45.8551 268.339 46.8751C268.339 47.8831 268.123 48.7711 267.691 49.5391C267.259 50.3071 266.665 50.9011 265.909 51.3211C265.153 51.7291 264.313 51.9331 263.389 51.9331ZM263.389 50.8351C264.037 50.8351 264.637 50.6911 265.189 50.4031C265.741 50.1031 266.185 49.6591 266.521 49.0711C266.869 48.4711 267.043 47.7391 267.043 46.8751C267.043 46.0111 266.875 45.2851 266.539 44.6971C266.203 44.0971 265.759 43.6531 265.207 43.3651C264.655 43.0651 264.055 42.9151 263.407 42.9151C262.759 42.9151 262.159 43.0651 261.607 43.3651C261.055 43.6531 260.611 44.0971 260.275 44.6971C259.951 45.2851 259.789 46.0111 259.789 46.8751C259.789 47.7391 259.951 48.4711 260.275 49.0711C260.611 49.6591 261.049 50.1031 261.589 50.4031C262.141 50.6911 262.741 50.8351 263.389 50.8351ZM279.761 40.3411C281.057 40.3411 282.197 40.5931 283.181 41.0971C284.165 41.6011 284.921 42.3091 285.449 43.2211C285.977 44.1211 286.241 45.1591 286.241 46.3351C286.241 47.2711 286.091 48.1651 285.791 49.0171C285.491 49.8691 285.059 50.5651 284.495 51.1051C283.931 51.6331 283.271 51.8971 282.515 51.8971C281.927 51.8971 281.477 51.7411 281.165 51.4291C280.865 51.1051 280.703 50.6671 280.679 50.1151C280.307 50.6671 279.833 51.1051 279.257 51.4291C278.681 51.7411 278.069 51.8971 277.421 51.8971C276.509 51.8971 275.795 51.6211 275.279 51.0691C274.775 50.5171 274.523 49.7671 274.523 48.8191C274.523 47.9311 274.709 47.1031 275.081 46.3351C275.453 45.5551 275.969 44.9311 276.629 44.4631C277.289 43.9951 278.039 43.7611 278.879 43.7611C279.479 43.7611 279.983 43.8931 280.391 44.1571C280.811 44.4211 281.111 44.8051 281.291 45.3091L281.525 43.9771H282.623L281.705 49.2151C281.669 49.4311 281.651 49.6291 281.651 49.8091C281.651 50.6131 281.999 51.0151 282.695 51.0151C283.211 51.0151 283.655 50.7811 284.027 50.3131C284.411 49.8451 284.699 49.2571 284.891 48.5491C285.095 47.8291 285.197 47.1151 285.197 46.4071C285.197 45.3511 284.969 44.4391 284.513 43.6711C284.069 42.8911 283.427 42.2971 282.587 41.8891C281.747 41.4691 280.751 41.2591 279.599 41.2591C278.159 41.2591 276.857 41.6131 275.693 42.3211C274.529 43.0291 273.617 43.9891 272.957 45.2011C272.297 46.4131 271.967 47.7511 271.967 49.2151C271.955 50.8471 272.447 52.1131 273.443 53.0131C274.439 53.9251 275.801 54.3811 277.529 54.3811C278.621 54.3811 279.611 54.1771 280.499 53.7691L280.697 54.6511C279.641 55.0831 278.495 55.2991 277.259 55.2991C275.999 55.2991 274.889 55.0531 273.929 54.5611C272.969 54.0811 272.225 53.3911 271.697 52.4911C271.169 51.5911 270.905 50.5411 270.905 49.3411C270.905 47.6731 271.283 46.1551 272.039 44.7871C272.807 43.4071 273.863 42.3211 275.207 41.5291C276.563 40.7371 278.081 40.3411 279.761 40.3411ZM277.781 50.9071C278.321 50.9071 278.819 50.7631 279.275 50.4751C279.731 50.1871 280.103 49.7851 280.391 49.2691C280.691 48.7531 280.877 48.1651 280.949 47.5051C280.973 47.2891 280.985 47.1331 280.985 47.0371C280.985 46.3651 280.799 45.8191 280.427 45.3991C280.067 44.9671 279.551 44.7511 278.879 44.7511C278.243 44.7511 277.685 44.9371 277.205 45.3091C276.725 45.6811 276.353 46.1671 276.089 46.7671C275.825 47.3551 275.693 47.9791 275.693 48.6391C275.693 49.3351 275.873 49.8871 276.233 50.2951C276.593 50.7031 277.109 50.9071 277.781 50.9071ZM293.513 41.8171C294.437 41.8171 295.241 42.0331 295.925 42.4651C296.609 42.8971 297.101 43.4431 297.401 44.1031V41.9611H298.661V52.0411C298.661 52.9411 298.463 53.7391 298.067 54.4351C297.683 55.1311 297.143 55.6651 296.447 56.0371C295.751 56.4211 294.959 56.6131 294.071 56.6131C292.811 56.6131 291.761 56.3131 290.921 55.7131C290.093 55.1131 289.577 54.2971 289.373 53.2651H290.615C290.831 53.9491 291.239 54.4951 291.839 54.9031C292.451 55.3111 293.195 55.5151 294.071 55.5151C294.707 55.5151 295.277 55.3771 295.781 55.1011C296.285 54.8371 296.681 54.4411 296.969 53.9131C297.257 53.3851 297.401 52.7611 297.401 52.0411V49.6111C297.089 50.2831 296.591 50.8411 295.907 51.2851C295.235 51.7171 294.437 51.9331 293.513 51.9331C292.613 51.9331 291.803 51.7231 291.083 51.3031C290.375 50.8831 289.817 50.2891 289.409 49.5211C289.013 48.7531 288.815 47.8651 288.815 46.8571C288.815 45.8491 289.013 44.9671 289.409 44.2111C289.817 43.4431 290.375 42.8551 291.083 42.4471C291.803 42.0271 292.613 41.8171 293.513 41.8171ZM297.401 46.8751C297.401 46.0831 297.239 45.3871 296.915 44.7871C296.591 44.1871 296.147 43.7251 295.583 43.4011C295.031 43.0771 294.419 42.9151 293.747 42.9151C293.051 42.9151 292.427 43.0711 291.875 43.3831C291.323 43.6951 290.885 44.1511 290.561 44.7511C290.249 45.3391 290.093 46.0411 290.093 46.8571C290.093 47.6611 290.249 48.3691 290.561 48.9811C290.885 49.5811 291.323 50.0431 291.875 50.3671C292.427 50.6791 293.051 50.8351 293.747 50.8351C294.419 50.8351 295.031 50.6731 295.583 50.3491C296.147 50.0251 296.591 49.5631 296.915 48.9631C297.239 48.3631 297.401 47.6671 297.401 46.8751ZM313.597 41.7811C314.749 41.7811 315.685 42.1471 316.405 42.8791C317.137 43.5991 317.503 44.6491 317.503 46.0291V51.7891H316.261V46.1731C316.261 45.1051 316.003 44.2891 315.487 43.7251C314.971 43.1611 314.269 42.8791 313.381 42.8791C312.457 42.8791 311.719 43.1851 311.167 43.7971C310.615 44.4091 310.339 45.2971 310.339 46.4611V51.7891H309.097V46.1731C309.097 45.1051 308.839 44.2891 308.323 43.7251C307.807 43.1611 307.099 42.8791 306.199 42.8791C305.275 42.8791 304.537 43.1851 303.985 43.7971C303.433 44.4091 303.157 45.2971 303.157 46.4611V51.7891H301.897V41.9611H303.157V43.6531C303.469 43.0411 303.913 42.5791 304.489 42.2671C305.065 41.9431 305.707 41.7811 306.415 41.7811C307.267 41.7811 308.011 41.9851 308.647 42.3931C309.295 42.8011 309.763 43.4011 310.051 44.1931C310.315 43.4131 310.765 42.8191 311.401 42.4111C312.049 41.9911 312.781 41.7811 313.597 41.7811ZM320.085 46.8571C320.085 45.8491 320.283 44.9671 320.679 44.2111C321.087 43.4431 321.645 42.8551 322.353 42.4471C323.073 42.0271 323.883 41.8171 324.783 41.8171C325.719 41.8171 326.523 42.0331 327.195 42.4651C327.879 42.8971 328.371 43.4491 328.671 44.1211V41.9611H329.931V51.7891H328.671V49.6111C328.359 50.2831 327.861 50.8411 327.177 51.2851C326.505 51.7171 325.701 51.9331 324.765 51.9331C323.877 51.9331 323.073 51.7231 322.353 51.3031C321.645 50.8831 321.087 50.2891 320.679 49.5211C320.283 48.7531 320.085 47.8651 320.085 46.8571ZM328.671 46.8751C328.671 46.0831 328.509 45.3871 328.185 44.7871C327.861 44.1871 327.417 43.7251 326.853 43.4011C326.301 43.0771 325.689 42.9151 325.017 42.9151C324.321 42.9151 323.697 43.0711 323.145 43.3831C322.593 43.6951 322.155 44.1511 321.831 44.7511C321.519 45.3391 321.363 46.0411 321.363 46.8571C321.363 47.6611 321.519 48.3691 321.831 48.9811C322.155 49.5811 322.593 50.0431 323.145 50.3671C323.697 50.6791 324.321 50.8351 325.017 50.8351C325.689 50.8351 326.301 50.6731 326.853 50.3491C327.417 50.0251 327.861 49.5631 328.185 48.9631C328.509 48.3631 328.671 47.6671 328.671 46.8751ZM333.798 40.1071C333.546 40.1071 333.33 40.0171 333.15 39.8371C332.97 39.6571 332.88 39.4351 332.88 39.1711C332.88 38.9071 332.97 38.6911 333.15 38.5231C333.33 38.3431 333.546 38.2531 333.798 38.2531C334.05 38.2531 334.266 38.3431 334.446 38.5231C334.626 38.6911 334.716 38.9071 334.716 39.1711C334.716 39.4351 334.626 39.6571 334.446 39.8371C334.266 40.0171 334.05 40.1071 333.798 40.1071ZM334.428 41.9611V51.7891H333.168V41.9611H334.428ZM338.901 38.4691V51.7891H337.641V38.4691H338.901ZM342.33 51.8791C342.066 51.8791 341.844 51.7891 341.664 51.6091C341.496 51.4291 341.412 51.2071 341.412 50.9431C341.412 50.6791 341.496 50.4631 341.664 50.2951C341.844 50.1151 342.066 50.0251 342.33 50.0251C342.582 50.0251 342.792 50.1151 342.96 50.2951C343.14 50.4631 343.23 50.6791 343.23 50.9431C343.23 51.2071 343.14 51.4291 342.96 51.6091C342.792 51.7891 342.582 51.8791 342.33 51.8791ZM345.168 46.8751C345.168 45.8551 345.372 44.9671 345.78 44.2111C346.188 43.4431 346.752 42.8551 347.472 42.4471C348.192 42.0271 349.014 41.8171 349.938 41.8171C351.15 41.8171 352.146 42.1171 352.926 42.7171C353.718 43.3171 354.228 44.1331 354.456 45.1651H353.106C352.938 44.4571 352.572 43.9051 352.008 43.5091C351.456 43.1011 350.766 42.8971 349.938 42.8971C349.278 42.8971 348.684 43.0471 348.156 43.3471C347.628 43.6471 347.208 44.0971 346.896 44.6971C346.596 45.2851 346.446 46.0111 346.446 46.8751C346.446 47.7391 346.596 48.4711 346.896 49.0711C347.208 49.6711 347.628 50.1211 348.156 50.4211C348.684 50.7211 349.278 50.8711 349.938 50.8711C350.766 50.8711 351.456 50.6731 352.008 50.2771C352.572 49.8691 352.938 49.3051 353.106 48.5851H354.456C354.228 49.5931 353.718 50.4031 352.926 51.0151C352.134 51.6271 351.138 51.9331 349.938 51.9331C349.014 51.9331 348.192 51.7291 347.472 51.3211C346.752 50.9011 346.188 50.3131 345.78 49.5571C345.372 48.7891 345.168 47.8951 345.168 46.8751ZM361.445 51.9331C360.521 51.9331 359.687 51.7291 358.943 51.3211C358.211 50.9011 357.629 50.3131 357.197 49.5571C356.777 48.7891 356.567 47.8951 356.567 46.8751C356.567 45.8551 356.783 44.9671 357.215 44.2111C357.647 43.4431 358.235 42.8551 358.979 42.4471C359.723 42.0271 360.557 41.8171 361.481 41.8171C362.405 41.8171 363.239 42.0271 363.983 42.4471C364.739 42.8551 365.327 43.4431 365.747 44.2111C366.179 44.9671 366.395 45.8551 366.395 46.8751C366.395 47.8831 366.179 48.7711 365.747 49.5391C365.315 50.3071 364.721 50.9011 363.965 51.3211C363.209 51.7291 362.369 51.9331 361.445 51.9331ZM361.445 50.8351C362.093 50.8351 362.693 50.6911 363.245 50.4031C363.797 50.1031 364.241 49.6591 364.577 49.0711C364.925 48.4711 365.099 47.7391 365.099 46.8751C365.099 46.0111 364.931 45.2851 364.595 44.6971C364.259 44.0971 363.815 43.6531 363.263 43.3651C362.711 43.0651 362.111 42.9151 361.463 42.9151C360.815 42.9151 360.215 43.0651 359.663 43.3651C359.111 43.6531 358.667 44.0971 358.331 44.6971C358.007 45.2851 357.845 46.0111 357.845 46.8751C357.845 47.7391 358.007 48.4711 358.331 49.0711C358.667 49.6591 359.105 50.1031 359.645 50.4031C360.197 50.6911 360.797 50.8351 361.445 50.8351ZM380.752 41.7811C381.904 41.7811 382.84 42.1471 383.56 42.8791C384.292 43.5991 384.658 44.6491 384.658 46.0291V51.7891H383.416V46.1731C383.416 45.1051 383.158 44.2891 382.642 43.7251C382.126 43.1611 381.424 42.8791 380.536 42.8791C379.612 42.8791 378.874 43.1851 378.322 43.7971C377.77 44.4091 377.494 45.2971 377.494 46.4611V51.7891H376.252V46.1731C376.252 45.1051 375.994 44.2891 375.478 43.7251C374.962 43.1611 374.254 42.8791 373.354 42.8791C372.43 42.8791 371.692 43.1851 371.14 43.7971C370.588 44.4091 370.312 45.2971 370.312 46.4611V51.7891H369.052V41.9611H370.312V43.6531C370.624 43.0411 371.068 42.5791 371.644 42.2671C372.22 41.9431 372.862 41.7811 373.57 41.7811C374.422 41.7811 375.166 41.9851 375.802 42.3931C376.45 42.8011 376.918 43.4011 377.206 44.1931C377.47 43.4131 377.92 42.8191 378.556 42.4111C379.204 41.9911 379.936 41.7811 380.752 41.7811Z" fill="#004C78"/>
<path d="M128.329 53.5891H271.655V54.4891H128.329V53.5891ZM281.565 53.5891H288.546V54.4891H281.565V53.5891ZM299.338 53.5891H386.008V54.4891H299.338V53.5891Z" fill="#004C78"/>
<a href="mailto:rchel.mmoreno@gmail.com">
<rect fill="black" fill-opacity="0" width="257.679" height="27"/>
</a>
<g clip-path="url(#clip1_21046_379)">
<rect x="528.329" y="18.2891" width="52" height="52" rx="11" fill="#EDF5FA"/>
<path d="M529.329 37.0668C529.329 30.8446 529.329 27.7335 530.54 25.3557C531.605 23.2651 533.305 21.5654 535.395 20.5002C537.773 19.2891 540.884 19.2891 547.106 19.2891H561.551C567.773 19.2891 570.884 19.2891 573.262 20.5002C575.353 21.5654 577.052 23.2651 578.117 25.3557C579.329 27.7335 579.329 30.8446 579.329 37.0668V51.5113C579.329 57.7335 579.329 60.8446 578.117 63.2224C577.052 65.313 575.353 67.0127 573.262 68.0779C570.884 69.289 567.773 69.2891 561.551 69.2891H547.106C540.884 69.2891 537.773 69.289 535.395 68.0779C533.305 67.0127 531.605 65.313 530.54 63.2224C529.329 60.8446 529.329 57.7335 529.329 51.5113V37.0668ZM543.217 32.1363V33.5252V32.1363Z" fill="#004C78"/>
<path d="M543.217 32.1363V33.5252M529.329 37.0668C529.329 30.8446 529.329 27.7335 530.54 25.3557C531.605 23.2651 533.305 21.5654 535.395 20.5002C537.773 19.2891 540.884 19.2891 547.106 19.2891H561.551C567.773 19.2891 570.884 19.2891 573.262 20.5002C575.353 21.5654 577.052 23.2651 578.117 25.3557C579.329 27.7335 579.329 30.8446 579.329 37.0668V51.5113C579.329 57.7335 579.329 60.8446 578.117 63.2224C577.052 65.313 575.353 67.0127 573.262 68.0779C570.884 69.2891 567.773 69.2891 561.551 69.2891H547.106C540.884 69.2891 537.773 69.2891 535.395 68.0779C533.305 67.0127 531.605 65.313 530.54 63.2224C529.329 60.8446 529.329 57.7335 529.329 51.5113V37.0668Z" stroke="#EDF5FA" stroke-width="1.5" stroke-linecap="round" stroke-linejoin="round"/>
<path d="M542.329 54.8672V37.2891M554.829 54.8672V45.8828M554.829 45.8828V37.2891M554.829 45.8828C554.829 41.8578 558.647 39.6328 562.329 39.6328C567.329 39.6328 567.329 43.9297 567.329 48.6172V54.8672" stroke="#EDF5FA" stroke-width="1.5" stroke-linecap="round" stroke-linejoin="round"/>
</g>
<path d="M596.741 39.2071L591.971 51.7891H590.531L585.761 39.2071H587.129L591.251 50.4211L595.409 39.2071H596.741ZM607.886 46.3711C607.886 46.8031 607.874 47.1331 607.85 47.3611H599.696C599.732 48.1051 599.912 48.7411 600.236 49.2691C600.56 49.7971 600.986 50.1991 601.514 50.4751C602.042 50.7391 602.618 50.8711 603.242 50.8711C604.058 50.8711 604.742 50.6731 605.294 50.2771C605.858 49.8811 606.23 49.3471 606.41 48.6751H607.742C607.502 49.6351 606.986 50.4211 606.194 51.0331C605.414 51.6331 604.43 51.9331 603.242 51.9331C602.318 51.9331 601.49 51.7291 600.758 51.3211C600.026 50.9011 599.45 50.3131 599.03 49.5571C598.622 48.7891 598.418 47.8951 598.418 46.8751C598.418 45.8551 598.622 44.9611 599.03 44.1931C599.438 43.4251 600.008 42.8371 600.74 42.4291C601.472 42.0211 602.306 41.8171 603.242 41.8171C604.178 41.8171 604.994 42.0211 605.69 42.4291C606.398 42.8371 606.938 43.3891 607.31 44.0851C607.694 44.7691 607.886 45.5311 607.886 46.3711ZM606.608 46.3351C606.62 45.6031 606.47 44.9791 606.158 44.4631C605.858 43.9471 605.444 43.5571 604.916 43.2931C604.388 43.0291 603.812 42.8971 603.188 42.8971C602.252 42.8971 601.454 43.1971 600.794 43.7971C600.134 44.3971 599.768 45.2431 599.696 46.3351H606.608ZM611.811 43.7071C612.087 43.0951 612.507 42.6211 613.071 42.2851C613.647 41.9491 614.349 41.7811 615.177 41.7811V43.0951H614.835C613.923 43.0951 613.191 43.3411 612.639 43.8331C612.087 44.3251 611.811 45.1471 611.811 46.2991V51.7891H610.551V41.9611H611.811V43.7071ZM634.432 41.7811C635.584 41.7811 636.52 42.1471 637.24 42.8791C637.972 43.5991 638.338 44.6491 638.338 46.0291V51.7891H637.096V46.1731C637.096 45.1051 636.838 44.2891 636.322 43.7251C635.806 43.1611 635.104 42.8791 634.216 42.8791C633.292 42.8791 632.554 43.1851 632.002 43.7971C631.45 44.4091 631.174 45.2971 631.174 46.4611V51.7891H629.932V46.1731C629.932 45.1051 629.674 44.2891 629.158 43.7251C628.642 43.1611 627.934 42.8791 627.034 42.8791C626.11 42.8791 625.372 43.1851 624.82 43.7971C624.268 44.4091 623.992 45.2971 623.992 46.4611V51.7891H622.732V41.9611H623.992V43.6531C624.304 43.0411 624.748 42.5791 625.324 42.2671C625.9 41.9431 626.542 41.7811 627.25 41.7811C628.102 41.7811 628.846 41.9851 629.482 42.3931C630.13 42.8011 630.598 43.4011 630.886 44.1931C631.15 43.4131 631.6 42.8191 632.236 42.4111C632.884 41.9911 633.616 41.7811 634.432 41.7811ZM642.126 40.1071C641.874 40.1071 641.658 40.0171 641.478 39.8371C641.298 39.6571 641.208 39.4351 641.208 39.1711C641.208 38.9071 641.298 38.6911 641.478 38.5231C641.658 38.3431 641.874 38.2531 642.126 38.2531C642.378 38.2531 642.594 38.3431 642.774 38.5231C642.954 38.6911 643.044 38.9071 643.044 39.1711C643.044 39.4351 642.954 39.6571 642.774 39.8371C642.594 40.0171 642.378 40.1071 642.126 40.1071ZM642.756 41.9611V51.7891H641.496V41.9611H642.756ZM652.529 38.4691V51.7891H651.269V38.4691H652.529ZM656.372 40.1071C656.12 40.1071 655.904 40.0171 655.724 39.8371C655.544 39.6571 655.454 39.4351 655.454 39.1711C655.454 38.9071 655.544 38.6911 655.724 38.5231C655.904 38.3431 656.12 38.2531 656.372 38.2531C656.624 38.2531 656.84 38.3431 657.02 38.5231C657.2 38.6911 657.29 38.9071 657.29 39.1711C657.29 39.4351 657.2 39.6571 657.02 39.8371C656.84 40.0171 656.624 40.1071 656.372 40.1071ZM657.002 41.9611V51.7891H655.742V41.9611H657.002ZM664.824 41.7811C666 41.7811 666.96 42.1471 667.704 42.8791C668.448 43.5991 668.82 44.6491 668.82 46.0291V51.7891H667.578V46.1731C667.578 45.1051 667.308 44.2891 666.768 43.7251C666.24 43.1611 665.514 42.8791 664.59 42.8791C663.642 42.8791 662.886 43.1791 662.322 43.7791C661.758 44.3791 661.476 45.2611 661.476 46.4251V51.7891H660.216V41.9611H661.476V43.6351C661.788 43.0351 662.238 42.5791 662.826 42.2671C663.414 41.9431 664.08 41.7811 664.824 41.7811ZM671.39 46.8571C671.39 45.8491 671.594 44.9671 672.002 44.2111C672.41 43.4431 672.968 42.8551 673.676 42.4471C674.396 42.0271 675.206 41.8171 676.106 41.8171C676.97 41.8171 677.75 42.0271 678.446 42.4471C679.142 42.8671 679.652 43.4131 679.976 44.0851V38.4691H681.236V51.7891H679.976V49.5931C679.676 50.2771 679.184 50.8411 678.5 51.2851C677.816 51.7171 677.012 51.9331 676.088 51.9331C675.188 51.9331 674.378 51.7231 673.658 51.3031C672.95 50.8831 672.392 50.2891 671.984 49.5211C671.588 48.7531 671.39 47.8651 671.39 46.8571ZM679.976 46.8751C679.976 46.0831 679.814 45.3871 679.49 44.7871C679.166 44.1871 678.722 43.7251 678.158 43.4011C677.606 43.0771 676.994 42.9151 676.322 42.9151C675.626 42.9151 675.002 43.0711 674.45 43.3831C673.898 43.6951 673.46 44.1511 673.136 44.7511C672.824 45.3391 672.668 46.0411 672.668 46.8571C672.668 47.6611 672.824 48.3691 673.136 48.9811C673.46 49.5811 673.898 50.0431 674.45 50.3671C675.002 50.6791 675.626 50.8351 676.322 50.8351C676.994 50.8351 677.606 50.6731 678.158 50.3491C678.722 50.0251 679.166 49.5631 679.49 48.9631C679.814 48.3631 679.976 47.6671 679.976 46.8751ZM689.783 51.7891L685.733 47.3791V51.7891H684.473V38.4691H685.733V46.3531L689.693 41.9611H691.457L686.795 46.8571L691.493 51.7891H689.783ZM702.373 46.3711C702.373 46.8031 702.361 47.1331 702.337 47.3611H694.183C694.219 48.1051 694.399 48.7411 694.723 49.2691C695.047 49.7971 695.473 50.1991 696.001 50.4751C696.529 50.7391 697.105 50.8711 697.729 50.8711C698.545 50.8711 699.229 50.6731 699.781 50.2771C700.345 49.8811 700.717 49.3471 700.897 48.6751H702.229C701.989 49.6351 701.473 50.4211 700.681 51.0331C699.901 51.6331 698.917 51.9331 697.729 51.9331C696.805 51.9331 695.977 51.7291 695.245 51.3211C694.513 50.9011 693.937 50.3131 693.517 49.5571C693.109 48.7891 692.905 47.8951 692.905 46.8751C692.905 45.8551 693.109 44.9611 693.517 44.1931C693.925 43.4251 694.495 42.8371 695.227 42.4291C695.959 42.0211 696.793 41.8171 697.729 41.8171C698.665 41.8171 699.481 42.0211 700.177 42.4291C700.885 42.8371 701.425 43.3891 701.797 44.0851C702.181 44.7691 702.373 45.5311 702.373 46.3711ZM701.095 46.3351C701.107 45.6031 700.957 44.9791 700.645 44.4631C700.345 43.9471 699.931 43.5571 699.403 43.2931C698.875 43.0291 698.299 42.8971 697.675 42.8971C696.739 42.8971 695.941 43.1971 695.281 43.7971C694.621 44.3971 694.255 45.2431 694.183 46.3351H701.095ZM704.462 46.8571C704.462 45.8491 704.666 44.9671 705.074 44.2111C705.482 43.4431 706.04 42.8551 706.748 42.4471C707.468 42.0271 708.278 41.8171 709.178 41.8171C710.042 41.8171 710.822 42.0271 711.518 42.4471C712.214 42.8671 712.724 43.4131 713.048 44.0851V38.4691H714.308V51.7891H713.048V49.5931C712.748 50.2771 712.256 50.8411 711.572 51.2851C710.888 51.7171 710.084 51.9331 709.16 51.9331C708.26 51.9331 707.45 51.7231 706.73 51.3031C706.022 50.8831 705.464 50.2891 705.056 49.5211C704.66 48.7531 704.462 47.8651 704.462 46.8571ZM713.048 46.8751C713.048 46.0831 712.886 45.3871 712.562 44.7871C712.238 44.1871 711.794 43.7251 711.23 43.4011C710.678 43.0771 710.066 42.9151 709.394 42.9151C708.698 42.9151 708.074 43.0711 707.522 43.3831C706.97 43.6951 706.532 44.1511 706.208 44.7511C705.896 45.3391 705.74 46.0411 705.74 46.8571C705.74 47.6611 705.896 48.3691 706.208 48.9811C706.532 49.5811 706.97 50.0431 707.522 50.3671C708.074 50.6791 708.698 50.8351 709.394 50.8351C710.066 50.8351 710.678 50.6731 711.23 50.3491C711.794 50.0251 712.238 49.5631 712.562 48.9631C712.886 48.3631 713.048 47.6671 713.048 46.8751ZM718.175 40.1071C717.923 40.1071 717.707 40.0171 717.527 39.8371C717.347 39.6571 717.257 39.4351 717.257 39.1711C717.257 38.9071 717.347 38.6911 717.527 38.5231C717.707 38.3431 717.923 38.2531 718.175 38.2531C718.427 38.2531 718.643 38.3431 718.823 38.5231C719.003 38.6911 719.093 38.9071 719.093 39.1711C719.093 39.4351 719.003 39.6571 718.823 39.8371C718.643 40.0171 718.427 40.1071 718.175 40.1071ZM718.805 41.9611V51.7891H717.545V41.9611H718.805ZM726.626 41.7811C727.802 41.7811 728.762 42.1471 729.506 42.8791C730.25 43.5991 730.622 44.6491 730.622 46.0291V51.7891H729.38V46.1731C729.38 45.1051 729.11 44.2891 728.57 43.7251C728.042 43.1611 727.316 42.8791 726.392 42.8791C725.444 42.8791 724.688 43.1791 724.124 43.7791C723.56 44.3791 723.278 45.2611 723.278 46.4251V51.7891H722.018V41.9611H723.278V43.6351C723.59 43.0351 724.04 42.5791 724.628 42.2671C725.216 41.9431 725.882 41.7811 726.626 41.7811Z" fill="#004C78"/>
<a href="https://www.linkedin.com/in/raquel-martnez-moreno02?utm_source=share&#38;utm_campaign=share_via&#38;utm_content=profile&#38;utm_medium=android_app">
<rect fill="black" fill-opacity="0" width="146.644" height="27"/>
</a>
<g clip-path="url(#clip2_21046_379)">
<g filter="url(#filter0_d_21046_379)">
<path d="M800.829 46.9514C797.502 49.6114 789.018 43.221 792.357 40.5505C794.395 38.9196 792.093 37.0565 790.818 35.6854C788.425 33.1151 783.174 36.6639 783.332 38.9217C783.836 46.0426 793.971 54.4808 803.784 53.744C806.853 53.5139 810.381 49.3 806.86 47.76C805.099 46.9894 802.681 45.4694 800.829 46.9504M798.606 34.7892C801.185 34.7892 803.658 35.5677 805.481 36.9534C807.304 38.3391 808.328 40.2185 808.328 42.1781M798.606 39.0114C799.711 39.0114 800.771 39.3451 801.553 39.939C802.334 40.5328 802.773 41.3383 802.773 42.1781" fill="#EDF5FA"/>
<path d="M800.829 46.9514C797.502 49.6114 789.018 43.221 792.357 40.5505C794.395 38.9196 792.093 37.0565 790.818 35.6854C788.425 33.1151 783.174 36.6639 783.332 38.9217C783.836 46.0426 793.971 54.4808 803.784 53.744C806.853 53.5139 810.381 49.3 806.86 47.76C805.099 46.9894 802.681 45.4694 800.829 46.9504M798.606 34.7892C801.185 34.7892 803.658 35.5677 805.481 36.9534C807.304 38.3391 808.328 40.2185 808.328 42.1781M798.606 39.0114C799.711 39.0114 800.771 39.3451 801.553 39.939C802.334 40.5328 802.773 41.3383 802.773 42.1781" stroke="#004C78" stroke-linecap="round" stroke-linejoin="round"/>
</g>
</g>
<path d="M826.915 41.0331C826.651 39.4731 825.745 38.6931 824.197 38.6931C823.021 38.6931 822.139 39.1491 821.551 40.0611C820.963 40.9731 820.693 42.4671 820.741 44.5431C820.981 43.8231 821.437 43.2591 822.109 42.8511C822.793 42.4311 823.573 42.2211 824.449 42.2211C825.709 42.2211 826.705 42.6111 827.437 43.3911C828.181 44.1591 828.553 45.2211 828.553 46.5771C828.553 47.3691 828.397 48.0891 828.085 48.7371C827.785 49.3731 827.317 49.8831 826.681 50.2671C826.057 50.6511 825.277 50.8431 824.341 50.8431C822.553 50.8431 821.317 50.2731 820.633 49.1331C819.961 47.9931 819.625 46.3791 819.625 44.2911C819.625 39.8511 821.149 37.6311 824.197 37.6311C825.349 37.6311 826.255 37.9491 826.915 38.5851C827.575 39.2091 827.965 40.0251 828.085 41.0331H826.915ZM824.215 43.3011C823.651 43.3011 823.117 43.4151 822.613 43.6431C822.109 43.8711 821.695 44.2191 821.371 44.6871C821.059 45.1431 820.903 45.7071 820.903 46.3791C820.903 47.3511 821.191 48.1611 821.767 48.8091C822.343 49.4571 823.183 49.7811 824.287 49.7811C825.211 49.7811 825.949 49.4991 826.501 48.9351C827.053 48.3711 827.329 47.6031 827.329 46.6311C827.329 45.5871 827.059 44.7711 826.519 44.1831C825.979 43.5951 825.211 43.3011 824.215 43.3011ZM838.595 41.0331C838.331 39.4731 837.425 38.6931 835.877 38.6931C834.701 38.6931 833.819 39.1491 833.231 40.0611C832.643 40.9731 832.373 42.4671 832.421 44.5431C832.661 43.8231 833.117 43.2591 833.789 42.8511C834.473 42.4311 835.253 42.2211 836.129 42.2211C837.389 42.2211 838.385 42.6111 839.117 43.3911C839.861 44.1591 840.233 45.2211 840.233 46.5771C840.233 47.3691 840.077 48.0891 839.765 48.7371C839.465 49.3731 838.997 49.8831 838.361 50.2671C837.737 50.6511 836.957 50.8431 836.021 50.8431C834.233 50.8431 832.997 50.2731 832.313 49.1331C831.641 47.9931 831.305 46.3791 831.305 44.2911C831.305 39.8511 832.829 37.6311 835.877 37.6311C837.029 37.6311 837.935 37.9491 838.595 38.5851C839.255 39.2091 839.645 40.0251 839.765 41.0331H838.595ZM835.895 43.3011C835.331 43.3011 834.797 43.4151 834.293 43.6431C833.789 43.8711 833.375 44.2191 833.051 44.6871C832.739 45.1431 832.583 45.7071 832.583 46.3791C832.583 47.3511 832.871 48.1611 833.447 48.8091C834.023 49.4571 834.863 49.7811 835.967 49.7811C836.891 49.7811 837.629 49.4991 838.181 48.9351C838.733 48.3711 839.009 47.6031 839.009 46.6311C839.009 45.5871 838.739 44.7711 838.199 44.1831C837.659 43.5951 836.891 43.3011 835.895 43.3011ZM842.607 49.7991C844.815 48.1431 846.519 46.6611 847.719 45.3531C848.931 44.0331 849.537 42.7431 849.537 41.4831C849.537 40.6551 849.327 39.9951 848.907 39.5031C848.499 38.9991 847.827 38.7471 846.891 38.7471C845.979 38.7471 845.271 39.0351 844.767 39.6111C844.275 40.1751 843.999 40.9311 843.939 41.8791H842.715C842.787 40.5471 843.195 39.5151 843.939 38.7831C844.695 38.0391 845.679 37.6671 846.891 37.6671C848.055 37.6671 848.997 37.9971 849.717 38.6571C850.437 39.3051 850.797 40.2291 850.797 41.4291C850.797 42.8811 850.191 44.2911 848.979 45.6591C847.779 47.0151 846.297 48.3411 844.533 49.6371H851.193V50.6991H842.607V49.7991ZM858.819 44.2191C858.819 42.1551 859.137 40.5531 859.773 39.4131C860.409 38.2731 861.549 37.7031 863.193 37.7031C864.837 37.7031 865.977 38.2731 866.613 39.4131C867.249 40.5531 867.567 42.1551 867.567 44.2191C867.567 46.3191 867.249 47.9451 866.613 49.0971C865.977 50.2491 864.837 50.8251 863.193 50.8251C861.537 50.8251 860.391 50.2491 859.755 49.0971C859.131 47.9451 858.819 46.3191 858.819 44.2191ZM866.325 44.2191C866.325 43.1031 866.247 42.1611 866.091 41.3931C865.935 40.6251 865.629 40.0071 865.173 39.5391C864.717 39.0711 864.057 38.8371 863.193 38.8371C862.329 38.8371 861.669 39.0711 861.213 39.5391C860.757 40.0071 860.451 40.6251 860.295 41.3931C860.139 42.1611 860.061 43.1031 860.061 44.2191C860.061 45.3711 860.139 46.3371 860.295 47.1171C860.451 47.8851 860.757 48.5031 861.213 48.9711C861.669 49.4391 862.329 49.6731 863.193 49.6731C864.057 49.6731 864.717 49.4391 865.173 48.9711C865.629 48.5031 865.935 47.8851 866.091 47.1171C866.247 46.3371 866.325 45.3711 866.325 44.2191ZM870.271 44.2191C870.271 42.1551 870.589 40.5531 871.225 39.4131C871.861 38.2731 873.001 37.7031 874.645 37.7031C876.289 37.7031 877.429 38.2731 878.065 39.4131C878.701 40.5531 879.019 42.1551 879.019 44.2191C879.019 46.3191 878.701 47.9451 878.065 49.0971C877.429 50.2491 876.289 50.8251 874.645 50.8251C872.989 50.8251 871.843 50.2491 871.207 49.0971C870.583 47.9451 870.271 46.3191 870.271 44.2191ZM877.777 44.2191C877.777 43.1031 877.699 42.1611 877.543 41.3931C877.387 40.6251 877.081 40.0071 876.625 39.5391C876.169 39.0711 875.509 38.8371 874.645 38.8371C873.781 38.8371 873.121 39.0711 872.665 39.5391C872.209 40.0071 871.903 40.6251 871.747 41.3931C871.591 42.1611 871.513 43.1031 871.513 44.2191C871.513 45.3711 871.591 46.3371 871.747 47.1171C871.903 47.8851 872.209 48.5031 872.665 48.9711C873.121 49.4391 873.781 49.6731 874.645 49.6731C875.509 49.6731 876.169 49.4391 876.625 48.9711C877.081 48.5031 877.387 47.8851 877.543 47.1171C877.699 46.3371 877.777 45.3711 877.777 44.2191ZM881.723 44.2191C881.723 42.1551 882.041 40.5531 882.677 39.4131C883.313 38.2731 884.453 37.7031 886.097 37.7031C887.741 37.7031 888.881 38.2731 889.517 39.4131C890.153 40.5531 890.471 42.1551 890.471 44.2191C890.471 46.3191 890.153 47.9451 889.517 49.0971C888.881 50.2491 887.741 50.8251 886.097 50.8251C884.441 50.8251 883.295 50.2491 882.659 49.0971C882.035 47.9451 881.723 46.3191 881.723 44.2191ZM889.229 44.2191C889.229 43.1031 889.151 42.1611 888.995 41.3931C888.839 40.6251 888.533 40.0071 888.077 39.5391C887.621 39.0711 886.961 38.8371 886.097 38.8371C885.233 38.8371 884.573 39.0711 884.117 39.5391C883.661 40.0071 883.355 40.6251 883.199 41.3931C883.043 42.1611 882.965 43.1031 882.965 44.2191C882.965 45.3711 883.043 46.3371 883.199 47.1171C883.355 47.8851 883.661 48.5031 884.117 48.9711C884.573 49.4391 885.233 49.6731 886.097 49.6731C886.961 49.6731 887.621 49.4391 888.077 48.9711C888.533 48.5031 888.839 47.8851 888.995 47.1171C889.151 46.3371 889.229 45.3711 889.229 44.2191ZM898.474 44.2191C898.474 42.1551 898.792 40.5531 899.428 39.4131C900.064 38.2731 901.204 37.7031 902.848 37.7031C904.492 37.7031 905.632 38.2731 906.268 39.4131C906.904 40.5531 907.222 42.1551 907.222 44.2191C907.222 46.3191 906.904 47.9451 906.268 49.0971C905.632 50.2491 904.492 50.8251 902.848 50.8251C901.192 50.8251 900.046 50.2491 899.41 49.0971C898.786 47.9451 898.474 46.3191 898.474 44.2191ZM905.98 44.2191C905.98 43.1031 905.902 42.1611 905.746 41.3931C905.59 40.6251 905.284 40.0071 904.828 39.5391C904.372 39.0711 903.712 38.8371 902.848 38.8371C901.984 38.8371 901.324 39.0711 900.868 39.5391C900.412 40.0071 900.106 40.6251 899.95 41.3931C899.794 42.1611 899.716 43.1031 899.716 44.2191C899.716 45.3711 899.794 46.3371 899.95 47.1171C900.106 47.8851 900.412 48.5031 900.868 48.9711C901.324 49.4391 901.984 49.6731 902.848 49.6731C903.712 49.6731 904.372 49.4391 904.828 48.9711C905.284 48.5031 905.59 47.8851 905.746 47.1171C905.902 46.3371 905.98 45.3711 905.98 44.2191ZM918.062 38.9631H911.474V43.5711C911.774 43.1511 912.212 42.8091 912.788 42.5451C913.364 42.2691 913.988 42.1311 914.66 42.1311C915.644 42.1311 916.448 42.3351 917.072 42.7431C917.696 43.1391 918.146 43.6611 918.422 44.3091C918.698 44.9451 918.836 45.6291 918.836 46.3611C918.836 47.2011 918.674 47.9631 918.35 48.6471C918.038 49.3191 917.552 49.8531 916.892 50.2491C916.244 50.6451 915.434 50.8431 914.462 50.8431C913.226 50.8431 912.224 50.5251 911.456 49.8891C910.688 49.2411 910.22 48.3711 910.052 47.2791H911.294C911.45 48.0711 911.81 48.6831 912.374 49.1151C912.938 49.5471 913.634 49.7631 914.462 49.7631C915.506 49.7631 916.292 49.4571 916.82 48.8451C917.36 48.2211 917.63 47.3991 917.63 46.3791C917.63 45.3831 917.36 44.6091 916.82 44.0571C916.28 43.4931 915.506 43.2111 914.498 43.2111C913.802 43.2111 913.19 43.3731 912.662 43.6971C912.134 44.0211 911.744 44.4591 911.492 45.0111H910.304V37.8651H918.062V38.9631ZM920.783 39.0171V37.8831H923.843V50.7891H922.565V39.0171H920.783Z" fill="#004C78"/>
<defs>
<filter id="filter0_d_21046_379" x="767.729" y="19.1891" width="60.2002" height="54.2" filterUnits="userSpaceOnUse" color-interpolation-filters="sRGB">
<feFlood flood-opacity="0" result="BackgroundImageFix"/>
<feColorMatrix in="SourceAlpha" type="matrix" values="0 0 0 0 0 0 0 0 0 0 0 0 0 0 0 0 0 0 127 0" result="hardAlpha"/>
<feMorphology radius="7" operator="erode" in="SourceAlpha" result="effect1_dropShadow_21046_379"/>
<feOffset dx="2" dy="2"/>
<feGaussianBlur stdDeviation="12.05"/>
<feColorMatrix type="matrix" values="0 0 0 0 0 0 0 0 0 0.298039 0 0 0 0 0.470588 0 0 0 1 0"/>
<feBlend mode="normal" in2="BackgroundImageFix" result="effect1_dropShadow_21046_379"/>
<feBlend mode="normal" in="SourceGraphic" in2="effect1_dropShadow_21046_379" result="shape"/>
</filter>
<clipPath id="clip0_21046_379">
<rect x="78.3286" y="31.2891" width="45" height="26" rx="3" fill="white"/>
</clipPath>
<clipPath id="clip1_21046_379">
<rect x="528.329" y="18.2891" width="52" height="52" rx="11" fill="white"/>
</clipPath>
<clipPath id="clip2_21046_379">
<rect x="774.329" y="32.7891" width="46" height="23" rx="3" fill="white"/>
</clipPath>
</defs>
</svg>
