<svg width="1171" height="60" viewBox="0 0 1171 60" fill="none" xmlns="http://www.w3.org/2000/svg">
<rect width="1170.66" height="59" transform="translate(0 0.289062)" fill="white"/>
<path d="M243.493 23.6351C244.705 23.6351 245.779 23.9051 246.715 24.4451C247.663 24.9851 248.395 25.7351 248.911 26.6951C249.439 27.6551 249.703 28.7531 249.703 29.9891C249.703 31.2251 249.439 32.3291 248.911 33.3011C248.395 34.2611 247.663 35.0111 246.715 35.5511C245.779 36.0911 244.705 36.3611 243.493 36.3611C242.281 36.3611 241.201 36.0911 240.253 35.5511C239.317 35.0111 238.585 34.2611 238.057 33.3011C237.541 32.3291 237.283 31.2251 237.283 29.9891C237.283 28.7531 237.541 27.6551 238.057 26.6951C238.585 25.7351 239.317 24.9851 240.253 24.4451C241.201 23.9051 242.281 23.6351 243.493 23.6351ZM243.493 24.2291C242.365 24.2291 241.381 24.4751 240.541 24.9671C239.713 25.4471 239.071 26.1251 238.615 27.0011C238.159 27.8651 237.931 28.8611 237.931 29.9891C237.931 31.1171 238.159 32.1191 238.615 32.9951C239.071 33.8591 239.719 34.5371 240.559 35.0291C241.399 35.5091 242.377 35.7491 243.493 35.7491C244.609 35.7491 245.587 35.5091 246.427 35.0291C247.267 34.5371 247.915 33.8591 248.371 32.9951C248.827 32.1191 249.055 31.1171 249.055 29.9891C249.055 28.8611 248.827 27.8651 248.371 27.0011C247.915 26.1251 247.267 25.4471 246.427 24.9671C245.599 24.4751 244.621 24.2291 243.493 24.2291ZM243.493 25.7771C242.773 25.7771 242.119 25.9451 241.531 26.2811C240.943 26.6171 240.475 27.1031 240.127 27.7391C239.779 28.3751 239.605 29.1191 239.605 29.9711C239.605 30.8351 239.779 31.5851 240.127 32.2211C240.475 32.8571 240.943 33.3431 241.531 33.6791C242.119 34.0151 242.773 34.1831 243.493 34.1831C244.381 34.1831 245.155 33.9431 245.815 33.4631C246.487 32.9711 246.937 32.3111 247.165 31.4831H245.995C245.803 32.0591 245.491 32.4971 245.059 32.7971C244.627 33.0971 244.105 33.2471 243.493 33.2471C242.701 33.2471 242.041 32.9651 241.513 32.4011C240.997 31.8251 240.739 31.0211 240.739 29.9891C240.739 28.9571 240.997 28.1531 241.513 27.5771C242.041 27.0011 242.701 26.7131 243.493 26.7131C244.081 26.7131 244.597 26.8691 245.041 27.1811C245.497 27.4811 245.815 27.9191 245.995 28.4951H247.165C246.937 27.6311 246.493 26.9651 245.833 26.4971C245.173 26.0171 244.393 25.7771 243.493 25.7771ZM257.232 35.2991C259.44 33.6431 261.144 32.1611 262.344 30.8531C263.556 29.5331 264.162 28.2431 264.162 26.9831C264.162 26.1551 263.952 25.4951 263.532 25.0031C263.124 24.4991 262.452 24.2471 261.516 24.2471C260.604 24.2471 259.896 24.5351 259.392 25.1111C258.9 25.6751 258.624 26.4311 258.564 27.3791H257.34C257.412 26.0471 257.82 25.0151 258.564 24.2831C259.32 23.5391 260.304 23.1671 261.516 23.1671C262.68 23.1671 263.622 23.4971 264.342 24.1571C265.062 24.8051 265.422 25.7291 265.422 26.9291C265.422 28.3811 264.816 29.7911 263.604 31.1591C262.404 32.5151 260.922 33.8411 259.158 35.1371H265.818V36.1991H257.232V35.2991ZM268.145 29.7191C268.145 27.6551 268.463 26.0531 269.099 24.9131C269.735 23.7731 270.875 23.2031 272.519 23.2031C274.163 23.2031 275.303 23.7731 275.939 24.9131C276.575 26.0531 276.893 27.6551 276.893 29.7191C276.893 31.8191 276.575 33.4451 275.939 34.5971C275.303 35.7491 274.163 36.3251 272.519 36.3251C270.863 36.3251 269.717 35.7491 269.081 34.5971C268.457 33.4451 268.145 31.8191 268.145 29.7191ZM275.651 29.7191C275.651 28.6031 275.573 27.6611 275.417 26.8931C275.261 26.1251 274.955 25.5071 274.499 25.0391C274.043 24.5711 273.383 24.3371 272.519 24.3371C271.655 24.3371 270.995 24.5711 270.539 25.0391C270.083 25.5071 269.777 26.1251 269.621 26.8931C269.465 27.6611 269.387 28.6031 269.387 29.7191C269.387 30.8711 269.465 31.8371 269.621 32.6171C269.777 33.3851 270.083 34.0031 270.539 34.4711C270.995 34.9391 271.655 35.1731 272.519 35.1731C273.383 35.1731 274.043 34.9391 274.499 34.4711C274.955 34.0031 275.261 33.3851 275.417 32.6171C275.573 31.8371 275.651 30.8711 275.651 29.7191ZM279.345 35.2991C281.553 33.6431 283.257 32.1611 284.457 30.8531C285.669 29.5331 286.275 28.2431 286.275 26.9831C286.275 26.1551 286.065 25.4951 285.645 25.0031C285.237 24.4991 284.565 24.2471 283.629 24.2471C282.717 24.2471 282.009 24.5351 281.505 25.1111C281.013 25.6751 280.737 26.4311 280.677 27.3791H279.453C279.525 26.0471 279.933 25.0151 280.677 24.2831C281.433 23.5391 282.417 23.1671 283.629 23.1671C284.793 23.1671 285.735 23.4971 286.455 24.1571C287.175 24.8051 287.535 25.7291 287.535 26.9291C287.535 28.3811 286.929 29.7911 285.717 31.1591C284.517 32.5151 283.035 33.8411 281.271 35.1371H287.931V36.1991H279.345V35.2991ZM298.394 24.4631H291.806V29.0711C292.106 28.6511 292.544 28.3091 293.12 28.0451C293.696 27.7691 294.32 27.6311 294.992 27.6311C295.976 27.6311 296.78 27.8351 297.404 28.2431C298.028 28.6391 298.478 29.1611 298.754 29.8091C299.03 30.4451 299.168 31.1291 299.168 31.8611C299.168 32.7011 299.006 33.4631 298.682 34.1471C298.37 34.8191 297.884 35.3531 297.224 35.7491C296.576 36.1451 295.766 36.3431 294.794 36.3431C293.558 36.3431 292.556 36.0251 291.788 35.3891C291.02 34.7411 290.552 33.8711 290.384 32.7791H291.626C291.782 33.5711 292.142 34.1831 292.706 34.6151C293.27 35.0471 293.966 35.2631 294.794 35.2631C295.838 35.2631 296.624 34.9571 297.152 34.3451C297.692 33.7211 297.962 32.8991 297.962 31.8791C297.962 30.8831 297.692 30.1091 297.152 29.5571C296.612 28.9931 295.838 28.7111 294.83 28.7111C294.134 28.7111 293.522 28.8731 292.994 29.1971C292.466 29.5211 292.076 29.9591 291.824 30.5111H290.636V23.3651H298.394V24.4631ZM313.992 36.2891L310.878 31.0331H308.556V36.2891H307.296V23.7071H311.076C312.48 23.7071 313.542 24.0431 314.262 24.7151C314.994 25.3871 315.36 26.2691 315.36 27.3611C315.36 28.2731 315.096 29.0531 314.568 29.7011C314.052 30.3371 313.284 30.7511 312.264 30.9431L315.504 36.2891H313.992ZM308.556 30.0071H311.094C312.078 30.0071 312.816 29.7671 313.308 29.2871C313.812 28.8071 314.064 28.1651 314.064 27.3611C314.064 26.5331 313.824 25.8971 313.344 25.4531C312.864 24.9971 312.108 24.7691 311.076 24.7691H308.556V30.0071ZM317.645 31.3571C317.645 30.3491 317.843 29.4671 318.239 28.7111C318.647 27.9431 319.205 27.3551 319.913 26.9471C320.633 26.5271 321.443 26.3171 322.343 26.3171C323.279 26.3171 324.083 26.5331 324.755 26.9651C325.439 27.3971 325.931 27.9491 326.231 28.6211V26.4611H327.491V36.2891H326.231V34.1111C325.919 34.7831 325.421 35.3411 324.737 35.7851C324.065 36.2171 323.261 36.4331 322.325 36.4331C321.437 36.4331 320.633 36.2231 319.913 35.8031C319.205 35.3831 318.647 34.7891 318.239 34.0211C317.843 33.2531 317.645 32.3651 317.645 31.3571ZM326.231 31.3751C326.231 30.5831 326.069 29.8871 325.745 29.2871C325.421 28.6871 324.977 28.2251 324.413 27.9011C323.861 27.5771 323.249 27.4151 322.577 27.4151C321.881 27.4151 321.257 27.5711 320.705 27.8831C320.153 28.1951 319.715 28.6511 319.391 29.2511C319.079 29.8391 318.923 30.5411 318.923 31.3571C318.923 32.1611 319.079 32.8691 319.391 33.4811C319.715 34.0811 320.153 34.5431 320.705 34.8671C321.257 35.1791 321.881 35.3351 322.577 35.3351C323.249 35.3351 323.861 35.1731 324.413 34.8491C324.977 34.5251 325.421 34.0631 325.745 33.4631C326.069 32.8631 326.231 32.1671 326.231 31.3751ZM330.151 31.3571C330.151 30.3491 330.355 29.4671 330.763 28.7111C331.171 27.9431 331.729 27.3551 332.437 26.9471C333.157 26.5271 333.967 26.3171 334.867 26.3171C335.791 26.3171 336.595 26.5391 337.279 26.9831C337.963 27.4151 338.449 27.9611 338.737 28.6211V26.4611H339.997V40.9331H338.737V34.1291C338.449 34.7891 337.957 35.3411 337.261 35.7851C336.577 36.2171 335.767 36.4331 334.831 36.4331C333.943 36.4331 333.139 36.2231 332.419 35.8031C331.711 35.3831 331.153 34.7891 330.745 34.0211C330.349 33.2531 330.151 32.3651 330.151 31.3571ZM338.737 31.3751C338.737 30.5831 338.575 29.8871 338.251 29.2871C337.927 28.6871 337.483 28.2251 336.919 27.9011C336.367 27.5771 335.755 27.4151 335.083 27.4151C334.387 27.4151 333.763 27.5711 333.211 27.8831C332.659 28.1951 332.221 28.6511 331.897 29.2511C331.585 29.8391 331.429 30.5411 331.429 31.3571C331.429 32.1611 331.585 32.8691 331.897 33.4811C332.221 34.0811 332.659 34.5431 333.211 34.8671C333.763 35.1791 334.387 35.3351 335.083 35.3351C335.755 35.3351 336.367 35.1731 336.919 34.8491C337.483 34.5251 337.927 34.0631 338.251 33.4631C338.575 32.8631 338.737 32.1671 338.737 31.3751ZM351.748 26.4611V36.2891H350.488V34.5611C350.2 35.1731 349.756 35.6411 349.156 35.9651C348.556 36.2891 347.884 36.4511 347.14 36.4511C345.964 36.4511 345.004 36.0911 344.26 35.3711C343.516 34.6391 343.144 33.5831 343.144 32.2031V26.4611H344.386V32.0591C344.386 33.1271 344.65 33.9431 345.178 34.5071C345.718 35.0711 346.45 35.3531 347.374 35.3531C348.322 35.3531 349.078 35.0531 349.642 34.4531C350.206 33.8531 350.488 32.9711 350.488 31.8071V26.4611H351.748ZM363.876 30.8711C363.876 31.3031 363.864 31.6331 363.84 31.8611H355.686C355.722 32.6051 355.902 33.2411 356.226 33.7691C356.55 34.2971 356.976 34.6991 357.504 34.9751C358.032 35.2391 358.608 35.3711 359.232 35.3711C360.048 35.3711 360.732 35.1731 361.284 34.7771C361.848 34.3811 362.22 33.8471 362.4 33.1751H363.732C363.492 34.1351 362.976 34.9211 362.184 35.5331C361.404 36.1331 360.42 36.4331 359.232 36.4331C358.308 36.4331 357.48 36.2291 356.748 35.8211C356.016 35.4011 355.44 34.8131 355.02 34.0571C354.612 33.2891 354.408 32.3951 354.408 31.3751C354.408 30.3551 354.612 29.4611 355.02 28.6931C355.428 27.9251 355.998 27.3371 356.73 26.9291C357.462 26.5211 358.296 26.3171 359.232 26.3171C360.168 26.3171 360.984 26.5211 361.68 26.9291C362.388 27.3371 362.928 27.8891 363.3 28.5851C363.684 29.2691 363.876 30.0311 363.876 30.8711ZM362.598 30.8351C362.61 30.1031 362.46 29.4791 362.148 28.9631C361.848 28.4471 361.434 28.0571 360.906 27.7931C360.378 27.5291 359.802 27.3971 359.178 27.3971C358.242 27.3971 357.444 27.6971 356.784 28.2971C356.124 28.8971 355.758 29.7431 355.686 30.8351H362.598ZM367.802 22.9691V36.2891H366.542V22.9691H367.802ZM388.608 23.8691V36.2891H387.348V26.3711L382.92 36.2891H382.002L377.574 26.4071V36.2891H376.314V23.8691H377.646L382.452 34.6331L387.258 23.8691H388.608ZM391.251 31.3571C391.251 30.3491 391.449 29.4671 391.845 28.7111C392.253 27.9431 392.811 27.3551 393.519 26.9471C394.239 26.5271 395.049 26.3171 395.949 26.3171C396.885 26.3171 397.689 26.5331 398.361 26.9651C399.045 27.3971 399.537 27.9491 399.837 28.6211V26.4611H401.097V36.2891H399.837V34.1111C399.525 34.7831 399.027 35.3411 398.343 35.7851C397.671 36.2171 396.867 36.4331 395.931 36.4331C395.043 36.4331 394.239 36.2231 393.519 35.8031C392.811 35.3831 392.253 34.7891 391.845 34.0211C391.449 33.2531 391.251 32.3651 391.251 31.3571ZM399.837 31.3751C399.837 30.5831 399.675 29.8871 399.351 29.2871C399.027 28.6871 398.583 28.2251 398.019 27.9011C397.467 27.5771 396.855 27.4151 396.183 27.4151C395.487 27.4151 394.863 27.5711 394.311 27.8831C393.759 28.1951 393.321 28.6511 392.997 29.2511C392.685 29.8391 392.529 30.5411 392.529 31.3571C392.529 32.1611 392.685 32.8691 392.997 33.4811C393.321 34.0811 393.759 34.5431 394.311 34.8671C394.863 35.1791 395.487 35.3351 396.183 35.3351C396.855 35.3351 397.467 35.1731 398.019 34.8491C398.583 34.5251 399.027 34.0631 399.351 33.4631C399.675 32.8631 399.837 32.1671 399.837 31.3751ZM405.593 28.2071C405.869 27.5951 406.289 27.1211 406.853 26.7851C407.429 26.4491 408.131 26.2811 408.959 26.2811V27.5951H408.617C407.705 27.5951 406.973 27.8411 406.421 28.3331C405.869 28.8251 405.593 29.6471 405.593 30.7991V36.2891H404.333V26.4611H405.593V28.2071ZM412.853 27.5231V33.6251C412.853 34.2251 412.967 34.6391 413.195 34.8671C413.423 35.0951 413.825 35.2091 414.401 35.2091H415.553V36.2891H414.203C413.315 36.2891 412.655 36.0851 412.223 35.6771C411.791 35.2571 411.575 34.5731 411.575 33.6251V27.5231H410.207V26.4611H411.575V23.9951H412.853V26.4611H415.553V27.5231H412.853ZM419.251 26.4611V36.2891H417.991V26.4611H419.251ZM420.277 23.5631L416.587 25.7051V24.7331L420.277 22.4291V23.5631ZM427.072 26.2811C428.248 26.2811 429.208 26.6471 429.952 27.3791C430.696 28.0991 431.068 29.1491 431.068 30.5291V36.2891H429.826V30.6731C429.826 29.6051 429.556 28.7891 429.016 28.2251C428.488 27.6611 427.762 27.3791 426.838 27.3791C425.89 27.3791 425.134 27.6791 424.57 28.2791C424.006 28.8791 423.724 29.7611 423.724 30.9251V36.2891H422.464V26.4611H423.724V28.1351C424.036 27.5351 424.486 27.0791 425.074 26.7671C425.662 26.4431 426.328 26.2811 427.072 26.2811ZM443.107 30.8711C443.107 31.3031 443.095 31.6331 443.071 31.8611H434.917C434.953 32.6051 435.133 33.2411 435.457 33.7691C435.781 34.2971 436.207 34.6991 436.735 34.9751C437.263 35.2391 437.839 35.3711 438.463 35.3711C439.279 35.3711 439.963 35.1731 440.515 34.7771C441.079 34.3811 441.451 33.8471 441.631 33.1751H442.963C442.723 34.1351 442.207 34.9211 441.415 35.5331C440.635 36.1331 439.651 36.4331 438.463 36.4331C437.539 36.4331 436.711 36.2291 435.979 35.8211C435.247 35.4011 434.671 34.8131 434.251 34.0571C433.843 33.2891 433.639 32.3951 433.639 31.3751C433.639 30.3551 433.843 29.4611 434.251 28.6931C434.659 27.9251 435.229 27.3371 435.961 26.9291C436.693 26.5211 437.527 26.3171 438.463 26.3171C439.399 26.3171 440.215 26.5211 440.911 26.9291C441.619 27.3371 442.159 27.8891 442.531 28.5851C442.915 29.2691 443.107 30.0311 443.107 30.8711ZM441.829 30.8351C441.841 30.1031 441.691 29.4791 441.379 28.9631C441.079 28.4471 440.665 28.0571 440.137 27.7931C439.609 27.5291 439.033 27.3971 438.409 27.3971C437.473 27.3971 436.675 27.6971 436.015 28.2971C435.355 28.8971 434.989 29.7431 434.917 30.8351H441.829ZM446.438 35.2451H451.586V36.2891H444.998V35.2451L450.056 27.5051H445.088V26.4611H451.496V27.5051L446.438 35.2451ZM471.671 23.8691V36.2891H470.411V26.3711L465.983 36.2891H465.065L460.637 26.4071V36.2891H459.377V23.8691H460.709L465.515 34.6331L470.321 23.8691H471.671ZM479.191 36.4331C478.267 36.4331 477.433 36.2291 476.689 35.8211C475.957 35.4011 475.375 34.8131 474.943 34.0571C474.523 33.2891 474.313 32.3951 474.313 31.3751C474.313 30.3551 474.529 29.4671 474.961 28.7111C475.393 27.9431 475.981 27.3551 476.725 26.9471C477.469 26.5271 478.303 26.3171 479.227 26.3171C480.151 26.3171 480.985 26.5271 481.729 26.9471C482.485 27.3551 483.073 27.9431 483.493 28.7111C483.925 29.4671 484.141 30.3551 484.141 31.3751C484.141 32.3831 483.925 33.2711 483.493 34.0391C483.061 34.8071 482.467 35.4011 481.711 35.8211C480.955 36.2291 480.115 36.4331 479.191 36.4331ZM479.191 35.3351C479.839 35.3351 480.439 35.1911 480.991 34.9031C481.543 34.6031 481.987 34.1591 482.323 33.5711C482.671 32.9711 482.845 32.2391 482.845 31.3751C482.845 30.5111 482.677 29.7851 482.341 29.1971C482.005 28.5971 481.561 28.1531 481.009 27.8651C480.457 27.5651 479.857 27.4151 479.209 27.4151C478.561 27.4151 477.961 27.5651 477.409 27.8651C476.857 28.1531 476.413 28.5971 476.077 29.1971C475.753 29.7851 475.591 30.5111 475.591 31.3751C475.591 32.2391 475.753 32.9711 476.077 33.5711C476.413 34.1591 476.851 34.6031 477.391 34.9031C477.943 35.1911 478.543 35.3351 479.191 35.3351ZM488.058 28.2071C488.334 27.5951 488.754 27.1211 489.318 26.7851C489.894 26.4491 490.596 26.2811 491.424 26.2811V27.5951H491.082C490.17 27.5951 489.438 27.8411 488.886 28.3331C488.334 28.8251 488.058 29.6471 488.058 30.7991V36.2891H486.798V26.4611H488.058V28.2071ZM502.571 30.8711C502.571 31.3031 502.559 31.6331 502.535 31.8611H494.381C494.417 32.6051 494.597 33.2411 494.921 33.7691C495.245 34.2971 495.671 34.6991 496.199 34.9751C496.727 35.2391 497.303 35.3711 497.927 35.3711C498.743 35.3711 499.427 35.1731 499.979 34.7771C500.543 34.3811 500.915 33.8471 501.095 33.1751H502.427C502.187 34.1351 501.671 34.9211 500.879 35.5331C500.099 36.1331 499.115 36.4331 497.927 36.4331C497.003 36.4331 496.175 36.2291 495.443 35.8211C494.711 35.4011 494.135 34.8131 493.715 34.0571C493.307 33.2891 493.103 32.3951 493.103 31.3751C493.103 30.3551 493.307 29.4611 493.715 28.6931C494.123 27.9251 494.693 27.3371 495.425 26.9291C496.157 26.5211 496.991 26.3171 497.927 26.3171C498.863 26.3171 499.679 26.5211 500.375 26.9291C501.083 27.3371 501.623 27.8891 501.995 28.5851C502.379 29.2691 502.571 30.0311 502.571 30.8711ZM501.293 30.8351C501.305 30.1031 501.155 29.4791 500.843 28.9631C500.543 28.4471 500.129 28.0571 499.601 27.7931C499.073 27.5291 498.497 27.3971 497.873 27.3971C496.937 27.3971 496.139 27.6971 495.479 28.2971C494.819 28.8971 494.453 29.7431 494.381 30.8351H501.293ZM509.845 26.2811C511.021 26.2811 511.981 26.6471 512.725 27.3791C513.469 28.0991 513.841 29.1491 513.841 30.5291V36.2891H512.599V30.6731C512.599 29.6051 512.329 28.7891 511.789 28.2251C511.261 27.6611 510.535 27.3791 509.611 27.3791C508.663 27.3791 507.907 27.6791 507.343 28.2791C506.779 28.8791 506.497 29.7611 506.497 30.9251V36.2891H505.237V26.4611H506.497V28.1351C506.809 27.5351 507.259 27.0791 507.847 26.7671C508.435 26.4431 509.101 26.2811 509.845 26.2811ZM521.289 36.4331C520.365 36.4331 519.531 36.2291 518.787 35.8211C518.055 35.4011 517.473 34.8131 517.041 34.0571C516.621 33.2891 516.411 32.3951 516.411 31.3751C516.411 30.3551 516.627 29.4671 517.059 28.7111C517.491 27.9431 518.079 27.3551 518.823 26.9471C519.567 26.5271 520.401 26.3171 521.325 26.3171C522.249 26.3171 523.083 26.5271 523.827 26.9471C524.583 27.3551 525.171 27.9431 525.591 28.7111C526.023 29.4671 526.239 30.3551 526.239 31.3751C526.239 32.3831 526.023 33.2711 525.591 34.0391C525.159 34.8071 524.565 35.4011 523.809 35.8211C523.053 36.2291 522.213 36.4331 521.289 36.4331ZM521.289 35.3351C521.937 35.3351 522.537 35.1911 523.089 34.9031C523.641 34.6031 524.085 34.1591 524.421 33.5711C524.769 32.9711 524.943 32.2391 524.943 31.3751C524.943 30.5111 524.775 29.7851 524.439 29.1971C524.103 28.5971 523.659 28.1531 523.107 27.8651C522.555 27.5651 521.955 27.4151 521.307 27.4151C520.659 27.4151 520.059 27.5651 519.507 27.8651C518.955 28.1531 518.511 28.5971 518.175 29.1971C517.851 29.7851 517.689 30.5111 517.689 31.3751C517.689 32.2391 517.851 32.9711 518.175 33.5711C518.511 34.1591 518.949 34.6031 519.489 34.9031C520.041 35.1911 520.641 35.3351 521.289 35.3351ZM530.048 34.2011L528.176 38.9171H527.312L528.644 34.2011H530.048ZM538.927 23.7071V36.2891H537.667V23.7071H538.927ZM546.748 26.2811C547.924 26.2811 548.884 26.6471 549.628 27.3791C550.372 28.0991 550.744 29.1491 550.744 30.5291V36.2891H549.502V30.6731C549.502 29.6051 549.232 28.7891 548.692 28.2251C548.164 27.6611 547.438 27.3791 546.514 27.3791C545.566 27.3791 544.81 27.6791 544.246 28.2791C543.682 28.8791 543.4 29.7611 543.4 30.9251V36.2891H542.14V26.4611H543.4V28.1351C543.712 27.5351 544.162 27.0791 544.75 26.7671C545.338 26.4431 546.004 26.2811 546.748 26.2811ZM553.315 31.3751C553.315 30.3551 553.519 29.4671 553.927 28.7111C554.335 27.9431 554.899 27.3551 555.619 26.9471C556.339 26.5271 557.161 26.3171 558.085 26.3171C559.297 26.3171 560.293 26.6171 561.073 27.2171C561.865 27.8171 562.375 28.6331 562.603 29.6651H561.253C561.085 28.9571 560.719 28.4051 560.155 28.0091C559.603 27.6011 558.913 27.3971 558.085 27.3971C557.425 27.3971 556.831 27.5471 556.303 27.8471C555.775 28.1471 555.355 28.5971 555.043 29.1971C554.743 29.7851 554.593 30.5111 554.593 31.3751C554.593 32.2391 554.743 32.9711 555.043 33.5711C555.355 34.1711 555.775 34.6211 556.303 34.9211C556.831 35.2211 557.425 35.3711 558.085 35.3711C558.913 35.3711 559.603 35.1731 560.155 34.7771C560.719 34.3691 561.085 33.8051 561.253 33.0851H562.603C562.375 34.0931 561.865 34.9031 561.073 35.5151C560.281 36.1271 559.285 36.4331 558.085 36.4331C557.161 36.4331 556.339 36.2291 555.619 35.8211C554.899 35.4011 554.335 34.8131 553.927 34.0571C553.519 33.2891 553.315 32.3951 553.315 31.3751ZM565.506 36.3791C565.242 36.3791 565.02 36.2891 564.84 36.1091C564.672 35.9291 564.588 35.7071 564.588 35.4431C564.588 35.1791 564.672 34.9631 564.84 34.7951C565.02 34.6151 565.242 34.5251 565.506 34.5251C565.758 34.5251 565.968 34.6151 566.136 34.7951C566.316 34.9631 566.406 35.1791 566.406 35.4431C566.406 35.7071 566.316 35.9291 566.136 36.1091C565.968 36.2891 565.758 36.3791 565.506 36.3791Z" fill="#004C78"/>
<path d="M594.131 23.7071V24.7511H590.639V36.2891H589.379V24.7511H585.869V23.7071H594.131ZM600.782 36.4331C599.858 36.4331 599.024 36.2291 598.28 35.8211C597.548 35.4011 596.966 34.8131 596.534 34.0571C596.114 33.2891 595.904 32.3951 595.904 31.3751C595.904 30.3551 596.12 29.4671 596.552 28.7111C596.984 27.9431 597.572 27.3551 598.316 26.9471C599.06 26.5271 599.894 26.3171 600.818 26.3171C601.742 26.3171 602.576 26.5271 603.32 26.9471C604.076 27.3551 604.664 27.9431 605.084 28.7111C605.516 29.4671 605.732 30.3551 605.732 31.3751C605.732 32.3831 605.516 33.2711 605.084 34.0391C604.652 34.8071 604.058 35.4011 603.302 35.8211C602.546 36.2291 601.706 36.4331 600.782 36.4331ZM600.782 35.3351C601.43 35.3351 602.03 35.1911 602.582 34.9031C603.134 34.6031 603.578 34.1591 603.914 33.5711C604.262 32.9711 604.436 32.2391 604.436 31.3751C604.436 30.5111 604.268 29.7851 603.932 29.1971C603.596 28.5971 603.152 28.1531 602.6 27.8651C602.048 27.5651 601.448 27.4151 600.8 27.4151C600.152 27.4151 599.552 27.5651 599 27.8651C598.448 28.1531 598.004 28.5971 597.668 29.1971C597.344 29.7851 597.182 30.5111 597.182 31.3751C597.182 32.2391 597.344 32.9711 597.668 33.5711C598.004 34.1591 598.442 34.6031 598.982 34.9031C599.534 35.1911 600.134 35.3351 600.782 35.3351ZM607.813 31.3571C607.813 30.3491 608.017 29.4671 608.425 28.7111C608.833 27.9431 609.391 27.3551 610.099 26.9471C610.819 26.5271 611.629 26.3171 612.529 26.3171C613.393 26.3171 614.173 26.5271 614.869 26.9471C615.565 27.3671 616.075 27.9131 616.399 28.5851V22.9691H617.659V36.2891H616.399V34.0931C616.099 34.7771 615.607 35.3411 614.923 35.7851C614.239 36.2171 613.435 36.4331 612.511 36.4331C611.611 36.4331 610.801 36.2231 610.081 35.8031C609.373 35.3831 608.815 34.7891 608.407 34.0211C608.011 33.2531 607.813 32.3651 607.813 31.3571ZM616.399 31.3751C616.399 30.5831 616.237 29.8871 615.913 29.2871C615.589 28.6871 615.145 28.2251 614.581 27.9011C614.029 27.5771 613.417 27.4151 612.745 27.4151C612.049 27.4151 611.425 27.5711 610.873 27.8831C610.321 28.1951 609.883 28.6511 609.559 29.2511C609.247 29.8391 609.091 30.5411 609.091 31.3571C609.091 32.1611 609.247 32.8691 609.559 33.4811C609.883 34.0811 610.321 34.5431 610.873 34.8671C611.425 35.1791 612.049 35.3351 612.745 35.3351C613.417 35.3351 614.029 35.1731 614.581 34.8491C615.145 34.5251 615.589 34.0631 615.913 33.4631C616.237 32.8631 616.399 32.1671 616.399 31.3751ZM625.197 36.4331C624.273 36.4331 623.439 36.2291 622.695 35.8211C621.963 35.4011 621.381 34.8131 620.949 34.0571C620.529 33.2891 620.319 32.3951 620.319 31.3751C620.319 30.3551 620.535 29.4671 620.967 28.7111C621.399 27.9431 621.987 27.3551 622.731 26.9471C623.475 26.5271 624.309 26.3171 625.233 26.3171C626.157 26.3171 626.991 26.5271 627.735 26.9471C628.491 27.3551 629.079 27.9431 629.499 28.7111C629.931 29.4671 630.147 30.3551 630.147 31.3751C630.147 32.3831 629.931 33.2711 629.499 34.0391C629.067 34.8071 628.473 35.4011 627.717 35.8211C626.961 36.2291 626.121 36.4331 625.197 36.4331ZM625.197 35.3351C625.845 35.3351 626.445 35.1911 626.997 34.9031C627.549 34.6031 627.993 34.1591 628.329 33.5711C628.677 32.9711 628.851 32.2391 628.851 31.3751C628.851 30.5111 628.683 29.7851 628.347 29.1971C628.011 28.5971 627.567 28.1531 627.015 27.8651C626.463 27.5651 625.863 27.4151 625.215 27.4151C624.567 27.4151 623.967 27.5651 623.415 27.8651C622.863 28.1531 622.419 28.5971 622.083 29.1971C621.759 29.7851 621.597 30.5111 621.597 31.3751C621.597 32.2391 621.759 32.9711 622.083 33.5711C622.419 34.1591 622.857 34.6031 623.397 34.9031C623.949 35.1911 624.549 35.3351 625.197 35.3351ZM636.188 36.4331C635.06 36.4331 634.136 36.1751 633.416 35.6591C632.708 35.1311 632.312 34.4171 632.228 33.5171H633.524C633.584 34.0691 633.842 34.5191 634.298 34.8671C634.766 35.2031 635.39 35.3711 636.17 35.3711C636.854 35.3711 637.388 35.2091 637.772 34.8851C638.168 34.5611 638.366 34.1591 638.366 33.6791C638.366 33.3431 638.258 33.0671 638.042 32.8511C637.826 32.6351 637.55 32.4671 637.214 32.3471C636.89 32.2151 636.446 32.0771 635.882 31.9331C635.15 31.7411 634.556 31.5491 634.1 31.3571C633.644 31.1651 633.254 30.8831 632.93 30.5111C632.618 30.1271 632.462 29.6171 632.462 28.9811C632.462 28.5011 632.606 28.0571 632.894 27.6491C633.182 27.2411 633.59 26.9171 634.118 26.6771C634.646 26.4371 635.246 26.3171 635.918 26.3171C636.974 26.3171 637.826 26.5871 638.474 27.1271C639.122 27.6551 639.47 28.3871 639.518 29.3231H638.258C638.222 28.7471 637.994 28.2851 637.574 27.9371C637.166 27.5771 636.602 27.3971 635.882 27.3971C635.246 27.3971 634.73 27.5471 634.334 27.8471C633.938 28.1471 633.74 28.5191 633.74 28.9631C633.74 29.3471 633.854 29.6651 634.082 29.9171C634.322 30.1571 634.616 30.3491 634.964 30.4931C635.312 30.6251 635.78 30.7751 636.368 30.9431C637.076 31.1351 637.64 31.3211 638.06 31.5011C638.48 31.6811 638.84 31.9451 639.14 32.2931C639.44 32.6411 639.596 33.1031 639.608 33.6791C639.608 34.2071 639.464 34.6811 639.176 35.1011C638.888 35.5091 638.486 35.8331 637.97 36.0731C637.454 36.3131 636.86 36.4331 636.188 36.4331ZM648.9 22.9691V36.2891H647.64V22.9691H648.9ZM656.415 36.4331C655.491 36.4331 654.657 36.2291 653.913 35.8211C653.181 35.4011 652.599 34.8131 652.167 34.0571C651.747 33.2891 651.537 32.3951 651.537 31.3751C651.537 30.3551 651.753 29.4671 652.185 28.7111C652.617 27.9431 653.205 27.3551 653.949 26.9471C654.693 26.5271 655.527 26.3171 656.451 26.3171C657.375 26.3171 658.209 26.5271 658.953 26.9471C659.709 27.3551 660.297 27.9431 660.717 28.7111C661.149 29.4671 661.365 30.3551 661.365 31.3751C661.365 32.3831 661.149 33.2711 660.717 34.0391C660.285 34.8071 659.691 35.4011 658.935 35.8211C658.179 36.2291 657.339 36.4331 656.415 36.4331ZM656.415 35.3351C657.063 35.3351 657.663 35.1911 658.215 34.9031C658.767 34.6031 659.211 34.1591 659.547 33.5711C659.895 32.9711 660.069 32.2391 660.069 31.3751C660.069 30.5111 659.901 29.7851 659.565 29.1971C659.229 28.5971 658.785 28.1531 658.233 27.8651C657.681 27.5651 657.081 27.4151 656.433 27.4151C655.785 27.4151 655.185 27.5651 654.633 27.8651C654.081 28.1531 653.637 28.5971 653.301 29.1971C652.977 29.7851 652.815 30.5111 652.815 31.3751C652.815 32.2391 652.977 32.9711 653.301 33.5711C653.637 34.1591 654.075 34.6031 654.615 34.9031C655.167 35.1911 655.767 35.3351 656.415 35.3351ZM667.406 36.4331C666.278 36.4331 665.354 36.1751 664.634 35.6591C663.926 35.1311 663.53 34.4171 663.446 33.5171H664.742C664.802 34.0691 665.06 34.5191 665.516 34.8671C665.984 35.2031 666.608 35.3711 667.388 35.3711C668.072 35.3711 668.606 35.2091 668.99 34.8851C669.386 34.5611 669.584 34.1591 669.584 33.6791C669.584 33.3431 669.476 33.0671 669.26 32.8511C669.044 32.6351 668.768 32.4671 668.432 32.3471C668.108 32.2151 667.664 32.0771 667.1 31.9331C666.368 31.7411 665.774 31.5491 665.318 31.3571C664.862 31.1651 664.472 30.8831 664.148 30.5111C663.836 30.1271 663.68 29.6171 663.68 28.9811C663.68 28.5011 663.824 28.0571 664.112 27.6491C664.4 27.2411 664.808 26.9171 665.336 26.6771C665.864 26.4371 666.464 26.3171 667.136 26.3171C668.192 26.3171 669.044 26.5871 669.692 27.1271C670.34 27.6551 670.688 28.3871 670.736 29.3231H669.476C669.44 28.7471 669.212 28.2851 668.792 27.9371C668.384 27.5771 667.82 27.3971 667.1 27.3971C666.464 27.3971 665.948 27.5471 665.552 27.8471C665.156 28.1471 664.958 28.5191 664.958 28.9631C664.958 29.3471 665.072 29.6651 665.3 29.9171C665.54 30.1571 665.834 30.3491 666.182 30.4931C666.53 30.6251 666.998 30.7751 667.586 30.9431C668.294 31.1351 668.858 31.3211 669.278 31.5011C669.698 31.6811 670.058 31.9451 670.358 32.2931C670.658 32.6411 670.814 33.1031 670.826 33.6791C670.826 34.2071 670.682 34.6811 670.394 35.1011C670.106 35.5091 669.704 35.8331 669.188 36.0731C668.672 36.3131 668.078 36.4331 667.406 36.4331ZM678.281 31.3571C678.281 30.3491 678.485 29.4671 678.893 28.7111C679.301 27.9431 679.859 27.3551 680.567 26.9471C681.287 26.5271 682.097 26.3171 682.997 26.3171C683.861 26.3171 684.641 26.5271 685.337 26.9471C686.033 27.3671 686.543 27.9131 686.867 28.5851V22.9691H688.127V36.2891H686.867V34.0931C686.567 34.7771 686.075 35.3411 685.391 35.7851C684.707 36.2171 683.903 36.4331 682.979 36.4331C682.079 36.4331 681.269 36.2231 680.549 35.8031C679.841 35.3831 679.283 34.7891 678.875 34.0211C678.479 33.2531 678.281 32.3651 678.281 31.3571ZM686.867 31.3751C686.867 30.5831 686.705 29.8871 686.381 29.2871C686.057 28.6871 685.613 28.2251 685.049 27.9011C684.497 27.5771 683.885 27.4151 683.213 27.4151C682.517 27.4151 681.893 27.5711 681.341 27.8831C680.789 28.1951 680.351 28.6511 680.027 29.2511C679.715 29.8391 679.559 30.5411 679.559 31.3571C679.559 32.1611 679.715 32.8691 680.027 33.4811C680.351 34.0811 680.789 34.5431 681.341 34.8671C681.893 35.1791 682.517 35.3351 683.213 35.3351C683.885 35.3351 684.497 35.1731 685.049 34.8491C685.613 34.5251 686.057 34.0631 686.381 33.4631C686.705 32.8631 686.867 32.1671 686.867 31.3751ZM700.255 30.8711C700.255 31.3031 700.243 31.6331 700.219 31.8611H692.065C692.101 32.6051 692.281 33.2411 692.605 33.7691C692.929 34.2971 693.355 34.6991 693.883 34.9751C694.411 35.2391 694.987 35.3711 695.611 35.3711C696.427 35.3711 697.111 35.1731 697.663 34.7771C698.227 34.3811 698.599 33.8471 698.779 33.1751H700.111C699.871 34.1351 699.355 34.9211 698.563 35.5331C697.783 36.1331 696.799 36.4331 695.611 36.4331C694.687 36.4331 693.859 36.2291 693.127 35.8211C692.395 35.4011 691.819 34.8131 691.399 34.0571C690.991 33.2891 690.787 32.3951 690.787 31.3751C690.787 30.3551 690.991 29.4611 691.399 28.6931C691.807 27.9251 692.377 27.3371 693.109 26.9291C693.841 26.5211 694.675 26.3171 695.611 26.3171C696.547 26.3171 697.363 26.5211 698.059 26.9291C698.767 27.3371 699.307 27.8891 699.679 28.5851C700.063 29.2691 700.255 30.0311 700.255 30.8711ZM698.977 30.8351C698.989 30.1031 698.839 29.4791 698.527 28.9631C698.227 28.4471 697.813 28.0571 697.285 27.7931C696.757 27.5291 696.181 27.3971 695.557 27.3971C694.621 27.3971 693.823 27.6971 693.163 28.2971C692.503 28.8971 692.137 29.7431 692.065 30.8351H698.977ZM704.181 28.2071C704.457 27.5951 704.877 27.1211 705.441 26.7851C706.017 26.4491 706.719 26.2811 707.547 26.2811V27.5951H707.205C706.293 27.5951 705.561 27.8411 705.009 28.3331C704.457 28.8251 704.181 29.6471 704.181 30.7991V36.2891H702.921V26.4611H704.181V28.2071ZM718.694 30.8711C718.694 31.3031 718.682 31.6331 718.658 31.8611H710.504C710.54 32.6051 710.72 33.2411 711.044 33.7691C711.368 34.2971 711.794 34.6991 712.322 34.9751C712.85 35.2391 713.426 35.3711 714.05 35.3711C714.866 35.3711 715.55 35.1731 716.102 34.7771C716.666 34.3811 717.038 33.8471 717.218 33.1751H718.55C718.31 34.1351 717.794 34.9211 717.002 35.5331C716.222 36.1331 715.238 36.4331 714.05 36.4331C713.126 36.4331 712.298 36.2291 711.566 35.8211C710.834 35.4011 710.258 34.8131 709.838 34.0571C709.43 33.2891 709.226 32.3951 709.226 31.3751C709.226 30.3551 709.43 29.4611 709.838 28.6931C710.246 27.9251 710.816 27.3371 711.548 26.9291C712.28 26.5211 713.114 26.3171 714.05 26.3171C714.986 26.3171 715.802 26.5211 716.498 26.9291C717.206 27.3371 717.746 27.8891 718.118 28.5851C718.502 29.2691 718.694 30.0311 718.694 30.8711ZM717.416 30.8351C717.428 30.1031 717.278 29.4791 716.966 28.9631C716.666 28.4471 716.252 28.0571 715.724 27.7931C715.196 27.5291 714.62 27.3971 713.996 27.3971C713.06 27.3971 712.262 27.6971 711.602 28.2971C710.942 28.8971 710.576 29.7431 710.504 30.8351H717.416ZM720.783 31.3751C720.783 30.3551 720.987 29.4671 721.395 28.7111C721.803 27.9431 722.367 27.3551 723.087 26.9471C723.807 26.5271 724.629 26.3171 725.553 26.3171C726.765 26.3171 727.761 26.6171 728.541 27.2171C729.333 27.8171 729.843 28.6331 730.071 29.6651H728.721C728.553 28.9571 728.187 28.4051 727.623 28.0091C727.071 27.6011 726.381 27.3971 725.553 27.3971C724.893 27.3971 724.299 27.5471 723.771 27.8471C723.243 28.1471 722.823 28.5971 722.511 29.1971C722.211 29.7851 722.061 30.5111 722.061 31.3751C722.061 32.2391 722.211 32.9711 722.511 33.5711C722.823 34.1711 723.243 34.6211 723.771 34.9211C724.299 35.2211 724.893 35.3711 725.553 35.3711C726.381 35.3711 727.071 35.1731 727.623 34.7771C728.187 34.3691 728.553 33.8051 728.721 33.0851H730.071C729.843 34.0931 729.333 34.9031 728.541 35.5151C727.749 36.1271 726.753 36.4331 725.553 36.4331C724.629 36.4331 723.807 36.2291 723.087 35.8211C722.367 35.4011 721.803 34.8131 721.395 34.0571C720.987 33.2891 720.783 32.3951 720.783 31.3751ZM737.438 26.2811C738.182 26.2811 738.848 26.4371 739.436 26.7491C740.036 27.0611 740.504 27.5411 740.84 28.1891C741.188 28.8251 741.362 29.6051 741.362 30.5291V36.2891H740.12V30.6731C740.12 29.6051 739.85 28.7891 739.31 28.2251C738.782 27.6611 738.056 27.3791 737.132 27.3791C736.184 27.3791 735.428 27.6791 734.864 28.2791C734.3 28.8791 734.018 29.7611 734.018 30.9251V36.2891H732.758V22.9691H734.018V28.1351C734.33 27.5471 734.786 27.0911 735.386 26.7671C735.998 26.4431 736.682 26.2811 737.438 26.2811ZM748.811 36.4331C747.887 36.4331 747.053 36.2291 746.309 35.8211C745.577 35.4011 744.995 34.8131 744.563 34.0571C744.143 33.2891 743.933 32.3951 743.933 31.3751C743.933 30.3551 744.149 29.4671 744.581 28.7111C745.013 27.9431 745.601 27.3551 746.345 26.9471C747.089 26.5271 747.923 26.3171 748.847 26.3171C749.771 26.3171 750.605 26.5271 751.349 26.9471C752.105 27.3551 752.693 27.9431 753.113 28.7111C753.545 29.4671 753.761 30.3551 753.761 31.3751C753.761 32.3831 753.545 33.2711 753.113 34.0391C752.681 34.8071 752.087 35.4011 751.331 35.8211C750.575 36.2291 749.735 36.4331 748.811 36.4331ZM748.811 35.3351C749.459 35.3351 750.059 35.1911 750.611 34.9031C751.163 34.6031 751.607 34.1591 751.943 33.5711C752.291 32.9711 752.465 32.2391 752.465 31.3751C752.465 30.5111 752.297 29.7851 751.961 29.1971C751.625 28.5971 751.181 28.1531 750.629 27.8651C750.077 27.5651 749.477 27.4151 748.829 27.4151C748.181 27.4151 747.581 27.5651 747.029 27.8651C746.477 28.1531 746.033 28.5971 745.697 29.1971C745.373 29.7851 745.211 30.5111 745.211 31.3751C745.211 32.2391 745.373 32.9711 745.697 33.5711C746.033 34.1591 746.471 34.6031 747.011 34.9031C747.563 35.1911 748.163 35.3351 748.811 35.3351ZM759.802 36.4331C758.674 36.4331 757.75 36.1751 757.03 35.6591C756.322 35.1311 755.926 34.4171 755.842 33.5171H757.138C757.198 34.0691 757.456 34.5191 757.912 34.8671C758.38 35.2031 759.004 35.3711 759.784 35.3711C760.468 35.3711 761.002 35.2091 761.386 34.8851C761.782 34.5611 761.98 34.1591 761.98 33.6791C761.98 33.3431 761.872 33.0671 761.656 32.8511C761.44 32.6351 761.164 32.4671 760.828 32.3471C760.504 32.2151 760.06 32.0771 759.496 31.9331C758.764 31.7411 758.17 31.5491 757.714 31.3571C757.258 31.1651 756.868 30.8831 756.544 30.5111C756.232 30.1271 756.076 29.6171 756.076 28.9811C756.076 28.5011 756.22 28.0571 756.508 27.6491C756.796 27.2411 757.204 26.9171 757.732 26.6771C758.26 26.4371 758.86 26.3171 759.532 26.3171C760.588 26.3171 761.44 26.5871 762.088 27.1271C762.736 27.6551 763.084 28.3871 763.132 29.3231H761.872C761.836 28.7471 761.608 28.2851 761.188 27.9371C760.78 27.5771 760.216 27.3971 759.496 27.3971C758.86 27.3971 758.344 27.5471 757.948 27.8471C757.552 28.1471 757.354 28.5191 757.354 28.9631C757.354 29.3471 757.468 29.6651 757.696 29.9171C757.936 30.1571 758.23 30.3491 758.578 30.4931C758.926 30.6251 759.394 30.7751 759.982 30.9431C760.69 31.1351 761.254 31.3211 761.674 31.5011C762.094 31.6811 762.454 31.9451 762.754 32.2931C763.054 32.6411 763.21 33.1031 763.222 33.6791C763.222 34.2071 763.078 34.6811 762.79 35.1011C762.502 35.5091 762.1 35.8331 761.584 36.0731C761.068 36.3131 760.474 36.4331 759.802 36.4331ZM780.145 30.8711C780.145 31.3031 780.133 31.6331 780.109 31.8611H771.955C771.991 32.6051 772.171 33.2411 772.495 33.7691C772.819 34.2971 773.245 34.6991 773.773 34.9751C774.301 35.2391 774.877 35.3711 775.501 35.3711C776.317 35.3711 777.001 35.1731 777.553 34.7771C778.117 34.3811 778.489 33.8471 778.669 33.1751H780.001C779.761 34.1351 779.245 34.9211 778.453 35.5331C777.673 36.1331 776.689 36.4331 775.501 36.4331C774.577 36.4331 773.749 36.2291 773.017 35.8211C772.285 35.4011 771.709 34.8131 771.289 34.0571C770.881 33.2891 770.677 32.3951 770.677 31.3751C770.677 30.3551 770.881 29.4611 771.289 28.6931C771.697 27.9251 772.267 27.3371 772.999 26.9291C773.731 26.5211 774.565 26.3171 775.501 26.3171C776.437 26.3171 777.253 26.5211 777.949 26.9291C778.657 27.3371 779.197 27.8891 779.569 28.5851C779.953 29.2691 780.145 30.0311 780.145 30.8711ZM778.867 30.8351C778.879 30.1031 778.729 29.4791 778.417 28.9631C778.117 28.4471 777.703 28.0571 777.175 27.7931C776.647 27.5291 776.071 27.3971 775.447 27.3971C774.511 27.3971 773.713 27.6971 773.053 28.2971C772.393 28.8971 772.027 29.7431 771.955 30.8351H778.867ZM786.194 36.4331C785.066 36.4331 784.142 36.1751 783.422 35.6591C782.714 35.1311 782.318 34.4171 782.234 33.5171H783.53C783.59 34.0691 783.848 34.5191 784.304 34.8671C784.772 35.2031 785.396 35.3711 786.176 35.3711C786.86 35.3711 787.394 35.2091 787.778 34.8851C788.174 34.5611 788.372 34.1591 788.372 33.6791C788.372 33.3431 788.264 33.0671 788.048 32.8511C787.832 32.6351 787.556 32.4671 787.22 32.3471C786.896 32.2151 786.452 32.0771 785.888 31.9331C785.156 31.7411 784.562 31.5491 784.106 31.3571C783.65 31.1651 783.26 30.8831 782.936 30.5111C782.624 30.1271 782.468 29.6171 782.468 28.9811C782.468 28.5011 782.612 28.0571 782.9 27.6491C783.188 27.2411 783.596 26.9171 784.124 26.6771C784.652 26.4371 785.252 26.3171 785.924 26.3171C786.98 26.3171 787.832 26.5871 788.48 27.1271C789.128 27.6551 789.476 28.3871 789.524 29.3231H788.264C788.228 28.7471 788 28.2851 787.58 27.9371C787.172 27.5771 786.608 27.3971 785.888 27.3971C785.252 27.3971 784.736 27.5471 784.34 27.8471C783.944 28.1471 783.746 28.5191 783.746 28.9631C783.746 29.3471 783.86 29.6651 784.088 29.9171C784.328 30.1571 784.622 30.3491 784.97 30.4931C785.318 30.6251 785.786 30.7751 786.374 30.9431C787.082 31.1351 787.646 31.3211 788.066 31.5011C788.486 31.6811 788.846 31.9451 789.146 32.2931C789.446 32.6411 789.602 33.1031 789.614 33.6791C789.614 34.2071 789.47 34.6811 789.182 35.1011C788.894 35.5091 788.492 35.8331 787.976 36.0731C787.46 36.3131 786.866 36.4331 786.194 36.4331ZM793.984 27.5231V33.6251C793.984 34.2251 794.098 34.6391 794.326 34.8671C794.554 35.0951 794.956 35.2091 795.532 35.2091H796.684V36.2891H795.334C794.446 36.2891 793.786 36.0851 793.354 35.6771C792.922 35.2571 792.706 34.5731 792.706 33.6251V27.5231H791.338V26.4611H792.706V23.9951H793.984V26.4611H796.684V27.5231H793.984ZM798.546 31.3571C798.546 30.3491 798.744 29.4671 799.14 28.7111C799.548 27.9431 800.106 27.3551 800.814 26.9471C801.534 26.5271 802.344 26.3171 803.244 26.3171C804.18 26.3171 804.984 26.5331 805.656 26.9651C806.34 27.3971 806.832 27.9491 807.132 28.6211V26.4611H808.392V36.2891H807.132V34.1111C806.82 34.7831 806.322 35.3411 805.638 35.7851C804.966 36.2171 804.162 36.4331 803.226 36.4331C802.338 36.4331 801.534 36.2231 800.814 35.8031C800.106 35.3831 799.548 34.7891 799.14 34.0211C798.744 33.2531 798.546 32.3651 798.546 31.3571ZM807.132 31.3751C807.132 30.5831 806.97 29.8871 806.646 29.2871C806.322 28.6871 805.878 28.2251 805.314 27.9011C804.762 27.5771 804.15 27.4151 803.478 27.4151C802.782 27.4151 802.158 27.5711 801.606 27.8831C801.054 28.1951 800.616 28.6511 800.292 29.2511C799.98 29.8391 799.824 30.5411 799.824 31.3571C799.824 32.1611 799.98 32.8691 800.292 33.4811C800.616 34.0811 801.054 34.5431 801.606 34.8671C802.158 35.1791 802.782 35.3351 803.478 35.3351C804.15 35.3351 804.762 35.1731 805.314 34.8491C805.878 34.5251 806.322 34.0631 806.646 33.4631C806.97 32.8631 807.132 32.1671 807.132 31.3751ZM805.44 23.5631L801.75 25.7051V24.7331L805.44 22.4291V23.5631ZM816.237 26.2811C817.413 26.2811 818.373 26.6471 819.117 27.3791C819.861 28.0991 820.233 29.1491 820.233 30.5291V36.2891H818.991V30.6731C818.991 29.6051 818.721 28.7891 818.181 28.2251C817.653 27.6611 816.927 27.3791 816.003 27.3791C815.055 27.3791 814.299 27.6791 813.735 28.2791C813.171 28.8791 812.889 29.7611 812.889 30.9251V36.2891H811.629V26.4611H812.889V28.1351C813.201 27.5351 813.651 27.0791 814.239 26.7671C814.827 26.4431 815.493 26.2811 816.237 26.2811ZM829.939 28.2071C830.215 27.5951 830.635 27.1211 831.199 26.7851C831.775 26.4491 832.477 26.2811 833.305 26.2811V27.5951H832.963C832.051 27.5951 831.319 27.8411 830.767 28.3331C830.215 28.8251 829.939 29.6471 829.939 30.7991V36.2891H828.679V26.4611H829.939V28.2071ZM844.452 30.8711C844.452 31.3031 844.44 31.6331 844.416 31.8611H836.262C836.298 32.6051 836.478 33.2411 836.802 33.7691C837.126 34.2971 837.552 34.6991 838.08 34.9751C838.608 35.2391 839.184 35.3711 839.808 35.3711C840.624 35.3711 841.308 35.1731 841.86 34.7771C842.424 34.3811 842.796 33.8471 842.976 33.1751H844.308C844.068 34.1351 843.552 34.9211 842.76 35.5331C841.98 36.1331 840.996 36.4331 839.808 36.4331C838.884 36.4331 838.056 36.2291 837.324 35.8211C836.592 35.4011 836.016 34.8131 835.596 34.0571C835.188 33.2891 834.984 32.3951 834.984 31.3751C834.984 30.3551 835.188 29.4611 835.596 28.6931C836.004 27.9251 836.574 27.3371 837.306 26.9291C838.038 26.5211 838.872 26.3171 839.808 26.3171C840.744 26.3171 841.56 26.5211 842.256 26.9291C842.964 27.3371 843.504 27.8891 843.876 28.5851C844.26 29.2691 844.452 30.0311 844.452 30.8711ZM843.174 30.8351C843.186 30.1031 843.036 29.4791 842.724 28.9631C842.424 28.4471 842.01 28.0571 841.482 27.7931C840.954 27.5291 840.378 27.3971 839.754 27.3971C838.818 27.3971 838.02 27.6971 837.36 28.2971C836.7 28.8971 836.334 29.7431 836.262 30.8351H843.174ZM850.502 36.4331C849.374 36.4331 848.45 36.1751 847.73 35.6591C847.022 35.1311 846.626 34.4171 846.542 33.5171H847.838C847.898 34.0691 848.156 34.5191 848.612 34.8671C849.08 35.2031 849.704 35.3711 850.484 35.3711C851.168 35.3711 851.702 35.2091 852.086 34.8851C852.482 34.5611 852.68 34.1591 852.68 33.6791C852.68 33.3431 852.572 33.0671 852.356 32.8511C852.14 32.6351 851.864 32.4671 851.528 32.3471C851.204 32.2151 850.76 32.0771 850.196 31.9331C849.464 31.7411 848.87 31.5491 848.414 31.3571C847.958 31.1651 847.568 30.8831 847.244 30.5111C846.932 30.1271 846.776 29.6171 846.776 28.9811C846.776 28.5011 846.92 28.0571 847.208 27.6491C847.496 27.2411 847.904 26.9171 848.432 26.6771C848.96 26.4371 849.56 26.3171 850.232 26.3171C851.288 26.3171 852.14 26.5871 852.788 27.1271C853.436 27.6551 853.784 28.3871 853.832 29.3231H852.572C852.536 28.7471 852.308 28.2851 851.888 27.9371C851.48 27.5771 850.916 27.3971 850.196 27.3971C849.56 27.3971 849.044 27.5471 848.648 27.8471C848.252 28.1471 848.054 28.5191 848.054 28.9631C848.054 29.3471 848.168 29.6651 848.396 29.9171C848.636 30.1571 848.93 30.3491 849.278 30.4931C849.626 30.6251 850.094 30.7751 850.682 30.9431C851.39 31.1351 851.954 31.3211 852.374 31.5011C852.794 31.6811 853.154 31.9451 853.454 32.2931C853.754 32.6411 853.91 33.1031 853.922 33.6791C853.922 34.2071 853.778 34.6811 853.49 35.1011C853.202 35.5091 852.8 35.8331 852.284 36.0731C851.768 36.3131 851.174 36.4331 850.502 36.4331ZM865.545 30.8711C865.545 31.3031 865.533 31.6331 865.509 31.8611H857.355C857.391 32.6051 857.571 33.2411 857.895 33.7691C858.219 34.2971 858.645 34.6991 859.173 34.9751C859.701 35.2391 860.277 35.3711 860.901 35.3711C861.717 35.3711 862.401 35.1731 862.953 34.7771C863.517 34.3811 863.889 33.8471 864.069 33.1751H865.401C865.161 34.1351 864.645 34.9211 863.853 35.5331C863.073 36.1331 862.089 36.4331 860.901 36.4331C859.977 36.4331 859.149 36.2291 858.417 35.8211C857.685 35.4011 857.109 34.8131 856.689 34.0571C856.281 33.2891 856.077 32.3951 856.077 31.3751C856.077 30.3551 856.281 29.4611 856.689 28.6931C857.097 27.9251 857.667 27.3371 858.399 26.9291C859.131 26.5211 859.965 26.3171 860.901 26.3171C861.837 26.3171 862.653 26.5211 863.349 26.9291C864.057 27.3371 864.597 27.8891 864.969 28.5851C865.353 29.2691 865.545 30.0311 865.545 30.8711ZM864.267 30.8351C864.279 30.1031 864.129 29.4791 863.817 28.9631C863.517 28.4471 863.103 28.0571 862.575 27.7931C862.047 27.5291 861.471 27.3971 860.847 27.3971C859.911 27.3971 859.113 27.6971 858.453 28.2971C857.793 28.8971 857.427 29.7431 857.355 30.8351H864.267ZM869.471 28.2071C869.747 27.5951 870.167 27.1211 870.731 26.7851C871.307 26.4491 872.009 26.2811 872.837 26.2811V27.5951H872.495C871.583 27.5951 870.851 27.8411 870.299 28.3331C869.747 28.8251 869.471 29.6471 869.471 30.7991V36.2891H868.211V26.4611H869.471V28.2071ZM878.584 35.0651L881.896 26.4611H883.228L879.286 36.2891H877.864L873.922 26.4611H875.272L878.584 35.0651ZM884.72 31.3571C884.72 30.3491 884.918 29.4671 885.314 28.7111C885.722 27.9431 886.28 27.3551 886.988 26.9471C887.708 26.5271 888.518 26.3171 889.418 26.3171C890.354 26.3171 891.158 26.5331 891.83 26.9651C892.514 27.3971 893.006 27.9491 893.306 28.6211V26.4611H894.566V36.2891H893.306V34.1111C892.994 34.7831 892.496 35.3411 891.812 35.7851C891.14 36.2171 890.336 36.4331 889.4 36.4331C888.512 36.4331 887.708 36.2231 886.988 35.8031C886.28 35.3831 885.722 34.7891 885.314 34.0211C884.918 33.2531 884.72 32.3651 884.72 31.3571ZM893.306 31.3751C893.306 30.5831 893.144 29.8871 892.82 29.2871C892.496 28.6871 892.052 28.2251 891.488 27.9011C890.936 27.5771 890.324 27.4151 889.652 27.4151C888.956 27.4151 888.332 27.5711 887.78 27.8831C887.228 28.1951 886.79 28.6511 886.466 29.2511C886.154 29.8391 885.998 30.5411 885.998 31.3571C885.998 32.1611 886.154 32.8691 886.466 33.4811C886.79 34.0811 887.228 34.5431 887.78 34.8671C888.332 35.1791 888.956 35.3351 889.652 35.3351C890.324 35.3351 890.936 35.1731 891.488 34.8491C892.052 34.5251 892.496 34.0631 892.82 33.4631C893.144 32.8631 893.306 32.1671 893.306 31.3751ZM897.226 31.3571C897.226 30.3491 897.43 29.4671 897.838 28.7111C898.246 27.9431 898.804 27.3551 899.512 26.9471C900.232 26.5271 901.042 26.3171 901.942 26.3171C902.806 26.3171 903.586 26.5271 904.282 26.9471C904.978 27.3671 905.488 27.9131 905.812 28.5851V22.9691H907.072V36.2891H905.812V34.0931C905.512 34.7771 905.02 35.3411 904.336 35.7851C903.652 36.2171 902.848 36.4331 901.924 36.4331C901.024 36.4331 900.214 36.2231 899.494 35.8031C898.786 35.3831 898.228 34.7891 897.82 34.0211C897.424 33.2531 897.226 32.3651 897.226 31.3571ZM905.812 31.3751C905.812 30.5831 905.65 29.8871 905.326 29.2871C905.002 28.6871 904.558 28.2251 903.994 27.9011C903.442 27.5771 902.83 27.4151 902.158 27.4151C901.462 27.4151 900.838 27.5711 900.286 27.8831C899.734 28.1951 899.296 28.6511 898.972 29.2511C898.66 29.8391 898.504 30.5411 898.504 31.3571C898.504 32.1611 898.66 32.8691 898.972 33.4811C899.296 34.0811 899.734 34.5431 900.286 34.8671C900.838 35.1791 901.462 35.3351 902.158 35.3351C902.83 35.3351 903.442 35.1731 903.994 34.8491C904.558 34.5251 905.002 34.0631 905.326 33.4631C905.65 32.8631 905.812 32.1671 905.812 31.3751ZM914.611 36.4331C913.687 36.4331 912.853 36.2291 912.109 35.8211C911.377 35.4011 910.795 34.8131 910.363 34.0571C909.943 33.2891 909.733 32.3951 909.733 31.3751C909.733 30.3551 909.949 29.4671 910.381 28.7111C910.813 27.9431 911.401 27.3551 912.145 26.9471C912.889 26.5271 913.723 26.3171 914.647 26.3171C915.571 26.3171 916.405 26.5271 917.149 26.9471C917.905 27.3551 918.493 27.9431 918.913 28.7111C919.345 29.4671 919.561 30.3551 919.561 31.3751C919.561 32.3831 919.345 33.2711 918.913 34.0391C918.481 34.8071 917.887 35.4011 917.131 35.8211C916.375 36.2291 915.535 36.4331 914.611 36.4331ZM914.611 35.3351C915.259 35.3351 915.859 35.1911 916.411 34.9031C916.963 34.6031 917.407 34.1591 917.743 33.5711C918.091 32.9711 918.265 32.2391 918.265 31.3751C918.265 30.5111 918.097 29.7851 917.761 29.1971C917.425 28.5971 916.981 28.1531 916.429 27.8651C915.877 27.5651 915.277 27.4151 914.629 27.4151C913.981 27.4151 913.381 27.5651 912.829 27.8651C912.277 28.1531 911.833 28.5971 911.497 29.1971C911.173 29.7851 911.011 30.5111 911.011 31.3751C911.011 32.2391 911.173 32.9711 911.497 33.5711C911.833 34.1591 912.271 34.6031 912.811 34.9031C913.363 35.1911 913.963 35.3351 914.611 35.3351ZM925.602 36.4331C924.474 36.4331 923.55 36.1751 922.83 35.6591C922.122 35.1311 921.726 34.4171 921.642 33.5171H922.938C922.998 34.0691 923.256 34.5191 923.712 34.8671C924.18 35.2031 924.804 35.3711 925.584 35.3711C926.268 35.3711 926.802 35.2091 927.186 34.8851C927.582 34.5611 927.78 34.1591 927.78 33.6791C927.78 33.3431 927.672 33.0671 927.456 32.8511C927.24 32.6351 926.964 32.4671 926.628 32.3471C926.304 32.2151 925.86 32.0771 925.296 31.9331C924.564 31.7411 923.97 31.5491 923.514 31.3571C923.058 31.1651 922.668 30.8831 922.344 30.5111C922.032 30.1271 921.876 29.6171 921.876 28.9811C921.876 28.5011 922.02 28.0571 922.308 27.6491C922.596 27.2411 923.004 26.9171 923.532 26.6771C924.06 26.4371 924.66 26.3171 925.332 26.3171C926.388 26.3171 927.24 26.5871 927.888 27.1271C928.536 27.6551 928.884 28.3871 928.932 29.3231H927.672C927.636 28.7471 927.408 28.2851 926.988 27.9371C926.58 27.5771 926.016 27.3971 925.296 27.3971C924.66 27.3971 924.144 27.5471 923.748 27.8471C923.352 28.1471 923.154 28.5191 923.154 28.9631C923.154 29.3471 923.268 29.6651 923.496 29.9171C923.736 30.1571 924.03 30.3491 924.378 30.4931C924.726 30.6251 925.194 30.7751 925.782 30.9431C926.49 31.1351 927.054 31.3211 927.474 31.5011C927.894 31.6811 928.254 31.9451 928.554 32.2931C928.854 32.6411 929.01 33.1031 929.022 33.6791C929.022 34.2071 928.878 34.6811 928.59 35.1011C928.302 35.5091 927.9 35.8331 927.384 36.0731C926.868 36.3131 926.274 36.4331 925.602 36.4331ZM931.969 36.3791C931.705 36.3791 931.483 36.2891 931.303 36.1091C931.135 35.9291 931.051 35.7071 931.051 35.4431C931.051 35.1791 931.135 34.9631 931.303 34.7951C931.483 34.6151 931.705 34.5251 931.969 34.5251C932.221 34.5251 932.431 34.6151 932.599 34.7951C932.779 34.9631 932.869 35.1791 932.869 35.4431C932.869 35.7071 932.779 35.9291 932.599 36.1091C932.431 36.2891 932.221 36.3791 931.969 36.3791Z" fill="#004C78"/>
</svg>
