<svg width="46" height="27" viewBox="0 0 46 27" fill="none" xmlns="http://www.w3.org/2000/svg">
<g id="iconos/Correo">
<g clip-path="url(#clip0_21046_381)">
<g id="Vector">
<mask id="path-2-inside-1_21046_381" fill="white">
<path d="M0.463135 6.22454L16.6793 13.8291C18.9166 14.8765 20.034 15.401 21.2421 15.6053C22.3108 15.785 23.4236 15.785 24.49 15.6053C25.6981 15.401 26.8156 14.8765 29.0528 13.8291L45.269 6.22454M11.6147 25.4827H34.1175C38.0205 25.4827 39.972 25.4827 41.4635 24.9484C42.774 24.4782 43.8394 23.7283 44.507 22.8062C45.269 21.7572 45.269 20.3847 45.269 17.6396V8.81604C45.269 6.07094 45.269 4.69839 44.5093 3.64937C43.8411 2.72705 42.7749 1.97717 41.4635 1.50721C39.972 0.972901 38.0205 0.9729 34.1175 0.9729L11.6147 0.9729C7.71162 0.9729 5.7601 0.972901 4.26859 1.50721C2.95808 1.97745 1.89275 2.7273 1.22515 3.64937C0.463134 4.69839 0.463135 6.07094 0.463135 8.81604L0.463135 17.6396C0.463135 20.3847 0.463135 21.7572 1.22283 22.8062C1.89103 23.7286 2.95721 24.4784 4.26859 24.9484C5.7601 25.4827 7.71162 25.4827 11.6147 25.4827Z"/>
</mask>
<path d="M0.463135 6.22454L16.6793 13.8291C18.9166 14.8765 20.034 15.401 21.2421 15.6053C22.3108 15.785 23.4236 15.785 24.49 15.6053C25.6981 15.401 26.8156 14.8765 29.0528 13.8291L45.269 6.22454M11.6147 25.4827H34.1175C38.0205 25.4827 39.972 25.4827 41.4635 24.9484C42.774 24.4782 43.8394 23.7283 44.507 22.8062C45.269 21.7572 45.269 20.3847 45.269 17.6396V8.81604C45.269 6.07094 45.269 4.69839 44.5093 3.64937C43.8411 2.72705 42.7749 1.97717 41.4635 1.50721C39.972 0.972901 38.0205 0.9729 34.1175 0.9729L11.6147 0.9729C7.71162 0.9729 5.7601 0.972901 4.26859 1.50721C2.95808 1.97745 1.89275 2.7273 1.22515 3.64937C0.463134 4.69839 0.463135 6.07094 0.463135 8.81604L0.463135 17.6396C0.463135 20.3847 0.463135 21.7572 1.22283 22.8062C1.89103 23.7286 2.95721 24.4784 4.26859 24.9484C5.7601 25.4827 7.71162 25.4827 11.6147 25.4827Z" fill="#004C78"/>
<path d="M1.10001 4.86645C0.34996 4.51472 -0.543213 4.83761 -0.894949 5.58766C-1.24668 6.33771 -0.923788 7.23088 -0.173739 7.58262L1.10001 4.86645ZM16.6793 13.8291L16.0424 15.1872L16.0433 15.1876L16.6793 13.8291ZM21.2421 15.6053L20.9921 17.0843L20.9933 17.0845L21.2421 15.6053ZM24.49 15.6053L24.7393 17.0844L24.7401 17.0843L24.49 15.6053ZM29.0528 13.8291L29.6888 15.1876L29.6897 15.1872L29.0528 13.8291ZM45.9059 7.58262C46.6559 7.23088 46.9788 6.33771 46.6271 5.58766C46.2753 4.83761 45.3822 4.51472 44.6321 4.86645L45.9059 7.58262ZM41.4635 24.9484L41.9694 26.3605L41.9701 26.3603L41.4635 24.9484ZM44.507 22.8062L43.2934 21.9247L43.292 21.9266L44.507 22.8062ZM44.5093 3.64937L45.7242 2.76956L45.724 2.76934L44.5093 3.64937ZM41.4635 1.50721L41.9696 0.0951525L41.9694 0.0950911L41.4635 1.50721ZM4.26859 1.50721L3.76272 0.0950909L3.76198 0.0953534L4.26859 1.50721ZM1.22515 3.64937L2.43876 4.53095L2.44014 4.52904L1.22515 3.64937ZM1.22283 22.8062L0.00795257 23.686L0.00811231 23.6863L1.22283 22.8062ZM4.26859 24.9484L3.76254 26.3605L3.76272 26.3605L4.26859 24.9484ZM-0.173739 7.58262L16.0424 15.1872L17.3162 12.471L1.10001 4.86645L-0.173739 7.58262ZM16.0433 15.1876C18.2078 16.2009 19.5365 16.8382 20.9921 17.0843L21.4922 14.1262C20.5316 13.9638 19.6253 13.5521 17.3153 12.4706L16.0433 15.1876ZM20.9933 17.0845C22.2265 17.2919 23.5077 17.292 24.7393 17.0844L24.2407 14.1261C23.3396 14.278 22.3951 14.2781 21.4909 14.126L20.9933 17.0845ZM24.7401 17.0843C26.1956 16.8382 27.5243 16.2009 29.6888 15.1876L28.4168 12.4706C26.1068 13.5521 25.2006 13.9638 24.2399 14.1262L24.7401 17.0843ZM29.6897 15.1872L45.9059 7.58262L44.6321 4.86645L28.416 12.471L29.6897 15.1872ZM11.6147 26.9827H34.1175L34.1175 23.9827H11.6147V26.9827ZM34.1175 26.9827C36.0515 26.9827 37.5656 26.9833 38.7809 26.9134C40.0033 26.8432 41.0278 26.6978 41.9694 26.3605L40.9577 23.5363C40.4078 23.7333 39.7108 23.8551 38.6088 23.9184C37.4996 23.9821 36.0864 23.9827 34.1175 23.9827L34.1175 26.9827ZM41.9701 26.3603C43.5008 25.811 44.8411 24.9026 45.722 23.6859L43.292 21.9266C42.8377 22.554 42.0473 23.1453 40.9569 23.5365L41.9701 26.3603ZM45.7206 23.6878C46.306 22.8819 46.5512 21.9979 46.6637 21.0326C46.7713 20.1084 46.769 18.977 46.769 17.6396H43.769C43.769 19.0472 43.7666 19.9746 43.6838 20.6853C43.6058 21.3548 43.47 21.6816 43.2934 21.9247L45.7206 23.6878ZM46.769 17.6396V8.81604H43.769V17.6396H46.769ZM46.769 8.81604C46.769 7.47849 46.7713 6.34739 46.664 5.42358C46.5519 4.45885 46.3077 3.57534 45.7242 2.76956L43.2944 4.52918C43.4706 4.77243 43.6062 5.0997 43.6841 5.76977C43.7666 6.48076 43.769 7.40849 43.769 8.81604H46.769ZM45.724 2.76934C44.8424 1.55241 43.5012 0.644036 41.9696 0.0951525L40.9575 2.91928C42.0486 3.31031 42.8398 3.90169 43.2946 4.5294L45.724 2.76934ZM41.9694 0.0950911C41.0278 -0.242233 40.0033 -0.387591 38.7809 -0.457839C37.5656 -0.527679 36.0515 -0.527099 34.1175 -0.527099V2.4729C36.0864 2.4729 37.4996 2.47348 38.6088 2.53722C39.7108 2.60055 40.4078 2.72235 40.9577 2.91934L41.9694 0.0950911ZM34.1175 -0.527099L11.6147 -0.527099V2.4729L34.1175 2.4729V-0.527099ZM11.6147 -0.527099C9.68059 -0.527099 8.16651 -0.527679 6.95124 -0.457839C5.72885 -0.387591 4.70434 -0.242233 3.76272 0.0950911L4.77446 2.91934C5.32435 2.72235 6.02136 2.60055 7.12336 2.53722C8.23249 2.47348 9.64568 2.4729 11.6147 2.4729V-0.527099ZM3.76198 0.0953534C2.2313 0.644594 0.891068 1.55302 0.0101691 2.76971L2.44014 4.52904C2.89443 3.90158 3.68485 3.31031 4.77519 2.91908L3.76198 0.0953534ZM0.0115538 2.7678C-0.573886 3.57373 -0.819041 4.45773 -0.931531 5.42305C-1.03922 6.34719 -1.03687 7.4786 -1.03687 8.81604H1.96313C1.96313 7.40838 1.96549 6.48096 2.0483 5.7703C2.12632 5.10082 2.26217 4.77403 2.43876 4.53095L0.0115538 2.7678ZM-1.03687 8.81604L-1.03687 17.6396H1.96313L1.96313 8.81604H-1.03687ZM-1.03687 17.6396C-1.03687 18.9771 -1.03921 20.1082 -0.931882 21.032C-0.819804 21.9968 -0.575588 22.8803 0.0079526 23.686L2.43771 21.9264C2.26155 21.6832 2.12592 21.3559 2.04808 20.6858C1.96548 19.9748 1.96313 19.0471 1.96313 17.6396H-1.03687ZM0.00811231 23.6863C0.889745 24.9032 2.23094 25.8116 3.76254 26.3605L4.77463 23.5363C3.68349 23.1453 2.89231 22.5539 2.43755 21.9262L0.00811231 23.6863ZM3.76272 26.3605C4.70434 26.6978 5.72885 26.8432 6.95124 26.9134C8.16651 26.9833 9.68059 26.9827 11.6147 26.9827V23.9827C9.64568 23.9827 8.23249 23.9821 7.12336 23.9184C6.02136 23.8551 5.32435 23.7333 4.77446 23.5363L3.76272 26.3605Z" fill="#EDF5FA" mask="url(#path-2-inside-1_21046_381)"/>
</g>
</g>
</g>
<defs>
<clipPath id="clip0_21046_381">
<rect x="0.328613" y="0.289062" width="45" height="26" rx="3" fill="white"/>
</clipPath>
</defs>
</svg>
