<svg width="53" height="53" viewBox="0 0 53 53" fill="none" xmlns="http://www.w3.org/2000/svg">
<g id="iconos/linkedin">
<g clip-path="url(#clip0_21046_385)">
<rect x="0.328613" y="0.289062" width="52" height="52" rx="11" fill="#EDF5FA"/>
<g id="Vector">
<path d="M1.32861 19.0668C1.32861 12.8446 1.32861 9.73351 2.53972 7.35573C3.60497 5.26513 5.30468 3.56542 7.39528 2.50017C9.77306 1.28906 12.8842 1.28906 19.1064 1.28906L33.5508 1.28906C39.7731 1.28906 42.8842 1.28906 45.2619 2.50017C47.3525 3.56542 49.0522 5.26513 50.1175 7.35573C51.3286 9.73351 51.3286 12.8446 51.3286 19.0668V33.5113C51.3286 39.7335 51.3286 42.8446 50.1175 45.2224C49.0522 47.313 47.3525 49.0127 45.2619 50.0779C42.8842 51.289 39.7731 51.2891 33.5508 51.2891H19.1064C12.8842 51.2891 9.77306 51.289 7.39528 50.0779C5.30468 49.0127 3.60497 47.313 2.53972 45.2224C1.32861 42.8446 1.32861 39.7335 1.32861 33.5113L1.32861 19.0668ZM15.2175 14.1363V15.5252V14.1363Z" fill="#004C78"/>
<path d="M15.2175 14.1363V15.5252M1.32861 19.0668C1.32861 12.8446 1.32861 9.73351 2.53972 7.35573C3.60497 5.26513 5.30468 3.56542 7.39528 2.50017C9.77306 1.28906 12.8842 1.28906 19.1064 1.28906L33.5508 1.28906C39.7731 1.28906 42.8842 1.28906 45.2619 2.50017C47.3525 3.56542 49.0522 5.26513 50.1175 7.35573C51.3286 9.73351 51.3286 12.8446 51.3286 19.0668V33.5113C51.3286 39.7335 51.3286 42.8446 50.1175 45.2224C49.0522 47.313 47.3525 49.0127 45.2619 50.0779C42.8842 51.2891 39.7731 51.2891 33.5508 51.2891H19.1064C12.8842 51.2891 9.77306 51.2891 7.39528 50.0779C5.30468 49.0127 3.60497 47.313 2.53972 45.2224C1.32861 42.8446 1.32861 39.7335 1.32861 33.5113L1.32861 19.0668Z" stroke="#EDF5FA" stroke-width="1.5" stroke-linecap="round" stroke-linejoin="round"/>
</g>
<path id="Vector_2" d="M14.3286 36.8672L14.3286 19.2891M26.8286 36.8672V27.8828M26.8286 27.8828V19.2891M26.8286 27.8828C26.8286 23.8578 30.6474 21.6328 34.3286 21.6328C39.3286 21.6328 39.3286 25.9297 39.3286 30.6172V36.8672" stroke="#EDF5FA" stroke-width="1.5" stroke-linecap="round" stroke-linejoin="round"/>
</g>
</g>
<defs>
<clipPath id="clip0_21046_385">
<rect x="0.328613" y="0.289062" width="52" height="52" rx="11" fill="white"/>
</clipPath>
</defs>
</svg>
