<svg width="364" height="362" viewBox="0 0 364 362" fill="none" xmlns="http://www.w3.org/2000/svg">
<g filter="url(#filter0_d_21076_20)">
<path d="M142.654 137.166C142.837 139.802 142.539 141.965 141.065 142.594C141.626 140.484 142.161 138.694 142.654 137.166C142.213 130.806 138.975 121.691 142.704 124.691C147.275 128.37 145.853 127.244 142.654 137.166Z" fill="#C61544"/>
<path d="M132.595 139.962C131.853 139.863 131.032 139.716 130.127 139.516C121.024 135.264 124.925 129.408 130.606 126.366C130.619 126.316 130.658 126.296 130.722 126.304C131.145 126.358 132.633 127.653 134.211 129.43C138.15 133.866 142.656 141.309 132.595 139.962Z" fill="#C61544"/>
<path d="M137.469 132.802C136.753 131.665 135.889 130.536 135.029 129.53C136.485 128.826 138.089 128.813 139.335 129.816L140.024 128.945C138.368 127.613 136.206 127.749 134.364 128.774C133.651 127.988 132.965 127.306 132.393 126.798C132.186 126.615 131.992 126.452 131.815 126.314C133.35 125.612 134.958 125.13 136.42 124.951C138.095 124.746 139.51 124.945 140.426 125.584C140.427 125.636 140.428 125.688 140.429 125.74C140.446 126.269 140.516 126.893 140.617 127.575C140.756 128.521 140.96 129.612 141.173 130.757C141.267 131.259 141.362 131.77 141.455 132.284C141.755 133.946 142.03 135.645 142.143 137.178C141.657 138.692 141.131 140.458 140.58 142.529C140.53 142.716 140.577 142.902 140.703 143.015C140.83 143.129 141.016 143.153 141.191 143.078C142.177 142.657 142.708 141.732 142.968 140.688C143.219 139.679 143.248 138.451 143.164 137.155C143.901 134.877 144.542 133.193 145.036 131.893C145.064 131.819 145.092 131.746 145.119 131.674C145.621 130.353 145.989 129.371 146.092 128.578C146.146 128.162 146.131 127.783 146.025 127.418C145.92 127.056 145.733 126.736 145.48 126.422C144.99 125.818 144.188 125.173 143.076 124.278L143.049 124.256C142.576 123.876 142.138 123.619 141.735 123.58C141.516 123.559 141.272 123.6 141.044 123.759C140.821 123.915 140.684 124.136 140.6 124.343C140.594 124.359 140.588 124.374 140.582 124.39C139.466 123.83 138.002 123.716 136.458 123.905C134.593 124.134 132.536 124.811 130.657 125.787C130.602 125.797 130.542 125.816 130.478 125.849C130.415 125.882 130.36 125.923 130.313 125.97C128.897 126.741 127.579 127.689 126.532 128.758C125.456 129.855 124.64 131.107 124.333 132.441C123.828 134.633 124.729 136.781 127.46 138.652L127.194 139.335C128.17 139.61 129.073 139.838 129.906 140.022L129.917 140.027L129.919 140.025C129.93 140.027 129.941 140.03 129.952 140.032C130.801 140.219 131.579 140.361 132.29 140.462C133.559 142.019 135.514 143.51 138.328 144.816L138.85 143.841C136.7 142.844 135.099 141.75 133.944 140.628C134.591 140.664 135.17 140.654 135.685 140.603C136.562 140.515 137.285 140.302 137.851 139.951C138.433 139.59 138.829 139.093 139.037 138.503C139.238 137.931 139.249 137.315 139.151 136.702C138.955 135.483 138.297 134.117 137.469 132.802Z" stroke="#B21541" stroke-width="1.03122" stroke-linejoin="round"/>
</g>
<g filter="url(#filter1_d_21076_20)">
<path d="M138.603 132.505C138.88 132.534 138.992 132.671 138.864 132.963C138.781 132.799 138.694 132.646 138.603 132.505C137.802 132.423 135.614 133.253 133.816 133.899C128.571 135.784 135.489 127.624 138.603 132.505Z" fill="#C61544"/>
<path d="M138.455 133.223C138.545 133.4 138.71 133.512 138.885 133.513C139.06 133.514 139.216 133.405 139.293 133.229C139.377 133.037 139.483 132.672 139.268 132.329C139.155 132.147 138.999 132.055 138.859 132.007C137.983 130.754 136.852 130.326 135.76 130.379C134.642 130.434 133.566 130.988 132.786 131.625C132.394 131.945 132.059 132.299 131.823 132.647C131.704 132.821 131.604 133.004 131.534 133.19C131.467 133.371 131.416 133.59 131.438 133.823C131.463 134.079 131.573 134.318 131.77 134.487C131.949 134.641 132.164 134.706 132.367 134.728C132.769 134.771 133.307 134.666 133.979 134.425C134.153 134.362 134.33 134.299 134.508 134.234C135.258 133.963 136.035 133.682 136.732 133.46C137.163 133.322 137.554 133.21 137.882 133.138C138.079 133.094 138.24 133.068 138.366 133.057C138.396 133.11 138.426 133.166 138.455 133.223Z" stroke="#C61544" stroke-width="1.03122" stroke-linejoin="round"/>
</g>
<g filter="url(#filter2_d_21076_20)">
<path d="M139.784 142.549C139.577 143.414 139.18 143.879 138.487 143.737C138.953 143.344 139.384 142.947 139.784 142.549C140.2 140.811 139.853 137.456 139.619 134.15C138.631 120.2 150.263 132.095 139.784 142.549Z" fill="#C61544"/>
<path d="M138.13 143.407C137.981 143.533 137.912 143.712 137.949 143.877C137.986 144.042 138.124 144.168 138.31 144.206C138.553 144.256 138.808 144.26 139.061 144.192C139.319 144.122 139.535 143.989 139.707 143.821C139.999 143.536 140.172 143.146 140.284 142.738C145.58 137.376 145.314 131.627 143.754 128.945C143.364 128.273 142.863 127.742 142.287 127.487C141.993 127.356 141.659 127.289 141.306 127.335C140.946 127.383 140.617 127.541 140.338 127.783C139.804 128.246 139.443 129.019 139.233 130.041C139.02 131.083 138.947 132.464 139.072 134.23C139.107 134.714 139.143 135.197 139.179 135.675C139.267 136.838 139.353 137.97 139.398 139.006C139.458 140.398 139.442 141.563 139.278 142.363C138.922 142.713 138.54 143.061 138.13 143.407Z" stroke="#B21541" stroke-width="1.03122" stroke-linejoin="round"/>
</g>
<g filter="url(#filter3_d_21076_20)">
<path d="M140.031 140.386C140.479 140.846 140.523 141.263 139.988 141.611C140.024 141.186 140.038 140.778 140.031 140.386C138.783 139.104 134.401 137.484 130.72 136.068C119.901 131.906 139.83 128.213 140.031 140.386Z" fill="#C61544"/>
<path d="M139.5 141.627C139.484 141.821 139.562 141.997 139.706 142.088C139.85 142.179 140.037 142.172 140.196 142.068C140.547 141.84 140.868 141.477 140.868 140.974C140.868 140.628 140.706 140.341 140.516 140.112C140.411 136.996 139.063 134.876 137.278 133.532C135.469 132.17 133.209 131.602 131.312 131.561C130.363 131.541 129.483 131.652 128.777 131.878C128.424 131.991 128.099 132.137 127.826 132.323C127.556 132.507 127.305 132.753 127.154 133.074C126.813 133.796 127.127 134.469 127.658 134.984C128.208 135.517 129.14 136.054 130.51 136.581C130.77 136.681 131.033 136.782 131.297 136.883C132.914 137.503 134.6 138.149 136.062 138.784C136.913 139.152 137.68 139.513 138.308 139.859C138.849 140.157 139.266 140.432 139.543 140.677C139.542 140.982 139.528 141.299 139.5 141.627Z" stroke="#B21541" stroke-width="1.03122" stroke-linejoin="round"/>
</g>
<g filter="url(#filter4_d_21076_20)">
<path d="M127.57 133.391C127.099 132.955 127.032 132.541 127.549 132.166C127.536 132.592 127.543 133 127.57 133.391C128.885 134.607 133.348 135.996 137.099 137.218C148.126 140.812 128.414 145.532 127.57 133.391Z" fill="#C61544"/>
<path d="M128.035 132.125C128.042 131.93 127.954 131.759 127.805 131.675C127.657 131.591 127.47 131.609 127.317 131.72C126.979 131.966 126.677 132.346 126.704 132.847C126.722 133.193 126.898 133.472 127.101 133.69C127.37 136.795 128.828 138.842 130.682 140.09C132.561 141.356 134.849 141.806 136.745 141.748C137.694 141.719 138.568 141.562 139.261 141.3C139.607 141.17 139.925 141.006 140.187 140.806C140.448 140.608 140.685 140.351 140.819 140.022C141.122 139.284 140.773 138.628 140.215 138.142C139.638 137.638 138.678 137.15 137.281 136.695C137.017 136.609 136.749 136.522 136.48 136.435C134.832 135.9 133.114 135.342 131.619 134.785C130.751 134.461 129.966 134.14 129.32 133.828C128.763 133.558 128.332 133.305 128.043 133.075C128.028 132.77 128.025 132.454 128.035 132.125Z" stroke="#B21541" stroke-width="1.03122" stroke-linejoin="round"/>
</g>
<path d="M139.372 141.639L139.096 141.418L149.746 159.137" stroke="#004C78" stroke-width="1.03125" stroke-linecap="round" stroke-linejoin="round"/>
<g filter="url(#filter5_d_21076_20)">
<path d="M152.793 147.274C151.813 148.137 148.932 155.586 148.132 154.894C147.332 154.202 143.29 152.228 152.793 147.274Z" fill="#004C78"/>
<path d="M152.72 147.037C152.839 146.975 152.965 147.01 153.018 147.119C153.07 147.228 153.031 147.377 152.927 147.468C152.847 147.539 152.718 147.709 152.544 147.994C152.376 148.269 152.184 148.62 151.975 149.022C151.707 149.538 151.417 150.126 151.118 150.731C150.95 151.071 150.78 151.417 150.609 151.758C150.138 152.699 149.665 153.608 149.255 154.241C149.053 154.553 148.85 154.824 148.657 154.995C148.559 155.08 148.445 155.159 148.319 155.192C148.182 155.227 148.056 155.2 147.957 155.114C147.897 155.063 147.821 155.006 147.728 154.936C147.673 154.895 147.612 154.85 147.546 154.798C147.374 154.666 147.179 154.506 146.998 154.316C146.64 153.94 146.306 153.416 146.352 152.713C146.398 152.001 146.824 151.193 147.8 150.271C148.777 149.349 150.334 148.281 152.72 147.037Z" stroke="#004C78" stroke-width="0.515609" stroke-linejoin="round"/>
</g>
<g filter="url(#filter6_d_21076_20)">
<path d="M137.509 150.922C138.413 151.18 145.213 149.939 144.772 150.72C144.331 151.501 143.389 154.827 137.509 150.922Z" fill="#004C78"/>
<path d="M137.342 151.099C137.233 151.026 137.197 150.903 137.257 150.806C137.316 150.709 137.455 150.666 137.585 150.703C137.604 150.708 137.653 150.717 137.744 150.722C137.831 150.727 137.94 150.727 138.07 150.723C138.332 150.716 138.662 150.693 139.038 150.659C139.522 150.616 140.07 150.557 140.634 150.496C140.951 150.462 141.273 150.427 141.592 150.395C142.469 150.305 143.321 150.229 143.93 150.226C144.226 150.225 144.502 150.24 144.699 150.296C144.794 150.323 144.926 150.375 145.008 150.483C145.104 150.608 145.081 150.737 145.029 150.829C144.996 150.887 144.962 150.958 144.92 151.043C144.895 151.095 144.867 151.151 144.836 151.214C144.755 151.376 144.654 151.563 144.526 151.753C144.272 152.132 143.899 152.538 143.323 152.786C142.143 153.293 140.302 153.065 137.342 151.099Z" stroke="#004C78" stroke-width="0.515609" stroke-linejoin="round"/>
</g>
<path d="M134.74 130.403C134.864 130.247 134.897 130.053 134.826 129.896C134.755 129.74 134.592 129.645 134.4 129.649C133.959 129.658 133.468 129.792 133.18 130.227C132.977 130.535 132.96 130.879 133.005 131.185C131.273 133.957 131.18 136.481 131.925 138.537C132.679 140.62 134.287 142.211 135.878 143.133C136.674 143.594 137.488 143.902 138.218 144.011C138.914 144.115 139.69 144.058 140.243 143.578C140.829 143.067 140.911 142.316 140.71 141.53C140.505 140.724 139.969 139.713 139.039 138.481C138.784 138.143 138.524 137.801 138.263 137.457C137.434 136.368 136.596 135.266 135.882 134.247C135.413 133.579 135.004 132.954 134.689 132.401C134.426 131.938 134.239 131.542 134.138 131.224C134.32 130.954 134.521 130.68 134.74 130.403Z" fill="#C61544" stroke="#B21541" stroke-width="1.03123" stroke-linejoin="round"/>
<path d="M145.111 131.258C145.297 131.22 145.439 131.099 145.484 130.938C145.53 130.778 145.472 130.602 145.332 130.476C145.208 130.364 145.051 130.273 144.862 130.229C144.675 130.186 144.498 130.199 144.347 130.238C144.109 130.299 143.9 130.435 143.723 130.585C138.677 132.008 136.605 135.659 136.391 137.943C136.337 138.516 136.395 139.057 136.605 139.471C136.712 139.682 136.873 139.888 137.113 140.035C137.364 140.188 137.654 140.246 137.944 140.215C138.476 140.158 138.983 139.81 139.46 139.304C139.955 138.778 140.492 138 141.059 136.93L141.059 136.93L141.068 136.912C141.068 136.912 141.068 136.912 141.068 136.912C141.72 135.682 142.355 134.483 142.941 133.486C143.496 132.543 143.983 131.824 144.375 131.428C144.613 131.366 144.858 131.309 145.111 131.258Z" fill="#C61544" stroke="#B21541" stroke-width="1.03122" stroke-linejoin="round"/>
<path d="M138.601 124.573C138.507 124.501 138.394 124.457 138.277 124.445C136.253 124.245 134.782 124.385 133.794 124.815C132.772 125.258 132.291 126.003 132.262 126.894C132.235 127.75 132.625 128.692 133.207 129.58C133.795 130.476 134.609 131.364 135.506 132.133C136.403 132.901 137.403 133.566 138.373 134.003C139.328 134.434 140.334 134.677 141.189 134.486C142.092 134.284 142.681 133.631 142.883 132.576C143.08 131.542 142.922 130.077 142.328 128.104C142.322 128.086 142.316 128.069 142.309 128.052C141.569 126.322 141.073 125.299 140.715 124.733C140.546 124.466 140.36 124.219 140.132 124.071C140 123.986 139.825 123.916 139.627 123.922C139.435 123.928 139.298 124.002 139.212 124.068C139.074 124.172 138.974 124.332 138.918 124.421C138.914 124.427 138.91 124.433 138.907 124.439C138.835 124.552 138.79 124.62 138.745 124.666C138.715 124.651 138.668 124.623 138.601 124.573Z" fill="#C61544" stroke="#B21541" stroke-width="1.03122" stroke-linejoin="round"/>
<path d="M145.686 129.102C145.84 129.07 145.967 128.98 146.03 128.852C146.109 128.692 146.075 128.502 145.941 128.357C145.854 128.263 145.633 128.067 145.299 128.093C145.168 128.104 145.066 128.146 144.988 128.197C144.094 128.327 143.546 128.788 143.272 129.359C142.992 129.942 143.003 130.621 143.135 131.161C143.202 131.433 143.305 131.693 143.438 131.907C143.553 132.091 143.762 132.359 144.102 132.46C144.302 132.52 144.512 132.51 144.696 132.428C144.863 132.354 144.976 132.235 145.052 132.121C145.203 131.899 145.295 131.58 145.35 131.188C145.373 131.022 145.395 130.857 145.417 130.694C145.464 130.345 145.509 130.008 145.559 129.708C145.595 129.49 145.632 129.303 145.671 129.157C145.676 129.137 145.681 129.119 145.686 129.102Z" fill="#C61544" stroke="#B21541" stroke-width="1.03122" stroke-linejoin="round"/>
<defs>
<filter id="filter0_d_21076_20" x="0.646286" y="0.00175476" width="362.775" height="361.608" filterUnits="userSpaceOnUse" color-interpolation-filters="sRGB">
<feFlood flood-opacity="0" result="BackgroundImageFix"/>
<feColorMatrix in="SourceAlpha" type="matrix" values="0 0 0 0 0 0 0 0 0 0 0 0 0 0 0 0 0 0 127 0" result="hardAlpha"/>
<feMorphology radius="10.5503" operator="dilate" in="SourceAlpha" result="effect1_dropShadow_21076_20"/>
<feOffset dx="46.8736" dy="46.8736"/>
<feGaussianBlur stdDeviation="79.6852"/>
<feComposite in2="hardAlpha" operator="out"/>
<feColorMatrix type="matrix" values="0 0 0 0 0.8 0 0 0 0 0.160784 0 0 0 0 0.403922 0 0 0 1 0"/>
<feBlend mode="normal" in2="BackgroundImageFix" result="effect1_dropShadow_21076_20"/>
<feBlend mode="normal" in="SourceGraphic" in2="effect1_dropShadow_21076_20" result="shape"/>
</filter>
<filter id="filter1_d_21076_20" x="7.90811" y="6.77822" width="348.759" height="345.303" filterUnits="userSpaceOnUse" color-interpolation-filters="sRGB">
<feFlood flood-opacity="0" result="BackgroundImageFix"/>
<feColorMatrix in="SourceAlpha" type="matrix" values="0 0 0 0 0 0 0 0 0 0 0 0 0 0 0 0 0 0 127 0" result="hardAlpha"/>
<feMorphology radius="10.5503" operator="dilate" in="SourceAlpha" result="effect1_dropShadow_21076_20"/>
<feOffset dx="46.8736" dy="46.8736"/>
<feGaussianBlur stdDeviation="79.6851"/>
<feComposite in2="hardAlpha" operator="out"/>
<feColorMatrix type="matrix" values="0 0 0 0 0.8 0 0 0 0 0.160784 0 0 0 0 0.403922 0 0 0 1 0"/>
<feBlend mode="normal" in2="BackgroundImageFix" result="effect1_dropShadow_21076_20"/>
<feBlend mode="normal" in="SourceGraphic" in2="effect1_dropShadow_21076_20" result="shape"/>
</filter>
<filter id="filter2_d_21076_20" x="14.3438" y="3.79252" width="347.737" height="357.727" filterUnits="userSpaceOnUse" color-interpolation-filters="sRGB">
<feFlood flood-opacity="0" result="BackgroundImageFix"/>
<feColorMatrix in="SourceAlpha" type="matrix" values="0 0 0 0 0 0 0 0 0 0 0 0 0 0 0 0 0 0 127 0" result="hardAlpha"/>
<feMorphology radius="10.5503" operator="dilate" in="SourceAlpha" result="effect1_dropShadow_21076_20"/>
<feOffset dx="46.8737" dy="46.8737"/>
<feGaussianBlur stdDeviation="79.6854"/>
<feComposite in2="hardAlpha" operator="out"/>
<feColorMatrix type="matrix" values="0 0 0 0 0.8 0 0 0 0 0.160784 0 0 0 0 0.403922 0 0 0 1 0"/>
<feBlend mode="normal" in2="BackgroundImageFix" result="effect1_dropShadow_21076_20"/>
<feBlend mode="normal" in="SourceGraphic" in2="effect1_dropShadow_21076_20" result="shape"/>
</filter>
<filter id="filter3_d_21076_20" x="3.47263" y="7.97165" width="354.679" height="351.515" filterUnits="userSpaceOnUse" color-interpolation-filters="sRGB">
<feFlood flood-opacity="0" result="BackgroundImageFix"/>
<feColorMatrix in="SourceAlpha" type="matrix" values="0 0 0 0 0 0 0 0 0 0 0 0 0 0 0 0 0 0 127 0" result="hardAlpha"/>
<feMorphology radius="10.5503" operator="dilate" in="SourceAlpha" result="effect1_dropShadow_21076_20"/>
<feOffset dx="46.8736" dy="46.8736"/>
<feGaussianBlur stdDeviation="79.6851"/>
<feComposite in2="hardAlpha" operator="out"/>
<feColorMatrix type="matrix" values="0 0 0 0 0.8 0 0 0 0 0.160784 0 0 0 0 0.403922 0 0 0 1 0"/>
<feBlend mode="normal" in2="BackgroundImageFix" result="effect1_dropShadow_21076_20"/>
<feBlend mode="normal" in="SourceGraphic" in2="effect1_dropShadow_21076_20" result="shape"/>
</filter>
<filter id="filter4_d_21076_20" x="3.16842" y="8.03219" width="355.046" height="351.058" filterUnits="userSpaceOnUse" color-interpolation-filters="sRGB">
<feFlood flood-opacity="0" result="BackgroundImageFix"/>
<feColorMatrix in="SourceAlpha" type="matrix" values="0 0 0 0 0 0 0 0 0 0 0 0 0 0 0 0 0 0 127 0" result="hardAlpha"/>
<feMorphology radius="10.5503" operator="dilate" in="SourceAlpha" result="effect1_dropShadow_21076_20"/>
<feOffset dx="46.8736" dy="46.8736"/>
<feGaussianBlur stdDeviation="79.6851"/>
<feComposite in2="hardAlpha" operator="out"/>
<feColorMatrix type="matrix" values="0 0 0 0 0.8 0 0 0 0 0.160784 0 0 0 0 0.403922 0 0 0 1 0"/>
<feBlend mode="normal" in2="BackgroundImageFix" result="effect1_dropShadow_21076_20"/>
<feBlend mode="normal" in="SourceGraphic" in2="effect1_dropShadow_21076_20" result="shape"/>
</filter>
<filter id="filter5_d_21076_20" x="84.5762" y="85.2159" width="177.109" height="178.655" filterUnits="userSpaceOnUse" color-interpolation-filters="sRGB">
<feFlood flood-opacity="0" result="BackgroundImageFix"/>
<feColorMatrix in="SourceAlpha" type="matrix" values="0 0 0 0 0 0 0 0 0 0 0 0 0 0 0 0 0 0 127 0" result="hardAlpha"/>
<feMorphology radius="5.27515" operator="dilate" in="SourceAlpha" result="effect1_dropShadow_21076_20"/>
<feOffset dx="23.4368" dy="23.4368"/>
<feGaussianBlur stdDeviation="39.8425"/>
<feComposite in2="hardAlpha" operator="out"/>
<feColorMatrix type="matrix" values="0 0 0 0 0.8 0 0 0 0 0.160784 0 0 0 0 0.403922 0 0 0 1 0"/>
<feBlend mode="normal" in2="BackgroundImageFix" result="effect1_dropShadow_21076_20"/>
<feBlend mode="normal" in="SourceGraphic" in2="effect1_dropShadow_21076_20" result="shape"/>
</filter>
<filter id="filter6_d_21076_20" x="75.4234" y="88.4707" width="178.329" height="173.176" filterUnits="userSpaceOnUse" color-interpolation-filters="sRGB">
<feFlood flood-opacity="0" result="BackgroundImageFix"/>
<feColorMatrix in="SourceAlpha" type="matrix" values="0 0 0 0 0 0 0 0 0 0 0 0 0 0 0 0 0 0 127 0" result="hardAlpha"/>
<feMorphology radius="5.27515" operator="dilate" in="SourceAlpha" result="effect1_dropShadow_21076_20"/>
<feOffset dx="23.4368" dy="23.4368"/>
<feGaussianBlur stdDeviation="39.8425"/>
<feComposite in2="hardAlpha" operator="out"/>
<feColorMatrix type="matrix" values="0 0 0 0 0.8 0 0 0 0 0.160784 0 0 0 0 0.403922 0 0 0 1 0"/>
<feBlend mode="normal" in2="BackgroundImageFix" result="effect1_dropShadow_21076_20"/>
<feBlend mode="normal" in="SourceGraphic" in2="effect1_dropShadow_21076_20" result="shape"/>
</filter>
</defs>
</svg>
