<svg width="1636" height="191" viewBox="0 0 1636 191" fill="none" xmlns="http://www.w3.org/2000/svg">
<rect x="20" y="20" width="1616" height="65.289" rx="8" fill="#FFF2F6"/>
<g filter="url(#filter0_d_13046_509)">
<path d="M59.9859 51.8096C60.1687 54.4459 59.8708 56.6087 58.3968 57.2382C58.9583 55.128 59.4932 53.3377 59.9859 51.8096C59.545 45.4501 56.3075 36.3346 60.0362 39.3355C64.6066 43.0138 63.1847 41.8881 59.9859 51.8096Z" fill="#C61544"/>
<path d="M49.9267 54.606C49.1852 54.5067 48.3645 54.3597 47.4587 54.1601C38.3563 49.9078 42.2568 44.0519 47.9382 41.0098C47.9508 40.96 47.9904 40.9404 48.0536 40.9484C48.4774 41.0024 49.9647 42.297 51.5427 44.0741C55.4823 48.5104 59.988 55.9535 49.9267 54.606Z" fill="#C61544"/>
<path d="M57.9121 57.1725C57.8622 57.36 57.9093 57.5458 58.0355 57.6593C58.1616 57.7728 58.3476 57.7967 58.5227 57.7219C59.5092 57.3006 60.0404 56.3758 60.2997 55.3325C60.5507 54.3231 60.5799 53.0947 60.496 51.7991C61.2334 49.521 61.8738 47.8368 62.3677 46.5375C62.3961 46.4631 62.4239 46.3899 62.4512 46.3179C62.9529 44.9971 63.3211 44.0154 63.4241 43.2216C63.4779 42.8064 63.4629 42.4266 63.3569 42.0617C63.252 41.7002 63.0654 41.3795 62.8116 41.0664C62.322 40.4625 61.5205 39.8174 60.4085 38.9225L60.3806 38.9001C59.9082 38.5198 59.4697 38.2629 59.0668 38.2245C58.8476 38.2035 58.6038 38.2442 58.3761 38.4033C58.1528 38.5594 58.0157 38.78 57.9324 38.9872C57.7757 39.3769 57.7458 39.8764 57.7614 40.3843C57.7777 40.9133 57.8481 41.5375 57.9487 42.2192C58.0883 43.1647 58.292 44.2565 58.5055 45.4012C58.599 45.9026 58.6945 46.4142 58.7872 46.9281C59.0872 48.5898 59.3621 50.2889 59.4754 51.8217C58.9891 53.3359 58.4632 55.1016 57.9121 57.1725ZM47.1966 54.6469C47.2243 54.6598 47.2536 54.6697 47.2841 54.6764C48.1997 54.8781 49.0326 55.0275 49.7883 55.1287C51.0677 55.3001 52.136 55.3347 53.0169 55.2466C53.8938 55.1589 54.617 54.9463 55.183 54.5951C55.765 54.234 56.1606 53.7375 56.3687 53.1472C56.5702 52.5754 56.5813 51.9586 56.4828 51.3459C56.2868 50.1268 55.6293 48.7611 54.8013 47.4464C53.9667 46.1214 52.9314 44.8061 51.936 43.6852C51.1384 42.787 50.3608 42.0073 49.7247 41.4423C49.4073 41.1604 49.1197 40.927 48.8787 40.7582C48.7585 40.674 48.6439 40.6016 48.5388 40.5466C48.4424 40.4963 48.3198 40.442 48.1892 40.4254C48.1158 40.416 47.9714 40.4089 47.8104 40.4929C47.7469 40.5261 47.6919 40.5673 47.6449 40.6137C46.2292 41.3848 44.911 42.3333 43.8637 43.4019C42.7885 44.499 41.9725 45.7507 41.665 47.085C41.0333 49.826 42.6002 52.4996 47.1966 54.6469Z" stroke="#B21541" stroke-width="1.03122" stroke-linejoin="round"/>
</g>
<g filter="url(#filter1_d_13046_509)">
<path d="M55.9353 47.1496C56.2122 47.1781 56.3236 47.3155 56.1961 47.6072C56.1126 47.4434 56.0256 47.291 55.9353 47.1496C55.134 47.0673 52.9462 47.8977 51.1483 48.5436C45.9029 50.4281 52.8207 42.269 55.9353 47.1496Z" fill="#C61544"/>
<path d="M55.7869 47.8677C55.8772 48.045 56.0421 48.1561 56.2168 48.1573C56.3915 48.1585 56.5482 48.0496 56.6252 47.8735C56.709 47.6817 56.8155 47.3169 56.6005 46.9731C56.487 46.7916 56.331 46.6996 56.1908 46.6516C55.3146 45.3983 54.1843 44.9704 53.092 45.0238C51.9736 45.0786 50.8978 45.6325 50.1178 46.2691C49.7256 46.5892 49.391 46.944 49.1546 47.2919C49.0365 47.4658 48.9356 47.6488 48.8663 47.8346C48.7988 48.0156 48.7481 48.2346 48.7703 48.4678C48.7947 48.7232 48.9049 48.9623 49.1018 49.1315C49.2813 49.2858 49.4956 49.3503 49.6988 49.3723C50.1013 49.4158 50.6386 49.311 51.3109 49.0695C51.4847 49.007 51.6616 48.9431 51.8399 48.8786C52.5901 48.6074 53.3671 48.3264 54.064 48.1042C54.4946 47.9668 54.8859 47.8548 55.2143 47.7823C55.4114 47.7388 55.5724 47.7127 55.6982 47.7011C55.7281 47.7549 55.7577 47.8104 55.7869 47.8677Z" stroke="#C61544" stroke-width="1.03122" stroke-linejoin="round"/>
</g>
<g filter="url(#filter2_d_13046_509)">
<path d="M57.1161 57.1932C56.9089 58.0587 56.5126 58.5232 55.8191 58.3811C56.2849 57.9882 56.7165 57.5918 57.1161 57.1932C57.5321 55.4553 57.1856 52.1006 56.9514 48.7946C55.963 34.8447 67.5956 46.7397 57.1161 57.1932Z" fill="#C61544"/>
<path d="M55.462 58.0513C55.3129 58.1771 55.2439 58.3566 55.2812 58.5217C55.3184 58.6868 55.4562 58.8122 55.6423 58.8503C55.8851 58.9001 56.1399 58.9043 56.3935 58.8361C56.6511 58.7669 56.8669 58.6337 57.0395 58.4653C57.3315 58.1804 57.5047 57.7904 57.6163 57.3824C62.9127 52.0202 62.646 46.2718 61.0865 43.5892C60.6959 42.9173 60.195 42.387 59.6193 42.1312C59.325 42.0004 58.9915 41.9333 58.638 41.9799C58.2784 42.0272 57.9494 42.1854 57.6703 42.4275C57.1368 42.8902 56.7753 43.6634 56.5655 44.6856C56.3518 45.7271 56.2794 47.1086 56.4045 48.8747C56.4388 49.3588 56.4754 49.8418 56.5115 50.3196C56.5995 51.483 56.685 52.6145 56.7301 53.6508C56.7906 55.0425 56.7744 56.2073 56.6102 57.008C56.2541 57.3575 55.8719 57.7056 55.462 58.0513Z" stroke="#B21541" stroke-width="1.03122" stroke-linejoin="round"/>
</g>
<g filter="url(#filter3_d_13046_509)">
<path d="M57.3633 55.0297C57.811 55.4897 57.8554 55.9064 57.3198 56.2548C57.3558 55.8297 57.3698 55.4215 57.3633 55.0297C56.1151 53.7471 51.7326 52.1275 48.0523 50.7118C37.2326 46.5496 57.1621 42.8567 57.3633 55.0297Z" fill="#C61544"/>
<path d="M56.8323 56.2703C56.8158 56.4642 56.8945 56.6403 57.0383 56.7316C57.1822 56.8229 57.3692 56.8154 57.5283 56.7119C57.8789 56.4839 58.2002 56.1204 58.1999 55.6178C58.1997 55.2715 58.0384 54.9841 57.8479 54.7557C57.7429 51.6395 56.3947 49.5194 54.6103 48.176C52.8006 46.8136 50.5406 46.2454 48.6441 46.2048C47.6954 46.1845 46.8149 46.2957 46.109 46.5214C45.7563 46.6342 45.431 46.7808 45.1582 46.9668C44.8879 47.151 44.6372 47.3963 44.4857 47.7172C44.1448 48.4393 44.459 49.1123 44.99 49.6275C45.5396 50.1607 46.4719 50.6974 47.8425 51.2246C48.102 51.3244 48.3647 51.4252 48.6293 51.5266C50.2457 52.1464 51.932 52.793 53.3943 53.4271C54.2446 53.7958 55.0116 54.157 55.6398 54.5027C56.1813 54.8007 56.5982 55.0757 56.8751 55.3205C56.8741 55.6259 56.8601 55.9424 56.8323 56.2703Z" stroke="#B21541" stroke-width="1.03122" stroke-linejoin="round"/>
</g>
<g filter="url(#filter4_d_13046_509)">
<path d="M44.9024 48.035C44.4309 47.5989 44.3645 47.1853 44.8812 46.8097C44.8676 47.236 44.8752 47.6442 44.9024 48.035C46.2168 49.2506 50.6798 50.64 54.4307 51.8622C65.4581 55.4555 45.7456 60.1765 44.9024 48.035Z" fill="#C61544"/>
<path d="M45.3674 46.7688C45.3736 46.5743 45.2858 46.4026 45.1372 46.319C44.9887 46.2353 44.8023 46.2526 44.6488 46.3641C44.3106 46.61 44.0088 46.9897 44.0356 47.4914C44.054 47.837 44.2303 48.1156 44.4327 48.3338C44.702 51.4391 46.1605 53.4856 48.0138 54.734C49.8934 56.0001 52.1808 56.4501 54.0774 56.3921C55.0261 56.3631 55.8998 56.2065 56.593 55.9445C56.9394 55.8136 57.2565 55.6504 57.5193 55.4505C57.7795 55.2525 58.0171 54.9947 58.1515 54.6664C58.454 53.9279 58.1046 53.2723 57.547 52.7856C56.9698 52.2818 56.0103 51.7945 54.6134 51.3393C54.3489 51.2531 54.0813 51.1662 53.8117 51.0787C52.1643 50.5439 50.4458 49.9859 48.9515 49.4288C48.0827 49.1049 47.2975 48.784 46.6518 48.4716C46.0952 48.2022 45.6642 47.9493 45.3747 47.7193C45.3597 47.4144 45.3569 47.0977 45.3674 46.7688Z" stroke="#B21541" stroke-width="1.03122" stroke-linejoin="round"/>
</g>
<path d="M56.7044 56.2831L56.4285 56.0617L67.0788 73.7815" stroke="#004C78" stroke-width="1.03125" stroke-linecap="round" stroke-linejoin="round"/>
<g filter="url(#filter5_d_13046_509)">
<path d="M70.125 61.9189C69.1456 62.782 66.2645 70.2307 65.4643 69.5389C64.6641 68.847 60.6226 66.8733 70.125 61.9189Z" fill="#004C78"/>
<path d="M70.0526 61.6818C70.1709 61.6201 70.2977 61.6551 70.3498 61.7639C70.4018 61.8726 70.3632 62.0217 70.2592 62.1134C70.1789 62.1841 70.0501 62.3539 69.8758 62.6391C69.7079 62.9139 69.5162 63.2648 69.3073 63.6668C69.0389 64.1832 68.7488 64.7711 68.4501 65.3765C68.2823 65.7164 68.1118 66.0619 67.941 66.4033C67.4703 67.3436 66.9968 68.253 66.5871 68.8857C66.3849 69.198 66.1821 69.4686 65.9889 69.6395C65.8917 69.7255 65.7769 69.8044 65.6516 69.8366C65.5143 69.8718 65.3878 69.8447 65.289 69.7593C65.2294 69.7078 65.1532 69.6507 65.0605 69.5813C65.0055 69.5401 64.9447 69.4946 64.878 69.4432C64.7065 69.311 64.5113 69.151 64.33 68.9608C63.9718 68.5851 63.6386 68.0614 63.684 67.358C63.7299 66.6463 64.1566 65.8377 65.1327 64.9156C66.1088 63.9936 67.6666 62.9258 70.0526 61.6818Z" stroke="#004C78" stroke-width="0.515609" stroke-linejoin="round"/>
</g>
<g filter="url(#filter6_d_13046_509)">
<path d="M54.8415 65.5663C55.7449 65.825 62.5447 64.5834 62.1041 65.3647C61.6635 66.1459 60.7213 69.4715 54.8415 65.5663Z" fill="#004C78"/>
<path d="M54.6743 65.7431C54.5651 65.6706 54.5292 65.5475 54.5888 65.4505C54.6485 65.3535 54.7867 65.3102 54.9174 65.3476C54.9362 65.353 54.9849 65.3617 55.076 65.3666C55.1627 65.3712 55.2718 65.3717 55.4025 65.368C55.6637 65.3606 55.9938 65.3371 56.3705 65.3034C56.8542 65.2601 57.4022 65.2012 57.9664 65.1406C58.2832 65.1065 58.6051 65.072 58.9236 65.0393C59.8006 64.9493 60.6532 64.8735 61.2618 64.871C61.5577 64.8697 61.834 64.8849 62.0307 64.9408C62.1262 64.9679 62.2583 65.0197 62.3403 65.1273C62.4361 65.2529 62.4126 65.3818 62.3606 65.4739C62.3279 65.5319 62.2937 65.6021 62.2518 65.688C62.2269 65.7391 62.1993 65.7958 62.1676 65.8587C62.0866 66.0201 61.9864 66.2072 61.8585 66.3976C61.604 66.7766 61.2305 67.1829 60.6554 67.4302C59.4745 67.9378 57.6344 67.7091 54.6743 65.7431Z" stroke="#004C78" stroke-width="0.515609" stroke-linejoin="round"/>
</g>
<path d="M52.0727 45.0472C52.1962 44.8914 52.2289 44.6973 52.1581 44.5405C52.0873 44.3836 51.9243 44.2887 51.7323 44.2927C51.2916 44.3018 50.7999 44.4356 50.512 44.8713C50.309 45.1787 50.2923 45.523 50.3371 45.8287C48.6052 48.6015 48.5121 51.1249 49.2571 53.1811C50.0117 55.2639 51.6189 56.855 53.2102 57.7772C54.0058 58.2382 54.8206 58.5456 55.5505 58.6548C56.2463 58.7589 57.022 58.7025 57.5749 58.2216C58.1616 57.7114 58.243 56.9596 58.0426 56.1742C57.8369 55.3676 57.3012 54.3573 56.3715 53.1255C56.1164 52.7875 55.8561 52.4451 55.5949 52.1014C54.7666 51.012 53.9285 49.9096 53.2145 48.8915C52.7457 48.223 52.3358 47.5983 52.0212 47.0451C51.7579 46.5819 51.5717 46.1864 51.4698 45.8685C51.6525 45.5982 51.8531 45.3243 52.0727 45.0472Z" fill="#C61544" stroke="#B21541" stroke-width="1.03123" stroke-linejoin="round"/>
<path d="M62.4431 45.9029C62.6292 45.8651 62.7712 45.7436 62.8166 45.5831C62.862 45.4226 62.8041 45.247 62.6643 45.1211C62.5404 45.0095 62.3831 44.9179 62.1941 44.8741C62.0068 44.8306 61.8304 44.8437 61.6795 44.8828C61.4412 44.9445 61.2327 45.0796 61.0549 45.2296C56.0095 46.6531 53.9369 50.3037 53.7232 52.5884C53.6696 53.1612 53.7272 53.7018 53.9372 54.1157C54.0442 54.3266 54.2058 54.5334 54.4451 54.6798C54.6962 54.8334 54.9858 54.8914 55.2764 54.8603C55.8086 54.8033 56.3154 54.4546 56.7918 53.9486C57.287 53.4226 57.8244 52.6451 58.3913 51.5747L58.3913 51.5747L58.4006 51.5573C58.4006 51.5573 58.4006 51.5573 58.4006 51.5573C59.052 50.3274 59.687 49.1284 60.2737 48.1308C60.8285 47.1876 61.315 46.4694 61.7073 46.0732C61.9452 46.011 62.1905 45.9541 62.4431 45.9029Z" fill="#C61544" stroke="#B21541" stroke-width="1.03122" stroke-linejoin="round"/>
<path d="M55.9338 39.2173C55.8398 39.146 55.726 39.1013 55.6094 39.0898C53.5856 38.89 52.1148 39.0299 51.1264 39.459C50.1048 39.9026 49.6236 40.6471 49.595 41.5383C49.5674 42.3944 49.9571 43.3361 50.5397 44.2244C51.1273 45.1206 51.9414 46.0088 52.8388 46.7774C53.7354 47.5453 54.7352 48.2109 55.7051 48.6479C56.6609 49.0786 57.6668 49.322 58.5212 49.1305C59.4245 48.928 60.0137 48.276 60.2154 47.2204C60.413 46.1864 60.2542 44.7217 59.6603 42.7485C59.655 42.7309 59.6487 42.7135 59.6413 42.6963C58.9011 40.9664 58.4053 39.9436 58.0474 39.3771C57.8788 39.1103 57.6927 38.8635 57.4642 38.716C57.3321 38.6308 57.1579 38.5605 56.9594 38.5664C56.7677 38.572 56.6303 38.6466 56.5443 38.7121C56.4063 38.817 56.3063 38.9765 56.2506 39.0651C56.2465 39.0717 56.2427 39.0778 56.239 39.0836C56.1674 39.1967 56.1224 39.2648 56.0772 39.3102C56.0475 39.2954 56.0005 39.2678 55.9338 39.2173Z" fill="#C61544" stroke="#B21541" stroke-width="1.03122" stroke-linejoin="round"/>
<path d="M63.0183 43.7461C63.1724 43.7142 63.2997 43.6236 63.3628 43.4956C63.4414 43.3362 63.4071 43.1456 63.2739 43.0013C63.1867 42.9068 62.9655 42.7107 62.6319 42.7373C62.5006 42.7477 62.3982 42.7903 62.3203 42.8411C61.4263 42.9709 60.8787 43.4322 60.6047 44.0027C60.3243 44.5865 60.3354 45.2651 60.4675 45.8046C60.5342 46.0771 60.6371 46.3372 60.7706 46.5513C60.8853 46.7352 61.0948 47.0027 61.435 47.1043C61.6348 47.164 61.845 47.1544 62.0285 47.0725C62.1957 46.9979 62.3082 46.8786 62.3849 46.7652C62.5354 46.5428 62.6278 46.2238 62.6826 45.8316C62.7058 45.6662 62.7279 45.5008 62.7497 45.338C62.7963 44.9889 62.8415 44.6517 62.8912 44.352C62.9275 44.1338 62.9644 43.9471 63.0032 43.8007C63.0083 43.7815 63.0133 43.7633 63.0183 43.7461Z" fill="#C61544" stroke="#B21541" stroke-width="1.03122" stroke-linejoin="round"/>
<path d="M1180.26 59.2705C1179.43 59.2705 1178.7 59.1265 1178.06 58.8385C1177.44 58.5505 1176.94 58.1485 1176.58 57.6325C1176.22 57.1165 1176.03 56.5405 1176.01 55.9045H1177.34C1177.4 56.5165 1177.67 57.0565 1178.15 57.5245C1178.63 57.9805 1179.33 58.2085 1180.26 58.2085C1181.11 58.2085 1181.78 57.9925 1182.27 57.5605C1182.78 57.1165 1183.03 56.5585 1183.03 55.8865C1183.03 55.3465 1182.89 54.9145 1182.61 54.5905C1182.34 54.2545 1182 54.0085 1181.59 53.8525C1181.18 53.6845 1180.62 53.5045 1179.9 53.3125C1179.06 53.0845 1178.39 52.8625 1177.9 52.6465C1177.41 52.4305 1176.99 52.0945 1176.64 51.6385C1176.29 51.1825 1176.12 50.5645 1176.12 49.7845C1176.12 49.1365 1176.28 48.5605 1176.62 48.0565C1176.96 47.5405 1177.43 47.1385 1178.04 46.8505C1178.65 46.5625 1179.36 46.4185 1180.15 46.4185C1181.31 46.4185 1182.25 46.7065 1182.96 47.2825C1183.68 47.8465 1184.09 48.5785 1184.2 49.4785H1182.83C1182.75 48.9625 1182.46 48.5065 1181.98 48.1105C1181.5 47.7025 1180.86 47.4985 1180.04 47.4985C1179.28 47.4985 1178.65 47.7025 1178.15 48.1105C1177.65 48.5065 1177.39 49.0525 1177.39 49.7485C1177.39 50.2765 1177.53 50.7025 1177.81 51.0265C1178.08 51.3505 1178.43 51.5965 1178.83 51.7645C1179.25 51.9325 1179.82 52.1125 1180.53 52.3045C1181.34 52.5325 1182 52.7605 1182.51 52.9885C1183.01 53.2045 1183.44 53.5405 1183.78 53.9965C1184.13 54.4525 1184.31 55.0645 1184.31 55.8325C1184.31 56.4205 1184.15 56.9785 1183.84 57.5065C1183.53 58.0345 1183.06 58.4605 1182.45 58.7845C1181.84 59.1085 1181.11 59.2705 1180.26 59.2705ZM1191.4 59.2885C1190.48 59.2885 1189.64 59.0845 1188.9 58.6765C1188.17 58.2565 1187.59 57.6685 1187.15 56.9125C1186.73 56.1445 1186.52 55.2505 1186.52 54.2305C1186.52 53.2105 1186.74 52.3225 1187.17 51.5665C1187.6 50.7985 1188.19 50.2105 1188.94 49.8025C1189.68 49.3825 1190.51 49.1725 1191.44 49.1725C1192.36 49.1725 1193.2 49.3825 1193.94 49.8025C1194.7 50.2105 1195.28 50.7985 1195.7 51.5665C1196.14 52.3225 1196.35 53.2105 1196.35 54.2305C1196.35 55.2385 1196.14 56.1265 1195.7 56.8945C1195.27 57.6625 1194.68 58.2565 1193.92 58.6765C1193.17 59.0845 1192.33 59.2885 1191.4 59.2885ZM1191.4 58.1905C1192.05 58.1905 1192.65 58.0465 1193.2 57.7585C1193.75 57.4585 1194.2 57.0145 1194.53 56.4265C1194.88 55.8265 1195.06 55.0945 1195.06 54.2305C1195.06 53.3665 1194.89 52.6405 1194.55 52.0525C1194.22 51.4525 1193.77 51.0085 1193.22 50.7205C1192.67 50.4205 1192.07 50.2705 1191.42 50.2705C1190.77 50.2705 1190.17 50.4205 1189.62 50.7205C1189.07 51.0085 1188.62 51.4525 1188.29 52.0525C1187.96 52.6405 1187.8 53.3665 1187.8 54.2305C1187.8 55.0945 1187.96 55.8265 1188.29 56.4265C1188.62 57.0145 1189.06 57.4585 1189.6 57.7585C1190.15 58.0465 1190.75 58.1905 1191.4 58.1905ZM1200.25 51.4945C1200.58 50.8105 1201.07 50.2525 1201.75 49.8205C1202.43 49.3885 1203.23 49.1725 1204.16 49.1725C1205.06 49.1725 1205.86 49.3825 1206.57 49.8025C1207.28 50.2105 1207.83 50.7985 1208.23 51.5665C1208.63 52.3225 1208.84 53.2045 1208.84 54.2125C1208.84 55.2205 1208.63 56.1085 1208.23 56.8765C1207.83 57.6445 1207.27 58.2385 1206.55 58.6585C1205.84 59.0785 1205.05 59.2885 1204.16 59.2885C1203.22 59.2885 1202.41 59.0785 1201.73 58.6585C1201.06 58.2265 1200.56 57.6685 1200.25 56.9845V59.1445H1199.01V45.8245H1200.25V51.4945ZM1207.56 54.2125C1207.56 53.3965 1207.4 52.6945 1207.07 52.1065C1206.76 51.5065 1206.33 51.0505 1205.78 50.7385C1205.23 50.4265 1204.6 50.2705 1203.91 50.2705C1203.23 50.2705 1202.62 50.4325 1202.05 50.7565C1201.5 51.0805 1201.06 51.5425 1200.74 52.1425C1200.41 52.7425 1200.25 53.4385 1200.25 54.2305C1200.25 55.0225 1200.41 55.7185 1200.74 56.3185C1201.06 56.9185 1201.5 57.3805 1202.05 57.7045C1202.62 58.0285 1203.23 58.1905 1203.91 58.1905C1204.6 58.1905 1205.23 58.0345 1205.78 57.7225C1206.33 57.3985 1206.76 56.9365 1207.07 56.3365C1207.4 55.7245 1207.56 55.0165 1207.56 54.2125ZM1212.78 51.0625C1213.05 50.4505 1213.47 49.9765 1214.04 49.6405C1214.61 49.3045 1215.31 49.1365 1216.14 49.1365V50.4505H1215.8C1214.89 50.4505 1214.16 50.6965 1213.6 51.1885C1213.05 51.6805 1212.78 52.5025 1212.78 53.6545V59.1445H1211.52V49.3165H1212.78V51.0625ZM1227.29 53.7265C1227.29 54.1585 1227.28 54.4885 1227.25 54.7165H1219.1C1219.14 55.4605 1219.32 56.0965 1219.64 56.6245C1219.96 57.1525 1220.39 57.5545 1220.92 57.8305C1221.45 58.0945 1222.02 58.2265 1222.65 58.2265C1223.46 58.2265 1224.15 58.0285 1224.7 57.6325C1225.26 57.2365 1225.63 56.7025 1225.81 56.0305H1227.15C1226.91 56.9905 1226.39 57.7765 1225.6 58.3885C1224.82 58.9885 1223.83 59.2885 1222.65 59.2885C1221.72 59.2885 1220.89 59.0845 1220.16 58.6765C1219.43 58.2565 1218.85 57.6685 1218.43 56.9125C1218.03 56.1445 1217.82 55.2505 1217.82 54.2305C1217.82 53.2105 1218.03 52.3165 1218.43 51.5485C1218.84 50.7805 1219.41 50.1925 1220.14 49.7845C1220.88 49.3765 1221.71 49.1725 1222.65 49.1725C1223.58 49.1725 1224.4 49.3765 1225.09 49.7845C1225.8 50.1925 1226.34 50.7445 1226.71 51.4405C1227.1 52.1245 1227.29 52.8865 1227.29 53.7265ZM1226.01 53.6905C1226.02 52.9585 1225.87 52.3345 1225.56 51.8185C1225.26 51.3025 1224.85 50.9125 1224.32 50.6485C1223.79 50.3845 1223.22 50.2525 1222.59 50.2525C1221.66 50.2525 1220.86 50.5525 1220.2 51.1525C1219.54 51.7525 1219.17 52.5985 1219.1 53.6905H1226.01ZM1246.95 49.1365C1248.11 49.1365 1249.04 49.5025 1249.76 50.2345C1250.49 50.9545 1250.86 52.0045 1250.86 53.3845V59.1445H1249.62V53.5285C1249.62 52.4605 1249.36 51.6445 1248.84 51.0805C1248.33 50.5165 1247.63 50.2345 1246.74 50.2345C1245.81 50.2345 1245.08 50.5405 1244.52 51.1525C1243.97 51.7645 1243.7 52.6525 1243.7 53.8165V59.1445H1242.45V53.5285C1242.45 52.4605 1242.2 51.6445 1241.68 51.0805C1241.16 50.5165 1240.46 50.2345 1239.56 50.2345C1238.63 50.2345 1237.89 50.5405 1237.34 51.1525C1236.79 51.7645 1236.51 52.6525 1236.51 53.8165V59.1445H1235.25V49.3165H1236.51V51.0085C1236.83 50.3965 1237.27 49.9345 1237.85 49.6225C1238.42 49.2985 1239.06 49.1365 1239.77 49.1365C1240.62 49.1365 1241.37 49.3405 1242 49.7485C1242.65 50.1565 1243.12 50.7565 1243.41 51.5485C1243.67 50.7685 1244.12 50.1745 1244.76 49.7665C1245.41 49.3465 1246.14 49.1365 1246.95 49.1365ZM1255.28 49.3165V59.1445H1254.02V49.3165H1255.28ZM1256.3 46.4185L1252.61 48.5605V47.5885L1256.3 45.2845V46.4185Z" fill="#004C78"/>
<path d="M1342.49 50.1805C1342.49 51.2605 1342.13 52.1305 1341.42 52.7905C1340.72 53.4505 1339.65 53.7805 1338.24 53.7805H1335.7V59.1445H1334.44V46.5625H1338.24C1339.64 46.5625 1340.7 46.8925 1341.41 47.5525C1342.13 48.2125 1342.49 49.0885 1342.49 50.1805ZM1338.24 52.7005C1340.21 52.7005 1341.19 51.8605 1341.19 50.1805C1341.19 49.3405 1340.96 48.7045 1340.49 48.2725C1340.02 47.8405 1339.27 47.6245 1338.24 47.6245H1335.7V52.7005H1338.24ZM1346.22 51.0625C1346.5 50.4505 1346.92 49.9765 1347.48 49.6405C1348.06 49.3045 1348.76 49.1365 1349.59 49.1365V50.4505H1349.24C1348.33 50.4505 1347.6 50.6965 1347.05 51.1885C1346.5 51.6805 1346.22 52.5025 1346.22 53.6545V59.1445H1344.96V49.3165H1346.22V51.0625ZM1356.14 59.2885C1355.22 59.2885 1354.39 59.0845 1353.64 58.6765C1352.91 58.2565 1352.33 57.6685 1351.9 56.9125C1351.48 56.1445 1351.27 55.2505 1351.27 54.2305C1351.27 53.2105 1351.48 52.3225 1351.91 51.5665C1352.35 50.7985 1352.93 50.2105 1353.68 49.8025C1354.42 49.3825 1355.26 49.1725 1356.18 49.1725C1357.1 49.1725 1357.94 49.3825 1358.68 49.8025C1359.44 50.2105 1360.03 50.7985 1360.45 51.5665C1360.88 52.3225 1361.09 53.2105 1361.09 54.2305C1361.09 55.2385 1360.88 56.1265 1360.45 56.8945C1360.01 57.6625 1359.42 58.2565 1358.66 58.6765C1357.91 59.0845 1357.07 59.2885 1356.14 59.2885ZM1356.14 58.1905C1356.79 58.1905 1357.39 58.0465 1357.94 57.7585C1358.5 57.4585 1358.94 57.0145 1359.28 56.4265C1359.62 55.8265 1359.8 55.0945 1359.8 54.2305C1359.8 53.3665 1359.63 52.6405 1359.29 52.0525C1358.96 51.4525 1358.51 51.0085 1357.96 50.7205C1357.41 50.4205 1356.81 50.2705 1356.16 50.2705C1355.51 50.2705 1354.91 50.4205 1354.36 50.7205C1353.81 51.0085 1353.37 51.4525 1353.03 52.0525C1352.71 52.6405 1352.54 53.3665 1352.54 54.2305C1352.54 55.0945 1352.71 55.8265 1353.03 56.4265C1353.37 57.0145 1353.8 57.4585 1354.34 57.7585C1354.9 58.0465 1355.5 58.1905 1356.14 58.1905ZM1371.85 49.3165L1366.02 63.7705H1364.7L1366.61 59.0905L1362.58 49.3165H1363.97L1367.31 57.7045L1370.55 49.3165H1371.85ZM1382.81 53.7265C1382.81 54.1585 1382.8 54.4885 1382.78 54.7165H1374.62C1374.66 55.4605 1374.84 56.0965 1375.16 56.6245C1375.49 57.1525 1375.91 57.5545 1376.44 57.8305C1376.97 58.0945 1377.54 58.2265 1378.17 58.2265C1378.98 58.2265 1379.67 58.0285 1380.22 57.6325C1380.78 57.2365 1381.16 56.7025 1381.34 56.0305H1382.67C1382.43 56.9905 1381.91 57.7765 1381.12 58.3885C1380.34 58.9885 1379.36 59.2885 1378.17 59.2885C1377.24 59.2885 1376.42 59.0845 1375.68 58.6765C1374.95 58.2565 1374.38 57.6685 1373.96 56.9125C1373.55 56.1445 1373.34 55.2505 1373.34 54.2305C1373.34 53.2105 1373.55 52.3165 1373.96 51.5485C1374.36 50.7805 1374.93 50.1925 1375.67 49.7845C1376.4 49.3765 1377.23 49.1725 1378.17 49.1725C1379.1 49.1725 1379.92 49.3765 1380.62 49.7845C1381.32 50.1925 1381.86 50.7445 1382.24 51.4405C1382.62 52.1245 1382.81 52.8865 1382.81 53.7265ZM1381.53 53.6905C1381.55 52.9585 1381.4 52.3345 1381.08 51.8185C1380.78 51.3025 1380.37 50.9125 1379.84 50.6485C1379.31 50.3845 1378.74 50.2525 1378.11 50.2525C1377.18 50.2525 1376.38 50.5525 1375.72 51.1525C1375.06 51.7525 1374.69 52.5985 1374.62 53.6905H1381.53ZM1384.9 54.2305C1384.9 53.2105 1385.1 52.3225 1385.51 51.5665C1385.92 50.7985 1386.48 50.2105 1387.2 49.8025C1387.92 49.3825 1388.75 49.1725 1389.67 49.1725C1390.88 49.1725 1391.88 49.4725 1392.66 50.0725C1393.45 50.6725 1393.96 51.4885 1394.19 52.5205H1392.84C1392.67 51.8125 1392.3 51.2605 1391.74 50.8645C1391.19 50.4565 1390.5 50.2525 1389.67 50.2525C1389.01 50.2525 1388.42 50.4025 1387.89 50.7025C1387.36 51.0025 1386.94 51.4525 1386.63 52.0525C1386.33 52.6405 1386.18 53.3665 1386.18 54.2305C1386.18 55.0945 1386.33 55.8265 1386.63 56.4265C1386.94 57.0265 1387.36 57.4765 1387.89 57.7765C1388.42 58.0765 1389.01 58.2265 1389.67 58.2265C1390.5 58.2265 1391.19 58.0285 1391.74 57.6325C1392.3 57.2245 1392.67 56.6605 1392.84 55.9405H1394.19C1393.96 56.9485 1393.45 57.7585 1392.66 58.3705C1391.87 58.9825 1390.87 59.2885 1389.67 59.2885C1388.75 59.2885 1387.92 59.0845 1387.2 58.6765C1386.48 58.2565 1385.92 57.6685 1385.51 56.9125C1385.1 56.1445 1384.9 55.2505 1384.9 54.2305ZM1398.51 50.3785V56.4805C1398.51 57.0805 1398.63 57.4945 1398.86 57.7225C1399.08 57.9505 1399.49 58.0645 1400.06 58.0645H1401.21V59.1445H1399.86C1398.98 59.1445 1398.32 58.9405 1397.88 58.5325C1397.45 58.1125 1397.24 57.4285 1397.24 56.4805V50.3785H1395.87V49.3165H1397.24V46.8505H1398.51V49.3165H1401.21V50.3785H1398.51ZM1407.95 59.2885C1407.03 59.2885 1406.2 59.0845 1405.45 58.6765C1404.72 58.2565 1404.14 57.6685 1403.71 56.9125C1403.29 56.1445 1403.08 55.2505 1403.08 54.2305C1403.08 53.2105 1403.29 52.3225 1403.72 51.5665C1404.16 50.7985 1404.74 50.2105 1405.49 49.8025C1406.23 49.3825 1407.07 49.1725 1407.99 49.1725C1408.91 49.1725 1409.75 49.3825 1410.49 49.8025C1411.25 50.2105 1411.84 50.7985 1412.26 51.5665C1412.69 52.3225 1412.9 53.2105 1412.9 54.2305C1412.9 55.2385 1412.69 56.1265 1412.26 56.8945C1411.82 57.6625 1411.23 58.2565 1410.47 58.6765C1409.72 59.0845 1408.88 59.2885 1407.95 59.2885ZM1407.95 58.1905C1408.6 58.1905 1409.2 58.0465 1409.75 57.7585C1410.31 57.4585 1410.75 57.0145 1411.09 56.4265C1411.43 55.8265 1411.61 55.0945 1411.61 54.2305C1411.61 53.3665 1411.44 52.6405 1411.1 52.0525C1410.77 51.4525 1410.32 51.0085 1409.77 50.7205C1409.22 50.4205 1408.62 50.2705 1407.97 50.2705C1407.32 50.2705 1406.72 50.4205 1406.17 50.7205C1405.62 51.0085 1405.18 51.4525 1404.84 52.0525C1404.52 52.6405 1404.35 53.3665 1404.35 54.2305C1404.35 55.0945 1404.52 55.8265 1404.84 56.4265C1405.18 57.0145 1405.61 57.4585 1406.15 57.7585C1406.71 58.0465 1407.31 58.1905 1407.95 58.1905ZM1418.94 59.2885C1417.82 59.2885 1416.89 59.0305 1416.17 58.5145C1415.46 57.9865 1415.07 57.2725 1414.98 56.3725H1416.28C1416.34 56.9245 1416.6 57.3745 1417.05 57.7225C1417.52 58.0585 1418.15 58.2265 1418.93 58.2265C1419.61 58.2265 1420.14 58.0645 1420.53 57.7405C1420.92 57.4165 1421.12 57.0145 1421.12 56.5345C1421.12 56.1985 1421.01 55.9225 1420.8 55.7065C1420.58 55.4905 1420.31 55.3225 1419.97 55.2025C1419.65 55.0705 1419.2 54.9325 1418.64 54.7885C1417.91 54.5965 1417.31 54.4045 1416.86 54.2125C1416.4 54.0205 1416.01 53.7385 1415.69 53.3665C1415.37 52.9825 1415.22 52.4725 1415.22 51.8365C1415.22 51.3565 1415.36 50.9125 1415.65 50.5045C1415.94 50.0965 1416.35 49.7725 1416.87 49.5325C1417.4 49.2925 1418 49.1725 1418.67 49.1725C1419.73 49.1725 1420.58 49.4425 1421.23 49.9825C1421.88 50.5105 1422.23 51.2425 1422.27 52.1785H1421.01C1420.98 51.6025 1420.75 51.1405 1420.33 50.7925C1419.92 50.4325 1419.36 50.2525 1418.64 50.2525C1418 50.2525 1417.49 50.4025 1417.09 50.7025C1416.69 51.0025 1416.5 51.3745 1416.5 51.8185C1416.5 52.2025 1416.61 52.5205 1416.84 52.7725C1417.08 53.0125 1417.37 53.2045 1417.72 53.3485C1418.07 53.4805 1418.54 53.6305 1419.12 53.7985C1419.83 53.9905 1420.4 54.1765 1420.82 54.3565C1421.24 54.5365 1421.6 54.8005 1421.9 55.1485C1422.2 55.4965 1422.35 55.9585 1422.36 56.5345C1422.36 57.0625 1422.22 57.5365 1421.93 57.9565C1421.64 58.3645 1421.24 58.6885 1420.73 58.9285C1420.21 59.1685 1419.62 59.2885 1418.94 59.2885Z" fill="#CC2967"/>
<path d="M1500.86 52.8445C1500.86 51.6085 1501.13 50.5045 1501.67 49.5325C1502.21 48.5485 1502.95 47.7865 1503.89 47.2465C1504.82 46.6945 1505.87 46.4185 1507.02 46.4185C1508.42 46.4185 1509.62 46.7545 1510.62 47.4265C1511.63 48.0865 1512.36 49.0225 1512.82 50.2345H1511.34C1510.98 49.3825 1510.43 48.7165 1509.68 48.2365C1508.95 47.7565 1508.06 47.5165 1507.02 47.5165C1506.1 47.5165 1505.26 47.7325 1504.52 48.1645C1503.79 48.5965 1503.21 49.2205 1502.79 50.0365C1502.37 50.8405 1502.16 51.7765 1502.16 52.8445C1502.16 53.9125 1502.37 54.8485 1502.79 55.6525C1503.21 56.4565 1503.79 57.0745 1504.52 57.5065C1505.26 57.9385 1506.1 58.1545 1507.02 58.1545C1508.06 58.1545 1508.95 57.9205 1509.68 57.4525C1510.43 56.9725 1510.98 56.3125 1511.34 55.4725H1512.82C1512.36 56.6725 1511.63 57.6025 1510.62 58.2625C1509.61 58.9225 1508.41 59.2525 1507.02 59.2525C1505.87 59.2525 1504.82 58.9825 1503.89 58.4425C1502.95 57.8905 1502.21 57.1285 1501.67 56.1565C1501.13 55.1845 1500.86 54.0805 1500.86 52.8445ZM1525.66 46.5625L1520.89 59.1445H1519.45L1514.68 46.5625H1516.05L1520.17 57.7765L1524.33 46.5625H1525.66Z" fill="#004C78"/>
<g clip-path="url(#clip0_13046_509)">
<path fill-rule="evenodd" clip-rule="evenodd" d="M1582 37.167H1591V46.167H1582V37.167ZM1579 34.167H1582H1591H1594V37.167V46.167V49.167H1591H1582H1579V46.167V37.167V34.167ZM1582 58.167H1591V67.167H1582V58.167ZM1579 55.167H1582H1591H1594V58.167V67.167V70.167H1591H1582H1579V67.167V58.167V55.167ZM1612 37.167H1603V46.167H1612V37.167ZM1603 34.167H1600V37.167V46.167V49.167H1603H1612H1615V46.167V37.167V34.167H1612H1603ZM1603 58.167H1612V67.167H1603V58.167ZM1600 55.167H1603H1612H1615V58.167V67.167V70.167H1612H1603H1600V67.167V58.167V55.167Z" fill="#004C78"/>
</g>
<defs>
<filter id="filter0_d_13046_509" x="-82.0217" y="-85.3542" width="362.775" height="361.609" filterUnits="userSpaceOnUse" color-interpolation-filters="sRGB">
<feFlood flood-opacity="0" result="BackgroundImageFix"/>
<feColorMatrix in="SourceAlpha" type="matrix" values="0 0 0 0 0 0 0 0 0 0 0 0 0 0 0 0 0 0 127 0" result="hardAlpha"/>
<feMorphology radius="10.5503" operator="dilate" in="SourceAlpha" result="effect1_dropShadow_13046_509"/>
<feOffset dx="46.8736" dy="46.8736"/>
<feGaussianBlur stdDeviation="79.6852"/>
<feComposite in2="hardAlpha" operator="out"/>
<feColorMatrix type="matrix" values="0 0 0 0 0.8 0 0 0 0 0.160784 0 0 0 0 0.403922 0 0 0 1 0"/>
<feBlend mode="normal" in2="BackgroundImageFix" result="effect1_dropShadow_13046_509"/>
<feBlend mode="normal" in="SourceGraphic" in2="effect1_dropShadow_13046_509" result="shape"/>
</filter>
<filter id="filter1_d_13046_509" x="-74.7599" y="-78.5777" width="348.759" height="345.304" filterUnits="userSpaceOnUse" color-interpolation-filters="sRGB">
<feFlood flood-opacity="0" result="BackgroundImageFix"/>
<feColorMatrix in="SourceAlpha" type="matrix" values="0 0 0 0 0 0 0 0 0 0 0 0 0 0 0 0 0 0 127 0" result="hardAlpha"/>
<feMorphology radius="10.5503" operator="dilate" in="SourceAlpha" result="effect1_dropShadow_13046_509"/>
<feOffset dx="46.8736" dy="46.8736"/>
<feGaussianBlur stdDeviation="79.6851"/>
<feComposite in2="hardAlpha" operator="out"/>
<feColorMatrix type="matrix" values="0 0 0 0 0.8 0 0 0 0 0.160784 0 0 0 0 0.403922 0 0 0 1 0"/>
<feBlend mode="normal" in2="BackgroundImageFix" result="effect1_dropShadow_13046_509"/>
<feBlend mode="normal" in="SourceGraphic" in2="effect1_dropShadow_13046_509" result="shape"/>
</filter>
<filter id="filter2_d_13046_509" x="-68.3239" y="-81.5634" width="347.737" height="357.727" filterUnits="userSpaceOnUse" color-interpolation-filters="sRGB">
<feFlood flood-opacity="0" result="BackgroundImageFix"/>
<feColorMatrix in="SourceAlpha" type="matrix" values="0 0 0 0 0 0 0 0 0 0 0 0 0 0 0 0 0 0 127 0" result="hardAlpha"/>
<feMorphology radius="10.5503" operator="dilate" in="SourceAlpha" result="effect1_dropShadow_13046_509"/>
<feOffset dx="46.8737" dy="46.8737"/>
<feGaussianBlur stdDeviation="79.6854"/>
<feComposite in2="hardAlpha" operator="out"/>
<feColorMatrix type="matrix" values="0 0 0 0 0.8 0 0 0 0 0.160784 0 0 0 0 0.403922 0 0 0 1 0"/>
<feBlend mode="normal" in2="BackgroundImageFix" result="effect1_dropShadow_13046_509"/>
<feBlend mode="normal" in="SourceGraphic" in2="effect1_dropShadow_13046_509" result="shape"/>
</filter>
<filter id="filter3_d_13046_509" x="-79.1956" y="-77.3848" width="354.679" height="351.514" filterUnits="userSpaceOnUse" color-interpolation-filters="sRGB">
<feFlood flood-opacity="0" result="BackgroundImageFix"/>
<feColorMatrix in="SourceAlpha" type="matrix" values="0 0 0 0 0 0 0 0 0 0 0 0 0 0 0 0 0 0 127 0" result="hardAlpha"/>
<feMorphology radius="10.5503" operator="dilate" in="SourceAlpha" result="effect1_dropShadow_13046_509"/>
<feOffset dx="46.8736" dy="46.8736"/>
<feGaussianBlur stdDeviation="79.6851"/>
<feComposite in2="hardAlpha" operator="out"/>
<feColorMatrix type="matrix" values="0 0 0 0 0.8 0 0 0 0 0.160784 0 0 0 0 0.403922 0 0 0 1 0"/>
<feBlend mode="normal" in2="BackgroundImageFix" result="effect1_dropShadow_13046_509"/>
<feBlend mode="normal" in="SourceGraphic" in2="effect1_dropShadow_13046_509" result="shape"/>
</filter>
<filter id="filter4_d_13046_509" x="-79.4995" y="-77.3238" width="355.046" height="351.058" filterUnits="userSpaceOnUse" color-interpolation-filters="sRGB">
<feFlood flood-opacity="0" result="BackgroundImageFix"/>
<feColorMatrix in="SourceAlpha" type="matrix" values="0 0 0 0 0 0 0 0 0 0 0 0 0 0 0 0 0 0 127 0" result="hardAlpha"/>
<feMorphology radius="10.5503" operator="dilate" in="SourceAlpha" result="effect1_dropShadow_13046_509"/>
<feOffset dx="46.8736" dy="46.8736"/>
<feGaussianBlur stdDeviation="79.6851"/>
<feComposite in2="hardAlpha" operator="out"/>
<feColorMatrix type="matrix" values="0 0 0 0 0.8 0 0 0 0 0.160784 0 0 0 0 0.403922 0 0 0 1 0"/>
<feBlend mode="normal" in2="BackgroundImageFix" result="effect1_dropShadow_13046_509"/>
<feBlend mode="normal" in="SourceGraphic" in2="effect1_dropShadow_13046_509" result="shape"/>
</filter>
<filter id="filter5_d_13046_509" x="1.90849" y="-0.139603" width="177.109" height="178.656" filterUnits="userSpaceOnUse" color-interpolation-filters="sRGB">
<feFlood flood-opacity="0" result="BackgroundImageFix"/>
<feColorMatrix in="SourceAlpha" type="matrix" values="0 0 0 0 0 0 0 0 0 0 0 0 0 0 0 0 0 0 127 0" result="hardAlpha"/>
<feMorphology radius="5.27515" operator="dilate" in="SourceAlpha" result="effect1_dropShadow_13046_509"/>
<feOffset dx="23.4368" dy="23.4368"/>
<feGaussianBlur stdDeviation="39.8425"/>
<feComposite in2="hardAlpha" operator="out"/>
<feColorMatrix type="matrix" values="0 0 0 0 0.8 0 0 0 0 0.160784 0 0 0 0 0.403922 0 0 0 1 0"/>
<feBlend mode="normal" in2="BackgroundImageFix" result="effect1_dropShadow_13046_509"/>
<feBlend mode="normal" in="SourceGraphic" in2="effect1_dropShadow_13046_509" result="shape"/>
</filter>
<filter id="filter6_d_13046_509" x="-7.24458" y="3.11528" width="178.329" height="173.176" filterUnits="userSpaceOnUse" color-interpolation-filters="sRGB">
<feFlood flood-opacity="0" result="BackgroundImageFix"/>
<feColorMatrix in="SourceAlpha" type="matrix" values="0 0 0 0 0 0 0 0 0 0 0 0 0 0 0 0 0 0 127 0" result="hardAlpha"/>
<feMorphology radius="5.27515" operator="dilate" in="SourceAlpha" result="effect1_dropShadow_13046_509"/>
<feOffset dx="23.4368" dy="23.4368"/>
<feGaussianBlur stdDeviation="39.8425"/>
<feComposite in2="hardAlpha" operator="out"/>
<feColorMatrix type="matrix" values="0 0 0 0 0.8 0 0 0 0 0.160784 0 0 0 0 0.403922 0 0 0 1 0"/>
<feBlend mode="normal" in2="BackgroundImageFix" result="effect1_dropShadow_13046_509"/>
<feBlend mode="normal" in="SourceGraphic" in2="effect1_dropShadow_13046_509" result="shape"/>
</filter>
<clipPath id="clip0_13046_509">
<rect width="36" height="37" fill="white" transform="translate(1579 34.1445)"/>
</clipPath>
</defs>
</svg>
