<svg width="651" height="655" viewBox="0 0 651 655" fill="none" xmlns="http://www.w3.org/2000/svg">
<g filter="url(#filter0_d_1808_376)">
<g filter="url(#filter1_d_1808_376)">
<path d="M262.727 250.937C264.611 257.105 265.152 262.315 262.193 264.296C262.274 259.122 262.475 254.713 262.727 250.937C258.181 236.058 245.812 215.605 255.865 221.446C268.188 228.606 264.364 226.423 262.727 250.937Z" fill="#C61544"/>
<path d="M241.696 260.914C239.975 260.928 238.05 260.855 235.903 260.687C212.927 253.641 218.643 238.341 229.853 229.271C230.835 229.257 234.899 231.817 239.437 235.488C250.767 244.65 265.048 260.728 241.696 260.914Z" fill="#C61544"/>
<path d="M230.807 228.524C237.508 223.449 245.853 220.628 251.252 222.927M248.452 242.593C246.124 240.056 243.439 237.587 240.856 235.442C243.854 233.033 247.702 232.318 251.289 234.402L252.096 232.674C247.672 230.104 242.926 231.189 239.419 234.273C237.324 232.605 235.348 231.183 233.746 230.152C232.996 229.671 232.321 229.269 231.748 228.967C234.939 226.63 238.472 224.825 241.834 223.861C245.566 222.792 248.974 222.789 251.477 224.09C251.517 224.255 251.559 224.422 251.604 224.59C251.932 225.817 252.434 227.255 253.039 228.828C253.879 231.01 254.944 233.513 256.062 236.143C256.553 237.298 257.055 238.477 257.552 239.665C259.165 243.514 260.746 247.472 261.864 251.089C261.617 254.839 261.421 259.202 261.341 264.304C261.335 264.651 261.494 264.97 261.756 265.14C262.019 265.31 262.345 265.305 262.611 265.127C264.471 263.882 265.129 261.656 265.128 259.162C265.127 256.728 264.51 253.832 263.59 250.787C263.974 245.116 264.473 240.895 264.858 237.646C264.88 237.46 264.902 237.278 264.923 237.099C265.313 233.794 265.583 231.398 265.376 229.538C265.269 228.575 265.034 227.726 264.615 226.942C264.199 226.165 263.626 225.496 262.898 224.856C261.481 223.611 259.338 222.366 256.314 220.609L256.269 220.582C254.999 219.845 253.925 219.418 253.073 219.459C252.617 219.481 252.162 219.64 251.8 220.027C251.445 220.407 251.28 220.9 251.215 221.372C251.194 221.529 251.182 221.693 251.179 221.863C248.358 220.803 244.931 220.99 241.457 221.985C237.418 223.143 233.195 225.427 229.535 228.355C229.43 228.389 229.317 228.444 229.206 228.532C229.096 228.62 229.01 228.725 228.944 228.838C226.255 231.078 223.879 233.685 222.146 236.471C220.326 239.399 219.184 242.582 219.206 245.771C219.243 250.976 222.333 255.713 229.473 259.218L229.253 260.931C231.605 261.253 233.764 261.49 235.741 261.646L235.794 261.662L235.797 261.651C235.806 261.651 235.814 261.652 235.823 261.653C237.867 261.813 239.717 261.887 241.387 261.883C245.077 265.132 250.289 268.01 257.362 270.159L257.842 268.288C252.031 266.523 247.577 264.276 244.242 261.79C246.06 261.669 247.618 261.431 248.939 261.087C250.836 260.592 252.295 259.863 253.324 258.887C254.376 257.89 254.949 256.659 255.078 255.281C255.204 253.938 254.902 252.535 254.35 251.149C253.25 248.389 251.04 245.415 248.452 242.593Z" stroke="#B21541" stroke-width="1.82713" stroke-linejoin="round"/>
</g>
<g filter="url(#filter2_d_1808_376)">
<path d="M251.021 241.282C251.66 241.256 251.988 241.543 251.864 242.276C251.585 241.916 251.303 241.585 251.021 241.282C249.183 241.358 244.772 244.024 241.108 246.146C230.4 252.347 241.452 231.024 251.021 241.282Z" fill="#C61544"/>
<path d="M251.291 242.871C251.515 243.159 251.835 243.307 252.127 243.256C252.418 243.206 252.634 242.965 252.691 242.627C252.77 242.157 252.777 241.413 252.24 240.825C251.924 240.48 251.555 240.351 251.239 240.308C248.676 237.719 246 237.121 243.646 237.61C241.246 238.108 239.181 239.727 237.802 241.45C237.111 242.314 236.568 243.233 236.237 244.096C236.073 244.528 235.952 244.968 235.901 245.397C235.851 245.818 235.859 246.298 236.016 246.771C236.186 247.283 236.508 247.717 236.951 247.986C237.361 248.234 237.809 248.305 238.244 248.286C239.108 248.249 240.215 247.841 241.579 247.05C241.915 246.856 242.256 246.657 242.601 246.457C244.144 245.559 245.747 244.627 247.198 243.864C248.085 243.397 248.902 243.002 249.603 242.719C250.107 242.516 250.521 242.385 250.84 242.319C250.99 242.494 251.14 242.677 251.291 242.871Z" stroke="#C61544" stroke-width="1.82713" stroke-linecap="round" stroke-linejoin="round"/>
</g>
<g filter="url(#filter3_d_1808_376)">
<path d="M259.289 264.615C259.308 266.731 258.678 267.962 257.041 267.859C257.867 266.774 258.615 265.692 259.289 264.615C259.251 260.371 256.6 252.567 254.227 244.839C244.234 212.299 276.892 236.514 259.289 264.615Z" fill="#C61544"/>
<path d="M256.285 267.36C256.084 267.623 256.045 267.961 256.18 268.247C256.316 268.532 256.606 268.722 256.941 268.743C257.477 268.777 257.999 268.705 258.473 268.486C258.953 268.263 259.32 267.919 259.585 267.507C260.05 266.784 260.214 265.836 260.229 264.827C269.067 250.523 265.273 237.153 260.352 231.413C259.12 229.977 257.745 228.933 256.387 228.539C255.695 228.338 254.97 228.296 254.271 228.501C253.563 228.71 252.968 229.147 252.514 229.761C251.638 230.945 251.258 232.805 251.358 235.262C251.46 237.754 252.062 241.009 253.323 245.116C253.669 246.242 254.02 247.366 254.367 248.478C255.216 251.2 256.043 253.852 256.725 256.291C257.651 259.603 258.279 262.421 258.344 264.41C257.722 265.388 257.037 266.373 256.285 267.36Z" stroke="#B21541" stroke-width="1.82713" stroke-linecap="round" stroke-linejoin="round"/>
</g>
<g filter="url(#filter4_d_1808_376)">
<path d="M258.62 259.411C259.896 260.352 260.236 261.325 259.223 262.332C259.065 261.309 258.863 260.336 258.62 259.411C255.136 256.842 244.672 254.519 235.715 252.434C209.304 246.286 251.485 232.255 258.62 259.411Z" fill="#C61544"/>
<path d="M258.381 262.553C258.432 262.887 258.639 263.155 258.925 263.255C259.21 263.355 259.531 263.272 259.766 263.038C260.431 262.377 260.839 261.507 260.605 260.541C260.431 259.821 259.934 259.246 259.359 258.781C255.528 244.853 242.808 241.58 234.558 242.474C232.462 242.701 230.592 243.2 229.173 243.9C228.464 244.25 227.836 244.666 227.345 245.152C226.856 245.636 226.458 246.239 226.315 246.955C226.01 248.475 226.936 249.734 228.352 250.69C229.825 251.686 232.158 252.602 235.494 253.379C235.998 253.496 236.507 253.615 237.019 253.733C241.059 254.671 245.283 255.651 248.967 256.678C251.042 257.256 252.933 257.846 254.514 258.446C255.953 258.993 257.096 259.533 257.882 260.059C258.079 260.853 258.247 261.683 258.381 262.553Z" stroke="#B21541" stroke-width="1.82713" stroke-linecap="round" stroke-linejoin="round"/>
</g>
<g filter="url(#filter5_d_1808_376)">
<path d="M226.753 247.079C225.437 246.204 225.049 245.245 226.004 244.18C226.213 245.198 226.464 246.164 226.753 247.079C230.347 249.47 240.867 251.238 249.875 252.848C276.437 257.594 235.237 273.971 226.753 247.079Z" fill="#C61544"/>
<path d="M226.829 243.914C226.76 243.582 226.541 243.325 226.252 243.239C225.964 243.154 225.65 243.254 225.429 243.501C224.802 244.2 224.441 245.094 224.723 246.051C224.933 246.765 225.457 247.315 226.052 247.751C230.574 261.534 243.383 264.133 251.536 262.789C253.608 262.447 255.44 261.845 256.814 261.065C257.501 260.675 258.104 260.224 258.566 259.71C259.027 259.197 259.391 258.571 259.496 257.845C259.721 256.302 258.737 255.087 257.28 254.203C255.765 253.282 253.4 252.488 250.045 251.888C249.536 251.797 249.022 251.706 248.505 251.614C244.444 250.891 240.198 250.135 236.485 249.303C234.393 248.834 232.484 248.345 230.881 247.827C229.423 247.356 228.26 246.875 227.452 246.39C227.215 245.604 227.006 244.78 226.829 243.914Z" stroke="#B21541" stroke-width="1.82713" stroke-linecap="round" stroke-linejoin="round"/>
</g>
<path d="M257.857 262.604L257.114 262.174L290.943 300.475" stroke="#004C78" stroke-width="1.82718" stroke-linecap="round" stroke-linejoin="round"/>
<g filter="url(#filter6_d_1808_376)">
<path d="M291.291 271.933C289.573 274.299 287.254 292.842 285.071 291.478C282.889 290.115 272.714 286.816 291.291 271.933Z" fill="#004C78"/>
<path d="M291.064 271.556C291.245 271.411 291.482 271.424 291.62 271.587C291.758 271.749 291.756 272.013 291.615 272.207C291.46 272.421 291.258 272.888 291.025 273.622C290.799 274.333 290.563 275.231 290.317 276.252C290.002 277.562 289.677 279.051 289.344 280.582C289.156 281.44 288.966 282.311 288.774 283.171C288.241 285.548 287.686 287.842 287.123 289.461C286.845 290.26 286.547 290.949 286.22 291.4C286.057 291.627 285.853 291.839 285.605 291.95C285.333 292.072 285.063 292.047 284.829 291.901C284.664 291.797 284.454 291.685 284.204 291.551C284.058 291.472 283.898 291.386 283.725 291.29C283.268 291.037 282.747 290.728 282.241 290.346C281.238 289.588 280.247 288.503 279.972 286.914C279.694 285.308 280.166 283.312 281.838 280.817C283.507 278.328 286.401 275.292 291.064 271.556Z" stroke="#004C78" stroke-width="0.913563" stroke-linecap="round" stroke-linejoin="round"/>
</g>
<g filter="url(#filter7_d_1808_376)">
<path d="M259.003 285.674C261.176 285.981 275.754 280.767 275.2 282.759C274.646 284.75 274.383 292.913 259.003 285.674Z" fill="#004C78"/>
<path d="M258.767 286.038C258.556 285.939 258.458 285.727 258.535 285.536C258.612 285.344 258.841 285.23 259.079 285.263C259.147 285.273 259.278 285.275 259.489 285.256C259.692 285.237 259.942 285.201 260.236 285.148C260.823 285.042 261.554 284.875 262.382 284.668C263.445 284.403 264.645 284.08 265.88 283.747C266.572 283.56 267.275 283.37 267.97 283.187C269.89 282.679 271.756 282.216 273.113 282.007C273.778 281.904 274.384 281.852 274.826 281.913C275.044 281.944 275.308 282.013 275.497 282.188C275.714 282.39 275.742 282.64 275.682 282.859C275.64 283.009 275.601 283.191 275.555 283.41C275.527 283.538 275.497 283.68 275.462 283.836C275.37 284.242 275.25 284.713 275.071 285.201C274.714 286.171 274.109 287.24 272.973 288.005C270.657 289.564 266.476 289.666 258.767 286.038Z" stroke="#004C78" stroke-width="0.913563" stroke-linecap="round" stroke-linejoin="round"/>
</g>
<path d="M241.128 238.051C241.269 237.747 241.235 237.404 241.039 237.152C240.843 236.901 240.516 236.78 240.184 236.838C239.211 237.005 238.321 237.463 237.983 238.412C237.729 239.128 237.887 239.896 238.177 240.6C235.925 247.475 237.143 253.276 239.927 257.762C242.739 262.294 247.138 265.472 251.135 267.126C253.133 267.952 255.077 268.418 256.717 268.458C258.296 268.496 259.886 268.138 260.761 266.961C261.662 265.751 261.47 264.145 260.602 262.434C259.713 260.68 257.985 258.533 255.244 255.971C254.516 255.29 253.775 254.602 253.03 253.91C250.549 251.604 248.033 249.267 245.851 247.091C243.152 244.4 241.068 242.056 240.164 240.386C240.438 239.624 240.758 238.845 241.128 238.051Z" fill="#C61544" stroke="#B21541" stroke-width="1.82714" stroke-linecap="round" stroke-linejoin="round"/>
<path d="M264.906 236.461C265.219 236.341 265.431 236.084 265.463 235.786C265.495 235.487 265.342 235.192 265.061 235.009C264.782 234.826 264.45 234.692 264.075 234.658C263.697 234.624 263.351 234.699 263.054 234.833C262.575 235.048 262.194 235.427 261.882 235.84C251.102 240.957 248.487 250.353 249.305 255.817C249.51 257.19 249.944 258.399 250.6 259.244C250.932 259.671 251.352 260.047 251.877 260.278C252.424 260.518 253.028 260.575 253.628 260.426C254.751 260.148 255.693 259.2 256.49 257.853C257.313 256.461 258.091 254.456 258.769 251.738C258.807 251.583 258.846 251.428 258.884 251.274C259.643 248.229 260.384 245.253 261.129 242.734C261.877 240.206 262.6 238.24 263.299 237.13C263.815 236.897 264.35 236.673 264.906 236.461Z" fill="#C61544" stroke="#B21541" stroke-width="1.82714" stroke-linecap="round" stroke-linejoin="round"/>
<path d="M246.729 223.388C246.544 223.287 246.33 223.238 246.12 223.247C241.483 223.455 238.292 224.275 236.34 225.6C234.325 226.968 233.714 228.821 234.121 230.807C234.515 232.734 235.852 234.749 237.623 236.615C239.405 238.493 241.691 240.288 244.104 241.781C246.514 243.273 249.091 244.488 251.469 245.18C253.81 245.862 256.141 246.089 257.903 245.371C259.766 244.611 260.683 242.935 260.553 240.474C260.424 238.041 259.281 234.698 256.861 230.266C256.847 230.24 256.832 230.215 256.814 230.19C254.187 226.354 252.522 224.136 251.43 222.95C250.909 222.383 250.414 221.933 249.917 221.706C249.639 221.58 249.276 221.485 248.887 221.555C248.502 221.625 248.259 221.827 248.116 221.994C247.885 222.264 247.759 222.643 247.682 222.873C247.677 222.889 247.672 222.904 247.667 222.919C247.567 223.217 247.496 223.418 247.402 223.562C247.378 223.598 247.36 223.62 247.347 223.633C247.283 223.626 247.096 223.587 246.729 223.388ZM247.328 223.65C247.328 223.649 247.33 223.648 247.335 223.645C247.33 223.649 247.328 223.65 247.328 223.65Z" fill="#C61544" stroke="#B21541" stroke-width="1.82714" stroke-linecap="round" stroke-linejoin="round"/>
<path d="M264.893 231.491C264.894 231.384 264.898 231.291 264.903 231.211C265.206 231.125 265.44 230.912 265.521 230.638C265.613 230.329 265.495 229.996 265.215 229.779C265.024 229.629 264.558 229.323 263.962 229.463C263.695 229.526 263.507 229.655 263.376 229.793C261.419 230.38 260.436 231.629 260.136 233.04C259.832 234.47 260.229 236.026 260.818 237.224C261.116 237.83 261.482 238.382 261.876 238.812C262.23 239.197 262.754 239.648 263.408 239.761C263.791 239.827 264.203 239.773 264.552 239.549C264.873 239.344 265.056 239.052 265.165 238.777C265.378 238.241 265.415 237.493 265.323 236.566C265.278 236.115 265.23 235.661 265.182 235.213C265.095 234.401 265.011 233.612 264.955 232.9C264.912 232.352 264.888 231.874 264.893 231.491Z" fill="#C61544" stroke="#B21541" stroke-width="1.82714" stroke-linecap="round" stroke-linejoin="round"/>
</g>
<defs>
<filter id="filter0_d_1808_376" x="200.354" y="196.489" width="125.8" height="134.926" filterUnits="userSpaceOnUse" color-interpolation-filters="sRGB">
<feFlood flood-opacity="0" result="BackgroundImageFix"/>
<feColorMatrix in="SourceAlpha" type="matrix" values="0 0 0 0 0 0 0 0 0 0 0 0 0 0 0 0 0 0 127 0" result="hardAlpha"/>
<feMorphology radius="10" operator="dilate" in="SourceAlpha" result="effect1_dropShadow_1808_376"/>
<feOffset dx="8" dy="4"/>
<feGaussianBlur stdDeviation="8"/>
<feColorMatrix type="matrix" values="0 0 0 0 0.542568 0 0 0 0 0.541644 0 0 0 0 0.541644 0 0 0 1 0"/>
<feBlend mode="exclusion" in2="BackgroundImageFix" result="effect1_dropShadow_1808_376"/>
<feBlend mode="normal" in="SourceGraphic" in2="effect1_dropShadow_1808_376" result="shape"/>
</filter>
<filter id="filter1_d_1808_376" x="0.337311" y="0.471954" width="650.082" height="653.807" filterUnits="userSpaceOnUse" color-interpolation-filters="sRGB">
<feFlood flood-opacity="0" result="BackgroundImageFix"/>
<feColorMatrix in="SourceAlpha" type="matrix" values="0 0 0 0 0 0 0 0 0 0 0 0 0 0 0 0 0 0 127 0" result="hardAlpha"/>
<feMorphology radius="18.6932" operator="dilate" in="SourceAlpha" result="effect1_dropShadow_1808_376"/>
<feOffset dx="83.0514" dy="83.0514"/>
<feGaussianBlur stdDeviation="141.187"/>
<feComposite in2="hardAlpha" operator="out"/>
<feColorMatrix type="matrix" values="0 0 0 0 0.8 0 0 0 0 0.160784 0 0 0 0 0.403922 0 0 0 1 0"/>
<feBlend mode="normal" in2="BackgroundImageFix" result="effect1_dropShadow_1808_376"/>
<feBlend mode="normal" in="SourceGraphic" in2="effect1_dropShadow_1808_376" result="shape"/>
</filter>
<filter id="filter2_d_1808_376" x="17.0161" y="18.4477" width="620.673" height="614.951" filterUnits="userSpaceOnUse" color-interpolation-filters="sRGB">
<feFlood flood-opacity="0" result="BackgroundImageFix"/>
<feColorMatrix in="SourceAlpha" type="matrix" values="0 0 0 0 0 0 0 0 0 0 0 0 0 0 0 0 0 0 127 0" result="hardAlpha"/>
<feMorphology radius="18.6932" operator="dilate" in="SourceAlpha" result="effect1_dropShadow_1808_376"/>
<feOffset dx="83.0513" dy="83.0513"/>
<feGaussianBlur stdDeviation="141.187"/>
<feComposite in2="hardAlpha" operator="out"/>
<feColorMatrix type="matrix" values="0 0 0 0 0.8 0 0 0 0 0.160784 0 0 0 0 0.403922 0 0 0 1 0"/>
<feBlend mode="normal" in2="BackgroundImageFix" result="effect1_dropShadow_1808_376"/>
<feBlend mode="normal" in="SourceGraphic" in2="effect1_dropShadow_1808_376" result="shape"/>
</filter>
<filter id="filter3_d_1808_376" x="32.3858" y="9.46298" width="618.213" height="644.294" filterUnits="userSpaceOnUse" color-interpolation-filters="sRGB">
<feFlood flood-opacity="0" result="BackgroundImageFix"/>
<feColorMatrix in="SourceAlpha" type="matrix" values="0 0 0 0 0 0 0 0 0 0 0 0 0 0 0 0 0 0 127 0" result="hardAlpha"/>
<feMorphology radius="18.6933" operator="dilate" in="SourceAlpha" result="effect1_dropShadow_1808_376"/>
<feOffset dx="83.0516" dy="83.0516"/>
<feGaussianBlur stdDeviation="141.188"/>
<feComposite in2="hardAlpha" operator="out"/>
<feColorMatrix type="matrix" values="0 0 0 0 0.8 0 0 0 0 0.160784 0 0 0 0 0.403922 0 0 0 1 0"/>
<feBlend mode="normal" in2="BackgroundImageFix" result="effect1_dropShadow_1808_376"/>
<feBlend mode="normal" in="SourceGraphic" in2="effect1_dropShadow_1808_376" result="shape"/>
</filter>
<filter id="filter4_d_1808_376" x="7.38367" y="23.3583" width="638.263" height="625.021" filterUnits="userSpaceOnUse" color-interpolation-filters="sRGB">
<feFlood flood-opacity="0" result="BackgroundImageFix"/>
<feColorMatrix in="SourceAlpha" type="matrix" values="0 0 0 0 0 0 0 0 0 0 0 0 0 0 0 0 0 0 127 0" result="hardAlpha"/>
<feMorphology radius="18.6932" operator="dilate" in="SourceAlpha" result="effect1_dropShadow_1808_376"/>
<feOffset dx="83.0513" dy="83.0513"/>
<feGaussianBlur stdDeviation="141.187"/>
<feComposite in2="hardAlpha" operator="out"/>
<feColorMatrix type="matrix" values="0 0 0 0 0.8 0 0 0 0 0.160784 0 0 0 0 0.403922 0 0 0 1 0"/>
<feBlend mode="normal" in2="BackgroundImageFix" result="effect1_dropShadow_1808_376"/>
<feBlend mode="normal" in="SourceGraphic" in2="effect1_dropShadow_1808_376" result="shape"/>
</filter>
<filter id="filter5_d_1808_376" x="5.76119" y="24.222" width="638.734" height="623.969" filterUnits="userSpaceOnUse" color-interpolation-filters="sRGB">
<feFlood flood-opacity="0" result="BackgroundImageFix"/>
<feColorMatrix in="SourceAlpha" type="matrix" values="0 0 0 0 0 0 0 0 0 0 0 0 0 0 0 0 0 0 127 0" result="hardAlpha"/>
<feMorphology radius="18.6932" operator="dilate" in="SourceAlpha" result="effect1_dropShadow_1808_376"/>
<feOffset dx="83.0513" dy="83.0513"/>
<feGaussianBlur stdDeviation="141.187"/>
<feComposite in2="hardAlpha" operator="out"/>
<feColorMatrix type="matrix" values="0 0 0 0 0.8 0 0 0 0 0.160784 0 0 0 0 0.403922 0 0 0 1 0"/>
<feBlend mode="normal" in2="BackgroundImageFix" result="effect1_dropShadow_1808_376"/>
<feBlend mode="normal" in="SourceGraphic" in2="effect1_dropShadow_1808_376" result="shape"/>
</filter>
<filter id="filter6_d_1808_376" x="170.457" y="161.969" width="313.756" height="322.596" filterUnits="userSpaceOnUse" color-interpolation-filters="sRGB">
<feFlood flood-opacity="0" result="BackgroundImageFix"/>
<feColorMatrix in="SourceAlpha" type="matrix" values="0 0 0 0 0 0 0 0 0 0 0 0 0 0 0 0 0 0 127 0" result="hardAlpha"/>
<feMorphology radius="9.34659" operator="dilate" in="SourceAlpha" result="effect1_dropShadow_1808_376"/>
<feOffset dx="41.5256" dy="41.5256"/>
<feGaussianBlur stdDeviation="70.5935"/>
<feComposite in2="hardAlpha" operator="out"/>
<feColorMatrix type="matrix" values="0 0 0 0 0.8 0 0 0 0 0.160784 0 0 0 0 0.403922 0 0 0 1 0"/>
<feBlend mode="normal" in2="BackgroundImageFix" result="effect1_dropShadow_1808_376"/>
<feBlend mode="normal" in="SourceGraphic" in2="effect1_dropShadow_1808_376" result="shape"/>
</filter>
<filter id="filter7_d_1808_376" x="149.006" y="172.462" width="319.258" height="309.046" filterUnits="userSpaceOnUse" color-interpolation-filters="sRGB">
<feFlood flood-opacity="0" result="BackgroundImageFix"/>
<feColorMatrix in="SourceAlpha" type="matrix" values="0 0 0 0 0 0 0 0 0 0 0 0 0 0 0 0 0 0 127 0" result="hardAlpha"/>
<feMorphology radius="9.34659" operator="dilate" in="SourceAlpha" result="effect1_dropShadow_1808_376"/>
<feOffset dx="41.5256" dy="41.5256"/>
<feGaussianBlur stdDeviation="70.5935"/>
<feComposite in2="hardAlpha" operator="out"/>
<feColorMatrix type="matrix" values="0 0 0 0 0.8 0 0 0 0 0.160784 0 0 0 0 0.403922 0 0 0 1 0"/>
<feBlend mode="normal" in2="BackgroundImageFix" result="effect1_dropShadow_1808_376"/>
<feBlend mode="normal" in="SourceGraphic" in2="effect1_dropShadow_1808_376" result="shape"/>
</filter>
</defs>
</svg>
