<svg width="68" height="64" viewBox="0 0 68 64" fill="none" xmlns="http://www.w3.org/2000/svg">
<g id="Property 1=dark blue">
<g id="User ">
<g id="Cuerpo y cara" filter="url(#filter0_d_13046_337)">
<path d="M26.1767 36.6055L31.6842 49.0392C32.0646 49.8981 31.5878 50.8562 30.669 51.0792C28.8483 51.5211 29.316 54.1378 31.2074 54.0917L39.0786 53.8998C41.1544 53.8493 42.1382 51.4839 40.7105 49.9761L33.6745 42.5455C30.1017 38.7723 34.9225 33.4025 39.2732 36.3092C40.3046 36.9982 41.0032 38.0636 41.1977 39.2443L42.8037 48.9895C43.1919 51.345 46.2787 52.2425 47.8195 50.4478L50.0961 47.7959C50.9852 46.7603 50.0036 45.1713 48.6112 45.3921C48.063 45.4791 47.4983 45.2666 47.1414 44.8391L46.0376 43.5169C45.0657 42.3527 44.7672 40.8094 45.2478 39.4342L46.8951 34.7208C47.1723 33.9276 47.296 33.0873 47.2602 32.2405L46.9092 23.9326C46.8722 23.0585 47.0053 22.1914 47.3014 21.3762L49.6111 15.0183C50.6404 12.1851 48.8196 9.03233 45.734 8.30494L45.3962 8.22531C43.0981 7.68359 40.7902 8.80374 39.9314 10.8777C39.683 11.4775 39.5709 12.1258 39.6024 12.7802L39.7758 16.3806C39.8922 18.7964 38.7099 21.0535 36.6479 22.3523L29.7302 26.7093C28.9669 27.19 28.3116 27.8108 27.7999 28.538L26.7829 29.983C25.4278 31.9084 25.1998 34.3999 26.1767 36.6055Z" fill="#004C78" style="fill:#004C78;fill:color(display-p3 0.0000 0.2991 0.4700);fill-opacity:1;"/>
</g>
<path id="brazo 1" d="M53.1668 38.1749L53.4095 39.1147C53.8812 40.9413 56.5304 41.0135 57.2502 39.2193C57.6972 38.1052 57.0383 36.9033 55.8506 36.6664L54.5142 36.3998C53.4807 36.1936 52.6387 35.504 52.2643 34.557L47.5724 22.69C47.4314 22.3333 47.143 22.0534 46.7742 21.9153C45.4626 21.4245 44.2053 22.8705 44.9453 24.0188L48.5012 29.5359C48.5503 29.612 48.6051 29.6844 48.6653 29.7524C48.7572 29.8564 48.8366 29.9704 48.9019 30.0922L52.9817 37.701C53.0621 37.851 53.1243 38.01 53.1668 38.1749Z" fill="#004C78" style="fill:#004C78;fill:color(display-p3 0.0000 0.2991 0.4700);fill-opacity:1;"/>
<path id="brazo 2" d="M30.3979 8.99632L30.0759 8.08062C29.4501 6.30091 26.8045 6.45498 26.2403 8.30398C25.89 9.45222 26.649 10.5936 27.8525 10.7283L29.2068 10.8799C30.2542 10.9972 31.1519 11.6124 31.6057 12.5241L37.2926 23.9477C37.4635 24.2911 37.7747 24.5453 38.1539 24.6514C39.5026 25.0286 40.632 23.4806 39.7968 22.3997L35.7833 17.2059C35.7279 17.1343 35.6671 17.0669 35.6014 17.0042C35.5009 16.9084 35.4121 16.8016 35.3366 16.6858L30.6227 9.4527C30.5298 9.31012 30.4544 9.15701 30.3979 8.99632Z" fill="#004C78" style="fill:#004C78;fill:color(display-p3 0.0000 0.2991 0.4700);fill-opacity:1;"/>
</g>
</g>
<defs>
<filter id="filter0_d_13046_337" x="17.6509" y="0.691738" width="40.7117" height="61.8555" filterUnits="userSpaceOnUse" color-interpolation-filters="sRGB">
<feFlood flood-opacity="0" result="BackgroundImageFix"/>
<feColorMatrix in="SourceAlpha" type="matrix" values="0 0 0 0 0 0 0 0 0 0 0 0 0 0 0 0 0 0 127 0" result="hardAlpha"/>
<feMorphology radius="1.05687" operator="dilate" in="SourceAlpha" result="effect1_dropShadow_13046_337"/>
<feOffset dy="0.528437"/>
<feGaussianBlur stdDeviation="3.43483"/>
<feColorMatrix type="matrix" values="0 0 0 0 0 0 0 0 0 0.298039 0 0 0 0 0.470588 0 0 0 0.4 0"/>
<feBlend mode="normal" in2="BackgroundImageFix" result="effect1_dropShadow_13046_337"/>
<feBlend mode="normal" in="SourceGraphic" in2="effect1_dropShadow_13046_337" result="shape"/>
</filter>
</defs>
</svg>
