<svg width="114" height="581" viewBox="0 0 114 581" fill="none" xmlns="http://www.w3.org/2000/svg">
<rect x="0.5" y="0.5" width="113" height="580" rx="4.5" stroke="#9747FF" stroke-dasharray="10 5"/>
<g filter="url(#filter0_d_13046_326)">
<path d="M46.1768 56.918L51.6843 69.3517C52.0647 70.2106 51.5879 71.1687 50.669 71.3917C48.8483 71.8336 49.316 74.4503 51.2075 74.4042L59.0786 74.2123C61.1545 74.1618 62.1383 71.7964 60.7106 70.2886L53.6745 62.858C50.1017 59.0848 54.9225 53.7151 59.2733 56.6217C60.3046 57.3107 61.0032 58.3761 61.1978 59.5568L62.8038 69.302C63.192 71.6575 66.2788 72.555 67.8195 70.7603L70.0962 68.1084C70.9853 67.0728 70.0036 65.4838 68.6113 65.7046C68.063 65.7916 67.4984 65.5791 67.1415 65.1516L66.0377 63.8294C65.0658 62.6652 64.7672 61.122 65.2479 59.7467L66.8951 55.0333C67.1723 54.2401 67.296 53.3998 67.2603 52.553L66.9092 44.2452C66.8722 43.371 67.0053 42.5039 67.3014 41.6888L69.6112 35.3309C70.6404 32.4977 68.8196 29.3449 65.734 28.6175L65.3962 28.5379C63.0981 27.9961 60.7903 29.1163 59.9314 31.1902C59.683 31.79 59.5709 32.4384 59.6024 33.0928L59.7758 36.6931C59.8922 39.1089 58.7099 41.366 56.6479 42.6648L49.7302 47.0218C48.9669 47.5025 48.3117 48.1233 47.7999 48.8505L46.7829 50.2956C45.4278 52.2209 45.1998 54.7124 46.1768 56.918Z" fill="#CC2967"/>
</g>
<g filter="url(#filter1_d_13046_326)">
<path d="M73.1673 58.4874L73.41 59.4272C73.8817 61.2538 76.5309 61.326 77.2507 59.5318C77.6977 58.4177 77.0388 57.2158 75.8511 56.9789L74.5147 56.7123C73.4812 56.5061 72.6392 55.8165 72.2647 54.8695L67.5729 43.0025C67.4319 42.6457 67.1435 42.3659 66.7747 42.2278C65.4631 41.737 64.2058 43.183 64.9458 44.3312L68.5017 49.8484C68.5508 49.9245 68.6056 49.9969 68.6658 50.0649C68.7577 50.1689 68.8371 50.2829 68.9024 50.4047L72.9822 58.0135C73.0626 58.1635 73.1247 58.3225 73.1673 58.4874Z" fill="#CC2967"/>
</g>
<g filter="url(#filter2_d_13046_326)">
<path d="M50.3979 29.3088L50.0759 28.3931C49.4501 26.6134 46.8045 26.7675 46.2403 28.6165C45.89 29.7647 46.649 30.9061 47.8525 31.0408L49.2068 31.1924C50.2542 31.3097 51.1519 31.9249 51.6057 32.8366L57.2925 44.2602C57.4635 44.6036 57.7747 44.8578 58.1539 44.9639C59.5026 45.3411 60.632 43.7931 59.7967 42.7122L55.7833 37.5184C55.7279 37.4468 55.6671 37.3794 55.6014 37.3167C55.5009 37.2209 55.412 37.1141 55.3366 36.9983L50.6227 29.7652C50.5298 29.6226 50.4544 29.4695 50.3979 29.3088Z" fill="#CC2967"/>
</g>
<g filter="url(#filter3_d_13046_326)">
<path d="M45.489 213.762L50.9965 226.195C51.3769 227.054 50.9001 228.012 49.9813 228.235C48.1606 228.677 48.6283 231.294 50.5197 231.248L58.3909 231.056C60.4667 231.006 61.4505 228.64 60.0228 227.132L52.9868 219.702C49.414 215.929 54.2348 210.559 58.5855 213.465C59.6169 214.154 60.3155 215.22 60.51 216.401L62.116 226.146C62.5042 228.501 65.591 229.399 67.1318 227.604L69.4085 224.952C70.2975 223.917 69.3159 222.328 67.9235 222.548C67.3753 222.635 66.8106 222.423 66.4537 221.995L65.35 220.673C64.378 219.509 64.0795 217.966 64.5601 216.59L66.2074 211.877C66.4846 211.084 66.6083 210.244 66.5725 209.397L66.2214 201.089C66.1845 200.215 66.3175 199.348 66.6137 198.533L68.9234 192.175C69.9527 189.341 68.1319 186.189 65.0463 185.461L64.7084 185.382C62.4104 184.84 60.1025 185.96 59.2436 188.034C58.9953 188.634 58.8832 189.282 58.9147 189.937L59.0881 193.537C59.2045 195.953 58.0222 198.21 55.9602 199.509L49.0425 203.866C48.2792 204.346 47.6239 204.967 47.1121 205.694L46.0951 207.139C44.7401 209.065 44.5121 211.556 45.489 213.762Z" fill="#FFF2F6"/>
</g>
<g filter="url(#filter4_d_13046_326)">
<path d="M72.4778 215.332L72.7205 216.271C73.1922 218.098 75.8414 218.17 76.5612 216.376C77.0082 215.262 76.3493 214.06 75.1616 213.823L73.8252 213.557C72.7917 213.35 71.9497 212.661 71.5753 211.714L66.8834 199.847C66.7424 199.49 66.454 199.21 66.0852 199.072C64.7736 198.581 63.5163 200.027 64.2563 201.176L67.8122 206.693C67.8613 206.769 67.9161 206.841 67.9763 206.909C68.0682 207.013 68.1476 207.127 68.2129 207.249L72.2927 214.858C72.3731 215.008 72.4352 215.167 72.4778 215.332Z" fill="#FFF2F6"/>
</g>
<g filter="url(#filter5_d_13046_326)">
<path d="M49.7101 186.153L49.3882 185.237C48.7624 183.457 46.1167 183.611 45.5526 185.46C45.2022 186.608 45.9612 187.75 47.1648 187.885L48.519 188.036C49.5664 188.153 50.4642 188.769 50.918 189.68L56.6048 201.104C56.7758 201.447 57.087 201.702 57.4662 201.808C58.8148 202.185 59.9443 200.637 59.109 199.556L55.0955 194.362C55.0402 194.291 54.9794 194.223 54.9136 194.16C54.8131 194.065 54.7243 193.958 54.6488 193.842L49.935 186.609C49.8421 186.466 49.7666 186.313 49.7101 186.153Z" fill="#FFF2F6"/>
</g>
<g filter="url(#filter6_d_13046_326)">
<path d="M46.1767 370.605L51.6842 383.039C52.0646 383.898 51.5878 384.856 50.669 385.079C48.8483 385.521 49.316 388.138 51.2074 388.092L59.0786 387.9C61.1544 387.849 62.1382 385.484 60.7105 383.976L53.6745 376.545C50.1017 372.772 54.9225 367.403 59.2732 370.309C60.3046 370.998 61.0032 372.064 61.1977 373.244L62.8037 382.99C63.1919 385.345 66.2787 386.242 67.8195 384.448L70.0961 381.796C70.9852 380.76 70.0036 379.171 68.6112 379.392C68.063 379.479 67.4983 379.267 67.1414 378.839L66.0376 377.517C65.0657 376.353 64.7672 374.809 65.2478 373.434L66.8951 368.721C67.1723 367.928 67.296 367.087 67.2602 366.24L66.9092 357.933C66.8722 357.058 67.0053 356.191 67.3014 355.376L69.6111 349.018C70.6404 346.185 68.8196 343.032 65.734 342.305L65.3962 342.225C63.0981 341.684 60.7902 342.804 59.9314 344.878C59.683 345.478 59.5709 346.126 59.6024 346.78L59.7758 350.381C59.8922 352.796 58.7099 355.054 56.6479 356.352L49.7302 360.709C48.9669 361.19 48.3116 361.811 47.7999 362.538L46.7829 363.983C45.4278 365.908 45.1998 368.4 46.1767 370.605Z" fill="#004C78"/>
</g>
<path d="M73.1668 372.175L73.4095 373.115C73.8812 374.941 76.5304 375.013 77.2502 373.219C77.6972 372.105 77.0383 370.903 75.8506 370.666L74.5142 370.4C73.4807 370.194 72.6387 369.504 72.2643 368.557L67.5724 356.69C67.4314 356.333 67.143 356.053 66.7742 355.915C65.4626 355.424 64.2053 356.871 64.9453 358.019L68.5012 363.536C68.5503 363.612 68.6051 363.684 68.6653 363.752C68.7572 363.856 68.8366 363.97 68.9019 364.092L72.9817 371.701C73.0621 371.851 73.1243 372.01 73.1668 372.175Z" fill="#004C78"/>
<path d="M50.3979 342.996L50.0759 342.081C49.4501 340.301 46.8045 340.455 46.2403 342.304C45.89 343.452 46.649 344.594 47.8525 344.728L49.2068 344.88C50.2542 344.997 51.1519 345.612 51.6057 346.524L57.2926 357.948C57.4635 358.291 57.7747 358.545 58.1539 358.651C59.5026 359.029 60.632 357.481 59.7968 356.4L55.7833 351.206C55.7279 351.134 55.6671 351.067 55.6014 351.004C55.5009 350.908 55.4121 350.802 55.3366 350.686L50.6227 343.453C50.5298 343.31 50.4544 343.157 50.3979 342.996Z" fill="#004C78"/>
<g filter="url(#filter7_d_13046_326)">
<path d="M46.1768 527.449L51.6843 539.883C52.0647 540.742 51.5879 541.7 50.669 541.923C48.8483 542.365 49.316 544.982 51.2075 544.935L59.0786 544.744C61.1545 544.693 62.1383 542.328 60.7106 540.82L53.6745 533.389C50.1017 529.616 54.9225 524.246 59.2733 527.153C60.3046 527.842 61.0032 528.907 61.1978 530.088L62.8038 539.833C63.192 542.189 66.2788 543.086 67.8195 541.292L70.0962 538.64C70.9852 537.604 70.0036 536.015 68.6113 536.236C68.063 536.323 67.4984 536.11 67.1415 535.683L66.0377 534.361C65.0658 533.196 64.7672 531.653 65.2479 530.278L66.8951 525.565C67.1723 524.771 67.296 523.931 67.2603 523.084L66.9092 514.776C66.8722 513.902 67.0053 513.035 67.3014 512.22L69.6112 505.862C70.6404 503.029 68.8196 499.876 65.734 499.149L65.3962 499.069C63.0981 498.527 60.7903 499.648 59.9314 501.721C59.683 502.321 59.5709 502.97 59.6024 503.624L59.7758 507.224C59.8922 509.64 58.7099 511.897 56.6479 513.196L49.7302 517.553C48.9669 518.034 48.3117 518.655 47.7999 519.382L46.7829 520.827C45.4278 522.752 45.1998 525.244 46.1768 527.449Z" fill="#EDF5FA"/>
</g>
<g filter="url(#filter8_d_13046_326)">
<path d="M73.168 529.018L73.4107 529.958C73.8824 531.784 76.5316 531.856 77.2514 530.062C77.6984 528.948 77.0395 527.746 75.8518 527.509L74.5154 527.243C73.4819 527.036 72.6399 526.347 72.2655 525.4L67.5736 513.533C67.4326 513.176 67.1442 512.896 66.7754 512.758C65.4638 512.267 64.2065 513.713 64.9465 514.862L68.5024 520.379C68.5515 520.455 68.6063 520.527 68.6665 520.595C68.7584 520.699 68.8378 520.813 68.9031 520.935L72.9829 528.544C73.0633 528.694 73.1254 528.853 73.168 529.018Z" fill="#EDF5FA"/>
</g>
<g filter="url(#filter9_d_13046_326)">
<path d="M50.3979 499.84L50.0759 498.924C49.4501 497.145 46.8045 497.299 46.2403 499.148C45.89 500.296 46.649 501.437 47.8525 501.572L49.2068 501.724C50.2542 501.841 51.1519 502.456 51.6057 503.368L57.2926 514.791C57.4635 515.135 57.7747 515.389 58.1539 515.495C59.5026 515.872 60.632 514.324 59.7968 513.243L55.7833 508.05C55.7279 507.978 55.6671 507.911 55.6014 507.848C55.5009 507.752 55.4121 507.645 55.3366 507.53L50.6227 500.296C50.5298 500.154 50.4544 500.001 50.3979 499.84Z" fill="#EDF5FA"/>
</g>
<defs>
<filter id="filter0_d_13046_326" x="41.1187" y="23.9437" width="34.3705" height="55.5143" filterUnits="userSpaceOnUse" color-interpolation-filters="sRGB">
<feFlood flood-opacity="0" result="BackgroundImageFix"/>
<feColorMatrix in="SourceAlpha" type="matrix" values="0 0 0 0 0 0 0 0 0 0 0 0 0 0 0 0 0 0 127 0" result="hardAlpha"/>
<feMorphology radius="1.18898" operator="dilate" in="SourceAlpha" result="effect1_dropShadow_13046_326"/>
<feOffset dx="0.297246" dy="0.297246"/>
<feGaussianBlur stdDeviation="1.78347"/>
<feComposite in2="hardAlpha" operator="out"/>
<feColorMatrix type="matrix" values="0 0 0 0 0.8 0 0 0 0 0.160784 0 0 0 0 0.403922 0 0 0 0.66 0"/>
<feBlend mode="normal" in2="BackgroundImageFix" result="effect1_dropShadow_13046_326"/>
<feBlend mode="normal" in="SourceGraphic" in2="effect1_dropShadow_13046_326" result="shape"/>
</filter>
<filter id="filter1_d_13046_326" x="60.2671" y="37.6707" width="22.1774" height="28.2208" filterUnits="userSpaceOnUse" color-interpolation-filters="sRGB">
<feFlood flood-opacity="0" result="BackgroundImageFix"/>
<feColorMatrix in="SourceAlpha" type="matrix" values="0 0 0 0 0 0 0 0 0 0 0 0 0 0 0 0 0 0 127 0" result="hardAlpha"/>
<feMorphology radius="1.18898" operator="dilate" in="SourceAlpha" result="effect1_dropShadow_13046_326"/>
<feOffset dx="0.297246" dy="0.297246"/>
<feGaussianBlur stdDeviation="1.78347"/>
<feComposite in2="hardAlpha" operator="out"/>
<feColorMatrix type="matrix" values="0 0 0 0 0.8 0 0 0 0 0.160784 0 0 0 0 0.403922 0 0 0 0.66 0"/>
<feBlend mode="normal" in2="BackgroundImageFix" result="effect1_dropShadow_13046_326"/>
<feBlend mode="normal" in="SourceGraphic" in2="effect1_dropShadow_13046_326" result="shape"/>
</filter>
<filter id="filter2_d_13046_326" x="41.6959" y="22.6815" width="23.4401" height="27.3937" filterUnits="userSpaceOnUse" color-interpolation-filters="sRGB">
<feFlood flood-opacity="0" result="BackgroundImageFix"/>
<feColorMatrix in="SourceAlpha" type="matrix" values="0 0 0 0 0 0 0 0 0 0 0 0 0 0 0 0 0 0 127 0" result="hardAlpha"/>
<feMorphology radius="1.18898" operator="dilate" in="SourceAlpha" result="effect1_dropShadow_13046_326"/>
<feOffset dx="0.297246" dy="0.297246"/>
<feGaussianBlur stdDeviation="1.78347"/>
<feComposite in2="hardAlpha" operator="out"/>
<feColorMatrix type="matrix" values="0 0 0 0 0.8 0 0 0 0 0.160784 0 0 0 0 0.403922 0 0 0 0.66 0"/>
<feBlend mode="normal" in2="BackgroundImageFix" result="effect1_dropShadow_13046_326"/>
<feBlend mode="normal" in="SourceGraphic" in2="effect1_dropShadow_13046_326" result="shape"/>
</filter>
<filter id="filter3_d_13046_326" x="40.431" y="180.787" width="34.3705" height="55.5143" filterUnits="userSpaceOnUse" color-interpolation-filters="sRGB">
<feFlood flood-opacity="0" result="BackgroundImageFix"/>
<feColorMatrix in="SourceAlpha" type="matrix" values="0 0 0 0 0 0 0 0 0 0 0 0 0 0 0 0 0 0 127 0" result="hardAlpha"/>
<feMorphology radius="1.18898" operator="dilate" in="SourceAlpha" result="effect1_dropShadow_13046_326"/>
<feOffset dx="0.297246" dy="0.297246"/>
<feGaussianBlur stdDeviation="1.78347"/>
<feComposite in2="hardAlpha" operator="out"/>
<feColorMatrix type="matrix" values="0 0 0 0 0.8 0 0 0 0 0.160784 0 0 0 0 0.403922 0 0 0 0.66 0"/>
<feBlend mode="normal" in2="BackgroundImageFix" result="effect1_dropShadow_13046_326"/>
<feBlend mode="normal" in="SourceGraphic" in2="effect1_dropShadow_13046_326" result="shape"/>
</filter>
<filter id="filter4_d_13046_326" x="59.5777" y="194.515" width="22.1774" height="28.2203" filterUnits="userSpaceOnUse" color-interpolation-filters="sRGB">
<feFlood flood-opacity="0" result="BackgroundImageFix"/>
<feColorMatrix in="SourceAlpha" type="matrix" values="0 0 0 0 0 0 0 0 0 0 0 0 0 0 0 0 0 0 127 0" result="hardAlpha"/>
<feMorphology radius="1.18898" operator="dilate" in="SourceAlpha" result="effect1_dropShadow_13046_326"/>
<feOffset dx="0.297246" dy="0.297246"/>
<feGaussianBlur stdDeviation="1.78347"/>
<feComposite in2="hardAlpha" operator="out"/>
<feColorMatrix type="matrix" values="0 0 0 0 0.8 0 0 0 0 0.160784 0 0 0 0 0.403922 0 0 0 0.66 0"/>
<feBlend mode="normal" in2="BackgroundImageFix" result="effect1_dropShadow_13046_326"/>
<feBlend mode="normal" in="SourceGraphic" in2="effect1_dropShadow_13046_326" result="shape"/>
</filter>
<filter id="filter5_d_13046_326" x="41.0081" y="179.525" width="23.4401" height="27.3937" filterUnits="userSpaceOnUse" color-interpolation-filters="sRGB">
<feFlood flood-opacity="0" result="BackgroundImageFix"/>
<feColorMatrix in="SourceAlpha" type="matrix" values="0 0 0 0 0 0 0 0 0 0 0 0 0 0 0 0 0 0 127 0" result="hardAlpha"/>
<feMorphology radius="1.18898" operator="dilate" in="SourceAlpha" result="effect1_dropShadow_13046_326"/>
<feOffset dx="0.297246" dy="0.297246"/>
<feGaussianBlur stdDeviation="1.78347"/>
<feComposite in2="hardAlpha" operator="out"/>
<feColorMatrix type="matrix" values="0 0 0 0 0.8 0 0 0 0 0.160784 0 0 0 0 0.403922 0 0 0 0.66 0"/>
<feBlend mode="normal" in2="BackgroundImageFix" result="effect1_dropShadow_13046_326"/>
<feBlend mode="normal" in="SourceGraphic" in2="effect1_dropShadow_13046_326" result="shape"/>
</filter>
<filter id="filter6_d_13046_326" x="37.6509" y="334.692" width="40.7117" height="61.8555" filterUnits="userSpaceOnUse" color-interpolation-filters="sRGB">
<feFlood flood-opacity="0" result="BackgroundImageFix"/>
<feColorMatrix in="SourceAlpha" type="matrix" values="0 0 0 0 0 0 0 0 0 0 0 0 0 0 0 0 0 0 127 0" result="hardAlpha"/>
<feMorphology radius="1.05687" operator="dilate" in="SourceAlpha" result="effect1_dropShadow_13046_326"/>
<feOffset dy="0.528437"/>
<feGaussianBlur stdDeviation="3.43483"/>
<feColorMatrix type="matrix" values="0 0 0 0 0 0 0 0 0 0.298039 0 0 0 0 0.470588 0 0 0 0.4 0"/>
<feBlend mode="normal" in2="BackgroundImageFix" result="effect1_dropShadow_13046_326"/>
<feBlend mode="normal" in="SourceGraphic" in2="effect1_dropShadow_13046_326" result="shape"/>
</filter>
<filter id="filter7_d_13046_326" x="37.6509" y="491.535" width="40.7117" height="61.8555" filterUnits="userSpaceOnUse" color-interpolation-filters="sRGB">
<feFlood flood-opacity="0" result="BackgroundImageFix"/>
<feColorMatrix in="SourceAlpha" type="matrix" values="0 0 0 0 0 0 0 0 0 0 0 0 0 0 0 0 0 0 127 0" result="hardAlpha"/>
<feMorphology radius="1.05687" operator="dilate" in="SourceAlpha" result="effect1_dropShadow_13046_326"/>
<feOffset dy="0.528436"/>
<feGaussianBlur stdDeviation="3.43483"/>
<feColorMatrix type="matrix" values="0 0 0 0 0 0 0 0 0 0.298039 0 0 0 0 0.470588 0 0 0 0.4 0"/>
<feBlend mode="normal" in2="BackgroundImageFix" result="effect1_dropShadow_13046_326"/>
<feBlend mode="normal" in="SourceGraphic" in2="effect1_dropShadow_13046_326" result="shape"/>
</filter>
<filter id="filter8_d_13046_326" x="56.8" y="505.262" width="28.5186" height="34.5616" filterUnits="userSpaceOnUse" color-interpolation-filters="sRGB">
<feFlood flood-opacity="0" result="BackgroundImageFix"/>
<feColorMatrix in="SourceAlpha" type="matrix" values="0 0 0 0 0 0 0 0 0 0 0 0 0 0 0 0 0 0 127 0" result="hardAlpha"/>
<feMorphology radius="1.05687" operator="dilate" in="SourceAlpha" result="effect1_dropShadow_13046_326"/>
<feOffset dy="0.528436"/>
<feGaussianBlur stdDeviation="3.43483"/>
<feColorMatrix type="matrix" values="0 0 0 0 0 0 0 0 0 0.298039 0 0 0 0 0.470588 0 0 0 0.4 0"/>
<feBlend mode="normal" in2="BackgroundImageFix" result="effect1_dropShadow_13046_326"/>
<feBlend mode="normal" in="SourceGraphic" in2="effect1_dropShadow_13046_326" result="shape"/>
</filter>
<filter id="filter9_d_13046_326" x="38.228" y="490.273" width="29.7813" height="33.7349" filterUnits="userSpaceOnUse" color-interpolation-filters="sRGB">
<feFlood flood-opacity="0" result="BackgroundImageFix"/>
<feColorMatrix in="SourceAlpha" type="matrix" values="0 0 0 0 0 0 0 0 0 0 0 0 0 0 0 0 0 0 127 0" result="hardAlpha"/>
<feMorphology radius="1.05687" operator="dilate" in="SourceAlpha" result="effect1_dropShadow_13046_326"/>
<feOffset dy="0.528436"/>
<feGaussianBlur stdDeviation="3.43483"/>
<feColorMatrix type="matrix" values="0 0 0 0 0 0 0 0 0 0.298039 0 0 0 0 0.470588 0 0 0 0.4 0"/>
<feBlend mode="normal" in2="BackgroundImageFix" result="effect1_dropShadow_13046_326"/>
<feBlend mode="normal" in="SourceGraphic" in2="effect1_dropShadow_13046_326" result="shape"/>
</filter>
</defs>
</svg>
