<svg width="21" height="16" viewBox="0 0 21 16" fill="none" xmlns="http://www.w3.org/2000/svg">
<path id="caba&#195;&#177;a " d="M0.79884 9.99088L7.06018 1.28912C7.46848 0.721669 8.25339 0.580558 8.83377 0.970259L16.8344 6.34232L16.8345 6.3424C16.8885 6.37864 16.9616 6.36429 16.9979 6.31034C17.0342 6.25639 17.0199 6.18325 16.9659 6.14694C16.9659 6.14692 16.9659 6.14689 16.9658 6.14686L0.79884 9.99088ZM0.79884 9.99088L1.39992 9.99457C1.4118 9.99465 1.4236 9.99652 1.43493 10.0001C2.40822 10.31 2.91015 11.603 2.09977 12.4947L1.22266 13.46C0.448354 14.312 1.08729 15.6753 2.23754 15.6253L4.13115 15.5431L4.13449 15.5429L4.13449 15.543L17.7393 15.3391C18.8721 15.3221 19.4389 13.9617 18.6532 13.1455L17.0678 11.4984C16.5554 10.9661 16.4963 10.1439 16.9272 9.54379L18.517 7.32981L19.7901 5.32473C20.2193 4.64876 19.7337 3.76516 18.9329 3.76516C18.7813 3.76516 18.6309 3.73758 18.4891 3.68376L18.0536 3.51847C17.0607 3.14165 16.0612 4.05394 16.346 5.077L16.4414 5.41981C16.5241 5.71669 16.7099 5.97436 16.9654 6.14657L0.79884 9.99088Z" fill="#866659" stroke="#F3F3F3" stroke-width="0.235525" stroke-miterlimit="16" stroke-linecap="round" stroke-linejoin="round"/>
</svg>
