<svg width="34" height="35" viewBox="0 0 34 35" fill="none" xmlns="http://www.w3.org/2000/svg">
<g clip-path="url(#clip0_7999_133)">
<mask id="path-2-outside-1_7999_133" maskUnits="userSpaceOnUse" x="7.11631" y="8.04464" width="19.7869" height="19.7869" fill="black">
<rect fill="white" x="7.11631" y="8.04464" width="19.7869" height="19.7869"/>
<path d="M8.52966 18.2342L25.4899 17.642ZM17.3059 26.4182L16.7136 9.45799Z"/>
</mask>
<path d="M8.49476 17.2348C7.94282 17.2541 7.511 17.7172 7.53027 18.2691C7.54955 18.8211 8.01261 19.2529 8.56456 19.2336L8.49476 17.2348ZM25.5248 18.6414C26.0767 18.6221 26.5086 18.159 26.4893 17.6071C26.47 17.0551 26.0069 16.6233 25.455 16.6426L25.5248 18.6414ZM16.3065 26.4531C16.3258 27.0051 16.7889 27.4369 17.3408 27.4176C17.8928 27.3983 18.3246 26.9353 18.3053 26.3833L16.3065 26.4531ZM17.713 9.42309C17.6938 8.87114 17.2307 8.43932 16.6787 8.4586C16.1268 8.47787 15.695 8.94094 15.7143 9.49289L17.713 9.42309ZM8.56456 19.2336L25.5248 18.6414L25.455 16.6426L8.49476 17.2348L8.56456 19.2336ZM18.3053 26.3833L17.713 9.42309L15.7143 9.49289L16.3065 26.4531L18.3053 26.3833Z" fill="#2E2527" mask="url(#path-2-outside-1_7999_133)"/>
</g>
<defs>
<clipPath id="clip0_7999_133">
<rect x="17.6021" y="34.8984" width="24" height="24" rx="6" transform="rotate(-137 17.6021 34.8984)" fill="white"/>
</clipPath>
</defs>
</svg>
