<svg width="219" height="52" viewBox="0 0 219 52" fill="none" xmlns="http://www.w3.org/2000/svg">
<g opacity="0.92">
<path d="M7.3684 22.6942C7.61186 22.6942 7.81106 22.7772 7.966 22.9432C8.132 23.1092 8.215 23.314 8.215 23.5574C8.215 23.8009 8.132 24.0056 7.966 24.1716C7.81106 24.3266 7.61186 24.404 7.3684 24.404C7.136 24.404 6.9368 24.3266 6.7708 24.1716C6.61586 24.0056 6.5384 23.8009 6.5384 23.5574C6.5384 23.314 6.61586 23.1092 6.7708 22.9432C6.9368 22.7772 7.136 22.6942 7.3684 22.6942ZM6.3226 34.53C5.61433 34.53 4.98353 34.3917 4.4302 34.115C3.88793 33.8384 3.46186 33.44 3.15199 32.9198C2.85319 32.4108 2.70379 31.8187 2.70379 31.1436C2.70379 29.9484 3.069 29.0742 3.7994 28.5208C4.54086 27.9564 5.54793 27.6742 6.8206 27.6742L6.8704 25.8482H7.8664L7.9328 28.5042H7.5012C6.36133 28.5042 5.4594 28.6868 4.7954 29.052C4.14246 29.4062 3.816 30.1034 3.816 31.1436C3.816 31.874 4.04286 32.455 4.4966 32.8866C4.9614 33.3182 5.57006 33.534 6.3226 33.534C7.07513 33.534 7.67273 33.3293 8.1154 32.9198C8.55806 32.5104 8.7794 31.9515 8.7794 31.2432H9.8916C9.8916 31.9072 9.73666 32.4827 9.4268 32.9696C9.128 33.4676 8.70746 33.8494 8.1652 34.115C7.634 34.3917 7.0198 34.53 6.3226 34.53ZM20.9464 34.115L18.3568 31.708C17.7924 31.874 17.2004 31.957 16.5806 31.957C15.5072 31.957 14.5333 31.708 13.659 31.21C12.7848 30.701 12.0931 29.9982 11.584 29.1018C11.086 28.1944 10.837 27.1707 10.837 26.0308C10.837 24.891 11.086 23.8728 11.584 22.9764C12.0931 22.069 12.7848 21.3662 13.659 20.8682C14.5333 20.3592 15.5072 20.1046 16.5806 20.1046C17.6652 20.1046 18.6446 20.3592 19.5188 20.8682C20.3931 21.3662 21.0792 22.069 21.5772 22.9764C22.0752 23.8728 22.3242 24.891 22.3242 26.0308C22.3242 27.2039 22.0642 28.2497 21.544 29.1682C21.0239 30.0757 20.3101 30.7729 19.4026 31.2598L22.5068 34.115H20.9464ZM12.0322 26.0308C12.0322 27.0158 12.2314 27.8845 12.6298 28.637C13.0282 29.3785 13.5705 29.9484 14.2566 30.3468C14.9428 30.7452 15.7174 30.9444 16.5806 30.9444C17.4438 30.9444 18.2185 30.7452 18.9046 30.3468C19.5908 29.9484 20.133 29.3785 20.5314 28.637C20.9298 27.8845 21.129 27.0158 21.129 26.0308C21.129 25.0459 20.9298 24.1827 20.5314 23.4412C20.133 22.6998 19.5908 22.1298 18.9046 21.7314C18.2185 21.333 17.4438 21.1338 16.5806 21.1338C15.7174 21.1338 14.9428 21.333 14.2566 21.7314C13.5705 22.1298 13.0282 22.6998 12.6298 23.4412C12.2314 24.1827 12.0322 25.0459 12.0322 26.0308ZM31.9865 22.7772V31.8408H30.8245V30.2472C30.5589 30.8116 30.1494 31.2432 29.5961 31.542C29.0427 31.8408 28.423 31.9902 27.7369 31.9902C26.6523 31.9902 25.767 31.6582 25.0809 30.9942C24.3947 30.3192 24.0517 29.3453 24.0517 28.0726V22.7772H25.1971V27.9398C25.1971 28.9248 25.4405 29.6773 25.9275 30.1974C26.4255 30.7176 27.1005 30.9776 27.9527 30.9776C28.8269 30.9776 29.5241 30.701 30.0443 30.1476C30.5644 29.5943 30.8245 28.7809 30.8245 27.7074V22.7772H31.9865ZM42.5077 26.8442C42.5077 27.2426 42.4967 27.547 42.4745 27.7572H34.9547C34.9879 28.4434 35.1539 29.0299 35.4527 29.5168C35.7515 30.0038 36.1444 30.3745 36.6313 30.629C37.1183 30.8725 37.6495 30.9942 38.2249 30.9942C38.9775 30.9942 39.6083 30.8116 40.1173 30.4464C40.6375 30.0812 40.9805 29.5888 41.1465 28.969H42.3749C42.1536 29.8544 41.6777 30.5792 40.9473 31.1436C40.228 31.697 39.3205 31.9736 38.2249 31.9736C37.3728 31.9736 36.6092 31.7855 35.9341 31.4092C35.2591 31.0219 34.7279 30.4796 34.3405 29.7824C33.9643 29.0742 33.7761 28.2497 33.7761 27.309C33.7761 26.3684 33.9643 25.5439 34.3405 24.8356C34.7168 24.1274 35.2425 23.5851 35.9175 23.2088C36.5926 22.8326 37.3617 22.6444 38.2249 22.6444C39.0881 22.6444 39.8407 22.8326 40.4825 23.2088C41.1355 23.5851 41.6335 24.0942 41.9765 24.736C42.3307 25.3668 42.5077 26.0696 42.5077 26.8442ZM41.3291 26.811C41.3402 26.136 41.2019 25.5605 40.9141 25.0846C40.6375 24.6088 40.2557 24.2491 39.7687 24.0056C39.2818 23.7622 38.7506 23.6404 38.1751 23.6404C37.3119 23.6404 36.576 23.9171 35.9673 24.4704C35.3587 25.0238 35.0211 25.804 34.9547 26.811H41.3291ZM39.6691 20.1046L36.2661 22.08V21.1836L39.6691 19.0588V20.1046ZM56.7254 26.8442C56.7254 27.2426 56.7143 27.547 56.6922 27.7572H49.1724C49.2056 28.4434 49.3716 29.0299 49.6704 29.5168C49.9692 30.0038 50.3621 30.3745 50.849 30.629C51.3359 30.8725 51.8671 30.9942 52.4426 30.9942C53.1951 30.9942 53.8259 30.8116 54.335 30.4464C54.8551 30.0812 55.1982 29.5888 55.3642 28.969H56.5926C56.3713 29.8544 55.8954 30.5792 55.165 31.1436C54.4457 31.697 53.5382 31.9736 52.4426 31.9736C51.5905 31.9736 50.8269 31.7855 50.1518 31.4092C49.4767 31.0219 48.9455 30.4796 48.5582 29.7824C48.1819 29.0742 47.9938 28.2497 47.9938 27.309C47.9938 26.3684 48.1819 25.5439 48.5582 24.8356C48.9345 24.1274 49.4601 23.5851 50.1352 23.2088C50.8103 22.8326 51.5794 22.6444 52.4426 22.6444C53.3058 22.6444 54.0583 22.8326 54.7002 23.2088C55.3531 23.5851 55.8511 24.0942 56.1942 24.736C56.5483 25.3668 56.7254 26.0696 56.7254 26.8442ZM55.5468 26.811C55.5579 26.136 55.4195 25.5605 55.1318 25.0846C54.8551 24.6088 54.4733 24.2491 53.9864 24.0056C53.4995 23.7622 52.9683 23.6404 52.3928 23.6404C51.5296 23.6404 50.7937 23.9171 50.185 24.4704C49.5763 25.0238 49.2388 25.804 49.1724 26.811H55.5468ZM61.6402 31.9736C60.5999 31.9736 59.7478 31.7357 59.0838 31.2598C58.4308 30.7729 58.0656 30.1144 57.9882 29.2844H59.1834C59.2387 29.7935 59.4766 30.2085 59.8972 30.5294C60.3288 30.8393 60.9042 30.9942 61.6236 30.9942C62.2544 30.9942 62.7468 30.8448 63.101 30.546C63.4662 30.2472 63.6488 29.8765 63.6488 29.4338C63.6488 29.124 63.5492 28.8694 63.35 28.6702C63.1508 28.471 62.8962 28.3161 62.5864 28.2054C62.2876 28.0837 61.8781 27.9564 61.358 27.8236C60.6829 27.6466 60.1351 27.4695 59.7146 27.2924C59.294 27.1154 58.9344 26.8553 58.6356 26.5122C58.3478 26.1581 58.204 25.6878 58.204 25.1012C58.204 24.6586 58.3368 24.2491 58.6024 23.8728C58.868 23.4966 59.2442 23.1978 59.7312 22.9764C60.2181 22.7551 60.7714 22.6444 61.3912 22.6444C62.365 22.6444 63.1508 22.8934 63.7484 23.3914C64.346 23.8784 64.6669 24.5534 64.7112 25.4166H63.5492C63.516 24.8854 63.3057 24.4594 62.9184 24.1384C62.5421 23.8064 62.022 23.6404 61.358 23.6404C60.7714 23.6404 60.2956 23.7788 59.9304 24.0554C59.5652 24.3321 59.3826 24.6752 59.3826 25.0846C59.3826 25.4388 59.4877 25.732 59.698 25.9644C59.9193 26.1858 60.1904 26.3628 60.5114 26.4956C60.8323 26.6174 61.2639 26.7557 61.8062 26.9106C62.4591 27.0877 62.9792 27.2592 63.3666 27.4252C63.7539 27.5912 64.0859 27.8347 64.3626 28.1556C64.6392 28.4766 64.7831 28.9026 64.7942 29.4338C64.7942 29.9208 64.6614 30.3579 64.3958 30.7452C64.1302 31.1215 63.7594 31.4203 63.2836 31.6416C62.8077 31.863 62.2599 31.9736 61.6402 31.9736ZM70.3415 26.0308C70.3415 24.891 70.5905 23.8728 71.0885 22.9764C71.5865 22.069 72.2671 21.3662 73.1303 20.8682C73.9935 20.3592 74.9563 20.1046 76.0187 20.1046C77.3135 20.1046 78.4202 20.4145 79.3387 21.0342C80.2683 21.6429 80.9434 22.5061 81.3639 23.6238H80.0027C79.6707 22.8381 79.1617 22.2239 78.4755 21.7812C77.8005 21.3386 76.9815 21.1172 76.0187 21.1172C75.1666 21.1172 74.3975 21.3164 73.7113 21.7148C73.0363 22.1132 72.5051 22.6887 72.1177 23.4412C71.7304 24.1827 71.5367 25.0459 71.5367 26.0308C71.5367 27.0158 71.7304 27.879 72.1177 28.6204C72.5051 29.3619 73.0363 29.9318 73.7113 30.3302C74.3975 30.7286 75.1666 30.9278 76.0187 30.9278C76.9815 30.9278 77.8005 30.712 78.4755 30.2804C79.1617 29.8378 79.6707 29.2291 80.0027 28.4544H81.3639C80.9434 29.5611 80.2683 30.4188 79.3387 31.0274C78.4091 31.6361 77.3025 31.9404 76.0187 31.9404C74.9563 31.9404 73.9935 31.6914 73.1303 31.1934C72.2671 30.6844 71.5865 29.9816 71.0885 29.0852C70.5905 28.1888 70.3415 27.1707 70.3415 26.0308ZM82.8162 27.2924C82.8162 26.3628 82.9988 25.5494 83.364 24.8522C83.7402 24.144 84.2548 23.6017 84.9078 23.2254C85.5718 22.8381 86.3188 22.6444 87.1488 22.6444C88.012 22.6444 88.7534 22.8436 89.3732 23.242C90.004 23.6404 90.4577 24.1495 90.7344 24.7692V22.7772H91.8964V31.8408H90.7344V29.8322C90.4466 30.452 89.9874 30.9666 89.3566 31.376C88.7368 31.7744 87.9954 31.9736 87.1322 31.9736C86.3132 31.9736 85.5718 31.78 84.9078 31.3926C84.2548 31.0053 83.7402 30.4575 83.364 29.7492C82.9988 29.041 82.8162 28.222 82.8162 27.2924ZM90.7344 27.309C90.7344 26.5786 90.585 25.9368 90.2862 25.3834C89.9874 24.8301 89.5779 24.404 89.0578 24.1052C88.5487 23.8064 87.9843 23.657 87.3646 23.657C86.7227 23.657 86.1472 23.8009 85.6382 24.0886C85.1291 24.3764 84.7252 24.7969 84.4264 25.3502C84.1386 25.8925 83.9948 26.5399 83.9948 27.2924C83.9948 28.0339 84.1386 28.6868 84.4264 29.2512C84.7252 29.8046 85.1291 30.2306 85.6382 30.5294C86.1472 30.8172 86.7227 30.961 87.3646 30.961C87.9843 30.961 88.5487 30.8116 89.0578 30.5128C89.5779 30.214 89.9874 29.788 90.2862 29.2346C90.585 28.6813 90.7344 28.0394 90.7344 27.309ZM95.3625 24.7858C95.6613 24.155 96.1206 23.6404 96.7403 23.242C97.3711 22.8436 98.1126 22.6444 98.9647 22.6444C99.7947 22.6444 100.536 22.8381 101.189 23.2254C101.842 23.6017 102.351 24.144 102.716 24.8522C103.093 25.5494 103.281 26.3628 103.281 27.2924C103.281 28.222 103.093 29.041 102.716 29.7492C102.351 30.4575 101.837 31.0053 101.173 31.3926C100.52 31.78 99.7837 31.9736 98.9647 31.9736C98.1015 31.9736 97.3545 31.78 96.7237 31.3926C96.104 30.9942 95.6503 30.4796 95.3625 29.8488V31.8408H94.2171V19.5568H95.3625V24.7858ZM102.102 27.2924C102.102 26.5399 101.953 25.8925 101.654 25.3502C101.366 24.7969 100.968 24.3764 100.459 24.0886C99.9497 23.8009 99.3742 23.657 98.7323 23.657C98.1126 23.657 97.5427 23.8064 97.0225 24.1052C96.5135 24.404 96.1095 24.8301 95.8107 25.3834C95.5119 25.9368 95.3625 26.5786 95.3625 27.309C95.3625 28.0394 95.5119 28.6813 95.8107 29.2346C96.1095 29.788 96.5135 30.214 97.0225 30.5128C97.5427 30.8116 98.1126 30.961 98.7323 30.961C99.3742 30.961 99.9497 30.8172 100.459 30.5294C100.968 30.2306 101.366 29.8046 101.654 29.2512C101.953 28.6868 102.102 28.0339 102.102 27.2924ZM104.556 27.2924C104.556 26.3628 104.738 25.5494 105.103 24.8522C105.48 24.144 105.994 23.6017 106.647 23.2254C107.311 22.8381 108.058 22.6444 108.888 22.6444C109.751 22.6444 110.493 22.8436 111.113 23.242C111.743 23.6404 112.197 24.1495 112.474 24.7692V22.7772H113.636V31.8408H112.474V29.8322C112.186 30.452 111.727 30.9666 111.096 31.376C110.476 31.7744 109.735 31.9736 108.872 31.9736C108.053 31.9736 107.311 31.78 106.647 31.3926C105.994 31.0053 105.48 30.4575 105.103 29.7492C104.738 29.041 104.556 28.222 104.556 27.2924ZM112.474 27.309C112.474 26.5786 112.324 25.9368 112.026 25.3834C111.727 24.8301 111.317 24.404 110.797 24.1052C110.288 23.8064 109.724 23.657 109.104 23.657C108.462 23.657 107.887 23.8009 107.378 24.0886C106.869 24.3764 106.465 24.7969 106.166 25.3502C105.878 25.8925 105.734 26.5399 105.734 27.2924C105.734 28.0339 105.878 28.6868 106.166 29.2512C106.465 29.8046 106.869 30.2306 107.378 30.5294C107.887 30.8172 108.462 30.961 109.104 30.961C109.724 30.961 110.288 30.8116 110.797 30.5128C111.317 30.214 111.727 29.788 112.026 29.2346C112.324 28.6813 112.474 28.0394 112.474 27.309ZM120.206 22.6112C121.291 22.6112 122.176 22.9488 122.862 23.6238C123.548 24.2878 123.891 25.2562 123.891 26.5288V31.8408H122.746V26.6616C122.746 25.6767 122.497 24.9242 121.999 24.404C121.512 23.8839 120.843 23.6238 119.99 23.6238C119.116 23.6238 118.419 23.9005 117.899 24.4538C117.379 25.0072 117.119 25.8206 117.119 26.894V31.8408H115.957V22.7772H117.119V24.321C117.406 23.7677 117.821 23.3472 118.364 23.0594C118.906 22.7606 119.52 22.6112 120.206 22.6112ZM117.583 21.7812C117.65 21.2832 117.81 20.9014 118.065 20.6358C118.319 20.3702 118.646 20.2374 119.044 20.2374C119.243 20.2374 119.415 20.2762 119.559 20.3536C119.703 20.42 119.874 20.5196 120.073 20.6524C120.239 20.7742 120.383 20.8682 120.505 20.9346C120.627 20.99 120.76 21.0176 120.903 21.0176C121.092 21.0176 121.252 20.9568 121.385 20.835C121.518 20.7022 121.601 20.5141 121.634 20.2706H122.331C122.287 20.7576 122.126 21.1394 121.85 21.416C121.584 21.6816 121.252 21.8144 120.854 21.8144C120.643 21.8144 120.461 21.7812 120.306 21.7148C120.162 21.6374 119.99 21.5267 119.791 21.3828C119.636 21.2611 119.498 21.1726 119.376 21.1172C119.266 21.0619 119.138 21.0342 118.994 21.0342C118.596 21.0342 118.364 21.2832 118.297 21.7812H117.583ZM126.71 21.0674C126.478 21.0674 126.279 20.9844 126.113 20.8184C125.947 20.6524 125.864 20.4477 125.864 20.2042C125.864 19.9608 125.947 19.7616 126.113 19.6066C126.279 19.4406 126.478 19.3576 126.71 19.3576C126.943 19.3576 127.142 19.4406 127.308 19.6066C127.474 19.7616 127.557 19.9608 127.557 20.2042C127.557 20.4477 127.474 20.6524 127.308 20.8184C127.142 20.9844 126.943 21.0674 126.71 21.0674ZM127.291 22.7772V31.8408H126.129V22.7772H127.291ZM131.101 23.7566V29.384C131.101 29.9374 131.206 30.3192 131.417 30.5294C131.627 30.7397 131.998 30.8448 132.529 30.8448H133.591V31.8408H132.346C131.527 31.8408 130.919 31.6527 130.52 31.2764C130.122 30.8891 129.923 30.2583 129.923 29.384V23.7566H128.661V22.7772H129.923V20.503H131.101V22.7772H133.591V23.7566H131.101ZM141.899 29.0852H136.62L135.607 31.8408H134.379L138.612 20.3868H139.923L144.14 31.8408H142.911L141.899 29.0852ZM141.55 28.1224L139.259 21.8476L136.968 28.1224H141.55ZM146.818 24.7692C147.106 24.1606 147.559 23.657 148.179 23.2586C148.81 22.8492 149.557 22.6444 150.42 22.6444C151.239 22.6444 151.975 22.8381 152.628 23.2254C153.292 23.6017 153.807 24.144 154.172 24.8522C154.548 25.5494 154.736 26.3628 154.736 27.2924C154.736 28.222 154.548 29.041 154.172 29.7492C153.807 30.4575 153.292 31.0053 152.628 31.3926C151.975 31.78 151.239 31.9736 150.42 31.9736C149.568 31.9736 148.827 31.7744 148.196 31.376C147.565 30.9666 147.106 30.4575 146.818 29.8488V36.1236H145.673V22.7772H146.818V24.7692ZM153.558 27.2924C153.558 26.5399 153.408 25.8925 153.109 25.3502C152.822 24.7969 152.423 24.3764 151.914 24.0886C151.405 23.8009 150.83 23.657 150.188 23.657C149.568 23.657 148.998 23.8064 148.478 24.1052C147.969 24.404 147.565 24.8301 147.266 25.3834C146.967 25.9368 146.818 26.5786 146.818 27.309C146.818 28.0394 146.967 28.6813 147.266 29.2346C147.565 29.788 147.969 30.214 148.478 30.5128C148.998 30.8116 149.568 30.961 150.188 30.961C150.83 30.961 151.405 30.8172 151.914 30.5294C152.423 30.2306 152.822 29.8046 153.109 29.2512C153.408 28.6868 153.558 28.0339 153.558 27.2924ZM157.688 24.7692C157.975 24.1606 158.429 23.657 159.049 23.2586C159.68 22.8492 160.427 22.6444 161.29 22.6444C162.109 22.6444 162.845 22.8381 163.498 23.2254C164.162 23.6017 164.676 24.144 165.042 24.8522C165.418 25.5494 165.606 26.3628 165.606 27.2924C165.606 28.222 165.418 29.041 165.042 29.7492C164.676 30.4575 164.162 31.0053 163.498 31.3926C162.845 31.78 162.109 31.9736 161.29 31.9736C160.438 31.9736 159.696 31.7744 159.066 31.376C158.435 30.9666 157.975 30.4575 157.688 29.8488V36.1236H156.542V22.7772H157.688V24.7692ZM164.427 27.2924C164.427 26.5399 164.278 25.8925 163.979 25.3502C163.691 24.7969 163.293 24.3764 162.784 24.0886C162.275 23.8009 161.699 23.657 161.058 23.657C160.438 23.657 159.868 23.8064 159.348 24.1052C158.839 24.404 158.435 24.8301 158.136 25.3834C157.837 25.9368 157.688 26.5786 157.688 27.309C157.688 28.0394 157.837 28.6813 158.136 29.2346C158.435 29.788 158.839 30.214 159.348 30.5128C159.868 30.8116 160.438 30.961 161.058 30.961C161.699 30.961 162.275 30.8172 162.784 30.5294C163.293 30.2306 163.691 29.8046 163.979 29.2512C164.278 28.6868 164.427 28.0339 164.427 27.2924ZM170.218 20.088C170.926 20.088 171.551 20.2264 172.093 20.503C172.647 20.7797 173.073 21.1781 173.372 21.6982C173.681 22.2073 173.836 22.7994 173.836 23.4744C173.836 24.6696 173.466 25.5494 172.724 26.1138C171.994 26.6672 170.992 26.9438 169.72 26.9438L169.67 28.7698H168.674L168.607 26.1138H169.039C170.179 26.1138 171.075 25.9368 171.728 25.5826C172.392 25.2174 172.724 24.5147 172.724 23.4744C172.724 22.744 172.492 22.163 172.027 21.7314C171.573 21.2998 170.97 21.084 170.218 21.084C169.465 21.084 168.867 21.2888 168.425 21.6982C167.982 22.1077 167.761 22.6666 167.761 23.3748H166.649C166.649 22.7108 166.798 22.1354 167.097 21.6484C167.407 21.1504 167.827 20.7686 168.358 20.503C168.901 20.2264 169.52 20.088 170.218 20.088ZM169.172 31.9238C168.928 31.9238 168.724 31.8408 168.558 31.6748C168.403 31.5088 168.325 31.3041 168.325 31.0606C168.325 30.8172 168.403 30.618 168.558 30.463C168.724 30.297 168.928 30.214 169.172 30.214C169.404 30.214 169.598 30.297 169.753 30.463C169.919 30.618 170.002 30.8172 170.002 31.0606C170.002 31.3041 169.919 31.5088 169.753 31.6748C169.598 31.8408 169.404 31.9238 169.172 31.9238Z" fill="#2E2527"/>
<g clip-path="url(#clip0_7948_2221)">
<rect x="200.592" y="42.801" width="24" height="24" rx="6" transform="rotate(-137 200.592 42.801)" fill="#EADEC8"/>
<path d="M191.02 26.1543C191.03 26.4302 191.261 26.6462 191.537 26.6365L199.518 26.3578L199.796 34.3383C199.806 34.6142 200.038 34.8301 200.314 34.8205C200.59 34.8109 200.805 34.5793 200.796 34.3034L200.517 26.3229L208.498 26.0443C208.774 26.0346 208.989 25.8031 208.98 25.5271C208.97 25.2511 208.739 25.0352 208.463 25.0449L200.482 25.3235L200.204 17.3431C200.194 17.0672 199.962 16.8512 199.686 16.8609C199.41 16.8705 199.195 17.1021 199.204 17.378L199.483 25.3584L191.502 25.6371C191.226 25.6468 191.011 25.8783 191.02 26.1543Z" stroke="#69493C" stroke-linecap="round" stroke-linejoin="round"/>
</g>
</g>
<defs>
<clipPath id="clip0_7948_2221">
<rect x="200.592" y="42.801" width="24" height="24" rx="6" transform="rotate(-137 200.592 42.801)" fill="white"/>
</clipPath>
</defs>
</svg>
