<svg width="18" height="12" viewBox="0 0 18 12" fill="none" xmlns="http://www.w3.org/2000/svg">
<g id="Vector">
<mask id="path-1-outside-1_7959_256" maskUnits="userSpaceOnUse" x="0.5" y="0" width="17" height="12" fill="black">
<rect fill="white" x="0.5" width="17" height="12"/>
<path d="M1.5 1H16.5ZM4 6H14ZM7 11H11Z"/>
</mask>
<path d="M1.5 0C0.947715 0 0.5 0.447715 0.5 1C0.5 1.55228 0.947715 2 1.5 2V0ZM16.5 2C17.0523 2 17.5 1.55228 17.5 1C17.5 0.447715 17.0523 0 16.5 0V2ZM4 5C3.44772 5 3 5.44772 3 6C3 6.55228 3.44772 7 4 7V5ZM14 7C14.5523 7 15 6.55228 15 6C15 5.44772 14.5523 5 14 5V7ZM7 10C6.44772 10 6 10.4477 6 11C6 11.5523 6.44772 12 7 12V10ZM11 12C11.5523 12 12 11.5523 12 11C12 10.4477 11.5523 10 11 10V12ZM1.5 2H16.5V0H1.5V2ZM4 7H14V5H4V7ZM7 12H11V10H7V12Z" fill="#2E2527" mask="url(#path-1-outside-1_7959_256)"/>
</g>
</svg>
