<svg width="219" height="318" viewBox="0 0 219 318" fill="none" xmlns="http://www.w3.org/2000/svg">
<path d="M28.8838 10.7578C28.8838 11.3962 28.7299 11.9947 28.4221 12.5533C28.1257 13.1119 27.6526 13.5622 27.0028 13.9042C26.3644 14.2462 25.555 14.4172 24.5746 14.4172H22.5739V19H20.1799V7.0642H24.5746C25.498 7.0642 26.2846 7.2238 26.9344 7.543C27.5842 7.8622 28.0687 8.3011 28.3879 8.8597C28.7185 9.4183 28.8838 10.051 28.8838 10.7578ZM24.472 12.4849C25.1332 12.4849 25.6234 12.3367 25.9426 12.0403C26.2618 11.7325 26.4214 11.305 26.4214 10.7578C26.4214 9.595 25.7716 9.0136 24.472 9.0136H22.5739V12.4849H24.472ZM32.6355 10.9972C32.9433 10.4956 33.3423 10.1023 33.8325 9.8173C34.3341 9.5323 34.9041 9.3898 35.5425 9.3898V11.9035H34.9098C34.1574 11.9035 33.5874 12.0802 33.1998 12.4336C32.8236 12.787 32.6355 13.4026 32.6355 14.2804V19H30.2415V9.5266H32.6355V10.9972ZM45.6195 14.0581C45.6195 14.4001 45.5967 14.7079 45.5511 14.9815H38.6256C38.6826 15.6655 38.922 16.2013 39.3438 16.5889C39.7656 16.9765 40.2843 17.1703 40.8999 17.1703C41.7891 17.1703 42.4218 16.7884 42.798 16.0246H45.3801C45.1065 16.9366 44.5821 17.689 43.8069 18.2818C43.0317 18.8632 42.0798 19.1539 40.9512 19.1539C40.0392 19.1539 39.2184 18.9544 38.4888 18.5554C37.7706 18.145 37.2063 17.5693 36.7959 16.8283C36.3969 16.0873 36.1974 15.2323 36.1974 14.2633C36.1974 13.2829 36.3969 12.4222 36.7959 11.6812C37.1949 10.9402 37.7535 10.3702 38.4717 9.9712C39.1899 9.5722 40.0164 9.3727 40.9512 9.3727C41.8518 9.3727 42.6555 9.5665 43.3623 9.9541C44.0805 10.3417 44.6334 10.8946 45.021 11.6128C45.42 12.3196 45.6195 13.1347 45.6195 14.0581ZM43.14 13.3741C43.1286 12.7585 42.9063 12.2683 42.4731 11.9035C42.0399 11.5273 41.5098 11.3392 40.8828 11.3392C40.29 11.3392 39.7884 11.5216 39.378 11.8864C38.979 12.2398 38.7339 12.7357 38.6427 13.3741H43.14ZM50.7356 9.3727C51.4424 9.3727 52.0637 9.5152 52.5995 9.8002C53.1353 10.0738 53.5571 10.4329 53.8649 10.8775V9.5266H56.276V19.0684C56.276 19.9462 56.0993 20.7271 55.7459 21.4111C55.3925 22.1065 54.8624 22.6537 54.1556 23.0527C53.4488 23.4631 52.5938 23.6683 51.5906 23.6683C50.2454 23.6683 49.1396 23.3548 48.2732 22.7278C47.4182 22.1008 46.9337 21.2458 46.8197 20.1628H49.1966C49.322 20.596 49.5899 20.938 50.0003 21.1888C50.4221 21.451 50.9294 21.5821 51.5222 21.5821C52.2176 21.5821 52.7819 21.3712 53.2151 20.9494C53.6483 20.539 53.8649 19.912 53.8649 19.0684V17.5978C53.5571 18.0424 53.1296 18.4129 52.5824 18.7093C52.0466 19.0057 51.431 19.1539 50.7356 19.1539C49.9376 19.1539 49.208 18.9487 48.5468 18.5383C47.8856 18.1279 47.3612 17.5522 46.9736 16.8112C46.5974 16.0588 46.4093 15.1981 46.4093 14.2291C46.4093 13.2715 46.5974 12.4222 46.9736 11.6812C47.3612 10.9402 47.8799 10.3702 48.5297 9.9712C49.1909 9.5722 49.9262 9.3727 50.7356 9.3727ZM53.8649 14.2633C53.8649 13.6819 53.7509 13.186 53.5229 12.7756C53.2949 12.3538 52.9871 12.0346 52.5995 11.818C52.2119 11.59 51.7958 11.476 51.3512 11.476C50.9066 11.476 50.4962 11.5843 50.12 11.8009C49.7438 12.0175 49.436 12.3367 49.1966 12.7585C48.9686 13.1689 48.8546 13.6591 48.8546 14.2291C48.8546 14.7991 48.9686 15.3007 49.1966 15.7339C49.436 16.1557 49.7438 16.4806 50.12 16.7086C50.5076 16.9366 50.918 17.0506 51.3512 17.0506C51.7958 17.0506 52.2119 16.9423 52.5995 16.7257C52.9871 16.4977 53.2949 16.1785 53.5229 15.7681C53.7509 15.3463 53.8649 14.8447 53.8649 14.2633ZM67.2155 9.5266V19H64.8044V17.803C64.4966 18.2134 64.0919 18.5383 63.5903 18.7777C63.1001 19.0057 62.5643 19.1197 61.9829 19.1197C61.2419 19.1197 60.5864 18.9658 60.0164 18.658C59.4464 18.3388 58.9961 17.8771 58.6655 17.2729C58.3463 16.6573 58.1867 15.9277 58.1867 15.0841V9.5266H60.5807V14.7421C60.5807 15.4945 60.7688 16.0759 61.145 16.4863C61.5212 16.8853 62.0342 17.0848 62.684 17.0848C63.3452 17.0848 63.8639 16.8853 64.2401 16.4863C64.6163 16.0759 64.8044 15.4945 64.8044 14.7421V9.5266H67.2155ZM74.4852 9.3898C75.6138 9.3898 76.5258 9.7489 77.2212 10.4671C77.9166 11.1739 78.2643 12.1657 78.2643 13.4425V19H75.8703V13.7674C75.8703 13.015 75.6822 12.4393 75.306 12.0403C74.9298 11.6299 74.4168 11.4247 73.767 11.4247C73.1058 11.4247 72.5814 11.6299 72.1938 12.0403C71.8176 12.4393 71.6295 13.015 71.6295 13.7674V19H69.2355V9.5266H71.6295V10.7065C71.9487 10.2961 72.3534 9.9769 72.8436 9.7489C73.3452 9.5095 73.8924 9.3898 74.4852 9.3898ZM82.9862 11.4931V16.0759C82.9862 16.3951 83.0603 16.6288 83.2085 16.777C83.3681 16.9138 83.6303 16.9822 83.9951 16.9822H85.1066V19H83.6018C81.584 19 80.5751 18.0196 80.5751 16.0588V11.4931H79.4465V9.5266H80.5751V7.1839H82.9862V9.5266H85.1066V11.4931H82.9862ZM85.8709 14.2291C85.8709 13.2715 86.059 12.4222 86.4352 11.6812C86.8228 10.9402 87.3415 10.3702 87.9913 9.9712C88.6525 9.5722 89.3878 9.3727 90.1972 9.3727C90.904 9.3727 91.5196 9.5152 92.044 9.8002C92.5798 10.0852 93.0073 10.4443 93.3265 10.8775V9.5266H95.7376V19H93.3265V17.6149C93.0187 18.0595 92.5912 18.43 92.044 18.7264C91.5082 19.0114 90.8869 19.1539 90.1801 19.1539C89.3821 19.1539 88.6525 18.9487 87.9913 18.5383C87.3415 18.1279 86.8228 17.5522 86.4352 16.8112C86.059 16.0588 85.8709 15.1981 85.8709 14.2291ZM93.3265 14.2633C93.3265 13.6819 93.2125 13.186 92.9845 12.7756C92.7565 12.3538 92.4487 12.0346 92.0611 11.818C91.6735 11.59 91.2574 11.476 90.8128 11.476C90.3682 11.476 89.9578 11.5843 89.5816 11.8009C89.2054 12.0175 88.8976 12.3367 88.6582 12.7585C88.4302 13.1689 88.3162 13.6591 88.3162 14.2291C88.3162 14.7991 88.4302 15.3007 88.6582 15.7339C88.8976 16.1557 89.2054 16.4806 89.5816 16.7086C89.9692 16.9366 90.3796 17.0506 90.8128 17.0506C91.2574 17.0506 91.6735 16.9423 92.0611 16.7257C92.4487 16.4977 92.7565 16.1785 92.9845 15.7681C93.2125 15.3463 93.3265 14.8447 93.3265 14.2633ZM101.359 19.1539C100.584 19.1539 99.8883 19.0171 99.2727 18.7435C98.6571 18.4585 98.1669 18.0766 97.8021 17.5978C97.4487 17.119 97.2549 16.5889 97.2207 16.0075H99.6318C99.6774 16.3723 99.8541 16.6744 100.162 16.9138C100.481 17.1532 100.874 17.2729 101.342 17.2729C101.798 17.2729 102.151 17.1817 102.402 16.9993C102.664 16.8169 102.795 16.5832 102.795 16.2982C102.795 15.9904 102.636 15.7624 102.317 15.6142C102.009 15.4546 101.513 15.2836 100.829 15.1012C100.122 14.9302 99.5406 14.7535 99.0846 14.5711C98.64 14.3887 98.2524 14.1094 97.9218 13.7332C97.6026 13.357 97.443 12.8497 97.443 12.2113C97.443 11.6869 97.5912 11.2081 97.8876 10.7749C98.1954 10.3417 98.6286 9.9997 99.1872 9.7489C99.7572 9.4981 100.424 9.3727 101.188 9.3727C102.317 9.3727 103.217 9.6577 103.89 10.2277C104.562 10.7863 104.933 11.5444 105.001 12.502H102.71C102.676 12.1258 102.516 11.8294 102.231 11.6128C101.957 11.3848 101.587 11.2708 101.12 11.2708C100.686 11.2708 100.35 11.3506 100.111 11.5102C99.8826 11.6698 99.7686 11.8921 99.7686 12.1771C99.7686 12.4963 99.9282 12.7414 100.247 12.9124C100.567 13.072 101.063 13.2373 101.735 13.4083C102.419 13.5793 102.983 13.756 103.428 13.9384C103.873 14.1208 104.255 14.4058 104.574 14.7934C104.904 15.1696 105.075 15.6712 105.087 16.2982C105.087 16.8454 104.933 17.3356 104.625 17.7688C104.329 18.202 103.895 18.544 103.325 18.7948C102.767 19.0342 102.111 19.1539 101.359 19.1539ZM114.786 11.4931H113.127V19H110.699V11.4931H109.622V9.5266H110.699V9.0478C110.699 7.885 111.03 7.03 111.691 6.4828C112.352 5.9356 113.35 5.6791 114.683 5.7133V7.7311C114.102 7.7197 113.697 7.8166 113.469 8.0218C113.241 8.227 113.127 8.5975 113.127 9.1333V9.5266H114.786V11.4931ZM118.389 10.9972C118.697 10.4956 119.096 10.1023 119.586 9.8173C120.088 9.5323 120.658 9.3898 121.296 9.3898V11.9035H120.664C119.911 11.9035 119.341 12.0802 118.954 12.4336C118.577 12.787 118.389 13.4026 118.389 14.2804V19H115.995V9.5266H118.389V10.9972ZM131.373 14.0581C131.373 14.4001 131.351 14.7079 131.305 14.9815H124.379C124.436 15.6655 124.676 16.2013 125.098 16.5889C125.519 16.9765 126.038 17.1703 126.654 17.1703C127.543 17.1703 128.176 16.7884 128.552 16.0246H131.134C130.86 16.9366 130.336 17.689 129.561 18.2818C128.786 18.8632 127.834 19.1539 126.705 19.1539C125.793 19.1539 124.972 18.9544 124.243 18.5554C123.524 18.145 122.96 17.5693 122.55 16.8283C122.151 16.0873 121.951 15.2323 121.951 14.2633C121.951 13.2829 122.151 12.4222 122.55 11.6812C122.949 10.9402 123.507 10.3702 124.226 9.9712C124.944 9.5722 125.77 9.3727 126.705 9.3727C127.606 9.3727 128.409 9.5665 129.116 9.9541C129.834 10.3417 130.387 10.8946 130.775 11.6128C131.174 12.3196 131.373 13.1347 131.373 14.0581ZM128.894 13.3741C128.882 12.7585 128.66 12.2683 128.227 11.9035C127.794 11.5273 127.264 11.3392 126.637 11.3392C126.044 11.3392 125.542 11.5216 125.132 11.8864C124.733 12.2398 124.488 12.7357 124.397 13.3741H128.894ZM132.163 14.2633C132.163 13.2829 132.363 12.4279 132.762 11.6983C133.161 10.9573 133.714 10.3873 134.42 9.9883C135.127 9.5779 135.937 9.3727 136.849 9.3727C138.023 9.3727 138.992 9.6691 139.756 10.2619C140.531 10.8433 141.049 11.6641 141.312 12.7243H138.73C138.593 12.3139 138.359 11.9947 138.028 11.7667C137.709 11.5273 137.31 11.4076 136.831 11.4076C136.147 11.4076 135.606 11.6584 135.207 12.16C134.808 12.6502 134.608 13.3513 134.608 14.2633C134.608 15.1639 134.808 15.865 135.207 16.3666C135.606 16.8568 136.147 17.1019 136.831 17.1019C137.8 17.1019 138.433 16.6687 138.73 15.8023H141.312C141.049 16.8283 140.531 17.6434 139.756 18.2476C138.98 18.8518 138.011 19.1539 136.849 19.1539C135.937 19.1539 135.127 18.9544 134.42 18.5554C133.714 18.145 133.161 17.575 132.762 16.8454C132.363 16.1044 132.163 15.2437 132.163 14.2633ZM151.667 9.5266V19H149.256V17.803C148.948 18.2134 148.543 18.5383 148.042 18.7777C147.551 19.0057 147.016 19.1197 146.434 19.1197C145.693 19.1197 145.038 18.9658 144.468 18.658C143.898 18.3388 143.447 17.8771 143.117 17.2729C142.798 16.6573 142.638 15.9277 142.638 15.0841V9.5266H145.032V14.7421C145.032 15.4945 145.22 16.0759 145.596 16.4863C145.972 16.8853 146.485 17.0848 147.135 17.0848C147.796 17.0848 148.315 16.8853 148.691 16.4863C149.068 16.0759 149.256 15.4945 149.256 14.7421V9.5266H151.667ZM162.493 14.0581C162.493 14.4001 162.471 14.7079 162.425 14.9815H155.499C155.556 15.6655 155.796 16.2013 156.218 16.5889C156.639 16.9765 157.158 17.1703 157.774 17.1703C158.663 17.1703 159.296 16.7884 159.672 16.0246H162.254C161.98 16.9366 161.456 17.689 160.681 18.2818C159.906 18.8632 158.954 19.1539 157.825 19.1539C156.913 19.1539 156.092 18.9544 155.363 18.5554C154.644 18.145 154.08 17.5693 153.67 16.8283C153.271 16.0873 153.071 15.2323 153.071 14.2633C153.071 13.2829 153.271 12.4222 153.67 11.6812C154.069 10.9402 154.627 10.3702 155.346 9.9712C156.064 9.5722 156.89 9.3727 157.825 9.3727C158.726 9.3727 159.529 9.5665 160.236 9.9541C160.954 10.3417 161.507 10.8946 161.895 11.6128C162.294 12.3196 162.493 13.1347 162.493 14.0581ZM160.014 13.3741C160.002 12.7585 159.78 12.2683 159.347 11.9035C158.914 11.5273 158.384 11.3392 157.757 11.3392C157.164 11.3392 156.662 11.5216 156.252 11.8864C155.853 12.2398 155.608 12.7357 155.517 13.3741H160.014ZM169.148 9.3898C170.277 9.3898 171.189 9.7489 171.884 10.4671C172.58 11.1739 172.928 12.1657 172.928 13.4425V19H170.534V13.7674C170.534 13.015 170.345 12.4393 169.969 12.0403C169.593 11.6299 169.08 11.4247 168.43 11.4247C167.769 11.4247 167.245 11.6299 166.857 12.0403C166.481 12.4393 166.293 13.015 166.293 13.7674V19H163.899V9.5266H166.293V10.7065C166.612 10.2961 167.017 9.9769 167.507 9.7489C168.008 9.5095 168.556 9.3898 169.148 9.3898ZM177.649 11.4931V16.0759C177.649 16.3951 177.723 16.6288 177.872 16.777C178.031 16.9138 178.293 16.9822 178.658 16.9822H179.77V19H178.265C176.247 19 175.238 18.0196 175.238 16.0588V11.4931H174.11V9.5266H175.238V7.1839H177.649V9.5266H179.77V11.4931H177.649ZM189.956 14.0581C189.956 14.4001 189.933 14.7079 189.888 14.9815H182.962C183.019 15.6655 183.259 16.2013 183.68 16.5889C184.102 16.9765 184.621 17.1703 185.237 17.1703C186.126 17.1703 186.758 16.7884 187.135 16.0246H189.717C189.443 16.9366 188.919 17.689 188.144 18.2818C187.368 18.8632 186.416 19.1539 185.288 19.1539C184.376 19.1539 183.555 18.9544 182.825 18.5554C182.107 18.145 181.543 17.5693 181.133 16.8283C180.734 16.0873 180.534 15.2323 180.534 14.2633C180.534 13.2829 180.734 12.4222 181.133 11.6812C181.532 10.9402 182.09 10.3702 182.808 9.9712C183.527 9.5722 184.353 9.3727 185.288 9.3727C186.188 9.3727 186.992 9.5665 187.699 9.9541C188.417 10.3417 188.97 10.8946 189.358 11.6128C189.757 12.3196 189.956 13.1347 189.956 14.0581ZM187.477 13.3741C187.465 12.7585 187.243 12.2683 186.81 11.9035C186.377 11.5273 185.846 11.3392 185.219 11.3392C184.627 11.3392 184.125 11.5216 183.715 11.8864C183.316 12.2398 183.071 12.7357 182.979 13.3741H187.477ZM194.987 19.1539C194.212 19.1539 193.516 19.0171 192.901 18.7435C192.285 18.4585 191.795 18.0766 191.43 17.5978C191.077 17.119 190.883 16.5889 190.849 16.0075H193.26C193.305 16.3723 193.482 16.6744 193.79 16.9138C194.109 17.1532 194.502 17.2729 194.97 17.2729C195.426 17.2729 195.779 17.1817 196.03 16.9993C196.292 16.8169 196.423 16.5832 196.423 16.2982C196.423 15.9904 196.264 15.7624 195.944 15.6142C195.637 15.4546 195.141 15.2836 194.457 15.1012C193.75 14.9302 193.168 14.7535 192.712 14.5711C192.268 14.3887 191.88 14.1094 191.55 13.7332C191.23 13.357 191.071 12.8497 191.071 12.2113C191.071 11.6869 191.219 11.2081 191.515 10.7749C191.823 10.3417 192.256 9.9997 192.815 9.7489C193.385 9.4981 194.052 9.3727 194.816 9.3727C195.944 9.3727 196.845 9.6577 197.518 10.2277C198.19 10.7863 198.561 11.5444 198.629 12.502H196.338C196.303 12.1258 196.144 11.8294 195.859 11.6128C195.585 11.3848 195.215 11.2708 194.747 11.2708C194.314 11.2708 193.978 11.3506 193.738 11.5102C193.51 11.6698 193.396 11.8921 193.396 12.1771C193.396 12.4963 193.556 12.7414 193.875 12.9124C194.194 13.072 194.69 13.2373 195.363 13.4083C196.047 13.5793 196.611 13.756 197.056 13.9384C197.5 14.1208 197.882 14.4058 198.202 14.7934C198.532 15.1696 198.703 15.6712 198.715 16.2982C198.715 16.8454 198.561 17.3356 198.253 17.7688C197.956 18.202 197.523 18.544 196.953 18.7948C196.395 19.0342 195.739 19.1539 194.987 19.1539Z" fill="#2E2527"/>
<g opacity="0.92">
<path d="M7.3684 63.6942C7.61186 63.6942 7.81106 63.7772 7.966 63.9432C8.132 64.1092 8.215 64.314 8.215 64.5574C8.215 64.8009 8.132 65.0056 7.966 65.1716C7.81106 65.3266 7.61186 65.404 7.3684 65.404C7.136 65.404 6.9368 65.3266 6.7708 65.1716C6.61586 65.0056 6.5384 64.8009 6.5384 64.5574C6.5384 64.314 6.61586 64.1092 6.7708 63.9432C6.9368 63.7772 7.136 63.6942 7.3684 63.6942ZM6.3226 75.53C5.61433 75.53 4.98353 75.3917 4.4302 75.115C3.88793 74.8384 3.46186 74.44 3.15199 73.9198C2.85319 73.4108 2.70379 72.8187 2.70379 72.1436C2.70379 70.9484 3.069 70.0742 3.7994 69.5208C4.54086 68.9564 5.54793 68.6742 6.8206 68.6742L6.8704 66.8482H7.8664L7.9328 69.5042H7.5012C6.36133 69.5042 5.4594 69.6868 4.7954 70.052C4.14246 70.4062 3.816 71.1034 3.816 72.1436C3.816 72.874 4.04286 73.455 4.4966 73.8866C4.9614 74.3182 5.57006 74.534 6.3226 74.534C7.07513 74.534 7.67273 74.3293 8.1154 73.9198C8.55806 73.5104 8.7794 72.9515 8.7794 72.2432H9.8916C9.8916 72.9072 9.73666 73.4827 9.4268 73.9696C9.128 74.4676 8.70746 74.8494 8.1652 75.115C7.634 75.3917 7.0198 75.53 6.3226 75.53ZM20.9464 75.115L18.3568 72.708C17.7924 72.874 17.2004 72.957 16.5806 72.957C15.5072 72.957 14.5333 72.708 13.659 72.21C12.7848 71.701 12.0931 70.9982 11.584 70.1018C11.086 69.1944 10.837 68.1707 10.837 67.0308C10.837 65.891 11.086 64.8728 11.584 63.9764C12.0931 63.069 12.7848 62.3662 13.659 61.8682C14.5333 61.3592 15.5072 61.1046 16.5806 61.1046C17.6652 61.1046 18.6446 61.3592 19.5188 61.8682C20.3931 62.3662 21.0792 63.069 21.5772 63.9764C22.0752 64.8728 22.3242 65.891 22.3242 67.0308C22.3242 68.2039 22.0642 69.2497 21.544 70.1682C21.0239 71.0757 20.3101 71.7729 19.4026 72.2598L22.5068 75.115H20.9464ZM12.0322 67.0308C12.0322 68.0158 12.2314 68.8845 12.6298 69.637C13.0282 70.3785 13.5705 70.9484 14.2566 71.3468C14.9428 71.7452 15.7174 71.9444 16.5806 71.9444C17.4438 71.9444 18.2185 71.7452 18.9046 71.3468C19.5908 70.9484 20.133 70.3785 20.5314 69.637C20.9298 68.8845 21.129 68.0158 21.129 67.0308C21.129 66.0459 20.9298 65.1827 20.5314 64.4412C20.133 63.6998 19.5908 63.1298 18.9046 62.7314C18.2185 62.333 17.4438 62.1338 16.5806 62.1338C15.7174 62.1338 14.9428 62.333 14.2566 62.7314C13.5705 63.1298 13.0282 63.6998 12.6298 64.4412C12.2314 65.1827 12.0322 66.0459 12.0322 67.0308ZM31.9865 63.7772V72.8408H30.8245V71.2472C30.5589 71.8116 30.1494 72.2432 29.5961 72.542C29.0427 72.8408 28.423 72.9902 27.7369 72.9902C26.6523 72.9902 25.767 72.6582 25.0809 71.9942C24.3947 71.3192 24.0517 70.3453 24.0517 69.0726V63.7772H25.1971V68.9398C25.1971 69.9248 25.4405 70.6773 25.9275 71.1974C26.4255 71.7176 27.1005 71.9776 27.9527 71.9776C28.8269 71.9776 29.5241 71.701 30.0443 71.1476C30.5644 70.5943 30.8245 69.7809 30.8245 68.7074V63.7772H31.9865ZM42.5077 67.8442C42.5077 68.2426 42.4967 68.547 42.4745 68.7572H34.9547C34.9879 69.4434 35.1539 70.0299 35.4527 70.5168C35.7515 71.0038 36.1444 71.3745 36.6313 71.629C37.1183 71.8725 37.6495 71.9942 38.2249 71.9942C38.9775 71.9942 39.6083 71.8116 40.1173 71.4464C40.6375 71.0812 40.9805 70.5888 41.1465 69.969H42.3749C42.1536 70.8544 41.6777 71.5792 40.9473 72.1436C40.228 72.697 39.3205 72.9736 38.2249 72.9736C37.3728 72.9736 36.6092 72.7855 35.9341 72.4092C35.2591 72.0219 34.7279 71.4796 34.3405 70.7824C33.9643 70.0742 33.7761 69.2497 33.7761 68.309C33.7761 67.3684 33.9643 66.5439 34.3405 65.8356C34.7168 65.1274 35.2425 64.5851 35.9175 64.2088C36.5926 63.8326 37.3617 63.6444 38.2249 63.6444C39.0881 63.6444 39.8407 63.8326 40.4825 64.2088C41.1355 64.5851 41.6335 65.0942 41.9765 65.736C42.3307 66.3668 42.5077 67.0696 42.5077 67.8442ZM41.3291 67.811C41.3402 67.136 41.2019 66.5605 40.9141 66.0846C40.6375 65.6088 40.2557 65.2491 39.7687 65.0056C39.2818 64.7622 38.7506 64.6404 38.1751 64.6404C37.3119 64.6404 36.576 64.9171 35.9673 65.4704C35.3587 66.0238 35.0211 66.804 34.9547 67.811H41.3291ZM39.6691 61.1046L36.2661 63.08V62.1836L39.6691 60.0588V61.1046ZM56.7254 67.8442C56.7254 68.2426 56.7143 68.547 56.6922 68.7572H49.1724C49.2056 69.4434 49.3716 70.0299 49.6704 70.5168C49.9692 71.0038 50.3621 71.3745 50.849 71.629C51.3359 71.8725 51.8671 71.9942 52.4426 71.9942C53.1951 71.9942 53.8259 71.8116 54.335 71.4464C54.8551 71.0812 55.1982 70.5888 55.3642 69.969H56.5926C56.3713 70.8544 55.8954 71.5792 55.165 72.1436C54.4457 72.697 53.5382 72.9736 52.4426 72.9736C51.5905 72.9736 50.8269 72.7855 50.1518 72.4092C49.4767 72.0219 48.9455 71.4796 48.5582 70.7824C48.1819 70.0742 47.9938 69.2497 47.9938 68.309C47.9938 67.3684 48.1819 66.5439 48.5582 65.8356C48.9345 65.1274 49.4601 64.5851 50.1352 64.2088C50.8103 63.8326 51.5794 63.6444 52.4426 63.6444C53.3058 63.6444 54.0583 63.8326 54.7002 64.2088C55.3531 64.5851 55.8511 65.0942 56.1942 65.736C56.5483 66.3668 56.7254 67.0696 56.7254 67.8442ZM55.5468 67.811C55.5579 67.136 55.4195 66.5605 55.1318 66.0846C54.8551 65.6088 54.4733 65.2491 53.9864 65.0056C53.4995 64.7622 52.9683 64.6404 52.3928 64.6404C51.5296 64.6404 50.7937 64.9171 50.185 65.4704C49.5763 66.0238 49.2388 66.804 49.1724 67.811H55.5468ZM61.6402 72.9736C60.5999 72.9736 59.7478 72.7357 59.0838 72.2598C58.4308 71.7729 58.0656 71.1144 57.9882 70.2844H59.1834C59.2387 70.7935 59.4766 71.2085 59.8972 71.5294C60.3288 71.8393 60.9042 71.9942 61.6236 71.9942C62.2544 71.9942 62.7468 71.8448 63.101 71.546C63.4662 71.2472 63.6488 70.8765 63.6488 70.4338C63.6488 70.124 63.5492 69.8694 63.35 69.6702C63.1508 69.471 62.8962 69.3161 62.5864 69.2054C62.2876 69.0837 61.8781 68.9564 61.358 68.8236C60.6829 68.6466 60.1351 68.4695 59.7146 68.2924C59.294 68.1154 58.9344 67.8553 58.6356 67.5122C58.3478 67.1581 58.204 66.6878 58.204 66.1012C58.204 65.6586 58.3368 65.2491 58.6024 64.8728C58.868 64.4966 59.2442 64.1978 59.7312 63.9764C60.2181 63.7551 60.7714 63.6444 61.3912 63.6444C62.365 63.6444 63.1508 63.8934 63.7484 64.3914C64.346 64.8784 64.6669 65.5534 64.7112 66.4166H63.5492C63.516 65.8854 63.3057 65.4594 62.9184 65.1384C62.5421 64.8064 62.022 64.6404 61.358 64.6404C60.7714 64.6404 60.2956 64.7788 59.9304 65.0554C59.5652 65.3321 59.3826 65.6752 59.3826 66.0846C59.3826 66.4388 59.4877 66.732 59.698 66.9644C59.9193 67.1858 60.1904 67.3628 60.5114 67.4956C60.8323 67.6174 61.2639 67.7557 61.8062 67.9106C62.4591 68.0877 62.9792 68.2592 63.3666 68.4252C63.7539 68.5912 64.0859 68.8347 64.3626 69.1556C64.6392 69.4766 64.7831 69.9026 64.7942 70.4338C64.7942 70.9208 64.6614 71.3579 64.3958 71.7452C64.1302 72.1215 63.7594 72.4203 63.2836 72.6416C62.8077 72.863 62.2599 72.9736 61.6402 72.9736ZM70.3415 67.0308C70.3415 65.891 70.5905 64.8728 71.0885 63.9764C71.5865 63.069 72.2671 62.3662 73.1303 61.8682C73.9935 61.3592 74.9563 61.1046 76.0187 61.1046C77.3135 61.1046 78.4202 61.4145 79.3387 62.0342C80.2683 62.6429 80.9434 63.5061 81.3639 64.6238H80.0027C79.6707 63.8381 79.1617 63.2239 78.4755 62.7812C77.8005 62.3386 76.9815 62.1172 76.0187 62.1172C75.1666 62.1172 74.3975 62.3164 73.7113 62.7148C73.0363 63.1132 72.5051 63.6887 72.1177 64.4412C71.7304 65.1827 71.5367 66.0459 71.5367 67.0308C71.5367 68.0158 71.7304 68.879 72.1177 69.6204C72.5051 70.3619 73.0363 70.9318 73.7113 71.3302C74.3975 71.7286 75.1666 71.9278 76.0187 71.9278C76.9815 71.9278 77.8005 71.712 78.4755 71.2804C79.1617 70.8378 79.6707 70.2291 80.0027 69.4544H81.3639C80.9434 70.5611 80.2683 71.4188 79.3387 72.0274C78.4091 72.6361 77.3025 72.9404 76.0187 72.9404C74.9563 72.9404 73.9935 72.6914 73.1303 72.1934C72.2671 71.6844 71.5865 70.9816 71.0885 70.0852C70.5905 69.1888 70.3415 68.1707 70.3415 67.0308ZM82.8162 68.2924C82.8162 67.3628 82.9988 66.5494 83.364 65.8522C83.7402 65.144 84.2548 64.6017 84.9078 64.2254C85.5718 63.8381 86.3188 63.6444 87.1488 63.6444C88.012 63.6444 88.7534 63.8436 89.3732 64.242C90.004 64.6404 90.4577 65.1495 90.7344 65.7692V63.7772H91.8964V72.8408H90.7344V70.8322C90.4466 71.452 89.9874 71.9666 89.3566 72.376C88.7368 72.7744 87.9954 72.9736 87.1322 72.9736C86.3132 72.9736 85.5718 72.78 84.9078 72.3926C84.2548 72.0053 83.7402 71.4575 83.364 70.7492C82.9988 70.041 82.8162 69.222 82.8162 68.2924ZM90.7344 68.309C90.7344 67.5786 90.585 66.9368 90.2862 66.3834C89.9874 65.8301 89.5779 65.404 89.0578 65.1052C88.5487 64.8064 87.9843 64.657 87.3646 64.657C86.7227 64.657 86.1472 64.8009 85.6382 65.0886C85.1291 65.3764 84.7252 65.7969 84.4264 66.3502C84.1386 66.8925 83.9948 67.5399 83.9948 68.2924C83.9948 69.0339 84.1386 69.6868 84.4264 70.2512C84.7252 70.8046 85.1291 71.2306 85.6382 71.5294C86.1472 71.8172 86.7227 71.961 87.3646 71.961C87.9843 71.961 88.5487 71.8116 89.0578 71.5128C89.5779 71.214 89.9874 70.788 90.2862 70.2346C90.585 69.6813 90.7344 69.0394 90.7344 68.309ZM95.3625 65.7858C95.6613 65.155 96.1206 64.6404 96.7403 64.242C97.3711 63.8436 98.1126 63.6444 98.9647 63.6444C99.7947 63.6444 100.536 63.8381 101.189 64.2254C101.842 64.6017 102.351 65.144 102.716 65.8522C103.093 66.5494 103.281 67.3628 103.281 68.2924C103.281 69.222 103.093 70.041 102.716 70.7492C102.351 71.4575 101.837 72.0053 101.173 72.3926C100.52 72.78 99.7837 72.9736 98.9647 72.9736C98.1015 72.9736 97.3545 72.78 96.7237 72.3926C96.104 71.9942 95.6503 71.4796 95.3625 70.8488V72.8408H94.2171V60.5568H95.3625V65.7858ZM102.102 68.2924C102.102 67.5399 101.953 66.8925 101.654 66.3502C101.366 65.7969 100.968 65.3764 100.459 65.0886C99.9497 64.8009 99.3742 64.657 98.7323 64.657C98.1126 64.657 97.5427 64.8064 97.0225 65.1052C96.5135 65.404 96.1095 65.8301 95.8107 66.3834C95.5119 66.9368 95.3625 67.5786 95.3625 68.309C95.3625 69.0394 95.5119 69.6813 95.8107 70.2346C96.1095 70.788 96.5135 71.214 97.0225 71.5128C97.5427 71.8116 98.1126 71.961 98.7323 71.961C99.3742 71.961 99.9497 71.8172 100.459 71.5294C100.968 71.2306 101.366 70.8046 101.654 70.2512C101.953 69.6868 102.102 69.0339 102.102 68.2924ZM104.556 68.2924C104.556 67.3628 104.738 66.5494 105.103 65.8522C105.48 65.144 105.994 64.6017 106.647 64.2254C107.311 63.8381 108.058 63.6444 108.888 63.6444C109.751 63.6444 110.493 63.8436 111.113 64.242C111.743 64.6404 112.197 65.1495 112.474 65.7692V63.7772H113.636V72.8408H112.474V70.8322C112.186 71.452 111.727 71.9666 111.096 72.376C110.476 72.7744 109.735 72.9736 108.872 72.9736C108.053 72.9736 107.311 72.78 106.647 72.3926C105.994 72.0053 105.48 71.4575 105.103 70.7492C104.738 70.041 104.556 69.222 104.556 68.2924ZM112.474 68.309C112.474 67.5786 112.324 66.9368 112.026 66.3834C111.727 65.8301 111.317 65.404 110.797 65.1052C110.288 64.8064 109.724 64.657 109.104 64.657C108.462 64.657 107.887 64.8009 107.378 65.0886C106.869 65.3764 106.465 65.7969 106.166 66.3502C105.878 66.8925 105.734 67.5399 105.734 68.2924C105.734 69.0339 105.878 69.6868 106.166 70.2512C106.465 70.8046 106.869 71.2306 107.378 71.5294C107.887 71.8172 108.462 71.961 109.104 71.961C109.724 71.961 110.288 71.8116 110.797 71.5128C111.317 71.214 111.727 70.788 112.026 70.2346C112.324 69.6813 112.474 69.0394 112.474 68.309ZM120.206 63.6112C121.291 63.6112 122.176 63.9488 122.862 64.6238C123.548 65.2878 123.891 66.2562 123.891 67.5288V72.8408H122.746V67.6616C122.746 66.6767 122.497 65.9242 121.999 65.404C121.512 64.8839 120.843 64.6238 119.99 64.6238C119.116 64.6238 118.419 64.9005 117.899 65.4538C117.379 66.0072 117.119 66.8206 117.119 67.894V72.8408H115.957V63.7772H117.119V65.321C117.406 64.7677 117.821 64.3472 118.364 64.0594C118.906 63.7606 119.52 63.6112 120.206 63.6112ZM117.583 62.7812C117.65 62.2832 117.81 61.9014 118.065 61.6358C118.319 61.3702 118.646 61.2374 119.044 61.2374C119.243 61.2374 119.415 61.2762 119.559 61.3536C119.703 61.42 119.874 61.5196 120.073 61.6524C120.239 61.7742 120.383 61.8682 120.505 61.9346C120.627 61.99 120.76 62.0176 120.903 62.0176C121.092 62.0176 121.252 61.9568 121.385 61.835C121.518 61.7022 121.601 61.5141 121.634 61.2706H122.331C122.287 61.7576 122.126 62.1394 121.85 62.416C121.584 62.6816 121.252 62.8144 120.854 62.8144C120.643 62.8144 120.461 62.7812 120.306 62.7148C120.162 62.6374 119.99 62.5267 119.791 62.3828C119.636 62.2611 119.498 62.1726 119.376 62.1172C119.266 62.0619 119.138 62.0342 118.994 62.0342C118.596 62.0342 118.364 62.2832 118.297 62.7812H117.583ZM126.71 62.0674C126.478 62.0674 126.279 61.9844 126.113 61.8184C125.947 61.6524 125.864 61.4477 125.864 61.2042C125.864 60.9608 125.947 60.7616 126.113 60.6066C126.279 60.4406 126.478 60.3576 126.71 60.3576C126.943 60.3576 127.142 60.4406 127.308 60.6066C127.474 60.7616 127.557 60.9608 127.557 61.2042C127.557 61.4477 127.474 61.6524 127.308 61.8184C127.142 61.9844 126.943 62.0674 126.71 62.0674ZM127.291 63.7772V72.8408H126.129V63.7772H127.291ZM131.101 64.7566V70.384C131.101 70.9374 131.206 71.3192 131.417 71.5294C131.627 71.7397 131.998 71.8448 132.529 71.8448H133.591V72.8408H132.346C131.527 72.8408 130.919 72.6527 130.52 72.2764C130.122 71.8891 129.923 71.2583 129.923 70.384V64.7566H128.661V63.7772H129.923V61.503H131.101V63.7772H133.591V64.7566H131.101ZM141.899 70.0852H136.62L135.607 72.8408H134.379L138.612 61.3868H139.923L144.14 72.8408H142.911L141.899 70.0852ZM141.55 69.1224L139.259 62.8476L136.968 69.1224H141.55ZM146.818 65.7692C147.106 65.1606 147.559 64.657 148.179 64.2586C148.81 63.8492 149.557 63.6444 150.42 63.6444C151.239 63.6444 151.975 63.8381 152.628 64.2254C153.292 64.6017 153.807 65.144 154.172 65.8522C154.548 66.5494 154.736 67.3628 154.736 68.2924C154.736 69.222 154.548 70.041 154.172 70.7492C153.807 71.4575 153.292 72.0053 152.628 72.3926C151.975 72.78 151.239 72.9736 150.42 72.9736C149.568 72.9736 148.827 72.7744 148.196 72.376C147.565 71.9666 147.106 71.4575 146.818 70.8488V77.1236H145.673V63.7772H146.818V65.7692ZM153.558 68.2924C153.558 67.5399 153.408 66.8925 153.109 66.3502C152.822 65.7969 152.423 65.3764 151.914 65.0886C151.405 64.8009 150.83 64.657 150.188 64.657C149.568 64.657 148.998 64.8064 148.478 65.1052C147.969 65.404 147.565 65.8301 147.266 66.3834C146.967 66.9368 146.818 67.5786 146.818 68.309C146.818 69.0394 146.967 69.6813 147.266 70.2346C147.565 70.788 147.969 71.214 148.478 71.5128C148.998 71.8116 149.568 71.961 150.188 71.961C150.83 71.961 151.405 71.8172 151.914 71.5294C152.423 71.2306 152.822 70.8046 153.109 70.2512C153.408 69.6868 153.558 69.0339 153.558 68.2924ZM157.688 65.7692C157.975 65.1606 158.429 64.657 159.049 64.2586C159.68 63.8492 160.427 63.6444 161.29 63.6444C162.109 63.6444 162.845 63.8381 163.498 64.2254C164.162 64.6017 164.676 65.144 165.042 65.8522C165.418 66.5494 165.606 67.3628 165.606 68.2924C165.606 69.222 165.418 70.041 165.042 70.7492C164.676 71.4575 164.162 72.0053 163.498 72.3926C162.845 72.78 162.109 72.9736 161.29 72.9736C160.438 72.9736 159.696 72.7744 159.066 72.376C158.435 71.9666 157.975 71.4575 157.688 70.8488V77.1236H156.542V63.7772H157.688V65.7692ZM164.427 68.2924C164.427 67.5399 164.278 66.8925 163.979 66.3502C163.691 65.7969 163.293 65.3764 162.784 65.0886C162.275 64.8009 161.699 64.657 161.058 64.657C160.438 64.657 159.868 64.8064 159.348 65.1052C158.839 65.404 158.435 65.8301 158.136 66.3834C157.837 66.9368 157.688 67.5786 157.688 68.309C157.688 69.0394 157.837 69.6813 158.136 70.2346C158.435 70.788 158.839 71.214 159.348 71.5128C159.868 71.8116 160.438 71.961 161.058 71.961C161.699 71.961 162.275 71.8172 162.784 71.5294C163.293 71.2306 163.691 70.8046 163.979 70.2512C164.278 69.6868 164.427 69.0339 164.427 68.2924ZM170.218 61.088C170.926 61.088 171.551 61.2264 172.093 61.503C172.647 61.7797 173.073 62.1781 173.372 62.6982C173.681 63.2073 173.836 63.7994 173.836 64.4744C173.836 65.6696 173.466 66.5494 172.724 67.1138C171.994 67.6672 170.992 67.9438 169.72 67.9438L169.67 69.7698H168.674L168.607 67.1138H169.039C170.179 67.1138 171.075 66.9368 171.728 66.5826C172.392 66.2174 172.724 65.5147 172.724 64.4744C172.724 63.744 172.492 63.163 172.027 62.7314C171.573 62.2998 170.97 62.084 170.218 62.084C169.465 62.084 168.867 62.2888 168.425 62.6982C167.982 63.1077 167.761 63.6666 167.761 64.3748H166.649C166.649 63.7108 166.798 63.1354 167.097 62.6484C167.407 62.1504 167.827 61.7686 168.358 61.503C168.901 61.2264 169.52 61.088 170.218 61.088ZM169.172 72.9238C168.928 72.9238 168.724 72.8408 168.558 72.6748C168.403 72.5088 168.325 72.3041 168.325 72.0606C168.325 71.8172 168.403 71.618 168.558 71.463C168.724 71.297 168.928 71.214 169.172 71.214C169.404 71.214 169.598 71.297 169.753 71.463C169.919 71.618 170.002 71.8172 170.002 72.0606C170.002 72.3041 169.919 72.5088 169.753 72.6748C169.598 72.8408 169.404 72.9238 169.172 72.9238Z" fill="#2E2527"/>
<g clip-path="url(#clip0_7948_2219)">
<rect x="200.592" y="83.801" width="24" height="24" rx="6" transform="rotate(-137 200.592 83.801)" fill="#EADEC8"/>
<path d="M191.02 67.1543C191.03 67.4302 191.261 67.6462 191.537 67.6365L199.518 67.3578L199.796 75.3383C199.806 75.6142 200.038 75.8301 200.314 75.8205C200.59 75.8109 200.805 75.5793 200.796 75.3034L200.517 67.3229L208.498 67.0443C208.774 67.0346 208.989 66.8031 208.98 66.5271C208.97 66.2511 208.739 66.0352 208.463 66.0449L200.482 66.3235L200.204 58.3431C200.194 58.0672 199.962 57.8512 199.686 57.8609C199.41 57.8705 199.195 58.1021 199.204 58.378L199.483 66.3584L191.502 66.6371C191.226 66.6468 191.011 66.8783 191.02 67.1543Z" stroke="#69493C" stroke-linecap="round" stroke-linejoin="round"/>
</g>
</g>
<g opacity="0.92">
<path d="M37.4034 121.535C37.6469 121.535 37.8461 121.618 38.001 121.784C38.167 121.95 38.25 122.155 38.25 122.398C38.25 122.642 38.167 122.847 38.001 123.013C37.8461 123.168 37.6469 123.245 37.4034 123.245C37.171 123.245 36.9718 123.168 36.8058 123.013C36.6509 122.847 36.5734 122.642 36.5734 122.398C36.5734 122.155 36.6509 121.95 36.8058 121.784C36.9718 121.618 37.171 121.535 37.4034 121.535ZM36.3576 133.371C35.6494 133.371 35.0186 133.233 34.4652 132.956C33.923 132.679 33.4969 132.281 33.187 131.761C32.8882 131.252 32.7388 130.66 32.7388 129.985C32.7388 128.789 33.104 127.915 33.8344 127.362C34.5759 126.797 35.583 126.515 36.8556 126.515L36.9054 124.689H37.9014L37.9678 127.345H37.5362C36.3964 127.345 35.4944 127.528 34.8304 127.893C34.1775 128.247 33.851 128.944 33.851 129.985C33.851 130.715 34.0779 131.296 34.5316 131.728C34.9964 132.159 35.6051 132.375 36.3576 132.375C37.1102 132.375 37.7078 132.17 38.1504 131.761C38.5931 131.351 38.8144 130.793 38.8144 130.084H39.9266C39.9266 130.748 39.7717 131.324 39.4618 131.811C39.163 132.309 38.7425 132.69 38.2002 132.956C37.669 133.233 37.0548 133.371 36.3576 133.371ZM50.9815 132.956L48.3919 130.549C47.8275 130.715 47.2354 130.798 46.6157 130.798C45.5422 130.798 44.5683 130.549 43.6941 130.051C42.8198 129.542 42.1281 128.839 41.6191 127.943C41.1211 127.035 40.8721 126.012 40.8721 124.872C40.8721 123.732 41.1211 122.714 41.6191 121.817C42.1281 120.91 42.8198 120.207 43.6941 119.709C44.5683 119.2 45.5422 118.946 46.6157 118.946C47.7002 118.946 48.6796 119.2 49.5539 119.709C50.4281 120.207 51.1143 120.91 51.6123 121.817C52.1103 122.714 52.3593 123.732 52.3593 124.872C52.3593 126.045 52.0992 127.091 51.5791 128.009C51.0589 128.917 50.3451 129.614 49.4377 130.101L52.5419 132.956H50.9815ZM42.0673 124.872C42.0673 125.857 42.2665 126.726 42.6649 127.478C43.0633 128.22 43.6055 128.789 44.2917 129.188C44.9778 129.586 45.7525 129.785 46.6157 129.785C47.4789 129.785 48.2535 129.586 48.9397 129.188C49.6258 128.789 50.1681 128.22 50.5665 127.478C50.9649 126.726 51.1641 125.857 51.1641 124.872C51.1641 123.887 50.9649 123.024 50.5665 122.282C50.1681 121.541 49.6258 120.971 48.9397 120.572C48.2535 120.174 47.4789 119.975 46.6157 119.975C45.7525 119.975 44.9778 120.174 44.2917 120.572C43.6055 120.971 43.0633 121.541 42.6649 122.282C42.2665 123.024 42.0673 123.887 42.0673 124.872ZM62.0215 121.618V130.682H60.8595V129.088C60.5939 129.653 60.1844 130.084 59.6311 130.383C59.0778 130.682 58.458 130.831 57.7719 130.831C56.6874 130.831 55.802 130.499 55.1159 129.835C54.4298 129.16 54.0867 128.186 54.0867 126.914V121.618H55.2321V126.781C55.2321 127.766 55.4756 128.518 55.9625 129.038C56.4605 129.559 57.1356 129.819 57.9877 129.819C58.862 129.819 59.5592 129.542 60.0793 128.989C60.5994 128.435 60.8595 127.622 60.8595 126.548V121.618H62.0215ZM72.5428 125.685C72.5428 126.084 72.5317 126.388 72.5096 126.598H64.9898C65.023 127.284 65.189 127.871 65.4878 128.358C65.7866 128.845 66.1794 129.216 66.6664 129.47C67.1533 129.714 67.6845 129.835 68.26 129.835C69.0125 129.835 69.6433 129.653 70.1524 129.287C70.6725 128.922 71.0156 128.43 71.1816 127.81H72.41C72.1886 128.695 71.7128 129.42 70.9824 129.985C70.263 130.538 69.3556 130.815 68.26 130.815C67.4078 130.815 66.6442 130.627 65.9692 130.25C65.2941 129.863 64.7629 129.321 64.3756 128.623C63.9993 127.915 63.8112 127.091 63.8112 126.15C63.8112 125.209 63.9993 124.385 64.3756 123.677C64.7518 122.968 65.2775 122.426 65.9526 122.05C66.6276 121.674 67.3968 121.485 68.26 121.485C69.1232 121.485 69.8757 121.674 70.5176 122.05C71.1705 122.426 71.6685 122.935 72.0116 123.577C72.3657 124.208 72.5428 124.911 72.5428 125.685ZM71.3642 125.652C71.3752 124.977 71.2369 124.402 70.9492 123.926C70.6725 123.45 70.2907 123.09 69.8038 122.847C69.3168 122.603 68.7856 122.481 68.2102 122.481C67.347 122.481 66.611 122.758 66.0024 123.311C65.3937 123.865 65.0562 124.645 64.9898 125.652H71.3642ZM69.7042 118.946L66.3012 120.921V120.025L69.7042 117.9V118.946ZM81.6808 130.815C80.6406 130.815 79.7884 130.577 79.1244 130.101C78.4715 129.614 78.1063 128.955 78.0288 128.125H79.224C79.2794 128.635 79.5173 129.05 79.9378 129.37C80.3694 129.68 80.9449 129.835 81.6642 129.835C82.295 129.835 82.7875 129.686 83.1416 129.387C83.5068 129.088 83.6894 128.718 83.6894 128.275C83.6894 127.965 83.5898 127.71 83.3906 127.511C83.1914 127.312 82.9369 127.157 82.627 127.046C82.3282 126.925 81.9188 126.797 81.3986 126.665C80.7236 126.488 80.1758 126.311 79.7552 126.133C79.3347 125.956 78.975 125.696 78.6762 125.353C78.3885 124.999 78.2446 124.529 78.2446 123.942C78.2446 123.5 78.3774 123.09 78.643 122.714C78.9086 122.338 79.2849 122.039 79.7718 121.817C80.2588 121.596 80.8121 121.485 81.4318 121.485C82.4057 121.485 83.1914 121.734 83.789 122.232C84.3866 122.719 84.7076 123.394 84.7518 124.258H83.5898C83.5566 123.726 83.3464 123.3 82.959 122.979C82.5828 122.647 82.0626 122.481 81.3986 122.481C80.8121 122.481 80.3362 122.62 79.971 122.896C79.6058 123.173 79.4232 123.516 79.4232 123.926C79.4232 124.28 79.5284 124.573 79.7386 124.805C79.96 125.027 80.2311 125.204 80.552 125.337C80.873 125.458 81.3046 125.597 81.8468 125.752C82.4998 125.929 83.0199 126.1 83.4072 126.266C83.7946 126.432 84.1266 126.676 84.4032 126.997C84.6799 127.318 84.8238 127.744 84.8348 128.275C84.8348 128.762 84.702 129.199 84.4364 129.586C84.1708 129.963 83.8001 130.261 83.3242 130.483C82.8484 130.704 82.3006 130.815 81.6808 130.815ZM94.8905 125.685C94.8905 126.084 94.8795 126.388 94.8573 126.598H87.3375C87.3707 127.284 87.5367 127.871 87.8355 128.358C88.1343 128.845 88.5272 129.216 89.0141 129.47C89.5011 129.714 90.0323 129.835 90.6077 129.835C91.3603 129.835 91.9911 129.653 92.5001 129.287C93.0203 128.922 93.3633 128.43 93.5293 127.81H94.7577C94.5364 128.695 94.0605 129.42 93.3301 129.985C92.6108 130.538 91.7033 130.815 90.6077 130.815C89.7556 130.815 88.992 130.627 88.3169 130.25C87.6419 129.863 87.1107 129.321 86.7233 128.623C86.3471 127.915 86.1589 127.091 86.1589 126.15C86.1589 125.209 86.3471 124.385 86.7233 123.677C87.0996 122.968 87.6253 122.426 88.3003 122.05C88.9754 121.674 89.7445 121.485 90.6077 121.485C91.4709 121.485 92.2235 121.674 92.8653 122.05C93.5183 122.426 94.0163 122.935 94.3593 123.577C94.7135 124.208 94.8905 124.911 94.8905 125.685ZM93.7119 125.652C93.723 124.977 93.5847 124.402 93.2969 123.926C93.0203 123.45 92.6385 123.09 92.1515 122.847C91.6646 122.603 91.1334 122.481 90.5579 122.481C89.6947 122.481 88.9588 122.758 88.3501 123.311C87.7415 123.865 87.4039 124.645 87.3375 125.652H93.7119ZM97.8465 123.228C98.101 122.664 98.4884 122.227 99.0085 121.917C99.5397 121.607 100.187 121.452 100.951 121.452V122.664H100.635C99.7942 122.664 99.1192 122.891 98.6101 123.345C98.101 123.798 97.8465 124.556 97.8465 125.619V130.682H96.6845V121.618H97.8465V123.228ZM105.587 129.553L108.642 121.618H109.87L106.235 130.682H104.923L101.288 121.618H102.533L105.587 129.553ZM111.694 119.908C111.461 119.908 111.262 119.825 111.096 119.659C110.93 119.493 110.847 119.289 110.847 119.045C110.847 118.802 110.93 118.603 111.096 118.448C111.262 118.282 111.461 118.199 111.694 118.199C111.926 118.199 112.125 118.282 112.291 118.448C112.457 118.603 112.54 118.802 112.54 119.045C112.54 119.289 112.457 119.493 112.291 119.659C112.125 119.825 111.926 119.908 111.694 119.908ZM112.275 121.618V130.682H111.113V121.618H112.275ZM114.043 126.15C114.043 125.209 114.231 124.39 114.607 123.693C114.984 122.985 115.504 122.443 116.168 122.066C116.832 121.679 117.59 121.485 118.442 121.485C119.56 121.485 120.478 121.762 121.198 122.315C121.928 122.869 122.398 123.621 122.609 124.573H121.364C121.209 123.92 120.871 123.411 120.351 123.046C119.842 122.67 119.206 122.481 118.442 122.481C117.833 122.481 117.286 122.62 116.799 122.896C116.312 123.173 115.924 123.588 115.637 124.141C115.36 124.684 115.222 125.353 115.222 126.15C115.222 126.947 115.36 127.622 115.637 128.175C115.924 128.729 116.312 129.144 116.799 129.42C117.286 129.697 117.833 129.835 118.442 129.835C119.206 129.835 119.842 129.653 120.351 129.287C120.871 128.911 121.209 128.391 121.364 127.727H122.609C122.398 128.657 121.928 129.404 121.198 129.968C120.467 130.532 119.549 130.815 118.442 130.815C117.59 130.815 116.832 130.627 116.168 130.25C115.504 129.863 114.984 129.321 114.607 128.623C114.231 127.915 114.043 127.091 114.043 126.15ZM125.004 119.908C124.771 119.908 124.572 119.825 124.406 119.659C124.24 119.493 124.157 119.289 124.157 119.045C124.157 118.802 124.24 118.603 124.406 118.448C124.572 118.282 124.771 118.199 125.004 118.199C125.236 118.199 125.435 118.282 125.601 118.448C125.767 118.603 125.85 118.802 125.85 119.045C125.85 119.289 125.767 119.493 125.601 119.659C125.435 119.825 125.236 119.908 125.004 119.908ZM125.585 121.618V130.682H124.423V121.618H125.585ZM131.851 130.815C130.999 130.815 130.23 130.627 129.544 130.25C128.869 129.863 128.332 129.321 127.934 128.623C127.547 127.915 127.353 127.091 127.353 126.15C127.353 125.209 127.552 124.39 127.95 123.693C128.349 122.985 128.891 122.443 129.577 122.066C130.263 121.679 131.033 121.485 131.885 121.485C132.737 121.485 133.506 121.679 134.192 122.066C134.889 122.443 135.432 122.985 135.819 123.693C136.217 124.39 136.416 125.209 136.416 126.15C136.416 127.08 136.217 127.899 135.819 128.607C135.42 129.315 134.873 129.863 134.175 130.25C133.478 130.627 132.704 130.815 131.851 130.815ZM131.851 129.802C132.449 129.802 133.002 129.669 133.511 129.404C134.021 129.127 134.43 128.718 134.74 128.175C135.061 127.622 135.221 126.947 135.221 126.15C135.221 125.353 135.066 124.684 134.756 124.141C134.447 123.588 134.037 123.179 133.528 122.913C133.019 122.636 132.466 122.498 131.868 122.498C131.27 122.498 130.717 122.636 130.208 122.913C129.699 123.179 129.29 123.588 128.98 124.141C128.681 124.684 128.531 125.353 128.531 126.15C128.531 126.947 128.681 127.622 128.98 128.175C129.29 128.718 129.693 129.127 130.191 129.404C130.701 129.669 131.254 129.802 131.851 129.802ZM141.323 130.815C140.283 130.815 139.431 130.577 138.767 130.101C138.114 129.614 137.749 128.955 137.671 128.125H138.867C138.922 128.635 139.16 129.05 139.58 129.37C140.012 129.68 140.588 129.835 141.307 129.835C141.938 129.835 142.43 129.686 142.784 129.387C143.149 129.088 143.332 128.718 143.332 128.275C143.332 127.965 143.232 127.71 143.033 127.511C142.834 127.312 142.58 127.157 142.27 127.046C141.971 126.925 141.561 126.797 141.041 126.665C140.366 126.488 139.818 126.311 139.398 126.133C138.977 125.956 138.618 125.696 138.319 125.353C138.031 124.999 137.887 124.529 137.887 123.942C137.887 123.5 138.02 123.09 138.286 122.714C138.551 122.338 138.928 122.039 139.414 121.817C139.901 121.596 140.455 121.485 141.074 121.485C142.048 121.485 142.834 121.734 143.432 122.232C144.029 122.719 144.35 123.394 144.394 124.258H143.232C143.199 123.726 142.989 123.3 142.602 122.979C142.225 122.647 141.705 122.481 141.041 122.481C140.455 122.481 139.979 122.62 139.614 122.896C139.248 123.173 139.066 123.516 139.066 123.926C139.066 124.28 139.171 124.573 139.381 124.805C139.603 125.027 139.874 125.204 140.195 125.337C140.516 125.458 140.947 125.597 141.489 125.752C142.142 125.929 142.663 126.1 143.05 126.266C143.437 126.432 143.769 126.676 144.046 126.997C144.323 127.318 144.466 127.744 144.477 128.275C144.477 128.762 144.345 129.199 144.079 129.586C143.813 129.963 143.443 130.261 142.967 130.483C142.491 130.704 141.943 130.815 141.323 130.815ZM58.3401 156.815C57.4879 156.815 56.7188 156.627 56.0327 156.25C55.3576 155.863 54.8209 155.321 54.4225 154.623C54.0351 153.915 53.8415 153.091 53.8415 152.15C53.8415 151.209 54.0407 150.39 54.4391 149.693C54.8375 148.985 55.3797 148.443 56.0659 148.066C56.752 147.679 57.5211 147.485 58.3733 147.485C59.2254 147.485 59.9945 147.679 60.6807 148.066C61.3779 148.443 61.9201 148.985 62.3075 149.693C62.7059 150.39 62.9051 151.209 62.9051 152.15C62.9051 153.08 62.7059 153.899 62.3075 154.607C61.9091 155.315 61.3613 155.863 60.6641 156.25C59.9669 156.627 59.1922 156.815 58.3401 156.815ZM58.3401 155.802C58.9377 155.802 59.491 155.669 60.0001 155.404C60.5091 155.127 60.9186 154.718 61.2285 154.175C61.5494 153.622 61.7099 152.947 61.7099 152.15C61.7099 151.353 61.5549 150.684 61.2451 150.141C60.9352 149.588 60.5257 149.179 60.0167 148.913C59.5076 148.636 58.9543 148.498 58.3567 148.498C57.7591 148.498 57.2057 148.636 56.6967 148.913C56.1876 149.179 55.7781 149.588 55.4683 150.141C55.1695 150.684 55.0201 151.353 55.0201 152.15C55.0201 152.947 55.1695 153.622 55.4683 154.175C55.7781 154.718 56.1821 155.127 56.6801 155.404C57.1891 155.669 57.7425 155.802 58.3401 155.802ZM68.2602 148.598H66.152V156.682H64.99V148.598H63.7284V147.618H64.99V146.987C64.99 146.003 65.239 145.278 65.737 144.813C66.2461 144.348 67.065 144.116 68.1938 144.116V145.112C67.4413 145.112 66.9101 145.256 66.6002 145.543C66.3014 145.831 66.152 146.312 66.152 146.987V147.618H68.2602V148.598ZM70.9195 149.228C71.174 148.664 71.5613 148.227 72.0815 147.917C72.6127 147.607 73.2601 147.452 74.0237 147.452V148.664H73.7083C72.8672 148.664 72.1921 148.891 71.6831 149.345C71.174 149.798 70.9195 150.556 70.9195 151.619V156.682H69.7575V147.618H70.9195V149.228ZM83.6401 151.685C83.6401 152.084 83.6291 152.388 83.6069 152.598H76.0871C76.1203 153.284 76.2863 153.871 76.5851 154.358C76.8839 154.845 77.2768 155.216 77.7637 155.47C78.2507 155.714 78.7819 155.835 79.3573 155.835C80.1099 155.835 80.7407 155.653 81.2497 155.287C81.7699 154.922 82.1129 154.43 82.2789 153.81H83.5073C83.286 154.695 82.8101 155.42 82.0797 155.985C81.3604 156.538 80.4529 156.815 79.3573 156.815C78.5052 156.815 77.7416 156.627 77.0665 156.25C76.3915 155.863 75.8603 155.321 75.4729 154.623C75.0967 153.915 74.9085 153.091 74.9085 152.15C74.9085 151.209 75.0967 150.385 75.4729 149.677C75.8492 148.968 76.3749 148.426 77.0499 148.05C77.725 147.674 78.4941 147.485 79.3573 147.485C80.2205 147.485 80.9731 147.674 81.6149 148.05C82.2679 148.426 82.7659 148.935 83.1089 149.577C83.4631 150.208 83.6401 150.911 83.6401 151.685ZM82.4615 151.652C82.4726 150.977 82.3343 150.402 82.0465 149.926C81.7699 149.45 81.3881 149.09 80.9011 148.847C80.4142 148.603 79.883 148.481 79.3075 148.481C78.4443 148.481 77.7084 148.758 77.0997 149.311C76.4911 149.865 76.1535 150.645 76.0871 151.652H82.4615ZM84.9029 152.15C84.9029 151.209 85.091 150.39 85.4673 149.693C85.8436 148.985 86.3637 148.443 87.0277 148.066C87.6917 147.679 88.4498 147.485 89.3019 147.485C90.4196 147.485 91.3382 147.762 92.0575 148.315C92.7879 148.869 93.2582 149.621 93.4685 150.573H92.2235C92.0686 149.92 91.731 149.411 91.2109 149.046C90.7018 148.67 90.0655 148.481 89.3019 148.481C88.6932 148.481 88.1454 148.62 87.6585 148.896C87.1716 149.173 86.7842 149.588 86.4965 150.141C86.2198 150.684 86.0815 151.353 86.0815 152.15C86.0815 152.947 86.2198 153.622 86.4965 154.175C86.7842 154.729 87.1716 155.144 87.6585 155.42C88.1454 155.697 88.6932 155.835 89.3019 155.835C90.0655 155.835 90.7018 155.653 91.2109 155.287C91.731 154.911 92.0686 154.391 92.2235 153.727H93.4685C93.2582 154.657 92.7879 155.404 92.0575 155.968C91.3271 156.532 90.4086 156.815 89.3019 156.815C88.4498 156.815 87.6917 156.627 87.0277 156.25C86.3637 155.863 85.8436 155.321 85.4673 154.623C85.091 153.915 84.9029 153.091 84.9029 152.15ZM103.483 151.685C103.483 152.084 103.472 152.388 103.45 152.598H95.93C95.9632 153.284 96.1292 153.871 96.428 154.358C96.7268 154.845 97.1196 155.216 97.6066 155.47C98.0935 155.714 98.6247 155.835 99.2002 155.835C99.9527 155.835 100.584 155.653 101.093 155.287C101.613 154.922 101.956 154.43 102.122 153.81H103.35C103.129 154.695 102.653 155.42 101.923 155.985C101.203 156.538 100.296 156.815 99.2002 156.815C98.348 156.815 97.5844 156.627 96.9094 156.25C96.2343 155.863 95.7031 155.321 95.3158 154.623C94.9395 153.915 94.7514 153.091 94.7514 152.15C94.7514 151.209 94.9395 150.385 95.3158 149.677C95.692 148.968 96.2177 148.426 96.8928 148.05C97.5678 147.674 98.337 147.485 99.2002 147.485C100.063 147.485 100.816 147.674 101.458 148.05C102.111 148.426 102.609 148.935 102.952 149.577C103.306 150.208 103.483 150.911 103.483 151.685ZM102.304 151.652C102.315 150.977 102.177 150.402 101.889 149.926C101.613 149.45 101.231 149.09 100.744 148.847C100.257 148.603 99.7258 148.481 99.1504 148.481C98.2872 148.481 97.5512 148.758 96.9426 149.311C96.3339 149.865 95.9964 150.645 95.93 151.652H102.304ZM100.644 144.946L97.2414 146.921V146.025L100.644 143.9V144.946ZM105.858 145.908C105.626 145.908 105.426 145.825 105.26 145.659C105.094 145.493 105.011 145.289 105.011 145.045C105.011 144.802 105.094 144.603 105.26 144.448C105.426 144.282 105.626 144.199 105.858 144.199C106.09 144.199 106.29 144.282 106.456 144.448C106.622 144.603 106.705 144.802 106.705 145.045C106.705 145.289 106.622 145.493 106.456 145.659C106.29 145.825 106.09 145.908 105.858 145.908ZM106.439 147.618V156.682H105.277V147.618H106.439ZM111.859 156.815C110.819 156.815 109.967 156.577 109.303 156.101C108.65 155.614 108.285 154.955 108.207 154.125H109.402C109.458 154.635 109.696 155.05 110.116 155.37C110.548 155.68 111.123 155.835 111.843 155.835C112.473 155.835 112.966 155.686 113.32 155.387C113.685 155.088 113.868 154.718 113.868 154.275C113.868 153.965 113.768 153.71 113.569 153.511C113.37 153.312 113.115 153.157 112.805 153.046C112.507 152.925 112.097 152.797 111.577 152.665C110.902 152.488 110.354 152.311 109.934 152.133C109.513 151.956 109.153 151.696 108.855 151.353C108.567 150.999 108.423 150.529 108.423 149.942C108.423 149.5 108.556 149.09 108.821 148.714C109.087 148.338 109.463 148.039 109.95 147.817C110.437 147.596 110.99 147.485 111.61 147.485C112.584 147.485 113.37 147.734 113.967 148.232C114.565 148.719 114.886 149.394 114.93 150.258H113.768C113.735 149.726 113.525 149.3 113.137 148.979C112.761 148.647 112.241 148.481 111.577 148.481C110.99 148.481 110.515 148.62 110.149 148.896C109.784 149.173 109.602 149.516 109.602 149.926C109.602 150.28 109.707 150.573 109.917 150.805C110.138 151.027 110.409 151.204 110.73 151.337C111.051 151.458 111.483 151.597 112.025 151.752C112.678 151.929 113.198 152.1 113.586 152.266C113.973 152.432 114.305 152.676 114.582 152.997C114.858 153.318 115.002 153.744 115.013 154.275C115.013 154.762 114.88 155.199 114.615 155.586C114.349 155.963 113.978 156.261 113.503 156.483C113.027 156.704 112.479 156.815 111.859 156.815ZM119.674 144.929C120.382 144.929 121.007 145.067 121.55 145.344C122.103 145.621 122.529 146.019 122.828 146.539C123.138 147.048 123.293 147.64 123.293 148.315C123.293 149.511 122.922 150.39 122.18 150.955C121.45 151.508 120.448 151.785 119.176 151.785L119.126 153.611H118.13L118.064 150.955H118.495C119.635 150.955 120.531 150.778 121.184 150.424C121.848 150.058 122.18 149.356 122.18 148.315C122.18 147.585 121.948 147.004 121.483 146.572C121.029 146.141 120.426 145.925 119.674 145.925C118.921 145.925 118.324 146.13 117.881 146.539C117.438 146.949 117.217 147.508 117.217 148.216H116.105C116.105 147.552 116.254 146.976 116.553 146.489C116.863 145.991 117.283 145.61 117.815 145.344C118.357 145.067 118.977 144.929 119.674 144.929ZM118.628 156.765C118.385 156.765 118.18 156.682 118.014 156.516C117.859 156.35 117.781 156.145 117.781 155.902C117.781 155.658 117.859 155.459 118.014 155.304C118.18 155.138 118.385 155.055 118.628 155.055C118.86 155.055 119.054 155.138 119.209 155.304C119.375 155.459 119.458 155.658 119.458 155.902C119.458 156.145 119.375 156.35 119.209 156.516C119.054 156.682 118.86 156.765 118.628 156.765Z" fill="#2E2527"/>
<g clip-path="url(#clip1_7948_2219)">
<rect x="200.592" y="154.642" width="24" height="24" rx="6" transform="rotate(-137 200.592 154.642)" fill="#EADEC8"/>
<path d="M191.02 137.995C191.03 138.271 191.261 138.487 191.537 138.478L199.518 138.199L199.796 146.179C199.806 146.455 200.038 146.671 200.314 146.662C200.59 146.652 200.805 146.42 200.796 146.144L200.517 138.164L208.498 137.885C208.774 137.876 208.989 137.644 208.98 137.368C208.97 137.092 208.739 136.876 208.463 136.886L200.482 137.165L200.204 129.184C200.194 128.908 199.962 128.692 199.686 128.702C199.41 128.712 199.195 128.943 199.204 129.219L199.483 137.2L191.502 137.478C191.226 137.488 191.011 137.719 191.02 137.995Z" stroke="#69493C" stroke-linecap="round" stroke-linejoin="round"/>
</g>
</g>
<g opacity="0.92">
<path d="M10.6055 196.535C10.8489 196.535 11.0481 196.618 11.2031 196.784C11.3691 196.95 11.4521 197.155 11.4521 197.398C11.4521 197.642 11.3691 197.847 11.2031 198.013C11.0481 198.168 10.8489 198.245 10.6055 198.245C10.3731 198.245 10.1739 198.168 10.0079 198.013C9.85292 197.847 9.77546 197.642 9.77546 197.398C9.77546 197.155 9.85292 196.95 10.0079 196.784C10.1739 196.618 10.3731 196.535 10.6055 196.535ZM9.55966 208.371C8.85139 208.371 8.22059 208.233 7.66726 207.956C7.12499 207.679 6.69892 207.281 6.38906 206.761C6.09026 206.252 5.94086 205.66 5.94086 204.985C5.94086 203.789 6.30606 202.915 7.03646 202.362C7.77792 201.797 8.78499 201.515 10.0577 201.515L10.1075 199.689H11.1035L11.1699 202.345H10.7383C9.59839 202.345 8.69646 202.528 8.03246 202.893C7.37952 203.247 7.05306 203.944 7.05306 204.985C7.05306 205.715 7.27992 206.296 7.73366 206.728C8.19846 207.159 8.80712 207.375 9.55966 207.375C10.3122 207.375 10.9098 207.17 11.3525 206.761C11.7951 206.351 12.0165 205.793 12.0165 205.084H13.1287C13.1287 205.748 12.9737 206.324 12.6639 206.811C12.3651 207.309 11.9445 207.69 11.4023 207.956C10.8711 208.233 10.2569 208.371 9.55966 208.371ZM15.7673 195.025V199.357H20.1663V200.32H15.7673V204.719H20.6643V205.682H14.6053V194.062H20.6643V195.025H15.7673ZM25.7427 205.815C24.7024 205.815 23.8503 205.577 23.1863 205.101C22.5334 204.614 22.1682 203.955 22.0907 203.125H23.2859C23.3412 203.635 23.5792 204.05 23.9997 204.37C24.4313 204.68 25.0068 204.835 25.7261 204.835C26.3569 204.835 26.8494 204.686 27.2035 204.387C27.5687 204.088 27.7513 203.718 27.7513 203.275C27.7513 202.965 27.6517 202.71 27.4525 202.511C27.2533 202.312 26.9988 202.157 26.6889 202.046C26.3901 201.925 25.9806 201.797 25.4605 201.665C24.7854 201.488 24.2376 201.311 23.8171 201.133C23.3966 200.956 23.0369 200.696 22.7381 200.353C22.4504 199.999 22.3065 199.529 22.3065 198.942C22.3065 198.5 22.4393 198.09 22.7049 197.714C22.9705 197.338 23.3468 197.039 23.8337 196.817C24.3206 196.596 24.874 196.485 25.4937 196.485C26.4676 196.485 27.2533 196.734 27.8509 197.232C28.4485 197.719 28.7694 198.394 28.8137 199.258H27.6517C27.6185 198.726 27.4082 198.3 27.0209 197.979C26.6446 197.647 26.1245 197.481 25.4605 197.481C24.874 197.481 24.3981 197.62 24.0329 197.896C23.6677 198.173 23.4851 198.516 23.4851 198.926C23.4851 199.28 23.5902 199.573 23.8005 199.805C24.0218 200.027 24.293 200.204 24.6139 200.337C24.9348 200.458 25.3664 200.597 25.9087 200.752C26.5616 200.929 27.0818 201.1 27.4691 201.266C27.8564 201.432 28.1884 201.676 28.4651 201.997C28.7418 202.318 28.8856 202.744 28.8967 203.275C28.8967 203.762 28.7639 204.199 28.4983 204.586C28.2327 204.963 27.862 205.261 27.3861 205.483C26.9102 205.704 26.3624 205.815 25.7427 205.815ZM38.7767 196.485C39.6288 196.485 40.3703 196.685 41.0011 197.083C41.6319 197.481 42.0856 197.985 42.3623 198.594V196.618H43.5243V205.914C43.5243 206.744 43.3417 207.48 42.9765 208.122C42.6224 208.764 42.1244 209.256 41.4825 209.599C40.8406 209.954 40.1102 210.131 39.2913 210.131C38.1293 210.131 37.161 209.854 36.3863 209.301C35.6227 208.747 35.1468 207.995 34.9587 207.043H36.1041C36.3033 207.674 36.6796 208.177 37.2329 208.554C37.7973 208.93 38.4834 209.118 39.2913 209.118C39.8778 209.118 40.4035 208.991 40.8683 208.736C41.3331 208.493 41.6983 208.128 41.9639 207.641C42.2295 207.154 42.3623 206.578 42.3623 205.914V203.673C42.0746 204.293 41.6153 204.808 40.9845 205.217C40.3648 205.615 39.6288 205.815 38.7767 205.815C37.9467 205.815 37.1997 205.621 36.5357 205.234C35.8828 204.846 35.3682 204.299 34.9919 203.59C34.6267 202.882 34.4441 202.063 34.4441 201.133C34.4441 200.204 34.6267 199.39 34.9919 198.693C35.3682 197.985 35.8828 197.443 36.5357 197.066C37.1997 196.679 37.9467 196.485 38.7767 196.485ZM42.3623 201.15C42.3623 200.42 42.2129 199.778 41.9141 199.224C41.6153 198.671 41.2058 198.245 40.6857 197.946C40.1766 197.647 39.6122 197.498 38.9925 197.498C38.3506 197.498 37.7752 197.642 37.2661 197.93C36.757 198.217 36.3531 198.638 36.0543 199.191C35.7666 199.734 35.6227 200.381 35.6227 201.133C35.6227 201.875 35.7666 202.528 36.0543 203.092C36.3531 203.646 36.757 204.072 37.2661 204.37C37.7752 204.658 38.3506 204.802 38.9925 204.802C39.6122 204.802 40.1766 204.653 40.6857 204.354C41.2058 204.055 41.6153 203.629 41.9141 203.076C42.2129 202.522 42.3623 201.88 42.3623 201.15ZM47.0071 198.228C47.2616 197.664 47.6489 197.227 48.1691 196.917C48.7003 196.607 49.3477 196.452 50.1113 196.452V197.664H49.7959C48.9548 197.664 48.2797 197.891 47.7707 198.345C47.2616 198.798 47.0071 199.556 47.0071 200.619V205.682H45.8451V196.618H47.0071V198.228ZM50.9961 201.133C50.9961 200.204 51.1787 199.39 51.5439 198.693C51.9202 197.985 52.4348 197.443 53.0877 197.066C53.7517 196.679 54.4987 196.485 55.3287 196.485C56.1919 196.485 56.9334 196.685 57.5531 197.083C58.1839 197.481 58.6376 197.991 58.9143 198.61V196.618H60.0763V205.682H58.9143V203.673C58.6266 204.293 58.1673 204.808 57.5365 205.217C56.9168 205.615 56.1753 205.815 55.3121 205.815C54.4932 205.815 53.7517 205.621 53.0877 205.234C52.4348 204.846 51.9202 204.299 51.5439 203.59C51.1787 202.882 50.9961 202.063 50.9961 201.133ZM58.9143 201.15C58.9143 200.42 58.7649 199.778 58.4661 199.224C58.1673 198.671 57.7578 198.245 57.2377 197.946C56.7286 197.647 56.1642 197.498 55.5445 197.498C54.9026 197.498 54.3272 197.642 53.8181 197.93C53.309 198.217 52.9051 198.638 52.6063 199.191C52.3186 199.734 52.1747 200.381 52.1747 201.133C52.1747 201.875 52.3186 202.528 52.6063 203.092C52.9051 203.646 53.309 204.072 53.8181 204.37C54.3272 204.658 54.9026 204.802 55.5445 204.802C56.1642 204.802 56.7286 204.653 57.2377 204.354C57.7578 204.055 58.1673 203.629 58.4661 203.076C58.7649 202.522 58.9143 201.88 58.9143 201.15ZM63.9077 197.598V203.225C63.9077 203.778 64.0128 204.16 64.2231 204.37C64.4333 204.581 64.8041 204.686 65.3353 204.686H66.3977V205.682H65.1527C64.3337 205.682 63.7251 205.494 63.3267 205.117C62.9283 204.73 62.7291 204.099 62.7291 203.225V197.598H61.4675V196.618H62.7291V194.344H63.9077V196.618H66.3977V197.598H63.9077ZM75.8339 196.618V205.682H74.6719V204.088C74.4063 204.653 73.9968 205.084 73.4435 205.383C72.8901 205.682 72.2704 205.831 71.5843 205.831C70.4997 205.831 69.6144 205.499 68.9283 204.835C68.2421 204.16 67.8991 203.186 67.8991 201.914V196.618H69.0445V201.781C69.0445 202.766 69.2879 203.518 69.7749 204.038C70.2729 204.559 70.9479 204.819 71.8001 204.819C72.6743 204.819 73.3715 204.542 73.8917 203.989C74.4118 203.435 74.6719 202.622 74.6719 201.548V196.618H75.8339ZM78.7357 194.908C78.5033 194.908 78.3041 194.825 78.1381 194.659C77.9721 194.493 77.8891 194.289 77.8891 194.045C77.8891 193.802 77.9721 193.603 78.1381 193.448C78.3041 193.282 78.5033 193.199 78.7357 193.199C78.9681 193.199 79.1673 193.282 79.3333 193.448C79.4993 193.603 79.5823 193.802 79.5823 194.045C79.5823 194.289 79.4993 194.493 79.3333 194.659C79.1673 194.825 78.9681 194.908 78.7357 194.908ZM79.3167 196.618V205.682H78.1547V196.618H79.3167ZM83.1267 197.598V203.225C83.1267 203.778 83.2318 204.16 83.4421 204.37C83.6524 204.581 84.0231 204.686 84.5543 204.686H85.6167V205.682H84.3717C83.5528 205.682 82.9441 205.494 82.5457 205.117C82.1473 204.73 81.9481 204.099 81.9481 203.225V197.598H80.6865V196.618H81.9481V194.344H83.1267V196.618H85.6167V197.598H83.1267ZM91.1685 205.815C90.3164 205.815 89.5472 205.627 88.8611 205.25C88.186 204.863 87.6493 204.321 87.2509 203.623C86.8636 202.915 86.6699 202.091 86.6699 201.15C86.6699 200.209 86.8691 199.39 87.2675 198.693C87.6659 197.985 88.2082 197.443 88.8943 197.066C89.5804 196.679 90.3496 196.485 91.2017 196.485C92.0538 196.485 92.823 196.679 93.5091 197.066C94.2063 197.443 94.7486 197.985 95.1359 198.693C95.5343 199.39 95.7335 200.209 95.7335 201.15C95.7335 202.08 95.5343 202.899 95.1359 203.607C94.7375 204.315 94.1897 204.863 93.4925 205.25C92.7953 205.627 92.0206 205.815 91.1685 205.815ZM91.1685 204.802C91.7661 204.802 92.3194 204.669 92.8285 204.404C93.3376 204.127 93.747 203.718 94.0569 203.175C94.3778 202.622 94.5383 201.947 94.5383 201.15C94.5383 200.353 94.3834 199.684 94.0735 199.141C93.7636 198.588 93.3542 198.179 92.8451 197.913C92.336 197.636 91.7827 197.498 91.1851 197.498C90.5875 197.498 90.0342 197.636 89.5251 197.913C89.016 198.179 88.6066 198.588 88.2967 199.141C87.9979 199.684 87.8485 200.353 87.8485 201.15C87.8485 201.947 87.9979 202.622 88.2967 203.175C88.6066 203.718 89.0105 204.127 89.5085 204.404C90.0176 204.669 90.5709 204.802 91.1685 204.802ZM109.943 200.685C109.943 201.084 109.932 201.388 109.91 201.598H102.39C102.424 202.284 102.59 202.871 102.888 203.358C103.187 203.845 103.58 204.216 104.067 204.47C104.554 204.714 105.085 204.835 105.661 204.835C106.413 204.835 107.044 204.653 107.553 204.287C108.073 203.922 108.416 203.43 108.582 202.81H109.811C109.589 203.695 109.113 204.42 108.383 204.985C107.664 205.538 106.756 205.815 105.661 205.815C104.808 205.815 104.045 205.627 103.37 205.25C102.695 204.863 102.163 204.321 101.776 203.623C101.4 202.915 101.212 202.091 101.212 201.15C101.212 200.209 101.4 199.385 101.776 198.677C102.152 197.968 102.678 197.426 103.353 197.05C104.028 196.674 104.797 196.485 105.661 196.485C106.524 196.485 107.276 196.674 107.918 197.05C108.571 197.426 109.069 197.935 109.412 198.577C109.766 199.208 109.943 199.911 109.943 200.685ZM108.765 200.652C108.776 199.977 108.637 199.402 108.35 198.926C108.073 198.45 107.691 198.09 107.204 197.847C106.717 197.603 106.186 197.481 105.611 197.481C104.748 197.481 104.012 197.758 103.403 198.311C102.794 198.865 102.457 199.645 102.39 200.652H108.765ZM112.899 193.398V205.682H111.737V193.398H112.899ZM127.274 196.618V205.682H126.112V204.088C125.846 204.653 125.437 205.084 124.883 205.383C124.33 205.682 123.71 205.831 123.024 205.831C121.94 205.831 121.054 205.499 120.368 204.835C119.682 204.16 119.339 203.186 119.339 201.914V196.618H120.484V201.781C120.484 202.766 120.728 203.518 121.215 204.038C121.713 204.559 122.388 204.819 123.24 204.819C124.114 204.819 124.811 204.542 125.332 203.989C125.852 203.435 126.112 202.622 126.112 201.548V196.618H127.274ZM132.715 205.815C131.675 205.815 130.823 205.577 130.159 205.101C129.506 204.614 129.141 203.955 129.063 203.125H130.259C130.314 203.635 130.552 204.05 130.972 204.37C131.404 204.68 131.98 204.835 132.699 204.835C133.33 204.835 133.822 204.686 134.176 204.387C134.541 204.088 134.724 203.718 134.724 203.275C134.724 202.965 134.624 202.71 134.425 202.511C134.226 202.312 133.972 202.157 133.662 202.046C133.363 201.925 132.953 201.797 132.433 201.665C131.758 201.488 131.21 201.311 130.79 201.133C130.369 200.956 130.01 200.696 129.711 200.353C129.423 199.999 129.279 199.529 129.279 198.942C129.279 198.5 129.412 198.09 129.678 197.714C129.943 197.338 130.32 197.039 130.806 196.817C131.293 196.596 131.847 196.485 132.466 196.485C133.44 196.485 134.226 196.734 134.824 197.232C135.421 197.719 135.742 198.394 135.786 199.258H134.624C134.591 198.726 134.381 198.3 133.994 197.979C133.617 197.647 133.097 197.481 132.433 197.481C131.847 197.481 131.371 197.62 131.006 197.896C130.64 198.173 130.458 198.516 130.458 198.926C130.458 199.28 130.563 199.573 130.773 199.805C130.995 200.027 131.266 200.204 131.587 200.337C131.908 200.458 132.339 200.597 132.881 200.752C133.534 200.929 134.055 201.1 134.442 201.266C134.829 201.432 135.161 201.676 135.438 201.997C135.715 202.318 135.858 202.744 135.869 203.275C135.869 203.762 135.737 204.199 135.471 204.586C135.205 204.963 134.835 205.261 134.359 205.483C133.883 205.704 133.335 205.815 132.715 205.815ZM141.692 205.815C140.84 205.815 140.071 205.627 139.385 205.25C138.71 204.863 138.173 204.321 137.775 203.623C137.387 202.915 137.194 202.091 137.194 201.15C137.194 200.209 137.393 199.39 137.791 198.693C138.19 197.985 138.732 197.443 139.418 197.066C140.104 196.679 140.873 196.485 141.725 196.485C142.577 196.485 143.347 196.679 144.033 197.066C144.73 197.443 145.272 197.985 145.66 198.693C146.058 199.39 146.257 200.209 146.257 201.15C146.257 202.08 146.058 202.899 145.66 203.607C145.261 204.315 144.713 204.863 144.016 205.25C143.319 205.627 142.544 205.815 141.692 205.815ZM141.692 204.802C142.29 204.802 142.843 204.669 143.352 204.404C143.861 204.127 144.271 203.718 144.581 203.175C144.901 202.622 145.062 201.947 145.062 201.15C145.062 200.353 144.907 199.684 144.597 199.141C144.287 198.588 143.878 198.179 143.369 197.913C142.86 197.636 142.306 197.498 141.709 197.498C141.111 197.498 140.558 197.636 140.049 197.913C139.54 198.179 139.13 198.588 138.82 199.141C138.522 199.684 138.372 200.353 138.372 201.15C138.372 201.947 138.522 202.622 138.82 203.175C139.13 203.718 139.534 204.127 140.032 204.404C140.541 204.669 141.095 204.802 141.692 204.802ZM151.735 201.133C151.735 200.204 151.924 199.39 152.3 198.693C152.676 197.985 153.191 197.443 153.844 197.066C154.508 196.679 155.255 196.485 156.085 196.485C156.881 196.485 157.601 196.679 158.243 197.066C158.884 197.454 159.355 197.957 159.654 198.577V193.398H160.816V205.682H159.654V203.657C159.377 204.287 158.923 204.808 158.292 205.217C157.662 205.615 156.92 205.815 156.068 205.815C155.238 205.815 154.491 205.621 153.827 205.234C153.174 204.846 152.659 204.299 152.283 203.59C151.918 202.882 151.735 202.063 151.735 201.133ZM159.654 201.15C159.654 200.42 159.504 199.778 159.205 199.224C158.907 198.671 158.497 198.245 157.977 197.946C157.468 197.647 156.904 197.498 156.284 197.498C155.642 197.498 155.066 197.642 154.557 197.93C154.048 198.217 153.644 198.638 153.346 199.191C153.058 199.734 152.914 200.381 152.914 201.133C152.914 201.875 153.058 202.528 153.346 203.092C153.644 203.646 154.048 204.072 154.557 204.37C155.066 204.658 155.642 204.802 156.284 204.802C156.904 204.802 157.468 204.653 157.977 204.354C158.497 204.055 158.907 203.629 159.205 203.076C159.504 202.522 159.654 201.88 159.654 201.15ZM171.337 200.685C171.337 201.084 171.326 201.388 171.304 201.598H163.784C163.817 202.284 163.983 202.871 164.282 203.358C164.581 203.845 164.973 204.216 165.46 204.47C165.947 204.714 166.479 204.835 167.054 204.835C167.807 204.835 168.437 204.653 168.946 204.287C169.467 203.922 169.81 203.43 169.976 202.81H171.204C170.983 203.695 170.507 204.42 169.776 204.985C169.057 205.538 168.15 205.815 167.054 205.815C166.202 205.815 165.438 205.627 164.763 205.25C164.088 204.863 163.557 204.321 163.17 203.623C162.793 202.915 162.605 202.091 162.605 201.15C162.605 200.209 162.793 199.385 163.17 198.677C163.546 197.968 164.072 197.426 164.747 197.05C165.422 196.674 166.191 196.485 167.054 196.485C167.917 196.485 168.67 196.674 169.312 197.05C169.965 197.426 170.463 197.935 170.806 198.577C171.16 199.208 171.337 199.911 171.337 200.685ZM170.158 200.652C170.169 199.977 170.031 199.402 169.743 198.926C169.467 198.45 169.085 198.09 168.598 197.847C168.111 197.603 167.58 197.481 167.004 197.481C166.141 197.481 165.405 197.758 164.796 198.311C164.188 198.865 163.85 199.645 163.784 200.652H170.158ZM61.2007 219.398V231.682H60.0387V219.398H61.2007ZM62.9689 227.133C62.9689 226.204 63.1515 225.39 63.5167 224.693C63.8929 223.985 64.4075 223.443 65.0605 223.066C65.7245 222.679 66.4715 222.485 67.3015 222.485C68.1647 222.485 68.9061 222.685 69.5259 223.083C70.1567 223.481 70.6104 223.991 70.8871 224.61V222.618H72.0491V231.682H70.8871V229.673C70.5993 230.293 70.1401 230.808 69.5093 231.217C68.8895 231.615 68.1481 231.815 67.2849 231.815C66.4659 231.815 65.7245 231.621 65.0605 231.234C64.4075 230.846 63.8929 230.299 63.5167 229.59C63.1515 228.882 62.9689 228.063 62.9689 227.133ZM70.8871 227.15C70.8871 226.42 70.7377 225.778 70.4389 225.224C70.1401 224.671 69.7306 224.245 69.2105 223.946C68.7014 223.647 68.137 223.498 67.5173 223.498C66.8754 223.498 66.2999 223.642 65.7909 223.93C65.2818 224.217 64.8779 224.638 64.5791 225.191C64.2913 225.734 64.1475 226.381 64.1475 227.133C64.1475 227.875 64.2913 228.528 64.5791 229.092C64.8779 229.646 65.2818 230.072 65.7909 230.37C66.2999 230.658 66.8754 230.802 67.5173 230.802C68.137 230.802 68.7014 230.653 69.2105 230.354C69.7306 230.055 70.1401 229.629 70.4389 229.076C70.7377 228.522 70.8871 227.88 70.8871 227.15ZM78.0619 227.133C78.0619 226.204 78.2445 225.39 78.6097 224.693C78.986 223.985 79.5006 223.443 80.1535 223.066C80.8175 222.679 81.5645 222.485 82.3945 222.485C83.2577 222.485 83.9992 222.685 84.6189 223.083C85.2497 223.481 85.7034 223.991 85.9801 224.61V222.618H87.1421V231.682H85.9801V229.673C85.6924 230.293 85.2331 230.808 84.6023 231.217C83.9826 231.615 83.2411 231.815 82.3779 231.815C81.559 231.815 80.8175 231.621 80.1535 231.234C79.5006 230.846 78.986 230.299 78.6097 229.59C78.2445 228.882 78.0619 228.063 78.0619 227.133ZM85.9801 227.15C85.9801 226.42 85.8307 225.778 85.5319 225.224C85.2331 224.671 84.8236 224.245 84.3035 223.946C83.7944 223.647 83.23 223.498 82.6103 223.498C81.9684 223.498 81.393 223.642 80.8839 223.93C80.3748 224.217 79.9709 224.638 79.6721 225.191C79.3844 225.734 79.2405 226.381 79.2405 227.133C79.2405 227.875 79.3844 228.528 79.6721 229.092C79.9709 229.646 80.3748 230.072 80.8839 230.37C81.393 230.658 81.9684 230.802 82.6103 230.802C83.23 230.802 83.7944 230.653 84.3035 230.354C84.8236 230.055 85.2331 229.629 85.5319 229.076C85.8307 228.522 85.9801 227.88 85.9801 227.15ZM90.6082 224.61C90.896 224.002 91.3497 223.498 91.9694 223.1C92.6002 222.69 93.3472 222.485 94.2104 222.485C95.0294 222.485 95.7653 222.679 96.4182 223.066C97.0822 223.443 97.5968 223.985 97.962 224.693C98.3383 225.39 98.5264 226.204 98.5264 227.133C98.5264 228.063 98.3383 228.882 97.962 229.59C97.5968 230.299 97.0822 230.846 96.4182 231.234C95.7653 231.621 95.0294 231.815 94.2104 231.815C93.3583 231.815 92.6168 231.615 91.986 231.217C91.3552 230.808 90.896 230.299 90.6082 229.69V235.965H89.4628V222.618H90.6082V224.61ZM97.3478 227.133C97.3478 226.381 97.1984 225.734 96.8996 225.191C96.6119 224.638 96.2135 224.217 95.7044 223.93C95.1954 223.642 94.6199 223.498 93.978 223.498C93.3583 223.498 92.7884 223.647 92.2682 223.946C91.7592 224.245 91.3552 224.671 91.0564 225.224C90.7576 225.778 90.6082 226.42 90.6082 227.15C90.6082 227.88 90.7576 228.522 91.0564 229.076C91.3552 229.629 91.7592 230.055 92.2682 230.354C92.7884 230.653 93.3583 230.802 93.978 230.802C94.6199 230.802 95.1954 230.658 95.7044 230.37C96.2135 230.072 96.6119 229.646 96.8996 229.092C97.1984 228.528 97.3478 227.875 97.3478 227.133ZM101.478 224.61C101.766 224.002 102.219 223.498 102.839 223.1C103.47 222.69 104.217 222.485 105.08 222.485C105.899 222.485 106.635 222.679 107.288 223.066C107.952 223.443 108.467 223.985 108.832 224.693C109.208 225.39 109.396 226.204 109.396 227.133C109.396 228.063 109.208 228.882 108.832 229.59C108.467 230.299 107.952 230.846 107.288 231.234C106.635 231.621 105.899 231.815 105.08 231.815C104.228 231.815 103.487 231.615 102.856 231.217C102.225 230.808 101.766 230.299 101.478 229.69V235.965H100.333V222.618H101.478V224.61ZM108.218 227.133C108.218 226.381 108.068 225.734 107.769 225.191C107.482 224.638 107.083 224.217 106.574 223.93C106.065 223.642 105.49 223.498 104.848 223.498C104.228 223.498 103.658 223.647 103.138 223.946C102.629 224.245 102.225 224.671 101.926 225.224C101.627 225.778 101.478 226.42 101.478 227.15C101.478 227.88 101.627 228.522 101.926 229.076C102.225 229.629 102.629 230.055 103.138 230.354C103.658 230.653 104.228 230.802 104.848 230.802C105.49 230.802 106.065 230.658 106.574 230.37C107.083 230.072 107.482 229.646 107.769 229.092C108.068 228.528 108.218 227.875 108.218 227.133ZM114.008 219.929C114.716 219.929 115.341 220.067 115.884 220.344C116.437 220.621 116.863 221.019 117.162 221.539C117.472 222.048 117.627 222.64 117.627 223.315C117.627 224.511 117.256 225.39 116.514 225.955C115.784 226.508 114.782 226.785 113.51 226.785L113.46 228.611H112.464L112.398 225.955H112.829C113.969 225.955 114.865 225.778 115.518 225.424C116.182 225.058 116.514 224.356 116.514 223.315C116.514 222.585 116.282 222.004 115.817 221.572C115.363 221.141 114.76 220.925 114.008 220.925C113.255 220.925 112.658 221.13 112.215 221.539C111.772 221.949 111.551 222.508 111.551 223.216H110.439C110.439 222.552 110.588 221.976 110.887 221.489C111.197 220.991 111.617 220.61 112.149 220.344C112.691 220.067 113.311 219.929 114.008 219.929ZM112.962 231.765C112.718 231.765 112.514 231.682 112.348 231.516C112.193 231.35 112.115 231.145 112.115 230.902C112.115 230.658 112.193 230.459 112.348 230.304C112.514 230.138 112.718 230.055 112.962 230.055C113.194 230.055 113.388 230.138 113.543 230.304C113.709 230.459 113.792 230.658 113.792 230.902C113.792 231.145 113.709 231.35 113.543 231.516C113.388 231.682 113.194 231.765 112.962 231.765Z" fill="#2E2527"/>
<g clip-path="url(#clip2_7948_2219)">
<rect x="200.592" y="229.642" width="24" height="24" rx="6" transform="rotate(-137 200.592 229.642)" fill="#EADEC8"/>
<path d="M191.02 212.995C191.03 213.271 191.261 213.487 191.537 213.478L199.518 213.199L199.796 221.179C199.806 221.455 200.038 221.671 200.314 221.662C200.59 221.652 200.805 221.42 200.796 221.144L200.517 213.164L208.498 212.885C208.774 212.876 208.989 212.644 208.98 212.368C208.97 212.092 208.739 211.876 208.463 211.886L200.482 212.165L200.204 204.184C200.194 203.908 199.962 203.692 199.686 203.702C199.41 203.712 199.195 203.943 199.204 204.219L199.483 212.2L191.502 212.478C191.226 212.488 191.011 212.719 191.02 212.995Z" stroke="#69493C" stroke-linecap="round" stroke-linejoin="round"/>
</g>
</g>
<g opacity="0.92">
<path d="M8.70099 271.535C8.94446 271.535 9.14366 271.618 9.29859 271.784C9.46459 271.95 9.54759 272.155 9.54759 272.398C9.54759 272.642 9.46459 272.847 9.29859 273.013C9.14366 273.168 8.94446 273.245 8.70099 273.245C8.46859 273.245 8.26939 273.168 8.10339 273.013C7.94846 272.847 7.87099 272.642 7.87099 272.398C7.87099 272.155 7.94846 271.95 8.10339 271.784C8.26939 271.618 8.46859 271.535 8.70099 271.535ZM7.65519 283.371C6.94692 283.371 6.31612 283.233 5.76279 282.956C5.22052 282.679 4.79446 282.281 4.48459 281.761C4.18579 281.252 4.03639 280.66 4.03639 279.985C4.03639 278.789 4.40159 277.915 5.13199 277.362C5.87346 276.797 6.88052 276.515 8.15319 276.515L8.20299 274.689H9.19899L9.26539 277.345H8.83379C7.69392 277.345 6.79199 277.528 6.12799 277.893C5.47506 278.247 5.14859 278.944 5.14859 279.985C5.14859 280.715 5.37546 281.296 5.82919 281.728C6.29399 282.159 6.90266 282.375 7.65519 282.375C8.40772 282.375 9.00532 282.17 9.44799 281.761C9.89066 281.351 10.112 280.793 10.112 280.084H11.2242C11.2242 280.748 11.0693 281.324 10.7594 281.811C10.4606 282.309 10.0401 282.69 9.49779 282.956C8.96659 283.233 8.35239 283.371 7.65519 283.371ZM12.1696 274.872C12.1696 273.732 12.4186 272.714 12.9166 271.817C13.4146 270.91 14.0952 270.207 14.9584 269.709C15.8216 269.2 16.7844 268.946 17.8468 268.946C19.1416 268.946 20.2483 269.256 21.1668 269.875C22.0964 270.484 22.7715 271.347 23.192 272.465H21.8308C21.4988 271.679 20.9897 271.065 20.3036 270.622C19.6285 270.18 18.8096 269.958 17.8468 269.958C16.9947 269.958 16.2255 270.157 15.5394 270.556C14.8643 270.954 14.3331 271.53 13.9458 272.282C13.5585 273.024 13.3648 273.887 13.3648 274.872C13.3648 275.857 13.5585 276.72 13.9458 277.461C14.3331 278.203 14.8643 278.773 15.5394 279.171C16.2255 279.57 16.9947 279.769 17.8468 279.769C18.8096 279.769 19.6285 279.553 20.3036 279.121C20.9897 278.679 21.4988 278.07 21.8308 277.295H23.192C22.7715 278.402 22.0964 279.26 21.1668 279.868C20.2372 280.477 19.1305 280.781 17.8468 280.781C16.7844 280.781 15.8216 280.532 14.9584 280.034C14.0952 279.525 13.4146 278.823 12.9166 277.926C12.4186 277.03 12.1696 276.012 12.1696 274.872ZM29.1429 280.815C28.2907 280.815 27.5216 280.627 26.8355 280.25C26.1604 279.863 25.6237 279.321 25.2253 278.623C24.8379 277.915 24.6443 277.091 24.6443 276.15C24.6443 275.209 24.8435 274.39 25.2419 273.693C25.6403 272.985 26.1825 272.443 26.8687 272.066C27.5548 271.679 28.3239 271.485 29.1761 271.485C30.0282 271.485 30.7973 271.679 31.4835 272.066C32.1807 272.443 32.7229 272.985 33.1103 273.693C33.5087 274.39 33.7079 275.209 33.7079 276.15C33.7079 277.08 33.5087 277.899 33.1103 278.607C32.7119 279.315 32.1641 279.863 31.4669 280.25C30.7697 280.627 29.995 280.815 29.1429 280.815ZM29.1429 279.802C29.7405 279.802 30.2938 279.669 30.8029 279.404C31.3119 279.127 31.7214 278.718 32.0313 278.175C32.3522 277.622 32.5127 276.947 32.5127 276.15C32.5127 275.353 32.3577 274.684 32.0479 274.141C31.738 273.588 31.3285 273.179 30.8195 272.913C30.3104 272.636 29.7571 272.498 29.1595 272.498C28.5619 272.498 28.0085 272.636 27.4995 272.913C26.9904 273.179 26.5809 273.588 26.2711 274.141C25.9723 274.684 25.8229 275.353 25.8229 276.15C25.8229 276.947 25.9723 277.622 26.2711 278.175C26.5809 278.718 26.9849 279.127 27.4829 279.404C27.9919 279.669 28.5453 279.802 29.1429 279.802ZM30.7365 268.863L27.3335 270.838V269.942L30.7365 267.817V268.863ZM46.284 271.452C47.3464 271.452 48.2096 271.79 48.8736 272.465C49.5487 273.129 49.8862 274.097 49.8862 275.37V280.682H48.7408V275.503C48.7408 274.518 48.5029 273.765 48.027 273.245C47.5512 272.725 46.9038 272.465 46.0848 272.465C45.2327 272.465 44.5521 272.747 44.043 273.311C43.534 273.876 43.2794 274.695 43.2794 275.768V280.682H42.134V275.503C42.134 274.518 41.8961 273.765 41.4202 273.245C40.9444 272.725 40.2914 272.465 39.4614 272.465C38.6093 272.465 37.9287 272.747 37.4196 273.311C36.9106 273.876 36.656 274.695 36.656 275.768V280.682H35.494V271.618H36.656V273.179C36.9438 272.614 37.3532 272.188 37.8844 271.9C38.4156 271.602 39.0077 271.452 39.6606 271.452C40.4464 271.452 41.1325 271.64 41.719 272.017C42.3166 272.393 42.7482 272.946 43.0138 273.677C43.2573 272.957 43.6723 272.41 44.2588 272.033C44.8564 271.646 45.5315 271.452 46.284 271.452ZM56.1023 280.815C55.2502 280.815 54.481 280.627 53.7949 280.25C53.1198 279.863 52.5831 279.321 52.1847 278.623C51.7974 277.915 51.6037 277.091 51.6037 276.15C51.6037 275.209 51.8029 274.39 52.2013 273.693C52.5997 272.985 53.142 272.443 53.8281 272.066C54.5142 271.679 55.2834 271.485 56.1355 271.485C56.9876 271.485 57.7568 271.679 58.4429 272.066C59.1401 272.443 59.6824 272.985 60.0697 273.693C60.4681 274.39 60.6673 275.209 60.6673 276.15C60.6673 277.08 60.4681 277.899 60.0697 278.607C59.6713 279.315 59.1235 279.863 58.4263 280.25C57.7291 280.627 56.9544 280.815 56.1023 280.815ZM56.1023 279.802C56.6999 279.802 57.2532 279.669 57.7623 279.404C58.2714 279.127 58.6808 278.718 58.9907 278.175C59.3116 277.622 59.4721 276.947 59.4721 276.15C59.4721 275.353 59.3172 274.684 59.0073 274.141C58.6974 273.588 58.288 273.179 57.7789 272.913C57.2698 272.636 56.7165 272.498 56.1189 272.498C55.5213 272.498 54.968 272.636 54.4589 272.913C53.9498 273.179 53.5404 273.588 53.2305 274.141C52.9317 274.684 52.7823 275.353 52.7823 276.15C52.7823 276.947 52.9317 277.622 53.2305 278.175C53.5404 278.718 53.9443 279.127 54.4423 279.404C54.9514 279.669 55.5047 279.802 56.1023 279.802ZM69.7976 280.815C68.7573 280.815 67.9052 280.577 67.2412 280.101C66.5882 279.614 66.223 278.955 66.1456 278.125H67.3408C67.3961 278.635 67.634 279.05 68.0546 279.37C68.4862 279.68 69.0616 279.835 69.781 279.835C70.4118 279.835 70.9042 279.686 71.2584 279.387C71.6236 279.088 71.8062 278.718 71.8062 278.275C71.8062 277.965 71.7066 277.71 71.5074 277.511C71.3082 277.312 71.0536 277.157 70.7438 277.046C70.445 276.925 70.0355 276.797 69.5154 276.665C68.8403 276.488 68.2925 276.311 67.872 276.133C67.4514 275.956 67.0918 275.696 66.793 275.353C66.5052 274.999 66.3614 274.529 66.3614 273.942C66.3614 273.5 66.4942 273.09 66.7598 272.714C67.0254 272.338 67.4016 272.039 67.8886 271.817C68.3755 271.596 68.9288 271.485 69.5486 271.485C70.5224 271.485 71.3082 271.734 71.9058 272.232C72.5034 272.719 72.8243 273.394 72.8686 274.258H71.7066C71.6734 273.726 71.4631 273.3 71.0758 272.979C70.6995 272.647 70.1794 272.481 69.5154 272.481C68.9288 272.481 68.453 272.62 68.0878 272.896C67.7226 273.173 67.54 273.516 67.54 273.926C67.54 274.28 67.6451 274.573 67.8554 274.805C68.0767 275.027 68.3478 275.204 68.6688 275.337C68.9897 275.458 69.4213 275.597 69.9636 275.752C70.6165 275.929 71.1366 276.1 71.524 276.266C71.9113 276.432 72.2433 276.676 72.52 276.997C72.7966 277.318 72.9405 277.744 72.9516 278.275C72.9516 278.762 72.8188 279.199 72.5532 279.586C72.2876 279.963 71.9168 280.261 71.441 280.483C70.9651 280.704 70.4173 280.815 69.7976 280.815ZM83.0073 275.685C83.0073 276.084 82.9962 276.388 82.9741 276.598H75.4543C75.4875 277.284 75.6535 277.871 75.9523 278.358C76.2511 278.845 76.6439 279.216 77.1309 279.47C77.6178 279.714 78.149 279.835 78.7245 279.835C79.477 279.835 80.1078 279.653 80.6169 279.287C81.137 278.922 81.4801 278.43 81.6461 277.81H82.8745C82.6531 278.695 82.1773 279.42 81.4469 279.985C80.7275 280.538 79.8201 280.815 78.7245 280.815C77.8723 280.815 77.1087 280.627 76.4337 280.25C75.7586 279.863 75.2274 279.321 74.8401 278.623C74.4638 277.915 74.2757 277.091 74.2757 276.15C74.2757 275.209 74.4638 274.385 74.8401 273.677C75.2163 272.968 75.742 272.426 76.4171 272.05C77.0921 271.674 77.8613 271.485 78.7245 271.485C79.5877 271.485 80.3402 271.674 80.9821 272.05C81.635 272.426 82.133 272.935 82.4761 273.577C82.8302 274.208 83.0073 274.911 83.0073 275.685ZM81.8287 275.652C81.8397 274.977 81.7014 274.402 81.4137 273.926C81.137 273.45 80.7552 273.09 80.2683 272.847C79.7813 272.603 79.2501 272.481 78.6747 272.481C77.8115 272.481 77.0755 272.758 76.4669 273.311C75.8582 273.865 75.5207 274.645 75.4543 275.652H81.8287ZM89.6055 269.908C89.3731 269.908 89.1739 269.825 89.0079 269.659C88.8419 269.493 88.7589 269.289 88.7589 269.045C88.7589 268.802 88.8419 268.603 89.0079 268.448C89.1739 268.282 89.3731 268.199 89.6055 268.199C89.8379 268.199 90.0371 268.282 90.2031 268.448C90.3691 268.603 90.4521 268.802 90.4521 269.045C90.4521 269.289 90.3691 269.493 90.2031 269.659C90.0371 269.825 89.8379 269.908 89.6055 269.908ZM90.1865 271.618V280.682H89.0245V271.618H90.1865ZM96.7355 271.452C97.82 271.452 98.7053 271.79 99.3915 272.465C100.078 273.129 100.421 274.097 100.421 275.37V280.682H99.2753V275.503C99.2753 274.518 99.0263 273.765 98.5283 273.245C98.0413 272.725 97.3718 272.465 96.5197 272.465C95.6454 272.465 94.9482 272.742 94.4281 273.295C93.9079 273.848 93.6479 274.662 93.6479 275.735V280.682H92.4859V271.618H93.6479V273.162C93.9356 272.609 94.3506 272.188 94.8929 271.9C95.4351 271.602 96.0493 271.452 96.7355 271.452ZM105.779 280.815C104.739 280.815 103.887 280.577 103.223 280.101C102.57 279.614 102.205 278.955 102.127 278.125H103.323C103.378 278.635 103.616 279.05 104.036 279.37C104.468 279.68 105.043 279.835 105.763 279.835C106.394 279.835 106.886 279.686 107.24 279.387C107.605 279.088 107.788 278.718 107.788 278.275C107.788 277.965 107.688 277.71 107.489 277.511C107.29 277.312 107.035 277.157 106.726 277.046C106.427 276.925 106.017 276.797 105.497 276.665C104.822 276.488 104.274 276.311 103.854 276.133C103.433 275.956 103.074 275.696 102.775 275.353C102.487 274.999 102.343 274.529 102.343 273.942C102.343 273.5 102.476 273.09 102.742 272.714C103.007 272.338 103.383 272.039 103.87 271.817C104.357 271.596 104.911 271.485 105.53 271.485C106.504 271.485 107.29 271.734 107.888 272.232C108.485 272.719 108.806 273.394 108.85 274.258H107.688C107.655 273.726 107.445 273.3 107.058 272.979C106.681 272.647 106.161 272.481 105.497 272.481C104.911 272.481 104.435 272.62 104.07 272.896C103.704 273.173 103.522 273.516 103.522 273.926C103.522 274.28 103.627 274.573 103.837 274.805C104.058 275.027 104.33 275.204 104.651 275.337C104.971 275.458 105.403 275.597 105.945 275.752C106.598 275.929 107.118 276.1 107.506 276.266C107.893 276.432 108.225 276.676 108.502 276.997C108.778 277.318 108.922 277.744 108.933 278.275C108.933 278.762 108.801 279.199 108.535 279.586C108.269 279.963 107.899 280.261 107.423 280.483C106.947 280.704 106.399 280.815 105.779 280.815ZM110.257 276.15C110.257 275.209 110.446 274.39 110.822 273.693C111.198 272.985 111.718 272.443 112.382 272.066C113.046 271.679 113.804 271.485 114.656 271.485C115.774 271.485 116.693 271.762 117.412 272.315C118.142 272.869 118.613 273.621 118.823 274.573H117.578C117.423 273.92 117.086 273.411 116.565 273.046C116.056 272.67 115.42 272.481 114.656 272.481C114.048 272.481 113.5 272.62 113.013 272.896C112.526 273.173 112.139 273.588 111.851 274.141C111.574 274.684 111.436 275.353 111.436 276.15C111.436 276.947 111.574 277.622 111.851 278.175C112.139 278.729 112.526 279.144 113.013 279.42C113.5 279.697 114.048 279.835 114.656 279.835C115.42 279.835 116.056 279.653 116.565 279.287C117.086 278.911 117.423 278.391 117.578 277.727H118.823C118.613 278.657 118.142 279.404 117.412 279.968C116.682 280.532 115.763 280.815 114.656 280.815C113.804 280.815 113.046 280.627 112.382 280.25C111.718 279.863 111.198 279.321 110.822 278.623C110.446 277.915 110.257 277.091 110.257 276.15ZM121.799 273.228C122.054 272.664 122.441 272.227 122.961 271.917C123.492 271.607 124.14 271.452 124.903 271.452V272.664H124.588C123.747 272.664 123.072 272.891 122.563 273.345C122.054 273.798 121.799 274.556 121.799 275.619V280.682H120.637V271.618H121.799V273.228ZM126.9 269.908C126.668 269.908 126.469 269.825 126.303 269.659C126.137 269.493 126.054 269.289 126.054 269.045C126.054 268.802 126.137 268.603 126.303 268.448C126.469 268.282 126.668 268.199 126.9 268.199C127.133 268.199 127.332 268.282 127.498 268.448C127.664 268.603 127.747 268.802 127.747 269.045C127.747 269.289 127.664 269.493 127.498 269.659C127.332 269.825 127.133 269.908 126.9 269.908ZM127.481 271.618V280.682H126.319V271.618H127.481ZM130.926 273.627C131.225 272.996 131.684 272.481 132.304 272.083C132.935 271.685 133.676 271.485 134.528 271.485C135.358 271.485 136.1 271.679 136.753 272.066C137.406 272.443 137.915 272.985 138.28 273.693C138.656 274.39 138.844 275.204 138.844 276.133C138.844 277.063 138.656 277.882 138.28 278.59C137.915 279.299 137.4 279.846 136.736 280.234C136.083 280.621 135.347 280.815 134.528 280.815C133.665 280.815 132.918 280.621 132.287 280.234C131.668 279.835 131.214 279.321 130.926 278.69V280.682H129.781V268.398H130.926V273.627ZM137.666 276.133C137.666 275.381 137.516 274.734 137.218 274.191C136.93 273.638 136.531 273.217 136.022 272.93C135.513 272.642 134.938 272.498 134.296 272.498C133.676 272.498 133.106 272.647 132.586 272.946C132.077 273.245 131.673 273.671 131.374 274.224C131.076 274.778 130.926 275.42 130.926 276.15C130.926 276.88 131.076 277.522 131.374 278.076C131.673 278.629 132.077 279.055 132.586 279.354C133.106 279.653 133.676 279.802 134.296 279.802C134.938 279.802 135.513 279.658 136.022 279.37C136.531 279.072 136.93 278.646 137.218 278.092C137.516 277.528 137.666 276.875 137.666 276.133ZM148.851 275.685C148.851 276.084 148.84 276.388 148.818 276.598H141.298C141.331 277.284 141.497 277.871 141.796 278.358C142.095 278.845 142.488 279.216 142.975 279.47C143.461 279.714 143.993 279.835 144.568 279.835C145.321 279.835 145.951 279.653 146.461 279.287C146.981 278.922 147.324 278.43 147.49 277.81H148.718C148.497 278.695 148.021 279.42 147.291 279.985C146.571 280.538 145.664 280.815 144.568 280.815C143.716 280.815 142.952 280.627 142.277 280.25C141.602 279.863 141.071 279.321 140.684 278.623C140.307 277.915 140.119 277.091 140.119 276.15C140.119 275.209 140.307 274.385 140.684 273.677C141.06 272.968 141.586 272.426 142.261 272.05C142.936 271.674 143.705 271.485 144.568 271.485C145.431 271.485 146.184 271.674 146.826 272.05C147.479 272.426 147.977 272.935 148.32 273.577C148.674 274.208 148.851 274.911 148.851 275.685ZM147.672 275.652C147.683 274.977 147.545 274.402 147.257 273.926C146.981 273.45 146.599 273.09 146.112 272.847C145.625 272.603 145.094 272.481 144.518 272.481C143.655 272.481 142.919 272.758 142.311 273.311C141.702 273.865 141.364 274.645 141.298 275.652H147.672ZM163.069 275.685C163.069 276.084 163.057 276.388 163.035 276.598H155.516C155.549 277.284 155.715 277.871 156.014 278.358C156.312 278.845 156.705 279.216 157.192 279.47C157.679 279.714 158.21 279.835 158.786 279.835C159.538 279.835 160.169 279.653 160.678 279.287C161.198 278.922 161.541 278.43 161.707 277.81H162.936C162.714 278.695 162.239 279.42 161.508 279.985C160.789 280.538 159.881 280.815 158.786 280.815C157.934 280.815 157.17 280.627 156.495 280.25C155.82 279.863 155.289 279.321 154.901 278.623C154.525 277.915 154.337 277.091 154.337 276.15C154.337 275.209 154.525 274.385 154.901 273.677C155.278 272.968 155.803 272.426 156.478 272.05C157.153 271.674 157.923 271.485 158.786 271.485C159.649 271.485 160.401 271.674 161.043 272.05C161.696 272.426 162.194 272.935 162.537 273.577C162.891 274.208 163.069 274.911 163.069 275.685ZM161.89 275.652C161.901 274.977 161.763 274.402 161.475 273.926C161.198 273.45 160.816 273.09 160.33 272.847C159.843 272.603 159.311 272.481 158.736 272.481C157.873 272.481 157.137 272.758 156.528 273.311C155.919 273.865 155.582 274.645 155.516 275.652H161.89ZM169.112 271.452C170.197 271.452 171.082 271.79 171.768 272.465C172.454 273.129 172.797 274.097 172.797 275.37V280.682H171.652V275.503C171.652 274.518 171.403 273.765 170.905 273.245C170.418 272.725 169.748 272.465 168.896 272.465C168.022 272.465 167.325 272.742 166.805 273.295C166.285 273.848 166.025 274.662 166.025 275.735V280.682H164.863V271.618H166.025V273.162C166.312 272.609 166.727 272.188 167.27 271.9C167.812 271.602 168.426 271.452 169.112 271.452ZM30.8934 294.398V306.682H29.7314V294.398H30.8934ZM32.6615 302.133C32.6615 301.204 32.8441 300.39 33.2093 299.693C33.5856 298.985 34.1002 298.443 34.7531 298.066C35.4171 297.679 36.1641 297.485 36.9941 297.485C37.8573 297.485 38.5988 297.685 39.2185 298.083C39.8493 298.481 40.3031 298.991 40.5797 299.61V297.618H41.7417V306.682H40.5797V304.673C40.292 305.293 39.8327 305.808 39.2019 306.217C38.5822 306.615 37.8407 306.815 36.9775 306.815C36.1586 306.815 35.4171 306.621 34.7531 306.234C34.1002 305.846 33.5856 305.299 33.2093 304.59C32.8441 303.882 32.6615 303.063 32.6615 302.133ZM40.5797 302.15C40.5797 301.42 40.4303 300.778 40.1315 300.224C39.8327 299.671 39.4233 299.245 38.9031 298.946C38.3941 298.647 37.8297 298.498 37.2099 298.498C36.5681 298.498 35.9926 298.642 35.4835 298.93C34.9745 299.217 34.5705 299.638 34.2717 300.191C33.984 300.734 33.8401 301.381 33.8401 302.133C33.8401 302.875 33.984 303.528 34.2717 304.092C34.5705 304.646 34.9745 305.072 35.4835 305.37C35.9926 305.658 36.5681 305.802 37.2099 305.802C37.8297 305.802 38.3941 305.653 38.9031 305.354C39.4233 305.055 39.8327 304.629 40.1315 304.076C40.4303 303.522 40.5797 302.88 40.5797 302.15ZM47.7546 302.15C47.7546 301.209 47.9427 300.39 48.319 299.693C48.6952 298.985 49.2154 298.443 49.8794 298.066C50.5434 297.679 51.3014 297.485 52.1536 297.485C53.2713 297.485 54.1898 297.762 54.9092 298.315C55.6396 298.869 56.1099 299.621 56.3202 300.573H55.0752C54.9202 299.92 54.5827 299.411 54.0626 299.046C53.5535 298.67 52.9172 298.481 52.1536 298.481C51.5449 298.481 50.9971 298.62 50.5102 298.896C50.0232 299.173 49.6359 299.588 49.3482 300.141C49.0715 300.684 48.9332 301.353 48.9332 302.15C48.9332 302.947 49.0715 303.622 49.3482 304.175C49.6359 304.729 50.0232 305.144 50.5102 305.42C50.9971 305.697 51.5449 305.835 52.1536 305.835C52.9172 305.835 53.5535 305.653 54.0626 305.287C54.5827 304.911 54.9202 304.391 55.0752 303.727H56.3202C56.1099 304.657 55.6396 305.404 54.9092 305.968C54.1788 306.532 53.2602 306.815 52.1536 306.815C51.3014 306.815 50.5434 306.627 49.8794 306.25C49.2154 305.863 48.6952 305.321 48.319 304.623C47.9427 303.915 47.7546 303.091 47.7546 302.15ZM62.1016 306.815C61.2495 306.815 60.4804 306.627 59.7942 306.25C59.1192 305.863 58.5824 305.321 58.184 304.623C57.7967 303.915 57.603 303.091 57.603 302.15C57.603 301.209 57.8022 300.39 58.2006 299.693C58.599 298.985 59.1413 298.443 59.8274 298.066C60.5136 297.679 61.2827 297.485 62.1348 297.485C62.987 297.485 63.7561 297.679 64.4422 298.066C65.1394 298.443 65.6817 298.985 66.069 299.693C66.4674 300.39 66.6666 301.209 66.6666 302.15C66.6666 303.08 66.4674 303.899 66.069 304.607C65.6706 305.315 65.1228 305.863 64.4256 306.25C63.7284 306.627 62.9538 306.815 62.1016 306.815ZM62.1016 305.802C62.6992 305.802 63.2526 305.669 63.7616 305.404C64.2707 305.127 64.6802 304.718 64.99 304.175C65.311 303.622 65.4714 302.947 65.4714 302.15C65.4714 301.353 65.3165 300.684 65.0066 300.141C64.6968 299.588 64.2873 299.179 63.7782 298.913C63.2692 298.636 62.7158 298.498 62.1182 298.498C61.5206 298.498 60.9673 298.636 60.4582 298.913C59.9492 299.179 59.5397 299.588 59.2298 300.141C58.931 300.684 58.7816 301.353 58.7816 302.15C58.7816 302.947 58.931 303.622 59.2298 304.175C59.5397 304.718 59.9436 305.127 60.4416 305.404C60.9507 305.669 61.504 305.802 62.1016 305.802ZM79.2428 297.452C80.3052 297.452 81.1684 297.79 81.8324 298.465C82.5075 299.129 82.845 300.097 82.845 301.37V306.682H81.6996V301.503C81.6996 300.518 81.4617 299.765 80.9858 299.245C80.51 298.725 79.8626 298.465 79.0436 298.465C78.1915 298.465 77.5109 298.747 77.0018 299.311C76.4928 299.876 76.2382 300.695 76.2382 301.768V306.682H75.0928V301.503C75.0928 300.518 74.8549 299.765 74.379 299.245C73.9032 298.725 73.2502 298.465 72.4202 298.465C71.5681 298.465 70.8875 298.747 70.3784 299.311C69.8694 299.876 69.6148 300.695 69.6148 301.768V306.682H68.4528V297.618H69.6148V299.179C69.9026 298.614 70.312 298.188 70.8432 297.9C71.3744 297.602 71.9665 297.452 72.6194 297.452C73.4052 297.452 74.0913 297.64 74.6778 298.017C75.2754 298.393 75.707 298.946 75.9726 299.677C76.2161 298.957 76.6311 298.41 77.2176 298.033C77.8152 297.646 78.4903 297.452 79.2428 297.452ZM92.9455 297.618V306.682H91.7835V305.088C91.5179 305.653 91.1084 306.084 90.5551 306.383C90.0017 306.682 89.382 306.831 88.6959 306.831C87.6113 306.831 86.726 306.499 86.0399 305.835C85.3537 305.16 85.0107 304.186 85.0107 302.914V297.618H86.1561V302.781C86.1561 303.766 86.3995 304.518 86.8865 305.038C87.3845 305.559 88.0595 305.819 88.9117 305.819C89.7859 305.819 90.4831 305.542 91.0033 304.989C91.5234 304.435 91.7835 303.622 91.7835 302.548V297.618H92.9455ZM99.516 297.452C100.6 297.452 101.486 297.79 102.172 298.465C102.858 299.129 103.201 300.097 103.201 301.37V306.682H102.056V301.503C102.056 300.518 101.807 299.765 101.309 299.245C100.822 298.725 100.152 298.465 99.3002 298.465C98.4259 298.465 97.7287 298.742 97.2086 299.295C96.6884 299.848 96.4284 300.662 96.4284 301.735V306.682H95.2664V297.618H96.4284V299.162C96.7161 298.609 97.1311 298.188 97.6734 297.9C98.2156 297.602 98.8298 297.452 99.516 297.452ZM106.02 295.908C105.788 295.908 105.588 295.825 105.422 295.659C105.256 295.493 105.173 295.289 105.173 295.045C105.173 294.802 105.256 294.603 105.422 294.448C105.588 294.282 105.788 294.199 106.02 294.199C106.252 294.199 106.452 294.282 106.618 294.448C106.784 294.603 106.867 294.802 106.867 295.045C106.867 295.289 106.784 295.493 106.618 295.659C106.452 295.825 106.252 295.908 106.02 295.908ZM106.601 297.618V306.682H105.439V297.618H106.601ZM108.369 302.133C108.369 301.204 108.557 300.39 108.934 299.693C109.31 298.985 109.824 298.443 110.477 298.066C111.141 297.679 111.888 297.485 112.718 297.485C113.515 297.485 114.235 297.679 114.876 298.066C115.518 298.454 115.989 298.957 116.287 299.577V294.398H117.449V306.682H116.287V304.657C116.011 305.287 115.557 305.808 114.926 306.217C114.295 306.615 113.554 306.815 112.702 306.815C111.872 306.815 111.125 306.621 110.461 306.234C109.808 305.846 109.293 305.299 108.917 304.59C108.552 303.882 108.369 303.063 108.369 302.133ZM116.287 302.15C116.287 301.42 116.138 300.778 115.839 300.224C115.54 299.671 115.131 299.245 114.611 298.946C114.102 298.647 113.537 298.498 112.918 298.498C112.276 298.498 111.7 298.642 111.191 298.93C110.682 299.217 110.278 299.638 109.979 300.191C109.692 300.734 109.548 301.381 109.548 302.133C109.548 302.875 109.692 303.528 109.979 304.092C110.278 304.646 110.682 305.072 111.191 305.37C111.7 305.658 112.276 305.802 112.918 305.802C113.537 305.802 114.102 305.653 114.611 305.354C115.131 305.055 115.54 304.629 115.839 304.076C116.138 303.522 116.287 302.88 116.287 302.15ZM119.239 302.133C119.239 301.204 119.422 300.39 119.787 299.693C120.163 298.985 120.678 298.443 121.331 298.066C121.995 297.679 122.742 297.485 123.572 297.485C124.435 297.485 125.176 297.685 125.796 298.083C126.427 298.481 126.88 298.991 127.157 299.61V297.618H128.319V306.682H127.157V304.673C126.869 305.293 126.41 305.808 125.779 306.217C125.16 306.615 124.418 306.815 123.555 306.815C122.736 306.815 121.995 306.621 121.331 306.234C120.678 305.846 120.163 305.299 119.787 304.59C119.422 303.882 119.239 303.063 119.239 302.133ZM127.157 302.15C127.157 301.42 127.008 300.778 126.709 300.224C126.41 299.671 126.001 299.245 125.481 298.946C124.971 298.647 124.407 298.498 123.787 298.498C123.145 298.498 122.57 298.642 122.061 298.93C121.552 299.217 121.148 299.638 120.849 300.191C120.561 300.734 120.418 301.381 120.418 302.133C120.418 302.875 120.561 303.528 120.849 304.092C121.148 304.646 121.552 305.072 122.061 305.37C122.57 305.658 123.145 305.802 123.787 305.802C124.407 305.802 124.971 305.653 125.481 305.354C126.001 305.055 126.41 304.629 126.709 304.076C127.008 303.522 127.157 302.88 127.157 302.15ZM130.109 302.133C130.109 301.204 130.297 300.39 130.673 299.693C131.049 298.985 131.564 298.443 132.217 298.066C132.881 297.679 133.628 297.485 134.458 297.485C135.255 297.485 135.974 297.679 136.616 298.066C137.258 298.454 137.728 298.957 138.027 299.577V294.398H139.189V306.682H138.027V304.657C137.75 305.287 137.297 305.808 136.666 306.217C136.035 306.615 135.293 306.815 134.441 306.815C133.611 306.815 132.864 306.621 132.2 306.234C131.547 305.846 131.033 305.299 130.657 304.59C130.291 303.882 130.109 303.063 130.109 302.133ZM138.027 302.15C138.027 301.42 137.878 300.778 137.579 300.224C137.28 299.671 136.87 299.245 136.35 298.946C135.841 298.647 135.277 298.498 134.657 298.498C134.015 298.498 133.44 298.642 132.931 298.93C132.422 299.217 132.018 299.638 131.719 300.191C131.431 300.734 131.287 301.381 131.287 302.133C131.287 302.875 131.431 303.528 131.719 304.092C132.018 304.646 132.422 305.072 132.931 305.37C133.44 305.658 134.015 305.802 134.657 305.802C135.277 305.802 135.841 305.653 136.35 305.354C136.87 305.055 137.28 304.629 137.579 304.076C137.878 303.522 138.027 302.88 138.027 302.15ZM144.315 294.929C145.023 294.929 145.649 295.067 146.191 295.344C146.744 295.621 147.17 296.019 147.469 296.539C147.779 297.048 147.934 297.64 147.934 298.315C147.934 299.511 147.563 300.39 146.822 300.955C146.091 301.508 145.09 301.785 143.817 301.785L143.767 303.611H142.771L142.705 300.955H143.136C144.276 300.955 145.173 300.778 145.826 300.424C146.49 300.058 146.822 299.356 146.822 298.315C146.822 297.585 146.589 297.004 146.124 296.572C145.671 296.141 145.068 295.925 144.315 295.925C143.563 295.925 142.965 296.13 142.522 296.539C142.08 296.949 141.858 297.508 141.858 298.216H140.746C140.746 297.552 140.895 296.976 141.194 296.489C141.504 295.991 141.925 295.61 142.456 295.344C142.998 295.067 143.618 294.929 144.315 294.929ZM143.269 306.765C143.026 306.765 142.821 306.682 142.655 306.516C142.5 306.35 142.423 306.145 142.423 305.902C142.423 305.658 142.5 305.459 142.655 305.304C142.821 305.138 143.026 305.055 143.269 305.055C143.502 305.055 143.695 305.138 143.85 305.304C144.016 305.459 144.099 305.658 144.099 305.902C144.099 306.145 144.016 306.35 143.85 306.516C143.695 306.682 143.502 306.765 143.269 306.765Z" fill="#2E2527"/>
<g clip-path="url(#clip3_7948_2219)">
<rect x="200.592" y="304.642" width="24" height="24" rx="6" transform="rotate(-137 200.592 304.642)" fill="#EADEC8"/>
<path d="M191.02 287.995C191.03 288.271 191.261 288.487 191.537 288.478L199.518 288.199L199.796 296.179C199.806 296.455 200.038 296.671 200.314 296.662C200.59 296.652 200.805 296.42 200.796 296.144L200.517 288.164L208.498 287.885C208.774 287.876 208.989 287.644 208.98 287.368C208.97 287.092 208.739 286.876 208.463 286.886L200.482 287.165L200.204 279.184C200.194 278.908 199.962 278.692 199.686 278.702C199.41 278.712 199.195 278.943 199.204 279.219L199.483 287.2L191.502 287.478C191.226 287.488 191.011 287.719 191.02 287.995Z" stroke="#69493C" stroke-linecap="round" stroke-linejoin="round"/>
</g>
</g>
<defs>
<clipPath id="clip0_7948_2219">
<rect x="200.592" y="83.801" width="24" height="24" rx="6" transform="rotate(-137 200.592 83.801)" fill="white"/>
</clipPath>
<clipPath id="clip1_7948_2219">
<rect x="200.592" y="154.642" width="24" height="24" rx="6" transform="rotate(-137 200.592 154.642)" fill="white"/>
</clipPath>
<clipPath id="clip2_7948_2219">
<rect x="200.592" y="229.642" width="24" height="24" rx="6" transform="rotate(-137 200.592 229.642)" fill="white"/>
</clipPath>
<clipPath id="clip3_7948_2219">
<rect x="200.592" y="304.642" width="24" height="24" rx="6" transform="rotate(-137 200.592 304.642)" fill="white"/>
</clipPath>
</defs>
</svg>
