<svg width="482" height="32" viewBox="0 0 482 32" fill="none" xmlns="http://www.w3.org/2000/svg">
<g id="Secciones de menu">
<path id="Nosotros" d="M34.3886 21.8259H31.9946L26.5739 13.635V21.8259H24.1799V9.87303H26.5739L31.9946 18.081V9.87303H34.3886V21.8259ZM40.619 21.9798C39.707 21.9798 38.8862 21.7803 38.1566 21.3813C37.427 20.9709 36.8513 20.3952 36.4295 19.6542C36.0191 18.9132 35.8139 18.0582 35.8139 17.0892C35.8139 16.1202 36.0248 15.2652 36.4466 14.5242C36.8798 13.7832 37.4669 13.2132 38.2079 12.8142C38.9489 12.4038 39.7754 12.1986 40.6874 12.1986C41.5994 12.1986 42.4259 12.4038 43.1669 12.8142C43.9079 13.2132 44.4893 13.7832 44.9111 14.5242C45.3443 15.2652 45.5609 16.1202 45.5609 17.0892C45.5609 18.0582 45.3386 18.9132 44.894 19.6542C44.4608 20.3952 43.868 20.9709 43.1156 21.3813C42.3746 21.7803 41.5424 21.9798 40.619 21.9798ZM40.619 19.8936C41.0522 19.8936 41.4569 19.791 41.8331 19.5858C42.2207 19.3692 42.5285 19.05 42.7565 18.6282C42.9845 18.2064 43.0985 17.6934 43.0985 17.0892C43.0985 16.1886 42.8591 15.4989 42.3803 15.0201C41.9129 14.5299 41.3372 14.2848 40.6532 14.2848C39.9692 14.2848 39.3935 14.5299 38.9261 15.0201C38.4701 15.4989 38.2421 16.1886 38.2421 17.0892C38.2421 17.9898 38.4644 18.6852 38.909 19.1754C39.365 19.6542 39.935 19.8936 40.619 19.8936ZM50.6002 21.9798C49.825 21.9798 49.1296 21.843 48.514 21.5694C47.8984 21.2844 47.4082 20.9025 47.0434 20.4237C46.69 19.9449 46.4962 19.4148 46.462 18.8334H48.8731C48.9187 19.1982 49.0954 19.5003 49.4032 19.7397C49.7224 19.9791 50.1157 20.0988 50.5831 20.0988C51.0391 20.0988 51.3925 20.0076 51.6433 19.8252C51.9055 19.6428 52.0366 19.4091 52.0366 19.1241C52.0366 18.8163 51.877 18.5883 51.5578 18.4401C51.25 18.2805 50.7541 18.1095 50.0701 17.9271C49.3633 17.7561 48.7819 17.5794 48.3259 17.397C47.8813 17.2146 47.4937 16.9353 47.1631 16.5591C46.8439 16.1829 46.6843 15.6756 46.6843 15.0372C46.6843 14.5128 46.8325 14.034 47.1289 13.6008C47.4367 13.1676 47.8699 12.8256 48.4285 12.5748C48.9985 12.324 49.6654 12.1986 50.4292 12.1986C51.5578 12.1986 52.4584 12.4836 53.131 13.0536C53.8036 13.6122 54.1741 14.3703 54.2425 15.3279H51.9511C51.9169 14.9517 51.7573 14.6553 51.4723 14.4387C51.1987 14.2107 50.8282 14.0967 50.3608 14.0967C49.9276 14.0967 49.5913 14.1765 49.3519 14.3361C49.1239 14.4957 49.0099 14.718 49.0099 15.003C49.0099 15.3222 49.1695 15.5673 49.4887 15.7383C49.8079 15.8979 50.3038 16.0632 50.9764 16.2342C51.6604 16.4052 52.2247 16.5819 52.6693 16.7643C53.1139 16.9467 53.4958 17.2317 53.815 17.6193C54.1456 17.9955 54.3166 18.4971 54.328 19.1241C54.328 19.6713 54.1741 20.1615 53.8663 20.5947C53.5699 21.0279 53.1367 21.3699 52.5667 21.6207C52.0081 21.8601 51.3526 21.9798 50.6002 21.9798ZM60.1578 21.9798C59.2458 21.9798 58.425 21.7803 57.6954 21.3813C56.9658 20.9709 56.3901 20.3952 55.9683 19.6542C55.5579 18.9132 55.3527 18.0582 55.3527 17.0892C55.3527 16.1202 55.5636 15.2652 55.9854 14.5242C56.4186 13.7832 57.0057 13.2132 57.7467 12.8142C58.4877 12.4038 59.3142 12.1986 60.2262 12.1986C61.1382 12.1986 61.9647 12.4038 62.7057 12.8142C63.4467 13.2132 64.0281 13.7832 64.4499 14.5242C64.8831 15.2652 65.0997 16.1202 65.0997 17.0892C65.0997 18.0582 64.8774 18.9132 64.4328 19.6542C63.9996 20.3952 63.4068 20.9709 62.6544 21.3813C61.9134 21.7803 61.0812 21.9798 60.1578 21.9798ZM60.1578 19.8936C60.591 19.8936 60.9957 19.791 61.3719 19.5858C61.7595 19.3692 62.0673 19.05 62.2953 18.6282C62.5233 18.2064 62.6373 17.6934 62.6373 17.0892C62.6373 16.1886 62.3979 15.4989 61.9191 15.0201C61.4517 14.5299 60.876 14.2848 60.192 14.2848C59.508 14.2848 58.9323 14.5299 58.4649 15.0201C58.0089 15.4989 57.7809 16.1886 57.7809 17.0892C57.7809 17.9898 58.0032 18.6852 58.4478 19.1754C58.9038 19.6542 59.4738 19.8936 60.1578 19.8936ZM69.3011 14.319V18.9018C69.3011 19.221 69.3752 19.4547 69.5234 19.6029C69.683 19.7397 69.9452 19.8081 70.31 19.8081H71.4215V21.8259H69.9167C67.8989 21.8259 66.89 20.8455 66.89 18.8847V14.319H65.7614V12.3525H66.89V10.0098H69.3011V12.3525H71.4215V14.319H69.3011ZM75.1953 13.8231C75.5031 13.3215 75.9021 12.9282 76.3923 12.6432C76.8939 12.3582 77.4639 12.2157 78.1023 12.2157V14.7294H77.4696C76.7172 14.7294 76.1472 14.9061 75.7596 15.2595C75.3834 15.6129 75.1953 16.2285 75.1953 17.1063V21.8259H72.8013V12.3525H75.1953V13.8231ZM83.5794 21.9798C82.6674 21.9798 81.8466 21.7803 81.117 21.3813C80.3874 20.9709 79.8117 20.3952 79.3899 19.6542C78.9795 18.9132 78.7743 18.0582 78.7743 17.0892C78.7743 16.1202 78.9852 15.2652 79.407 14.5242C79.8402 13.7832 80.4273 13.2132 81.1683 12.8142C81.9093 12.4038 82.7358 12.1986 83.6478 12.1986C84.5598 12.1986 85.3863 12.4038 86.1273 12.8142C86.8683 13.2132 87.4497 13.7832 87.8715 14.5242C88.3047 15.2652 88.5213 16.1202 88.5213 17.0892C88.5213 18.0582 88.299 18.9132 87.8544 19.6542C87.4212 20.3952 86.8284 20.9709 86.076 21.3813C85.335 21.7803 84.5028 21.9798 83.5794 21.9798ZM83.5794 19.8936C84.0126 19.8936 84.4173 19.791 84.7935 19.5858C85.1811 19.3692 85.4889 19.05 85.7169 18.6282C85.9449 18.2064 86.0589 17.6934 86.0589 17.0892C86.0589 16.1886 85.8195 15.4989 85.3407 15.0201C84.8733 14.5299 84.2976 14.2848 83.6136 14.2848C82.9296 14.2848 82.3539 14.5299 81.8865 15.0201C81.4305 15.4989 81.2025 16.1886 81.2025 17.0892C81.2025 17.9898 81.4248 18.6852 81.8694 19.1754C82.3254 19.6542 82.8954 19.8936 83.5794 19.8936ZM93.5606 21.9798C92.7854 21.9798 92.09 21.843 91.4744 21.5694C90.8588 21.2844 90.3686 20.9025 90.0038 20.4237C89.6504 19.9449 89.4566 19.4148 89.4224 18.8334H91.8335C91.8791 19.1982 92.0558 19.5003 92.3636 19.7397C92.6828 19.9791 93.0761 20.0988 93.5435 20.0988C93.9995 20.0988 94.3529 20.0076 94.6037 19.8252C94.8659 19.6428 94.997 19.4091 94.997 19.1241C94.997 18.8163 94.8374 18.5883 94.5182 18.4401C94.2104 18.2805 93.7145 18.1095 93.0305 17.9271C92.3237 17.7561 91.7423 17.5794 91.2863 17.397C90.8417 17.2146 90.4541 16.9353 90.1235 16.5591C89.8043 16.1829 89.6447 15.6756 89.6447 15.0372C89.6447 14.5128 89.7929 14.034 90.0893 13.6008C90.3971 13.1676 90.8303 12.8256 91.3889 12.5748C91.9589 12.324 92.6258 12.1986 93.3896 12.1986C94.5182 12.1986 95.4188 12.4836 96.0914 13.0536C96.764 13.6122 97.1345 14.3703 97.2029 15.3279H94.9115C94.8773 14.9517 94.7177 14.6553 94.4327 14.4387C94.1591 14.2107 93.7886 14.0967 93.3212 14.0967C92.888 14.0967 92.5517 14.1765 92.3123 14.3361C92.0843 14.4957 91.9703 14.718 91.9703 15.003C91.9703 15.3222 92.1299 15.5673 92.4491 15.7383C92.7683 15.8979 93.2642 16.0632 93.9368 16.2342C94.6208 16.4052 95.1851 16.5819 95.6297 16.7643C96.0743 16.9467 96.4562 17.2317 96.7754 17.6193C97.106 17.9955 97.277 18.4971 97.2884 19.1241C97.2884 19.6713 97.1345 20.1615 96.8267 20.5947C96.5303 21.0279 96.0971 21.3699 95.5271 21.6207C94.9685 21.8601 94.313 21.9798 93.5606 21.9798Z" fill="#69493C"/>
<path id="Servicios" d="M135.301 21.9456C134.469 21.9456 133.716 21.8031 133.044 21.5181C132.383 21.2331 131.858 20.8227 131.471 20.2869C131.083 19.7511 130.884 19.1184 130.872 18.3888H133.437C133.471 18.879 133.642 19.2666 133.95 19.5516C134.269 19.8366 134.703 19.9791 135.25 19.9791C135.808 19.9791 136.247 19.848 136.566 19.5858C136.886 19.3122 137.045 18.9588 137.045 18.5256C137.045 18.1722 136.937 17.8815 136.72 17.6535C136.504 17.4255 136.23 17.2488 135.9 17.1234C135.58 16.9866 135.136 16.8384 134.566 16.6788C133.791 16.4508 133.158 16.2285 132.668 16.0119C132.189 15.7839 131.773 15.4476 131.419 15.003C131.077 14.547 130.906 13.9428 130.906 13.1904C130.906 12.4836 131.083 11.868 131.436 11.3436C131.79 10.8192 132.286 10.4202 132.924 10.1466C133.563 9.86163 134.292 9.71913 135.113 9.71913C136.344 9.71913 137.342 10.0212 138.105 10.6254C138.881 11.2182 139.308 12.0504 139.388 13.122H136.755C136.732 12.7116 136.555 12.3753 136.224 12.1131C135.905 11.8395 135.478 11.7027 134.942 11.7027C134.475 11.7027 134.098 11.8224 133.813 12.0618C133.54 12.3012 133.403 12.6489 133.403 13.1049C133.403 13.4241 133.506 13.692 133.711 13.9086C133.927 14.1138 134.19 14.2848 134.497 14.4216C134.817 14.547 135.261 14.6952 135.831 14.8662C136.606 15.0942 137.239 15.3222 137.729 15.5502C138.219 15.7782 138.641 16.1202 138.995 16.5762C139.348 17.0322 139.525 17.6307 139.525 18.3717C139.525 19.0101 139.359 19.6029 139.029 20.1501C138.698 20.6973 138.214 21.1362 137.575 21.4668C136.937 21.786 136.179 21.9456 135.301 21.9456ZM150.065 16.884C150.065 17.226 150.042 17.5338 149.996 17.8074H143.071C143.128 18.4914 143.367 19.0272 143.789 19.4148C144.211 19.8024 144.73 19.9962 145.345 19.9962C146.234 19.9962 146.867 19.6143 147.243 18.8505H149.825C149.552 19.7625 149.027 20.5149 148.252 21.1077C147.477 21.6891 146.525 21.9798 145.396 21.9798C144.484 21.9798 143.664 21.7803 142.934 21.3813C142.216 20.9709 141.652 20.3952 141.241 19.6542C140.842 18.9132 140.643 18.0582 140.643 17.0892C140.643 16.1088 140.842 15.2481 141.241 14.5071C141.64 13.7661 142.199 13.1961 142.917 12.7971C143.635 12.3981 144.462 12.1986 145.396 12.1986C146.297 12.1986 147.101 12.3924 147.808 12.78C148.526 13.1676 149.079 13.7205 149.466 14.4387C149.865 15.1455 150.065 15.9606 150.065 16.884ZM147.585 16.2C147.574 15.5844 147.352 15.0942 146.918 14.7294C146.485 14.3532 145.955 14.1651 145.328 14.1651C144.735 14.1651 144.234 14.3475 143.823 14.7123C143.424 15.0657 143.179 15.5616 143.088 16.2H147.585ZM153.864 13.8231C154.172 13.3215 154.571 12.9282 155.061 12.6432C155.563 12.3582 156.133 12.2157 156.771 12.2157V14.7294H156.138C155.386 14.7294 154.816 14.9061 154.428 15.2595C154.052 15.6129 153.864 16.2285 153.864 17.1063V21.8259H151.47V12.3525H153.864V13.8231ZM161.992 19.62L164.386 12.3525H166.934L163.428 21.8259H160.521L157.033 12.3525H159.598L161.992 19.62ZM169.15 11.2239C168.729 11.2239 168.375 11.0928 168.09 10.8306C167.817 10.557 167.68 10.2207 167.68 9.82173C167.68 9.42273 167.817 9.09213 168.09 8.82993C168.375 8.55633 168.729 8.41953 169.15 8.41953C169.572 8.41953 169.92 8.55633 170.193 8.82993C170.478 9.09213 170.621 9.42273 170.621 9.82173C170.621 10.2207 170.478 10.557 170.193 10.8306C169.92 11.0928 169.572 11.2239 169.15 11.2239ZM170.33 12.3525V21.8259H167.936V12.3525H170.33ZM171.738 17.0892C171.738 16.1088 171.937 15.2538 172.336 14.5242C172.735 13.7832 173.288 13.2132 173.995 12.8142C174.702 12.4038 175.511 12.1986 176.423 12.1986C177.597 12.1986 178.566 12.495 179.33 13.0878C180.105 13.6692 180.624 14.49 180.886 15.5502H178.304C178.167 15.1398 177.934 14.8206 177.603 14.5926C177.284 14.3532 176.885 14.2335 176.406 14.2335C175.722 14.2335 175.181 14.4843 174.782 14.9859C174.383 15.4761 174.183 16.1772 174.183 17.0892C174.183 17.9898 174.383 18.6909 174.782 19.1925C175.181 19.6827 175.722 19.9278 176.406 19.9278C177.375 19.9278 178.008 19.4946 178.304 18.6282H180.886C180.624 19.6542 180.105 20.4693 179.33 21.0735C178.555 21.6777 177.586 21.9798 176.423 21.9798C175.511 21.9798 174.702 21.7803 173.995 21.3813C173.288 20.9709 172.735 20.4009 172.336 19.6713C171.937 18.9303 171.738 18.0696 171.738 17.0892ZM183.512 11.2239C183.091 11.2239 182.737 11.0928 182.452 10.8306C182.179 10.557 182.042 10.2207 182.042 9.82173C182.042 9.42273 182.179 9.09213 182.452 8.82993C182.737 8.55633 183.091 8.41953 183.512 8.41953C183.934 8.41953 184.282 8.55633 184.555 8.82993C184.84 9.09213 184.983 9.42273 184.983 9.82173C184.983 10.2207 184.84 10.557 184.555 10.8306C184.282 11.0928 183.934 11.2239 183.512 11.2239ZM184.692 12.3525V21.8259H182.298V12.3525H184.692ZM190.922 21.9798C190.01 21.9798 189.189 21.7803 188.46 21.3813C187.73 20.9709 187.154 20.3952 186.733 19.6542C186.322 18.9132 186.117 18.0582 186.117 17.0892C186.117 16.1202 186.328 15.2652 186.75 14.5242C187.183 13.7832 187.77 13.2132 188.511 12.8142C189.252 12.4038 190.078 12.1986 190.99 12.1986C191.902 12.1986 192.729 12.4038 193.47 12.8142C194.211 13.2132 194.792 13.7832 195.214 14.5242C195.647 15.2652 195.864 16.1202 195.864 17.0892C195.864 18.0582 195.642 18.9132 195.197 19.6542C194.764 20.3952 194.171 20.9709 193.419 21.3813C192.678 21.7803 191.845 21.9798 190.922 21.9798ZM190.922 19.8936C191.355 19.8936 191.76 19.791 192.136 19.5858C192.524 19.3692 192.832 19.05 193.06 18.6282C193.288 18.2064 193.402 17.6934 193.402 17.0892C193.402 16.1886 193.162 15.4989 192.683 15.0201C192.216 14.5299 191.64 14.2848 190.956 14.2848C190.272 14.2848 189.697 14.5299 189.229 15.0201C188.773 15.4989 188.545 16.1886 188.545 17.0892C188.545 17.9898 188.767 18.6852 189.212 19.1754C189.668 19.6542 190.238 19.8936 190.922 19.8936ZM200.903 21.9798C200.128 21.9798 199.433 21.843 198.817 21.5694C198.201 21.2844 197.711 20.9025 197.346 20.4237C196.993 19.9449 196.799 19.4148 196.765 18.8334H199.176C199.222 19.1982 199.398 19.5003 199.706 19.7397C200.025 19.9791 200.419 20.0988 200.886 20.0988C201.342 20.0988 201.696 20.0076 201.946 19.8252C202.209 19.6428 202.34 19.4091 202.34 19.1241C202.34 18.8163 202.18 18.5883 201.861 18.4401C201.553 18.2805 201.057 18.1095 200.373 17.9271C199.666 17.7561 199.085 17.5794 198.629 17.397C198.184 17.2146 197.797 16.9353 197.466 16.5591C197.147 16.1829 196.987 15.6756 196.987 15.0372C196.987 14.5128 197.136 14.034 197.432 13.6008C197.74 13.1676 198.173 12.8256 198.732 12.5748C199.302 12.324 199.968 12.1986 200.732 12.1986C201.861 12.1986 202.761 12.4836 203.434 13.0536C204.107 13.6122 204.477 14.3703 204.546 15.3279H202.254C202.22 14.9517 202.06 14.6553 201.775 14.4387C201.502 14.2107 201.131 14.0967 200.664 14.0967C200.231 14.0967 199.894 14.1765 199.655 14.3361C199.427 14.4957 199.313 14.718 199.313 15.003C199.313 15.3222 199.473 15.5673 199.792 15.7383C200.111 15.8979 200.607 16.0632 201.279 16.2342C201.963 16.4052 202.528 16.5819 202.972 16.7643C203.417 16.9467 203.799 17.2317 204.118 17.6193C204.449 17.9955 204.62 18.4971 204.631 19.1241C204.631 19.6713 204.477 20.1615 204.169 20.5947C203.873 21.0279 203.44 21.3699 202.87 21.6207C202.311 21.8601 201.656 21.9798 200.903 21.9798Z" fill="#69493C"/>
<path id="FAQ&#226;&#128;&#153;S" d="M246.55 9.89013V11.8224H241.574V14.8833H245.387V16.7814H241.574V21.8259H239.18V9.89013H246.55ZM255.224 19.5516H250.471L249.684 21.8259H247.17L251.462 9.87303H254.25L258.542 21.8259H256.011L255.224 19.5516ZM254.575 17.6364L252.847 12.6432L251.12 17.6364H254.575ZM268.696 23.9292L266.884 21.7575C266.382 21.8829 265.869 21.9456 265.345 21.9456C264.227 21.9456 263.201 21.6834 262.267 21.159C261.332 20.6346 260.591 19.9107 260.044 18.9873C259.496 18.0525 259.223 16.998 259.223 15.8238C259.223 14.661 259.496 13.6179 260.044 12.6945C260.591 11.7597 261.332 11.0301 262.267 10.5057C263.201 9.98133 264.227 9.71913 265.345 9.71913C266.473 9.71913 267.499 9.98133 268.423 10.5057C269.357 11.0301 270.093 11.7597 270.628 12.6945C271.176 13.6179 271.449 14.661 271.449 15.8238C271.449 16.884 271.221 17.853 270.765 18.7308C270.321 19.5972 269.711 20.304 268.936 20.8512L271.672 23.9292H268.696ZM261.685 15.8238C261.685 16.6218 261.839 17.3229 262.147 17.9271C262.455 18.5313 262.882 18.9987 263.429 19.3293C263.988 19.6485 264.626 19.8081 265.345 19.8081C266.063 19.8081 266.695 19.6485 267.243 19.3293C267.79 18.9987 268.217 18.5313 268.525 17.9271C268.833 17.3229 268.987 16.6218 268.987 15.8238C268.987 15.0258 268.833 14.3304 268.525 13.7376C268.217 13.1334 267.79 12.6717 267.243 12.3525C266.695 12.0333 266.063 11.8737 265.345 11.8737C264.626 11.8737 263.988 12.0333 263.429 12.3525C262.882 12.6717 262.455 13.1334 262.147 13.7376C261.839 14.3304 261.685 15.0258 261.685 15.8238ZM273.4 9.89013H275.914L274.067 14.1993H272.426L273.4 9.89013ZM281.41 21.9456C280.578 21.9456 279.825 21.8031 279.153 21.5181C278.492 21.2331 277.967 20.8227 277.58 20.2869C277.192 19.7511 276.992 19.1184 276.981 18.3888H279.546C279.58 18.879 279.751 19.2666 280.059 19.5516C280.378 19.8366 280.811 19.9791 281.359 19.9791C281.917 19.9791 282.356 19.848 282.675 19.5858C282.995 19.3122 283.154 18.9588 283.154 18.5256C283.154 18.1722 283.046 17.8815 282.829 17.6535C282.613 17.4255 282.339 17.2488 282.008 17.1234C281.689 16.9866 281.245 16.8384 280.675 16.6788C279.899 16.4508 279.267 16.2285 278.777 16.0119C278.298 15.7839 277.882 15.4476 277.528 15.003C277.186 14.547 277.015 13.9428 277.015 13.1904C277.015 12.4836 277.192 11.868 277.545 11.3436C277.899 10.8192 278.395 10.4202 279.033 10.1466C279.671 9.86163 280.401 9.71913 281.222 9.71913C282.453 9.71913 283.451 10.0212 284.214 10.6254C284.99 11.2182 285.417 12.0504 285.497 13.122H282.863C282.841 12.7116 282.664 12.3753 282.333 12.1131C282.014 11.8395 281.587 11.7027 281.051 11.7027C280.583 11.7027 280.207 11.8224 279.922 12.0618C279.649 12.3012 279.512 12.6489 279.512 13.1049C279.512 13.4241 279.614 13.692 279.82 13.9086C280.036 14.1138 280.298 14.2848 280.606 14.4216C280.925 14.547 281.37 14.6952 281.94 14.8662C282.715 15.0942 283.348 15.3222 283.838 15.5502C284.328 15.7782 284.75 16.1202 285.104 16.5762C285.457 17.0322 285.634 17.6307 285.634 18.3717C285.634 19.0101 285.468 19.6029 285.138 20.1501C284.807 20.6973 284.323 21.1362 283.684 21.4668C283.046 21.786 282.288 21.9456 281.41 21.9456Z" fill="#69493C"/>
<path id="Contacto" d="M319.599 15.8409C319.599 14.6667 319.861 13.6179 320.385 12.6945C320.921 11.7597 321.645 11.0358 322.557 10.5228C323.48 9.99843 324.512 9.73623 325.652 9.73623C326.986 9.73623 328.154 10.0782 329.157 10.7622C330.161 11.4462 330.862 12.3924 331.261 13.6008H328.508C328.234 13.0308 327.846 12.6033 327.345 12.3183C326.855 12.0333 326.285 11.8908 325.635 11.8908C324.939 11.8908 324.318 12.0561 323.771 12.3867C323.235 12.7059 322.813 13.1619 322.506 13.7547C322.209 14.3475 322.061 15.0429 322.061 15.8409C322.061 16.6275 322.209 17.3229 322.506 17.9271C322.813 18.5199 323.235 18.9816 323.771 19.3122C324.318 19.6314 324.939 19.791 325.635 19.791C326.285 19.791 326.855 19.6485 327.345 19.3635C327.846 19.0671 328.234 18.6339 328.508 18.0639H331.261C330.862 19.2837 330.161 20.2356 329.157 20.9196C328.166 21.5922 326.997 21.9285 325.652 21.9285C324.512 21.9285 323.48 21.672 322.557 21.159C321.645 20.6346 320.921 19.9107 320.385 18.9873C319.861 18.0639 319.599 17.0151 319.599 15.8409ZM337.17 21.9798C336.258 21.9798 335.437 21.7803 334.708 21.3813C333.978 20.9709 333.402 20.3952 332.981 19.6542C332.57 18.9132 332.365 18.0582 332.365 17.0892C332.365 16.1202 332.576 15.2652 332.998 14.5242C333.431 13.7832 334.018 13.2132 334.759 12.8142C335.5 12.4038 336.326 12.1986 337.238 12.1986C338.15 12.1986 338.977 12.4038 339.718 12.8142C340.459 13.2132 341.04 13.7832 341.462 14.5242C341.895 15.2652 342.112 16.1202 342.112 17.0892C342.112 18.0582 341.89 18.9132 341.445 19.6542C341.012 20.3952 340.419 20.9709 339.667 21.3813C338.926 21.7803 338.093 21.9798 337.17 21.9798ZM337.17 19.8936C337.603 19.8936 338.008 19.791 338.384 19.5858C338.772 19.3692 339.08 19.05 339.308 18.6282C339.536 18.2064 339.65 17.6934 339.65 17.0892C339.65 16.1886 339.41 15.4989 338.931 15.0201C338.464 14.5299 337.888 14.2848 337.204 14.2848C336.52 14.2848 335.945 14.5299 335.477 15.0201C335.021 15.4989 334.793 16.1886 334.793 17.0892C334.793 17.9898 335.015 18.6852 335.46 19.1754C335.916 19.6542 336.486 19.8936 337.17 19.8936ZM348.776 12.2157C349.904 12.2157 350.816 12.5748 351.512 13.293C352.207 13.9998 352.555 14.9916 352.555 16.2684V21.8259H350.161V16.5933C350.161 15.8409 349.973 15.2652 349.597 14.8662C349.22 14.4558 348.707 14.2506 348.058 14.2506C347.396 14.2506 346.872 14.4558 346.484 14.8662C346.108 15.2652 345.92 15.8409 345.92 16.5933V21.8259H343.526V12.3525H345.92V13.5324C346.239 13.122 346.644 12.8028 347.134 12.5748C347.636 12.3354 348.183 12.2157 348.776 12.2157ZM357.277 14.319V18.9018C357.277 19.221 357.351 19.4547 357.499 19.6029C357.659 19.7397 357.921 19.8081 358.286 19.8081H359.397V21.8259H357.892C355.875 21.8259 354.866 20.8455 354.866 18.8847V14.319H353.737V12.3525H354.866V10.0098H357.277V12.3525H359.397V14.319H357.277ZM360.161 17.055C360.161 16.0974 360.35 15.2481 360.726 14.5071C361.113 13.7661 361.632 13.1961 362.282 12.7971C362.943 12.3981 363.678 12.1986 364.488 12.1986C365.195 12.1986 365.81 12.3411 366.335 12.6261C366.87 12.9111 367.298 13.2702 367.617 13.7034V12.3525H370.028V21.8259H367.617V20.4408C367.309 20.8854 366.882 21.2559 366.335 21.5523C365.799 21.8373 365.177 21.9798 364.471 21.9798C363.673 21.9798 362.943 21.7746 362.282 21.3642C361.632 20.9538 361.113 20.3781 360.726 19.6371C360.35 18.8847 360.161 18.024 360.161 17.055ZM367.617 17.0892C367.617 16.5078 367.503 16.0119 367.275 15.6015C367.047 15.1797 366.739 14.8605 366.352 14.6439C365.964 14.4159 365.548 14.3019 365.103 14.3019C364.659 14.3019 364.248 14.4102 363.872 14.6268C363.496 14.8434 363.188 15.1626 362.949 15.5844C362.721 15.9948 362.607 16.485 362.607 17.055C362.607 17.625 362.721 18.1266 362.949 18.5598C363.188 18.9816 363.496 19.3065 363.872 19.5345C364.26 19.7625 364.67 19.8765 365.103 19.8765C365.548 19.8765 365.964 19.7682 366.352 19.5516C366.739 19.3236 367.047 19.0044 367.275 18.594C367.503 18.1722 367.617 17.6706 367.617 17.0892ZM371.409 17.0892C371.409 16.1088 371.608 15.2538 372.007 14.5242C372.406 13.7832 372.959 13.2132 373.666 12.8142C374.373 12.4038 375.182 12.1986 376.094 12.1986C377.268 12.1986 378.237 12.495 379.001 13.0878C379.776 13.6692 380.295 14.49 380.557 15.5502H377.975C377.838 15.1398 377.605 14.8206 377.274 14.5926C376.955 14.3532 376.556 14.2335 376.077 14.2335C375.393 14.2335 374.851 14.4843 374.452 14.9859C374.053 15.4761 373.854 16.1772 373.854 17.0892C373.854 17.9898 374.053 18.6909 374.452 19.1925C374.851 19.6827 375.393 19.9278 376.077 19.9278C377.046 19.9278 377.679 19.4946 377.975 18.6282H380.557C380.295 19.6542 379.776 20.4693 379.001 21.0735C378.226 21.6777 377.257 21.9798 376.094 21.9798C375.182 21.9798 374.373 21.7803 373.666 21.3813C372.959 20.9709 372.406 20.4009 372.007 19.6713C371.608 18.9303 371.409 18.0696 371.409 17.0892ZM384.756 14.319V18.9018C384.756 19.221 384.83 19.4547 384.979 19.6029C385.138 19.7397 385.4 19.8081 385.765 19.8081H386.877V21.8259H385.372C383.354 21.8259 382.345 20.8455 382.345 18.8847V14.319H381.217V12.3525H382.345V10.0098H384.756V12.3525H386.877V14.319H384.756ZM392.463 21.9798C391.551 21.9798 390.73 21.7803 390.001 21.3813C389.271 20.9709 388.696 20.3952 388.274 19.6542C387.863 18.9132 387.658 18.0582 387.658 17.0892C387.658 16.1202 387.869 15.2652 388.291 14.5242C388.724 13.7832 389.311 13.2132 390.052 12.8142C390.793 12.4038 391.62 12.1986 392.532 12.1986C393.444 12.1986 394.27 12.4038 395.011 12.8142C395.752 13.2132 396.334 13.7832 396.755 14.5242C397.189 15.2652 397.405 16.1202 397.405 17.0892C397.405 18.0582 397.183 18.9132 396.738 19.6542C396.305 20.3952 395.712 20.9709 394.96 21.3813C394.219 21.7803 393.387 21.9798 392.463 21.9798ZM392.463 19.8936C392.896 19.8936 393.301 19.791 393.677 19.5858C394.065 19.3692 394.373 19.05 394.601 18.6282C394.829 18.2064 394.943 17.6934 394.943 17.0892C394.943 16.1886 394.703 15.4989 394.225 15.0201C393.757 14.5299 393.181 14.2848 392.497 14.2848C391.813 14.2848 391.238 14.5299 390.77 15.0201C390.314 15.4989 390.086 16.1886 390.086 17.0892C390.086 17.9898 390.309 18.6852 390.753 19.1754C391.209 19.6542 391.779 19.8936 392.463 19.8936Z" fill="#69493C"/>
<g id="Iconos App / Filtros">
<g id="Vector">
<mask id="path-5-outside-1_7707_5493" maskUnits="userSpaceOnUse" x="436" y="9.82593" width="17" height="12" fill="black">
<rect fill="white" x="436" y="9.82593" width="17" height="12"/>
<path d="M437 10.8259H452ZM439.5 15.8259H449.5ZM442.5 20.8259H446.5Z"/>
</mask>
<path d="M437 9.82593C436.448 9.82593 436 10.2736 436 10.8259C436 11.3782 436.448 11.8259 437 11.8259V9.82593ZM452 11.8259C452.552 11.8259 453 11.3782 453 10.8259C453 10.2736 452.552 9.82593 452 9.82593V11.8259ZM439.5 14.8259C438.948 14.8259 438.5 15.2736 438.5 15.8259C438.5 16.3782 438.948 16.8259 439.5 16.8259V14.8259ZM449.5 16.8259C450.052 16.8259 450.5 16.3782 450.5 15.8259C450.5 15.2736 450.052 14.8259 449.5 14.8259V16.8259ZM442.5 19.8259C441.948 19.8259 441.5 20.2736 441.5 20.8259C441.5 21.3782 441.948 21.8259 442.5 21.8259V19.8259ZM446.5 21.8259C447.052 21.8259 447.5 21.3782 447.5 20.8259C447.5 20.2736 447.052 19.8259 446.5 19.8259V21.8259ZM437 11.8259H452V9.82593H437V11.8259ZM439.5 16.8259H449.5V14.8259H439.5V16.8259ZM442.5 21.8259H446.5V19.8259H442.5V21.8259Z" fill="#2E2527" mask="url(#path-5-outside-1_7707_5493)"/>
</g>
</g>
</g>
</svg>
