<svg width="262" height="123" viewBox="0 0 262 123" fill="none" xmlns="http://www.w3.org/2000/svg">
<g clip-path="url(#clip0_7959_280)">
<path d="M14.0762 19.6816H12.9142L6.49 9.92084V19.6816H5.328V8.07824H6.49L12.9142 17.8224V8.07824H14.0762V19.6816ZM20.3435 19.8144C19.4913 19.8144 18.7222 19.6263 18.0361 19.25C17.361 18.8627 16.8243 18.3204 16.4259 17.6232C16.0385 16.915 15.8449 16.0905 15.8449 15.1498C15.8449 14.2092 16.0441 13.3902 16.4425 12.693C16.8409 11.9848 17.3831 11.4425 18.0693 11.0662C18.7554 10.6789 19.5245 10.4852 20.3767 10.4852C21.2288 10.4852 21.9979 10.6789 22.6841 11.0662C23.3813 11.4425 23.9235 11.9848 24.3109 12.693C24.7093 13.3902 24.9085 14.2092 24.9085 15.1498C24.9085 16.0794 24.7093 16.8984 24.3109 17.6066C23.9125 18.3149 23.3647 18.8627 22.6675 19.25C21.9703 19.6263 21.1956 19.8144 20.3435 19.8144ZM20.3435 18.8018C20.9411 18.8018 21.4944 18.669 22.0035 18.4034C22.5125 18.1268 22.922 17.7173 23.2319 17.175C23.5528 16.6217 23.7133 15.9466 23.7133 15.1498C23.7133 14.353 23.5583 13.6835 23.2485 13.1412C22.9386 12.5879 22.5291 12.1784 22.0201 11.9128C21.511 11.6362 20.9577 11.4978 20.3601 11.4978C19.7625 11.4978 19.2091 11.6362 18.7001 11.9128C18.191 12.1784 17.7815 12.5879 17.4717 13.1412C17.1729 13.6835 17.0235 14.353 17.0235 15.1498C17.0235 15.9466 17.1729 16.6217 17.4717 17.175C17.7815 17.7173 18.1855 18.1268 18.6835 18.4034C19.1925 18.669 19.7459 18.8018 20.3435 18.8018ZM29.8155 19.8144C28.7752 19.8144 27.9231 19.5765 27.2591 19.1006C26.6061 18.6137 26.2409 17.9552 26.1635 17.1252H27.3587C27.414 17.6343 27.6519 18.0493 28.0725 18.3702C28.5041 18.6801 29.0795 18.835 29.7989 18.835C30.4297 18.835 30.9221 18.6856 31.2763 18.3868C31.6415 18.088 31.8241 17.7173 31.8241 17.2746C31.8241 16.9648 31.7245 16.7102 31.5253 16.511C31.3261 16.3118 31.0715 16.1569 30.7617 16.0462C30.4629 15.9245 30.0534 15.7972 29.5333 15.6644C28.8582 15.4874 28.3104 15.3103 27.8899 15.1332C27.4693 14.9562 27.1097 14.6961 26.8109 14.353C26.5231 13.9989 26.3793 13.5286 26.3793 12.942C26.3793 12.4994 26.5121 12.0899 26.7777 11.7136C27.0433 11.3374 27.4195 11.0386 27.9065 10.8172C28.3934 10.5959 28.9467 10.4852 29.5665 10.4852C30.5403 10.4852 31.3261 10.7342 31.9237 11.2322C32.5213 11.7192 32.8422 12.3942 32.8865 13.2574H31.7245C31.6913 12.7262 31.481 12.3002 31.0937 11.9792C30.7174 11.6472 30.1973 11.4812 29.5333 11.4812C28.9467 11.4812 28.4709 11.6196 28.1057 11.8962C27.7405 12.1729 27.5579 12.516 27.5579 12.9254C27.5579 13.2796 27.663 13.5728 27.8733 13.8052C28.0946 14.0266 28.3657 14.2036 28.6867 14.3364C29.0076 14.4582 29.4392 14.5965 29.9815 14.7514C30.6344 14.9285 31.1545 15.1 31.5419 15.266C31.9292 15.432 32.2612 15.6755 32.5379 15.9964C32.8145 16.3174 32.9584 16.7434 32.9695 17.2746C32.9695 17.7616 32.8367 18.1987 32.5711 18.586C32.3055 18.9623 31.9347 19.2611 31.4589 19.4824C30.983 19.7038 30.4352 19.8144 29.8155 19.8144ZM38.7922 19.8144C37.94 19.8144 37.1709 19.6263 36.4848 19.25C35.8097 18.8627 35.273 18.3204 34.8746 17.6232C34.4872 16.915 34.2936 16.0905 34.2936 15.1498C34.2936 14.2092 34.4928 13.3902 34.8912 12.693C35.2896 11.9848 35.8318 11.4425 36.518 11.0662C37.2041 10.6789 37.9732 10.4852 38.8254 10.4852C39.6775 10.4852 40.4466 10.6789 41.1328 11.0662C41.83 11.4425 42.3722 11.9848 42.7596 12.693C43.158 13.3902 43.3572 14.2092 43.3572 15.1498C43.3572 16.0794 43.158 16.8984 42.7596 17.6066C42.3612 18.3149 41.8134 18.8627 41.1162 19.25C40.419 19.6263 39.6443 19.8144 38.7922 19.8144ZM38.7922 18.8018C39.3898 18.8018 39.9431 18.669 40.4522 18.4034C40.9612 18.1268 41.3707 17.7173 41.6806 17.175C42.0015 16.6217 42.162 15.9466 42.162 15.1498C42.162 14.353 42.007 13.6835 41.6972 13.1412C41.3873 12.5879 40.9778 12.1784 40.4688 11.9128C39.9597 11.6362 39.4064 11.4978 38.8088 11.4978C38.2112 11.4978 37.6578 11.6362 37.1488 11.9128C36.6397 12.1784 36.2302 12.5879 35.9204 13.1412C35.6216 13.6835 35.4722 14.353 35.4722 15.1498C35.4722 15.9466 35.6216 16.6217 35.9204 17.175C36.2302 17.7173 36.6342 18.1268 37.1322 18.4034C37.6412 18.669 38.1946 18.8018 38.7922 18.8018ZM46.654 11.5974V17.2248C46.654 17.7782 46.7591 18.16 46.9694 18.3702C47.1796 18.5805 47.5504 18.6856 48.0816 18.6856H49.144V19.6816H47.899C47.08 19.6816 46.4714 19.4935 46.073 19.1172C45.6746 18.7299 45.4754 18.0991 45.4754 17.2248V11.5974H44.2138V10.618H45.4754V8.34384H46.654V10.618H49.144V11.5974H46.654ZM51.8904 12.2282C52.1449 11.6638 52.5322 11.2267 53.0524 10.9168C53.5836 10.607 54.231 10.452 54.9946 10.452V11.6638H54.6792C53.8381 11.6638 53.163 11.8907 52.654 12.3444C52.1449 12.7982 51.8904 13.5562 51.8904 14.6186V19.6816H50.7284V10.618H51.8904V12.2282ZM60.378 19.8144C59.5259 19.8144 58.7567 19.6263 58.0706 19.25C57.3955 18.8627 56.8588 18.3204 56.4604 17.6232C56.0731 16.915 55.8794 16.0905 55.8794 15.1498C55.8794 14.2092 56.0786 13.3902 56.477 12.693C56.8754 11.9848 57.4177 11.4425 58.1038 11.0662C58.7899 10.6789 59.5591 10.4852 60.4112 10.4852C61.2633 10.4852 62.0325 10.6789 62.7186 11.0662C63.4158 11.4425 63.9581 11.9848 64.3454 12.693C64.7438 13.3902 64.943 14.2092 64.943 15.1498C64.943 16.0794 64.7438 16.8984 64.3454 17.6066C63.947 18.3149 63.3992 18.8627 62.702 19.25C62.0048 19.6263 61.2301 19.8144 60.378 19.8144ZM60.378 18.8018C60.9756 18.8018 61.5289 18.669 62.038 18.4034C62.5471 18.1268 62.9565 17.7173 63.2664 17.175C63.5873 16.6217 63.7478 15.9466 63.7478 15.1498C63.7478 14.353 63.5929 13.6835 63.283 13.1412C62.9731 12.5879 62.5637 12.1784 62.0546 11.9128C61.5455 11.6362 60.9922 11.4978 60.3946 11.4978C59.797 11.4978 59.2437 11.6362 58.7346 11.9128C58.2255 12.1784 57.8161 12.5879 57.5062 13.1412C57.2074 13.6835 57.058 14.353 57.058 15.1498C57.058 15.9466 57.2074 16.6217 57.5062 17.175C57.8161 17.7173 58.22 18.1268 58.718 18.4034C59.2271 18.669 59.7804 18.8018 60.378 18.8018ZM69.85 19.8144C68.8097 19.8144 67.9576 19.5765 67.2936 19.1006C66.6407 18.6137 66.2755 17.9552 66.198 17.1252H67.3932C67.4485 17.6343 67.6865 18.0493 68.107 18.3702C68.5386 18.6801 69.1141 18.835 69.8334 18.835C70.4642 18.835 70.9567 18.6856 71.3108 18.3868C71.676 18.088 71.8586 17.7173 71.8586 17.2746C71.8586 16.9648 71.759 16.7102 71.5598 16.511C71.3606 16.3118 71.1061 16.1569 70.7962 16.0462C70.4974 15.9245 70.0879 15.7972 69.5678 15.6644C68.8927 15.4874 68.3449 15.3103 67.9244 15.1332C67.5039 14.9562 67.1442 14.6961 66.8454 14.353C66.5577 13.9989 66.4138 13.5286 66.4138 12.942C66.4138 12.4994 66.5466 12.0899 66.8122 11.7136C67.0778 11.3374 67.4541 11.0386 67.941 10.8172C68.4279 10.5959 68.9813 10.4852 69.601 10.4852C70.5749 10.4852 71.3606 10.7342 71.9582 11.2322C72.5558 11.7192 72.8767 12.3942 72.921 13.2574H71.759C71.7258 12.7262 71.5155 12.3002 71.1282 11.9792C70.7519 11.6472 70.2318 11.4812 69.5678 11.4812C68.9813 11.4812 68.5054 11.6196 68.1402 11.8962C67.775 12.1729 67.5924 12.516 67.5924 12.9254C67.5924 13.2796 67.6975 13.5728 67.9078 13.8052C68.1291 14.0266 68.4003 14.2036 68.7212 14.3364C69.0421 14.4582 69.4737 14.5965 70.016 14.7514C70.6689 14.9285 71.1891 15.1 71.5764 15.266C71.9637 15.432 72.2957 15.6755 72.5724 15.9964C72.8491 16.3174 72.9929 16.7434 73.004 17.2746C73.004 17.7616 72.8712 18.1987 72.6056 18.586C72.34 18.9623 71.9693 19.2611 71.4934 19.4824C71.0175 19.7038 70.4697 19.8144 69.85 19.8144Z" fill="#2E2527"/>
<path d="M93.7968 13.8716C93.7968 12.7318 94.0458 11.7136 94.5438 10.8172C95.0418 9.90977 95.7224 9.20704 96.5856 8.70904C97.4488 8.19997 98.4116 7.94544 99.474 7.94544C100.769 7.94544 101.875 8.25531 102.794 8.87504C103.724 9.48371 104.399 10.3469 104.819 11.4646H103.458C103.126 10.6789 102.617 10.0647 101.931 9.62204C101.256 9.17937 100.437 8.95804 99.474 8.95804C98.6219 8.95804 97.8527 9.15724 97.1666 9.55564C96.4915 9.95404 95.9603 10.5295 95.573 11.282C95.1857 12.0235 94.992 12.8867 94.992 13.8716C94.992 14.8566 95.1857 15.7198 95.573 16.4612C95.9603 17.2027 96.4915 17.7726 97.1666 18.171C97.8527 18.5694 98.6219 18.7686 99.474 18.7686C100.437 18.7686 101.256 18.5528 101.931 18.1212C102.617 17.6786 103.126 17.0699 103.458 16.2952H104.819C104.399 17.4019 103.724 18.2596 102.794 18.8682C101.864 19.4769 100.758 19.7812 99.474 19.7812C98.4116 19.7812 97.4488 19.5322 96.5856 19.0342C95.7224 18.5252 95.0418 17.8224 94.5438 16.926C94.0458 16.0296 93.7968 15.0115 93.7968 13.8716ZM110.77 19.8144C109.918 19.8144 109.149 19.6263 108.463 19.25C107.788 18.8627 107.251 18.3204 106.852 17.6232C106.465 16.915 106.271 16.0905 106.271 15.1498C106.271 14.2092 106.471 13.3902 106.869 12.693C107.267 11.9848 107.81 11.4425 108.496 11.0662C109.182 10.6789 109.951 10.4852 110.803 10.4852C111.655 10.4852 112.425 10.6789 113.111 11.0662C113.808 11.4425 114.35 11.9848 114.737 12.693C115.136 13.3902 115.335 14.2092 115.335 15.1498C115.335 16.0794 115.136 16.8984 114.737 17.6066C114.339 18.3149 113.791 18.8627 113.094 19.25C112.397 19.6263 111.622 19.8144 110.77 19.8144ZM110.77 18.8018C111.368 18.8018 111.921 18.669 112.43 18.4034C112.939 18.1268 113.349 17.7173 113.658 17.175C113.979 16.6217 114.14 15.9466 114.14 15.1498C114.14 14.353 113.985 13.6835 113.675 13.1412C113.365 12.5879 112.956 12.1784 112.447 11.9128C111.938 11.6362 111.384 11.4978 110.787 11.4978C110.189 11.4978 109.636 11.6362 109.127 11.9128C108.618 12.1784 108.208 12.5879 107.898 13.1412C107.599 13.6835 107.45 14.353 107.45 15.1498C107.45 15.9466 107.599 16.6217 107.898 17.175C108.208 17.7173 108.612 18.1268 109.11 18.4034C109.619 18.669 110.172 18.8018 110.77 18.8018ZM121.371 10.452C122.455 10.452 123.341 10.7896 124.027 11.4646C124.713 12.1286 125.056 13.097 125.056 14.3696V19.6816H123.911V14.5024C123.911 13.5175 123.662 12.765 123.164 12.2448C122.677 11.7247 122.007 11.4646 121.155 11.4646C120.281 11.4646 119.584 11.7413 119.063 12.2946C118.543 12.848 118.283 13.6614 118.283 14.7348V19.6816H117.121V10.618H118.283V12.1618C118.571 11.6085 118.986 11.188 119.528 10.9002C120.07 10.6014 120.685 10.452 121.371 10.452ZM128.805 11.5974V17.2248C128.805 17.7782 128.91 18.16 129.12 18.3702C129.33 18.5805 129.701 18.6856 130.232 18.6856H131.295V19.6816H130.05C129.231 19.6816 128.622 19.4935 128.224 19.1172C127.825 18.7299 127.626 18.0991 127.626 17.2248V11.5974H126.364V10.618H127.626V8.34384H128.805V10.618H131.295V11.5974H128.805ZM132.348 15.1332C132.348 14.2036 132.53 13.3902 132.896 12.693C133.272 11.9848 133.786 11.4425 134.439 11.0662C135.103 10.6789 135.85 10.4852 136.68 10.4852C137.544 10.4852 138.285 10.6844 138.905 11.0828C139.536 11.4812 139.989 11.9903 140.266 12.61V10.618H141.428V19.6816H140.266V17.673C139.978 18.2928 139.519 18.8074 138.888 19.2168C138.268 19.6152 137.527 19.8144 136.664 19.8144C135.845 19.8144 135.103 19.6208 134.439 19.2334C133.786 18.8461 133.272 18.2983 132.896 17.59C132.53 16.8818 132.348 16.0628 132.348 15.1332ZM140.266 15.1498C140.266 14.4194 140.117 13.7776 139.818 13.2242C139.519 12.6709 139.109 12.2448 138.589 11.946C138.08 11.6472 137.516 11.4978 136.896 11.4978C136.254 11.4978 135.679 11.6417 135.17 11.9294C134.661 12.2172 134.257 12.6377 133.958 13.191C133.67 13.7333 133.526 14.3807 133.526 15.1332C133.526 15.8747 133.67 16.5276 133.958 17.092C134.257 17.6454 134.661 18.0714 135.17 18.3702C135.679 18.658 136.254 18.8018 136.896 18.8018C137.516 18.8018 138.08 18.6524 138.589 18.3536C139.109 18.0548 139.519 17.6288 139.818 17.0754C140.117 16.5221 140.266 15.8802 140.266 15.1498ZM143.217 15.1498C143.217 14.2092 143.406 13.3902 143.782 12.693C144.158 11.9848 144.678 11.4425 145.342 11.0662C146.006 10.6789 146.764 10.4852 147.616 10.4852C148.734 10.4852 149.653 10.7619 150.372 11.3152C151.102 11.8686 151.573 12.6211 151.783 13.5728H150.538C150.383 12.9199 150.046 12.4108 149.525 12.0456C149.016 11.6694 148.38 11.4812 147.616 11.4812C147.008 11.4812 146.46 11.6196 145.973 11.8962C145.486 12.1729 145.099 12.5879 144.811 13.1412C144.534 13.6835 144.396 14.353 144.396 15.1498C144.396 15.9466 144.534 16.6217 144.811 17.175C145.099 17.7284 145.486 18.1434 145.973 18.42C146.46 18.6967 147.008 18.835 147.616 18.835C148.38 18.835 149.016 18.6524 149.525 18.2872C150.046 17.911 150.383 17.3908 150.538 16.7268H151.783C151.573 17.6564 151.102 18.4034 150.372 18.9678C149.642 19.5322 148.723 19.8144 147.616 19.8144C146.764 19.8144 146.006 19.6263 145.342 19.25C144.678 18.8627 144.158 18.3204 143.782 17.6232C143.406 16.915 143.217 16.0905 143.217 15.1498ZM155.108 11.5974V17.2248C155.108 17.7782 155.213 18.16 155.423 18.3702C155.633 18.5805 156.004 18.6856 156.535 18.6856H157.598V19.6816H156.353C155.534 19.6816 154.925 19.4935 154.527 19.1172C154.128 18.7299 153.929 18.0991 153.929 17.2248V11.5974H152.668V10.618H153.929V8.34384H155.108V10.618H157.598V11.5974H155.108ZM163.15 19.8144C162.297 19.8144 161.528 19.6263 160.842 19.25C160.167 18.8627 159.63 18.3204 159.232 17.6232C158.845 16.915 158.651 16.0905 158.651 15.1498C158.651 14.2092 158.85 13.3902 159.249 12.693C159.647 11.9848 160.189 11.4425 160.875 11.0662C161.561 10.6789 162.331 10.4852 163.183 10.4852C164.035 10.4852 164.804 10.6789 165.49 11.0662C166.187 11.4425 166.73 11.9848 167.117 12.693C167.515 13.3902 167.715 14.2092 167.715 15.1498C167.715 16.0794 167.515 16.8984 167.117 17.6066C166.719 18.3149 166.171 18.8627 165.474 19.25C164.776 19.6263 164.002 19.8144 163.15 19.8144ZM163.15 18.8018C163.747 18.8018 164.3 18.669 164.81 18.4034C165.319 18.1268 165.728 17.7173 166.038 17.175C166.359 16.6217 166.519 15.9466 166.519 15.1498C166.519 14.353 166.364 13.6835 166.055 13.1412C165.745 12.5879 165.335 12.1784 164.826 11.9128C164.317 11.6362 163.764 11.4978 163.166 11.4978C162.569 11.4978 162.015 11.6362 161.506 11.9128C160.997 12.1784 160.588 12.5879 160.278 13.1412C159.979 13.6835 159.83 14.353 159.83 15.1498C159.83 15.9466 159.979 16.6217 160.278 17.175C160.588 17.7173 160.992 18.1268 161.49 18.4034C161.999 18.669 162.552 18.8018 163.15 18.8018Z" fill="#2E2527"/>
<path d="M192.847 19.7978C192.084 19.7978 191.409 19.665 190.822 19.3994C190.247 19.1338 189.793 18.7631 189.461 18.2872C189.129 17.8114 188.952 17.2802 188.93 16.6936H190.158C190.213 17.258 190.462 17.756 190.905 18.1876C191.348 18.6082 191.995 18.8184 192.847 18.8184C193.633 18.8184 194.253 18.6192 194.706 18.2208C195.171 17.8114 195.404 17.2968 195.404 16.677C195.404 16.179 195.276 15.7806 195.022 15.4818C194.767 15.172 194.452 14.9451 194.076 14.8012C193.699 14.6463 193.179 14.4803 192.515 14.3032C191.741 14.093 191.126 13.8882 190.673 13.689C190.219 13.4898 189.832 13.18 189.511 12.7594C189.19 12.3389 189.029 11.769 189.029 11.0496C189.029 10.452 189.184 9.92084 189.494 9.45604C189.804 8.98017 190.241 8.60944 190.805 8.34384C191.37 8.07824 192.017 7.94544 192.748 7.94544C193.821 7.94544 194.684 8.21104 195.337 8.74224C196.001 9.26237 196.383 9.93744 196.483 10.7674H195.221C195.144 10.2916 194.883 9.87104 194.441 9.50584C193.998 9.12957 193.401 8.94144 192.648 8.94144C191.951 8.94144 191.37 9.12957 190.905 9.50584C190.44 9.87104 190.208 10.3746 190.208 11.0164C190.208 11.5034 190.335 11.8962 190.59 12.195C190.844 12.4938 191.16 12.7207 191.536 12.8756C191.923 13.0306 192.443 13.1966 193.096 13.3736C193.849 13.5839 194.457 13.7942 194.922 14.0044C195.387 14.2036 195.78 14.5135 196.101 14.934C196.422 15.3546 196.582 15.919 196.582 16.6272C196.582 17.1695 196.438 17.6841 196.151 18.171C195.863 18.658 195.437 19.0508 194.872 19.3496C194.308 19.6484 193.633 19.7978 192.847 19.7978ZM206.696 14.685C206.696 15.0834 206.685 15.3878 206.663 15.598H199.143C199.176 16.2842 199.342 16.8707 199.641 17.3576C199.94 17.8446 200.333 18.2153 200.82 18.4698C201.307 18.7133 201.838 18.835 202.413 18.835C203.166 18.835 203.797 18.6524 204.306 18.2872C204.826 17.922 205.169 17.4296 205.335 16.8098H206.563C206.342 17.6952 205.866 18.42 205.136 18.9844C204.416 19.5378 203.509 19.8144 202.413 19.8144C201.561 19.8144 200.797 19.6263 200.122 19.25C199.447 18.8627 198.916 18.3204 198.529 17.6232C198.153 16.915 197.964 16.0905 197.964 15.1498C197.964 14.2092 198.153 13.3847 198.529 12.6764C198.905 11.9682 199.431 11.4259 200.106 11.0496C200.781 10.6734 201.55 10.4852 202.413 10.4852C203.276 10.4852 204.029 10.6734 204.671 11.0496C205.324 11.4259 205.822 11.935 206.165 12.5768C206.519 13.2076 206.696 13.9104 206.696 14.685ZM205.517 14.6518C205.528 13.9768 205.39 13.4013 205.102 12.9254C204.826 12.4496 204.444 12.0899 203.957 11.8464C203.47 11.603 202.939 11.4812 202.363 11.4812C201.5 11.4812 200.764 11.7579 200.156 12.3112C199.547 12.8646 199.209 13.6448 199.143 14.6518H205.517ZM209.652 12.2282C209.907 11.6638 210.294 11.2267 210.814 10.9168C211.345 10.607 211.993 10.452 212.756 10.452V11.6638H212.441C211.6 11.6638 210.925 11.8907 210.416 12.3444C209.907 12.7982 209.652 13.5562 209.652 14.6186V19.6816H208.49V10.618H209.652V12.2282ZM217.393 18.5528L220.447 10.618H221.675L218.04 19.6816H216.729L213.093 10.618H214.338L217.393 18.5528ZM223.499 8.90824C223.267 8.90824 223.068 8.82524 222.902 8.65924C222.736 8.49324 222.653 8.28851 222.653 8.04504C222.653 7.80157 222.736 7.60237 222.902 7.44744C223.068 7.28144 223.267 7.19844 223.499 7.19844C223.732 7.19844 223.931 7.28144 224.097 7.44744C224.263 7.60237 224.346 7.80157 224.346 8.04504C224.346 8.28851 224.263 8.49324 224.097 8.65924C223.931 8.82524 223.732 8.90824 223.499 8.90824ZM224.08 10.618V19.6816H222.918V10.618H224.08ZM225.849 15.1498C225.849 14.2092 226.037 13.3902 226.413 12.693C226.789 11.9848 227.309 11.4425 227.973 11.0662C228.637 10.6789 229.395 10.4852 230.248 10.4852C231.365 10.4852 232.284 10.7619 233.003 11.3152C233.734 11.8686 234.204 12.6211 234.414 13.5728H233.169C233.014 12.9199 232.677 12.4108 232.157 12.0456C231.647 11.6694 231.011 11.4812 230.248 11.4812C229.639 11.4812 229.091 11.6196 228.604 11.8962C228.117 12.1729 227.73 12.5879 227.442 13.1412C227.165 13.6835 227.027 14.353 227.027 15.1498C227.027 15.9466 227.165 16.6217 227.442 17.175C227.73 17.7284 228.117 18.1434 228.604 18.42C229.091 18.6967 229.639 18.835 230.248 18.835C231.011 18.835 231.647 18.6524 232.157 18.2872C232.677 17.911 233.014 17.3908 233.169 16.7268H234.414C234.204 17.6564 233.734 18.4034 233.003 18.9678C232.273 19.5322 231.354 19.8144 230.248 19.8144C229.395 19.8144 228.637 19.6263 227.973 19.25C227.309 18.8627 226.789 18.3204 226.413 17.6232C226.037 16.915 225.849 16.0905 225.849 15.1498ZM236.809 8.90824C236.577 8.90824 236.378 8.82524 236.212 8.65924C236.046 8.49324 235.963 8.28851 235.963 8.04504C235.963 7.80157 236.046 7.60237 236.212 7.44744C236.378 7.28144 236.577 7.19844 236.809 7.19844C237.042 7.19844 237.241 7.28144 237.407 7.44744C237.573 7.60237 237.656 7.80157 237.656 8.04504C237.656 8.28851 237.573 8.49324 237.407 8.65924C237.241 8.82524 237.042 8.90824 236.809 8.90824ZM237.39 10.618V19.6816H236.228V10.618H237.39ZM243.657 19.8144C242.805 19.8144 242.036 19.6263 241.35 19.25C240.674 18.8627 240.138 18.3204 239.739 17.6232C239.352 16.915 239.158 16.0905 239.158 15.1498C239.158 14.2092 239.358 13.3902 239.756 12.693C240.154 11.9848 240.697 11.4425 241.383 11.0662C242.069 10.6789 242.838 10.4852 243.69 10.4852C244.542 10.4852 245.311 10.6789 245.998 11.0662C246.695 11.4425 247.237 11.9848 247.624 12.693C248.023 13.3902 248.222 14.2092 248.222 15.1498C248.222 16.0794 248.023 16.8984 247.624 17.6066C247.226 18.3149 246.678 18.8627 245.981 19.25C245.284 19.6263 244.509 19.8144 243.657 19.8144ZM243.657 18.8018C244.255 18.8018 244.808 18.669 245.317 18.4034C245.826 18.1268 246.235 17.7173 246.545 17.175C246.866 16.6217 247.027 15.9466 247.027 15.1498C247.027 14.353 246.872 13.6835 246.562 13.1412C246.252 12.5879 245.843 12.1784 245.334 11.9128C244.824 11.6362 244.271 11.4978 243.674 11.4978C243.076 11.4978 242.523 11.6362 242.014 11.9128C241.504 12.1784 241.095 12.5879 240.785 13.1412C240.486 13.6835 240.337 14.353 240.337 15.1498C240.337 15.9466 240.486 16.6217 240.785 17.175C241.095 17.7173 241.499 18.1268 241.997 18.4034C242.506 18.669 243.059 18.8018 243.657 18.8018ZM253.129 19.8144C252.089 19.8144 251.237 19.5765 250.573 19.1006C249.92 18.6137 249.554 17.9552 249.477 17.1252H250.672C250.727 17.6343 250.965 18.0493 251.386 18.3702C251.818 18.6801 252.393 18.835 253.112 18.835C253.743 18.835 254.236 18.6856 254.59 18.3868C254.955 18.088 255.138 17.7173 255.138 17.2746C255.138 16.9648 255.038 16.7102 254.839 16.511C254.64 16.3118 254.385 16.1569 254.075 16.0462C253.776 15.9245 253.367 15.7972 252.847 15.6644C252.172 15.4874 251.624 15.3103 251.203 15.1332C250.783 14.9562 250.423 14.6961 250.124 14.353C249.837 13.9989 249.693 13.5286 249.693 12.942C249.693 12.4994 249.826 12.0899 250.091 11.7136C250.357 11.3374 250.733 11.0386 251.22 10.8172C251.707 10.5959 252.26 10.4852 252.88 10.4852C253.854 10.4852 254.64 10.7342 255.237 11.2322C255.835 11.7192 256.156 12.3942 256.2 13.2574H255.038C255.005 12.7262 254.794 12.3002 254.407 11.9792C254.031 11.6472 253.511 11.4812 252.847 11.4812C252.26 11.4812 251.784 11.6196 251.419 11.8962C251.054 12.1729 250.871 12.516 250.871 12.9254C250.871 13.2796 250.976 13.5728 251.187 13.8052C251.408 14.0266 251.679 14.2036 252 14.3364C252.321 14.4582 252.753 14.5965 253.295 14.7514C253.948 14.9285 254.468 15.1 254.855 15.266C255.243 15.432 255.575 15.6755 255.851 15.9964C256.128 16.3174 256.272 16.7434 256.283 17.2746C256.283 17.7616 256.15 18.1987 255.885 18.586C255.619 18.9623 255.248 19.2611 254.772 19.4824C254.296 19.7038 253.749 19.8144 253.129 19.8144Z" fill="#2E2527"/>
</g>
<g clip-path="url(#clip1_7959_280)">
<path d="M12.7482 59.4148C12.7482 60.4108 12.4217 61.2132 11.7688 61.8218C11.1159 62.4305 10.1365 62.7348 8.8306 62.7348H6.49V67.6816H5.328V56.0782H8.8306C10.1254 56.0782 11.0993 56.3826 11.7522 56.9912C12.4162 57.5999 12.7482 58.4078 12.7482 59.4148ZM8.8306 61.7388C10.6455 61.7388 11.553 60.9642 11.553 59.4148C11.553 58.6402 11.3372 58.0536 10.9056 57.6552C10.474 57.2568 9.78233 57.0576 8.8306 57.0576H6.49V61.7388H8.8306ZM13.8347 63.1332C13.8347 62.2036 14.0173 61.3902 14.3825 60.693C14.7588 59.9848 15.2734 59.4425 15.9263 59.0662C16.5903 58.6789 17.3373 58.4852 18.1673 58.4852C19.0305 58.4852 19.772 58.6844 20.3917 59.0828C21.0225 59.4812 21.4763 59.9903 21.7529 60.61V58.618H22.9149V67.6816H21.7529V65.673C21.4652 66.2928 21.0059 66.8074 20.3751 67.2168C19.7554 67.6152 19.0139 67.8144 18.1507 67.8144C17.3318 67.8144 16.5903 67.6208 15.9263 67.2334C15.2734 66.8461 14.7588 66.2983 14.3825 65.59C14.0173 64.8818 13.8347 64.0628 13.8347 63.1332ZM21.7529 63.1498C21.7529 62.4194 21.6035 61.7776 21.3047 61.2242C21.0059 60.6709 20.5965 60.2448 20.0763 59.946C19.5673 59.6472 19.0029 59.4978 18.3831 59.4978C17.7413 59.4978 17.1658 59.6417 16.6567 59.9294C16.1477 60.2172 15.7437 60.6377 15.4449 61.191C15.1572 61.7333 15.0133 62.3807 15.0133 63.1332C15.0133 63.8747 15.1572 64.5276 15.4449 65.092C15.7437 65.6454 16.1477 66.0714 16.6567 66.3702C17.1658 66.658 17.7413 66.8018 18.3831 66.8018C19.0029 66.8018 19.5673 66.6524 20.0763 66.3536C20.5965 66.0548 21.0059 65.6288 21.3047 65.0754C21.6035 64.5221 21.7529 63.8802 21.7529 63.1498ZM26.3977 60.2282C26.6522 59.6638 27.0395 59.2267 27.5597 58.9168C28.0909 58.607 28.7383 58.452 29.5019 58.452V59.6638H29.1865C28.3454 59.6638 27.6703 59.8907 27.1613 60.3444C26.6522 60.7982 26.3977 61.5562 26.3977 62.6186V67.6816H25.2357V58.618H26.3977V60.2282ZM32.4285 59.5974V65.2248C32.4285 65.7782 32.5337 66.16 32.7439 66.3702C32.9542 66.5805 33.3249 66.6856 33.8561 66.6856H34.9185V67.6816H33.6735C32.8546 67.6816 32.2459 67.4935 31.8475 67.1172C31.4491 66.7299 31.2499 66.0991 31.2499 65.2248V59.5974H29.9883V58.618H31.2499V56.3438H32.4285V58.618H34.9185V59.5974H32.4285ZM40.7525 58.452C41.8371 58.452 42.7224 58.7896 43.4085 59.4646C44.0947 60.1286 44.4377 61.097 44.4377 62.3696V67.6816H43.2923V62.5024C43.2923 61.5175 43.0433 60.765 42.5453 60.2448C42.0584 59.7247 41.3889 59.4646 40.5367 59.4646C39.6625 59.4646 38.9653 59.7413 38.4451 60.2946C37.925 60.848 37.6649 61.6614 37.6649 62.7348V67.6816H36.5029V58.618H37.6649V60.1618C37.9527 59.6085 38.3677 59.188 38.9099 58.9002C39.4522 58.6014 40.0664 58.452 40.7525 58.452ZM54.876 62.685C54.876 63.0834 54.865 63.3878 54.8428 63.598H47.323C47.3562 64.2842 47.5222 64.8707 47.821 65.3576C48.1198 65.8446 48.5127 66.2153 48.9996 66.4698C49.4866 66.7133 50.0178 66.835 50.5932 66.835C51.3458 66.835 51.9766 66.6524 52.4856 66.2872C53.0058 65.922 53.3488 65.4296 53.5148 64.8098H54.7432C54.5219 65.6952 54.046 66.42 53.3156 66.9844C52.5963 67.5378 51.6888 67.8144 50.5932 67.8144C49.7411 67.8144 48.9775 67.6263 48.3024 67.25C47.6274 66.8627 47.0962 66.3204 46.7088 65.6232C46.3326 64.915 46.1444 64.0905 46.1444 63.1498C46.1444 62.2092 46.3326 61.3847 46.7088 60.6764C47.0851 59.9682 47.6108 59.4259 48.2858 59.0496C48.9609 58.6734 49.73 58.4852 50.5932 58.4852C51.4564 58.4852 52.209 58.6734 52.8508 59.0496C53.5038 59.4259 54.0018 59.935 54.3448 60.5768C54.699 61.2076 54.876 61.9104 54.876 62.685ZM53.6974 62.6518C53.7085 61.9768 53.5702 61.4013 53.2824 60.9254C53.0058 60.4496 52.624 60.0899 52.137 59.8464C51.6501 59.603 51.1189 59.4812 50.5434 59.4812C49.6802 59.4812 48.9443 59.7579 48.3356 60.3112C47.727 60.8646 47.3894 61.6448 47.323 62.6518H53.6974ZM57.832 60.2282C58.0865 59.6638 58.4739 59.2267 58.994 58.9168C59.5252 58.607 60.1726 58.452 60.9362 58.452V59.6638H60.6208C59.7797 59.6638 59.1047 59.8907 58.5956 60.3444C58.0865 60.7982 57.832 61.5562 57.832 62.6186V67.6816H56.67V58.618H57.832V60.2282ZM65.473 67.8144C64.4328 67.8144 63.5806 67.5765 62.9166 67.1006C62.2637 66.6137 61.8985 65.9552 61.821 65.1252H63.0162C63.0716 65.6343 63.3095 66.0493 63.73 66.3702C64.1616 66.6801 64.7371 66.835 65.4564 66.835C66.0872 66.835 66.5797 66.6856 66.9338 66.3868C67.299 66.088 67.4816 65.7173 67.4816 65.2746C67.4816 64.9648 67.382 64.7102 67.1828 64.511C66.9836 64.3118 66.7291 64.1569 66.4192 64.0462C66.1204 63.9245 65.711 63.7972 65.1908 63.6644C64.5158 63.4874 63.968 63.3103 63.5474 63.1332C63.1269 62.9562 62.7672 62.6961 62.4684 62.353C62.1807 61.9989 62.0368 61.5286 62.0368 60.942C62.0368 60.4994 62.1696 60.0899 62.4352 59.7136C62.7008 59.3374 63.0771 59.0386 63.564 58.8172C64.051 58.5959 64.6043 58.4852 65.224 58.4852C66.1979 58.4852 66.9836 58.7342 67.5812 59.2322C68.1788 59.7192 68.4998 60.3942 68.544 61.2574H67.382C67.3488 60.7262 67.1386 60.3002 66.7512 59.9792C66.375 59.6472 65.8548 59.4812 65.1908 59.4812C64.6043 59.4812 64.1284 59.6196 63.7632 59.8962C63.398 60.1729 63.2154 60.516 63.2154 60.9254C63.2154 61.2796 63.3206 61.5728 63.5308 61.8052C63.7522 62.0266 64.0233 62.2036 64.3442 62.3364C64.6652 62.4582 65.0968 62.5965 65.639 62.7514C66.292 62.9285 66.8121 63.1 67.1994 63.266C67.5868 63.432 67.9188 63.6755 68.1954 63.9964C68.4721 64.3174 68.616 64.7434 68.627 65.2746C68.627 65.7616 68.4942 66.1987 68.2286 66.586C67.963 66.9623 67.5923 67.2611 67.1164 67.4824C66.6406 67.7038 66.0928 67.8144 65.473 67.8144Z" fill="#2E2527"/>
<path d="M96.6028 56.0782V57.041H91.49V61.3736H95.806V62.3364H91.49V67.6816H90.328V56.0782H96.6028ZM104.906 64.926H99.6267L98.6141 67.6816H97.3857L101.619 56.2276H102.93L107.147 67.6816H105.918L104.906 64.926ZM104.557 63.9632L102.266 57.6884L99.9753 63.9632H104.557ZM118.258 69.9558L115.668 67.5488C115.104 67.7148 114.512 67.7978 113.892 67.7978C112.818 67.7978 111.844 67.5488 110.97 67.0508C110.096 66.5418 109.404 65.839 108.895 64.9426C108.397 64.0352 108.148 63.0115 108.148 61.8716C108.148 60.7318 108.397 59.7136 108.895 58.8172C109.404 57.9098 110.096 57.207 110.97 56.709C111.844 56.2 112.818 55.9454 113.892 55.9454C114.976 55.9454 115.956 56.2 116.83 56.709C117.704 57.207 118.39 57.9098 118.888 58.8172C119.386 59.7136 119.635 60.7318 119.635 61.8716C119.635 63.0447 119.375 64.0905 118.855 65.009C118.335 65.9165 117.621 66.6137 116.714 67.1006L119.818 69.9558H118.258ZM109.343 61.8716C109.343 62.8566 109.543 63.7253 109.941 64.4778C110.339 65.2193 110.882 65.7892 111.568 66.1876C112.254 66.586 113.029 66.7852 113.892 66.7852C114.755 66.7852 115.53 66.586 116.216 66.1876C116.902 65.7892 117.444 65.2193 117.843 64.4778C118.241 63.7253 118.44 62.8566 118.44 61.8716C118.44 60.8867 118.241 60.0235 117.843 59.282C117.444 58.5406 116.902 57.9706 116.216 57.5722C115.53 57.1738 114.755 56.9746 113.892 56.9746C113.029 56.9746 112.254 57.1738 111.568 57.5722C110.882 57.9706 110.339 58.5406 109.941 59.282C109.543 60.0235 109.343 60.8867 109.343 61.8716ZM121.595 56.0782H122.94L121.479 59.6638H120.632L121.595 56.0782ZM127.908 67.7978C127.144 67.7978 126.469 67.665 125.882 67.3994C125.307 67.1338 124.853 66.7631 124.521 66.2872C124.189 65.8114 124.012 65.2802 123.99 64.6936H125.218C125.274 65.258 125.523 65.756 125.965 66.1876C126.408 66.6082 127.056 66.8184 127.908 66.8184C128.693 66.8184 129.313 66.6192 129.767 66.2208C130.232 65.8114 130.464 65.2968 130.464 64.677C130.464 64.179 130.337 63.7806 130.082 63.4818C129.828 63.172 129.512 62.9451 129.136 62.8012C128.76 62.6463 128.24 62.4803 127.576 62.3032C126.801 62.093 126.187 61.8882 125.733 61.689C125.279 61.4898 124.892 61.18 124.571 60.7594C124.25 60.3389 124.09 59.769 124.09 59.0496C124.09 58.452 124.245 57.9208 124.554 57.456C124.864 56.9802 125.301 56.6094 125.866 56.3438C126.43 56.0782 127.078 55.9454 127.808 55.9454C128.882 55.9454 129.745 56.211 130.398 56.7422C131.062 57.2624 131.443 57.9374 131.543 58.7674H130.281C130.204 58.2916 129.944 57.871 129.501 57.5058C129.059 57.1296 128.461 56.9414 127.708 56.9414C127.011 56.9414 126.43 57.1296 125.965 57.5058C125.501 57.871 125.268 58.3746 125.268 59.0164C125.268 59.5034 125.396 59.8962 125.65 60.195C125.905 60.4938 126.22 60.7207 126.596 60.8756C126.984 61.0306 127.504 61.1966 128.157 61.3736C128.909 61.5839 129.518 61.7942 129.983 62.0044C130.447 62.2036 130.84 62.5135 131.161 62.934C131.482 63.3546 131.643 63.919 131.643 64.6272C131.643 65.1695 131.499 65.6841 131.211 66.171C130.923 66.658 130.497 67.0508 129.933 67.3496C129.368 67.6484 128.693 67.7978 127.908 67.7978Z" fill="#2E2527"/>
<path d="M160.117 56.0782V57.041H156.897V67.6816H155.735V57.041H152.498V56.0782H160.117ZM169.821 62.685C169.821 63.0834 169.81 63.3878 169.787 63.598H162.268C162.301 64.2842 162.467 64.8707 162.766 65.3576C163.064 65.8446 163.457 66.2153 163.944 66.4698C164.431 66.7133 164.962 66.835 165.538 66.835C166.29 66.835 166.921 66.6524 167.43 66.2872C167.95 65.922 168.293 65.4296 168.459 64.8098H169.688C169.466 65.6952 168.991 66.42 168.26 66.9844C167.541 67.5378 166.633 67.8144 165.538 67.8144C164.686 67.8144 163.922 67.6263 163.247 67.25C162.572 66.8627 162.041 66.3204 161.653 65.6232C161.277 64.915 161.089 64.0905 161.089 63.1498C161.089 62.2092 161.277 61.3847 161.653 60.6764C162.03 59.9682 162.555 59.4259 163.23 59.0496C163.905 58.6734 164.675 58.4852 165.538 58.4852C166.401 58.4852 167.154 58.6734 167.795 59.0496C168.448 59.4259 168.946 59.935 169.289 60.5768C169.644 61.2076 169.821 61.9104 169.821 62.685ZM168.642 62.6518C168.653 61.9768 168.515 61.4013 168.227 60.9254C167.95 60.4496 167.569 60.0899 167.082 59.8464C166.595 59.603 166.063 59.4812 165.488 59.4812C164.625 59.4812 163.889 59.7579 163.28 60.3112C162.672 60.8646 162.334 61.6448 162.268 62.6518H168.642ZM166.982 55.9454L163.579 57.9208V57.0244L166.982 54.8996V55.9454ZM172.777 60.2282C173.031 59.6638 173.418 59.2267 173.939 58.9168C174.47 58.607 175.117 58.452 175.881 58.452V59.6638H175.565C174.724 59.6638 174.049 59.8907 173.54 60.3444C173.031 60.7982 172.777 61.5562 172.777 62.6186V67.6816H171.615V58.618H172.777V60.2282ZM188.087 58.452C189.149 58.452 190.012 58.7896 190.676 59.4646C191.352 60.1286 191.689 61.097 191.689 62.3696V67.6816H190.544V62.5024C190.544 61.5175 190.306 60.765 189.83 60.2448C189.354 59.7247 188.707 59.4646 187.888 59.4646C187.036 59.4646 186.355 59.7468 185.846 60.3112C185.337 60.8756 185.082 61.6946 185.082 62.768V67.6816H183.937V62.5024C183.937 61.5175 183.699 60.765 183.223 60.2448C182.747 59.7247 182.094 59.4646 181.264 59.4646C180.412 59.4646 179.732 59.7468 179.222 60.3112C178.713 60.8756 178.459 61.6946 178.459 62.768V67.6816H177.297V58.618H178.459V60.1784C178.747 59.614 179.156 59.188 179.687 58.9002C180.218 58.6014 180.811 58.452 181.463 58.452C182.249 58.452 182.935 58.6402 183.522 59.0164C184.119 59.3927 184.551 59.946 184.817 60.6764C185.06 59.9571 185.475 59.4093 186.062 59.033C186.659 58.6457 187.334 58.452 188.087 58.452ZM194.519 56.9082C194.286 56.9082 194.087 56.8252 193.921 56.6592C193.755 56.4932 193.672 56.2885 193.672 56.045C193.672 55.8016 193.755 55.6024 193.921 55.4474C194.087 55.2814 194.286 55.1984 194.519 55.1984C194.751 55.1984 194.95 55.2814 195.116 55.4474C195.282 55.6024 195.365 55.8016 195.365 56.045C195.365 56.2885 195.282 56.4932 195.116 56.6592C194.95 56.8252 194.751 56.9082 194.519 56.9082ZM195.1 58.618V67.6816H193.938V58.618H195.1ZM201.649 58.452C202.733 58.452 203.619 58.7896 204.305 59.4646C204.991 60.1286 205.334 61.097 205.334 62.3696V67.6816H204.188V62.5024C204.188 61.5175 203.939 60.765 203.441 60.2448C202.955 59.7247 202.285 59.4646 201.433 59.4646C200.559 59.4646 199.861 59.7413 199.341 60.2946C198.821 60.848 198.561 61.6614 198.561 62.7348V67.6816H197.399V58.618H198.561V60.1618C198.849 59.6085 199.264 59.188 199.806 58.9002C200.348 58.6014 200.963 58.452 201.649 58.452ZM211.539 67.8144C210.687 67.8144 209.918 67.6263 209.232 67.25C208.557 66.8627 208.02 66.3204 207.622 65.6232C207.234 64.915 207.041 64.0905 207.041 63.1498C207.041 62.2092 207.24 61.3902 207.638 60.693C208.037 59.9848 208.579 59.4425 209.265 59.0662C209.951 58.6789 210.72 58.4852 211.572 58.4852C212.424 58.4852 213.194 58.6789 213.88 59.0662C214.577 59.4425 215.119 59.9848 215.507 60.693C215.905 61.3902 216.104 62.2092 216.104 63.1498C216.104 64.0794 215.905 64.8984 215.507 65.6066C215.108 66.3149 214.56 66.8627 213.863 67.25C213.166 67.6263 212.391 67.8144 211.539 67.8144ZM211.539 66.8018C212.137 66.8018 212.69 66.669 213.199 66.4034C213.708 66.1268 214.118 65.7173 214.428 65.175C214.748 64.6217 214.909 63.9466 214.909 63.1498C214.909 62.353 214.754 61.6835 214.444 61.1412C214.134 60.5879 213.725 60.1784 213.216 59.9128C212.707 59.6362 212.153 59.4978 211.556 59.4978C210.958 59.4978 210.405 59.6362 209.896 59.9128C209.387 60.1784 208.977 60.5879 208.667 61.1412C208.369 61.6835 208.219 62.353 208.219 63.1498C208.219 63.9466 208.369 64.6217 208.667 65.175C208.977 65.7173 209.381 66.1268 209.879 66.4034C210.388 66.669 210.942 66.8018 211.539 66.8018ZM221.011 67.8144C219.971 67.8144 219.119 67.5765 218.455 67.1006C217.802 66.6137 217.437 65.9552 217.359 65.1252H218.554C218.61 65.6343 218.848 66.0493 219.268 66.3702C219.7 66.6801 220.275 66.835 220.995 66.835C221.625 66.835 222.118 66.6856 222.472 66.3868C222.837 66.088 223.02 65.7173 223.02 65.2746C223.02 64.9648 222.92 64.7102 222.721 64.511C222.522 64.3118 222.267 64.1569 221.957 64.0462C221.659 63.9245 221.249 63.7972 220.729 63.6644C220.054 63.4874 219.506 63.3103 219.086 63.1332C218.665 62.9562 218.305 62.6961 218.007 62.353C217.719 61.9989 217.575 61.5286 217.575 60.942C217.575 60.4994 217.708 60.0899 217.973 59.7136C218.239 59.3374 218.615 59.0386 219.102 58.8172C219.589 58.5959 220.142 58.4852 220.762 58.4852C221.736 58.4852 222.522 58.7342 223.119 59.2322C223.717 59.7192 224.038 60.3942 224.082 61.2574H222.92C222.887 60.7262 222.677 60.3002 222.289 59.9792C221.913 59.6472 221.393 59.4812 220.729 59.4812C220.142 59.4812 219.667 59.6196 219.301 59.8962C218.936 60.1729 218.754 60.516 218.754 60.9254C218.754 61.2796 218.859 61.5728 219.069 61.8052C219.29 62.0266 219.561 62.2036 219.882 62.3364C220.203 62.4582 220.635 62.5965 221.177 62.7514C221.83 62.9285 222.35 63.1 222.738 63.266C223.125 63.432 223.457 63.6755 223.734 63.9964C224.01 64.3174 224.154 64.7434 224.165 65.2746C224.165 65.7616 224.032 66.1987 223.767 66.586C223.501 66.9623 223.13 67.2611 222.655 67.4824C222.179 67.7038 221.631 67.8144 221.011 67.8144ZM238.096 58.618V67.6816H236.934V66.088C236.668 66.6524 236.258 67.084 235.705 67.3828C235.152 67.6816 234.532 67.831 233.846 67.831C232.761 67.831 231.876 67.499 231.19 66.835C230.504 66.16 230.161 65.1861 230.161 63.9134V58.618H231.306V63.7806C231.306 64.7656 231.55 65.5181 232.037 66.0382C232.535 66.5584 233.21 66.8184 234.062 66.8184C234.936 66.8184 235.633 66.5418 236.153 65.9884C236.673 65.4351 236.934 64.6217 236.934 63.5482V58.618H238.096ZM243.537 67.8144C242.497 67.8144 241.645 67.5765 240.981 67.1006C240.328 66.6137 239.963 65.9552 239.885 65.1252H241.08C241.136 65.6343 241.374 66.0493 241.794 66.3702C242.226 66.6801 242.801 66.835 243.521 66.835C244.151 66.835 244.644 66.6856 244.998 66.3868C245.363 66.088 245.546 65.7173 245.546 65.2746C245.546 64.9648 245.446 64.7102 245.247 64.511C245.048 64.3118 244.793 64.1569 244.483 64.0462C244.185 63.9245 243.775 63.7972 243.255 63.6644C242.58 63.4874 242.032 63.3103 241.612 63.1332C241.191 62.9562 240.831 62.6961 240.533 62.353C240.245 61.9989 240.101 61.5286 240.101 60.942C240.101 60.4994 240.234 60.0899 240.499 59.7136C240.765 59.3374 241.141 59.0386 241.628 58.8172C242.115 58.5959 242.668 58.4852 243.288 58.4852C244.262 58.4852 245.048 58.7342 245.645 59.2322C246.243 59.7192 246.564 60.3942 246.608 61.2574H245.446C245.413 60.7262 245.203 60.3002 244.815 59.9792C244.439 59.6472 243.919 59.4812 243.255 59.4812C242.668 59.4812 242.193 59.6196 241.827 59.8962C241.462 60.1729 241.28 60.516 241.28 60.9254C241.28 61.2796 241.385 61.5728 241.595 61.8052C241.816 62.0266 242.087 62.2036 242.408 62.3364C242.729 62.4582 243.161 62.5965 243.703 62.7514C244.356 62.9285 244.876 63.1 245.264 63.266C245.651 63.432 245.983 63.6755 246.26 63.9964C246.536 64.3174 246.68 64.7434 246.691 65.2746C246.691 65.7616 246.558 66.1987 246.293 66.586C246.027 66.9623 245.656 67.2611 245.181 67.4824C244.705 67.7038 244.157 67.8144 243.537 67.8144ZM252.514 67.8144C251.662 67.8144 250.893 67.6263 250.207 67.25C249.531 66.8627 248.995 66.3204 248.596 65.6232C248.209 64.915 248.015 64.0905 248.015 63.1498C248.015 62.2092 248.215 61.3902 248.613 60.693C249.011 59.9848 249.554 59.4425 250.24 59.0662C250.926 58.6789 251.695 58.4852 252.547 58.4852C253.399 58.4852 254.168 58.6789 254.855 59.0662C255.552 59.4425 256.094 59.9848 256.481 60.693C256.88 61.3902 257.079 62.2092 257.079 63.1498C257.079 64.0794 256.88 64.8984 256.481 65.6066C256.083 66.3149 255.535 66.8627 254.838 67.25C254.141 67.6263 253.366 67.8144 252.514 67.8144ZM252.514 66.8018C253.112 66.8018 253.665 66.669 254.174 66.4034C254.683 66.1268 255.092 65.7173 255.402 65.175C255.723 64.6217 255.884 63.9466 255.884 63.1498C255.884 62.353 255.729 61.6835 255.419 61.1412C255.109 60.5879 254.7 60.1784 254.191 59.9128C253.681 59.6362 253.128 59.4978 252.531 59.4978C251.933 59.4978 251.38 59.6362 250.871 59.9128C250.361 60.1784 249.952 60.5879 249.642 61.1412C249.343 61.6835 249.194 62.353 249.194 63.1498C249.194 63.9466 249.343 64.6217 249.642 65.175C249.952 65.7173 250.356 66.1268 250.854 66.4034C251.363 66.669 251.916 66.8018 252.514 66.8018Z" fill="#2E2527"/>
</g>
<g clip-path="url(#clip2_7959_280)">
<path d="M23.7968 109.872C23.7968 108.732 24.0458 107.714 24.5438 106.817C25.0418 105.91 25.7224 105.207 26.5856 104.709C27.4488 104.2 28.4116 103.945 29.474 103.945C30.7688 103.945 31.8755 104.255 32.794 104.875C33.7236 105.484 34.3987 106.347 34.8192 107.465H33.458C33.126 106.679 32.6169 106.065 31.9308 105.622C31.2557 105.179 30.4368 104.958 29.474 104.958C28.6219 104.958 27.8527 105.157 27.1666 105.556C26.4915 105.954 25.9603 106.53 25.573 107.282C25.1857 108.024 24.992 108.887 24.992 109.872C24.992 110.857 25.1857 111.72 25.573 112.461C25.9603 113.203 26.4915 113.773 27.1666 114.171C27.8527 114.569 28.6219 114.769 29.474 114.769C30.4368 114.769 31.2557 114.553 31.9308 114.121C32.6169 113.679 33.126 113.07 33.458 112.295H34.8192C34.3987 113.402 33.7236 114.26 32.794 114.868C31.8644 115.477 30.7577 115.781 29.474 115.781C28.4116 115.781 27.4488 115.532 26.5856 115.034C25.7224 114.525 25.0418 113.822 24.5438 112.926C24.0458 112.03 23.7968 111.012 23.7968 109.872ZM44.6544 106.618V115.682H43.4924V114.088C43.2268 114.652 42.8174 115.084 42.264 115.383C41.7107 115.682 41.091 115.831 40.4048 115.831C39.3203 115.831 38.435 115.499 37.7488 114.835C37.0627 114.16 36.7196 113.186 36.7196 111.913V106.618H37.865V111.781C37.865 112.766 38.1085 113.518 38.5954 114.038C39.0934 114.558 39.7685 114.818 40.6206 114.818C41.4949 114.818 42.1921 114.542 42.7122 113.988C43.2324 113.435 43.4924 112.622 43.4924 111.548V106.618H44.6544ZM55.1757 110.685C55.1757 111.083 55.1647 111.388 55.1425 111.598H47.6227C47.6559 112.284 47.8219 112.871 48.1207 113.358C48.4195 113.845 48.8124 114.215 49.2993 114.47C49.7863 114.713 50.3175 114.835 50.8929 114.835C51.6455 114.835 52.2763 114.652 52.7853 114.287C53.3055 113.922 53.6485 113.43 53.8145 112.81H55.0429C54.8216 113.695 54.3457 114.42 53.6153 114.984C52.896 115.538 51.9885 115.814 50.8929 115.814C50.0408 115.814 49.2772 115.626 48.6021 115.25C47.9271 114.863 47.3959 114.32 47.0085 113.623C46.6323 112.915 46.4441 112.091 46.4441 111.15C46.4441 110.209 46.6323 109.385 47.0085 108.676C47.3848 107.968 47.9105 107.426 48.5855 107.05C49.2606 106.673 50.0297 106.485 50.8929 106.485C51.7561 106.485 52.5087 106.673 53.1505 107.05C53.8035 107.426 54.3015 107.935 54.6445 108.577C54.9987 109.208 55.1757 109.91 55.1757 110.685ZM53.9971 110.652C54.0082 109.977 53.8699 109.401 53.5821 108.925C53.3055 108.45 52.9237 108.09 52.4367 107.846C51.9498 107.603 51.4186 107.481 50.8431 107.481C49.9799 107.481 49.244 107.758 48.6353 108.311C48.0267 108.865 47.6891 109.645 47.6227 110.652H53.9971ZM61.2193 106.452C62.3038 106.452 63.1892 106.79 63.8753 107.465C64.5614 108.129 64.9045 109.097 64.9045 110.37V115.682H63.7591V110.502C63.7591 109.518 63.5101 108.765 63.0121 108.245C62.5252 107.725 61.8556 107.465 61.0035 107.465C60.1292 107.465 59.432 107.741 58.9119 108.295C58.3918 108.848 58.1317 109.661 58.1317 110.735V115.682H56.9697V106.618H58.1317V108.162C58.4194 107.609 58.8344 107.188 59.3767 106.9C59.919 106.601 60.5332 106.452 61.2193 106.452ZM68.653 107.597V113.225C68.653 113.778 68.7581 114.16 68.9684 114.37C69.1787 114.581 69.5494 114.686 70.0806 114.686H71.143V115.682H69.898C69.0791 115.682 68.4704 115.494 68.072 115.117C67.6736 114.73 67.4744 114.099 67.4744 113.225V107.597H66.2128V106.618H67.4744V104.344H68.653V106.618H71.143V107.597H68.653ZM72.1962 111.133C72.1962 110.204 72.3788 109.39 72.744 108.693C73.1202 107.985 73.6348 107.443 74.2878 107.066C74.9518 106.679 75.6988 106.485 76.5288 106.485C77.392 106.485 78.1334 106.684 78.7532 107.083C79.384 107.481 79.8377 107.99 80.1144 108.61V106.618H81.2764V115.682H80.1144V113.673C79.8266 114.293 79.3674 114.807 78.7366 115.217C78.1168 115.615 77.3754 115.814 76.5122 115.814C75.6932 115.814 74.9518 115.621 74.2878 115.233C73.6348 114.846 73.1202 114.298 72.744 113.59C72.3788 112.882 72.1962 112.063 72.1962 111.133ZM80.1144 111.15C80.1144 110.419 79.965 109.778 79.6662 109.224C79.3674 108.671 78.9579 108.245 78.4378 107.946C77.9287 107.647 77.3643 107.498 76.7446 107.498C76.1027 107.498 75.5272 107.642 75.0182 107.929C74.5091 108.217 74.1052 108.638 73.8064 109.191C73.5186 109.733 73.3748 110.381 73.3748 111.133C73.3748 111.875 73.5186 112.528 73.8064 113.092C74.1052 113.645 74.5091 114.071 75.0182 114.37C75.5272 114.658 76.1027 114.802 76.7446 114.802C77.3643 114.802 77.9287 114.652 78.4378 114.354C78.9579 114.055 79.3674 113.629 79.6662 113.075C79.965 112.522 80.1144 111.88 80.1144 111.15Z" fill="#2E2527"/>
<path d="M102.797 109.872C102.797 108.732 103.046 107.714 103.544 106.817C104.042 105.91 104.722 105.207 105.586 104.709C106.449 104.2 107.412 103.945 108.474 103.945C109.769 103.945 110.875 104.255 111.794 104.875C112.724 105.484 113.399 106.347 113.819 107.465H112.458C112.126 106.679 111.617 106.065 110.931 105.622C110.256 105.179 109.437 104.958 108.474 104.958C107.622 104.958 106.853 105.157 106.167 105.556C105.492 105.954 104.96 106.53 104.573 107.282C104.186 108.024 103.992 108.887 103.992 109.872C103.992 110.857 104.186 111.72 104.573 112.461C104.96 113.203 105.492 113.773 106.167 114.171C106.853 114.569 107.622 114.769 108.474 114.769C109.437 114.769 110.256 114.553 110.931 114.121C111.617 113.679 112.126 113.07 112.458 112.295H113.819C113.399 113.402 112.724 114.26 111.794 114.868C110.864 115.477 109.758 115.781 108.474 115.781C107.412 115.781 106.449 115.532 105.586 115.034C104.722 114.525 104.042 113.822 103.544 112.926C103.046 112.03 102.797 111.012 102.797 109.872ZM119.77 115.814C118.918 115.814 118.149 115.626 117.463 115.25C116.788 114.863 116.251 114.32 115.852 113.623C115.465 112.915 115.271 112.091 115.271 111.15C115.271 110.209 115.471 109.39 115.869 108.693C116.267 107.985 116.81 107.443 117.496 107.066C118.182 106.679 118.951 106.485 119.803 106.485C120.655 106.485 121.425 106.679 122.111 107.066C122.808 107.443 123.35 107.985 123.737 108.693C124.136 109.39 124.335 110.209 124.335 111.15C124.335 112.079 124.136 112.898 123.737 113.607C123.339 114.315 122.791 114.863 122.094 115.25C121.397 115.626 120.622 115.814 119.77 115.814ZM119.77 114.802C120.368 114.802 120.921 114.669 121.43 114.403C121.939 114.127 122.349 113.717 122.658 113.175C122.979 112.622 123.14 111.947 123.14 111.15C123.14 110.353 122.985 109.684 122.675 109.141C122.365 108.588 121.956 108.178 121.447 107.913C120.938 107.636 120.384 107.498 119.787 107.498C119.189 107.498 118.636 107.636 118.127 107.913C117.618 108.178 117.208 108.588 116.898 109.141C116.599 109.684 116.45 110.353 116.45 111.15C116.45 111.947 116.599 112.622 116.898 113.175C117.208 113.717 117.612 114.127 118.11 114.403C118.619 114.669 119.172 114.802 119.77 114.802ZM130.089 115.814C129.236 115.814 128.467 115.626 127.781 115.25C127.106 114.863 126.569 114.32 126.171 113.623C125.784 112.915 125.59 112.091 125.59 111.15C125.59 110.209 125.789 109.39 126.188 108.693C126.586 107.985 127.128 107.443 127.814 107.066C128.501 106.679 129.27 106.485 130.122 106.485C130.974 106.485 131.743 106.679 132.429 107.066C133.126 107.443 133.669 107.985 134.056 108.693C134.454 109.39 134.654 110.209 134.654 111.15C134.654 112.079 134.454 112.898 134.056 113.607C133.658 114.315 133.11 114.863 132.413 115.25C131.715 115.626 130.941 115.814 130.089 115.814ZM130.089 114.802C130.686 114.802 131.24 114.669 131.749 114.403C132.258 114.127 132.667 113.717 132.977 113.175C133.298 112.622 133.458 111.947 133.458 111.15C133.458 110.353 133.303 109.684 132.994 109.141C132.684 108.588 132.274 108.178 131.765 107.913C131.256 107.636 130.703 107.498 130.105 107.498C129.508 107.498 128.954 107.636 128.445 107.913C127.936 108.178 127.527 108.588 127.217 109.141C126.918 109.684 126.769 110.353 126.769 111.15C126.769 111.947 126.918 112.622 127.217 113.175C127.527 113.717 127.931 114.127 128.429 114.403C128.938 114.669 129.491 114.802 130.089 114.802ZM141.337 115.682L137.602 111.615V115.682H136.44V103.398H137.602V110.668L141.254 106.618H142.881L138.581 111.133L142.914 115.682H141.337ZM144.665 104.908C144.432 104.908 144.233 104.825 144.067 104.659C143.901 104.493 143.818 104.289 143.818 104.045C143.818 103.802 143.901 103.602 144.067 103.447C144.233 103.281 144.432 103.198 144.665 103.198C144.897 103.198 145.096 103.281 145.262 103.447C145.428 103.602 145.511 103.802 145.511 104.045C145.511 104.289 145.428 104.493 145.262 104.659C145.096 104.825 144.897 104.908 144.665 104.908ZM145.246 106.618V115.682H144.084V106.618H145.246ZM155.745 110.685C155.745 111.083 155.734 111.388 155.712 111.598H148.192C148.226 112.284 148.392 112.871 148.69 113.358C148.989 113.845 149.382 114.215 149.869 114.47C150.356 114.713 150.887 114.835 151.463 114.835C152.215 114.835 152.846 114.652 153.355 114.287C153.875 113.922 154.218 113.43 154.384 112.81H155.613C155.391 113.695 154.915 114.42 154.185 114.984C153.466 115.538 152.558 115.814 151.463 115.814C150.61 115.814 149.847 115.626 149.172 115.25C148.497 114.863 147.965 114.32 147.578 113.623C147.202 112.915 147.014 112.091 147.014 111.15C147.014 110.209 147.202 109.385 147.578 108.676C147.954 107.968 148.48 107.426 149.155 107.05C149.83 106.673 150.599 106.485 151.463 106.485C152.326 106.485 153.078 106.673 153.72 107.05C154.373 107.426 154.871 107.935 155.214 108.577C155.568 109.208 155.745 109.91 155.745 110.685ZM154.567 110.652C154.578 109.977 154.439 109.401 154.152 108.925C153.875 108.45 153.493 108.09 153.006 107.846C152.519 107.603 151.988 107.481 151.413 107.481C150.55 107.481 149.814 107.758 149.205 108.311C148.596 108.865 148.259 109.645 148.192 110.652H154.567ZM160.66 115.814C159.62 115.814 158.768 115.577 158.104 115.101C157.451 114.614 157.086 113.955 157.008 113.125H158.203C158.259 113.634 158.497 114.049 158.917 114.37C159.349 114.68 159.924 114.835 160.644 114.835C161.274 114.835 161.767 114.686 162.121 114.387C162.486 114.088 162.669 113.717 162.669 113.275C162.669 112.965 162.569 112.71 162.37 112.511C162.171 112.312 161.916 112.157 161.606 112.046C161.308 111.925 160.898 111.797 160.378 111.664C159.703 111.487 159.155 111.31 158.735 111.133C158.314 110.956 157.954 110.696 157.656 110.353C157.368 109.999 157.224 109.529 157.224 108.942C157.224 108.499 157.357 108.09 157.622 107.714C157.888 107.337 158.264 107.039 158.751 106.817C159.238 106.596 159.791 106.485 160.411 106.485C161.385 106.485 162.171 106.734 162.768 107.232C163.366 107.719 163.687 108.394 163.731 109.257H162.569C162.536 108.726 162.326 108.3 161.938 107.979C161.562 107.647 161.042 107.481 160.378 107.481C159.791 107.481 159.316 107.62 158.95 107.896C158.585 108.173 158.403 108.516 158.403 108.925C158.403 109.28 158.508 109.573 158.718 109.805C158.939 110.027 159.21 110.204 159.531 110.336C159.852 110.458 160.284 110.597 160.826 110.751C161.479 110.929 161.999 111.1 162.387 111.266C162.774 111.432 163.106 111.676 163.383 111.996C163.659 112.317 163.803 112.743 163.814 113.275C163.814 113.762 163.681 114.199 163.416 114.586C163.15 114.962 162.779 115.261 162.304 115.482C161.828 115.704 161.28 115.814 160.66 115.814Z" fill="#2E2527"/>
<path d="M192.748 107.415C192.748 108.411 192.422 109.213 191.769 109.822C191.116 110.431 190.136 110.735 188.831 110.735H186.49V115.682H185.328V104.078H188.831C190.125 104.078 191.099 104.383 191.752 104.991C192.416 105.6 192.748 106.408 192.748 107.415ZM188.831 109.739C190.646 109.739 191.553 108.964 191.553 107.415C191.553 106.64 191.337 106.054 190.906 105.655C190.474 105.257 189.782 105.058 188.831 105.058H186.49V109.739H188.831ZM195.528 108.228C195.782 107.664 196.17 107.227 196.69 106.917C197.221 106.607 197.869 106.452 198.632 106.452V107.664H198.317C197.476 107.664 196.801 107.891 196.292 108.344C195.782 108.798 195.528 109.556 195.528 110.619V115.682H194.366V106.618H195.528V108.228ZM208.249 110.685C208.249 111.083 208.238 111.388 208.215 111.598H200.696C200.729 112.284 200.895 112.871 201.194 113.358C201.492 113.845 201.885 114.215 202.372 114.47C202.859 114.713 203.39 114.835 203.966 114.835C204.718 114.835 205.349 114.652 205.858 114.287C206.378 113.922 206.721 113.43 206.887 112.81H208.116C207.894 113.695 207.419 114.42 206.688 114.984C205.969 115.538 205.061 115.814 203.966 115.814C203.114 115.814 202.35 115.626 201.675 115.25C201 114.863 200.469 114.32 200.081 113.623C199.705 112.915 199.517 112.091 199.517 111.15C199.517 110.209 199.705 109.385 200.081 108.676C200.458 107.968 200.983 107.426 201.658 107.05C202.333 106.673 203.103 106.485 203.966 106.485C204.829 106.485 205.582 106.673 206.223 107.05C206.876 107.426 207.374 107.935 207.717 108.577C208.072 109.208 208.249 109.91 208.249 110.685ZM207.07 110.652C207.081 109.977 206.943 109.401 206.655 108.925C206.378 108.45 205.997 108.09 205.51 107.846C205.023 107.603 204.491 107.481 203.916 107.481C203.053 107.481 202.317 107.758 201.708 108.311C201.1 108.865 200.762 109.645 200.696 110.652H207.07ZM214.292 106.452C215.377 106.452 216.262 106.79 216.948 107.465C217.634 108.129 217.977 109.097 217.977 110.37V115.682H216.832V110.502C216.832 109.518 216.583 108.765 216.085 108.245C215.598 107.725 214.928 107.465 214.076 107.465C213.202 107.465 212.505 107.741 211.985 108.295C211.465 108.848 211.205 109.661 211.205 110.735V115.682H210.043V106.618H211.205V108.162C211.492 107.609 211.907 107.188 212.45 106.9C212.992 106.601 213.606 106.452 214.292 106.452ZM223.336 115.814C222.296 115.814 221.444 115.577 220.78 115.101C220.127 114.614 219.762 113.955 219.684 113.125H220.879C220.935 113.634 221.173 114.049 221.593 114.37C222.025 114.68 222.6 114.835 223.319 114.835C223.95 114.835 224.443 114.686 224.797 114.387C225.162 114.088 225.345 113.717 225.345 113.275C225.345 112.965 225.245 112.71 225.046 112.511C224.847 112.312 224.592 112.157 224.282 112.046C223.983 111.925 223.574 111.797 223.054 111.664C222.379 111.487 221.831 111.31 221.41 111.133C220.99 110.956 220.63 110.696 220.331 110.353C220.044 109.999 219.9 109.529 219.9 108.942C219.9 108.499 220.033 108.09 220.298 107.714C220.564 107.337 220.94 107.039 221.427 106.817C221.914 106.596 222.467 106.485 223.087 106.485C224.061 106.485 224.847 106.734 225.444 107.232C226.042 107.719 226.363 108.394 226.407 109.257H225.245C225.212 108.726 225.002 108.3 224.614 107.979C224.238 107.647 223.718 107.481 223.054 107.481C222.467 107.481 221.991 107.62 221.626 107.896C221.261 108.173 221.078 108.516 221.078 108.925C221.078 109.28 221.184 109.573 221.394 109.805C221.615 110.027 221.886 110.204 222.207 110.336C222.528 110.458 222.96 110.597 223.502 110.751C224.155 110.929 224.675 111.1 225.062 111.266C225.45 111.432 225.782 111.676 226.058 111.996C226.335 112.317 226.479 112.743 226.49 113.275C226.49 113.762 226.357 114.199 226.092 114.586C225.826 114.962 225.455 115.261 224.979 115.482C224.504 115.704 223.956 115.814 223.336 115.814ZM227.814 111.133C227.814 110.204 227.997 109.39 228.362 108.693C228.738 107.985 229.253 107.443 229.906 107.066C230.57 106.679 231.317 106.485 232.147 106.485C233.01 106.485 233.751 106.684 234.371 107.083C235.002 107.481 235.456 107.99 235.732 108.61V106.618H236.894V115.682H235.732V113.673C235.445 114.293 234.985 114.807 234.355 115.217C233.735 115.615 232.993 115.814 232.13 115.814C231.311 115.814 230.57 115.621 229.906 115.233C229.253 114.846 228.738 114.298 228.362 113.59C227.997 112.882 227.814 112.063 227.814 111.133ZM235.732 111.15C235.732 110.419 235.583 109.778 235.284 109.224C234.985 108.671 234.576 108.245 234.056 107.946C233.547 107.647 232.982 107.498 232.363 107.498C231.721 107.498 231.145 107.642 230.636 107.929C230.127 108.217 229.723 108.638 229.424 109.191C229.137 109.733 228.993 110.381 228.993 111.133C228.993 111.875 229.137 112.528 229.424 113.092C229.723 113.645 230.127 114.071 230.636 114.37C231.145 114.658 231.721 114.802 232.363 114.802C232.982 114.802 233.547 114.652 234.056 114.354C234.576 114.055 234.985 113.629 235.284 113.075C235.583 112.522 235.732 111.88 235.732 111.15Z" fill="#2E2527"/>
</g>
<defs>
<clipPath id="clip0_7959_280">
<rect width="262" height="26" fill="white" transform="translate(0 0.681641)"/>
</clipPath>
<clipPath id="clip1_7959_280">
<rect width="262" height="26" fill="white" transform="translate(0 48.6816)"/>
</clipPath>
<clipPath id="clip2_7959_280">
<rect width="262" height="26" fill="white" transform="translate(0 96.6816)"/>
</clipPath>
</defs>
</svg>
